<svg width="93" height="124" viewBox="0 0 93 124" fill="none" xmlns="http://www.w3.org/2000/svg">
<path fill-rule="evenodd" clip-rule="evenodd" d="M32.7223 41.3332C27.3678 43.4625 20.4163 43.6817 22.3264 36.9807C24.2365 30.3423 23.7668 24.8938 14.686 19.1635C14.4042 18.913 13.9658 18.913 13.7153 19.1948C9.01831 24.111 8.01629 30.3423 11.9304 36.0726C19.383 47.0948 8.5173 46.1868 12.1809 54.7979C12.7446 54.7979 15.6567 52.9817 20.7607 52.9817H71.7072C76.8112 52.9817 79.7234 54.7979 80.287 54.7979C83.9506 46.1868 73.085 47.0948 80.5375 36.0726C84.4203 30.3423 83.4183 24.111 78.7527 19.1948C78.5022 18.913 78.0638 18.913 77.7819 19.1635C68.7011 24.9252 68.2314 30.3423 70.1415 36.9807C72.083 43.6817 65.1001 43.4625 59.7456 41.3332C48.0971 36.6989 57.0213 35.0393 59.589 24.5807C62.3759 13.3393 53.7961 6.70091 46.2183 3.31909C38.6405 6.70091 30.0607 13.3393 32.8476 24.5807C35.4466 35.0393 44.3395 36.6989 32.7223 41.3332ZM46.2183 29.1837C43.6506 29.1837 41.584 25.9585 41.584 21.9817C41.584 18.0049 43.6506 14.7797 46.2183 14.7797C48.786 14.7797 50.8527 18.0049 50.8527 21.9817C50.8527 25.9585 48.786 29.1837 46.2183 29.1837Z" fill="#F9A035"/>
<path fill-rule="evenodd" clip-rule="evenodd" d="M75.4959 68.1061C75.4959 65.2879 81.602 65.2879 81.602 68.1061C81.5707 70.9556 75.4959 70.9556 75.4959 68.1061ZM74.8697 61.1232C74.8697 59.1192 79.1596 59.1192 79.1596 61.1232C79.1596 63.1273 74.8697 63.1273 74.8697 61.1232ZM16.4707 67.198C20.4788 67.198 20.4788 71.4879 16.4707 71.4879C12.4626 71.4879 12.4626 67.198 16.4707 67.198ZM73.3353 75.4646C70.4858 75.4646 70.4858 72.4273 73.3353 72.4273C76.1848 72.4273 76.1848 75.4646 73.3353 75.4646ZM54.1717 60.5283C54.1717 62.5323 49.8818 62.5323 49.8818 60.5283C49.8818 58.5556 54.1717 58.5556 54.1717 60.5283ZM28.2757 70.8303C31.1252 70.8303 31.1252 73.8677 28.2757 73.8677C25.4576 73.8677 25.4576 70.8303 28.2757 70.8303ZM65.1626 67.2606C62.3131 67.2606 62.3131 64.2232 65.1626 64.2232C68.0121 64.2232 68.0121 67.2606 65.1626 67.2606ZM67.5424 62.7202C63.5343 62.7202 63.5343 58.4303 67.5424 58.4303C71.5818 58.4303 71.5818 62.7202 67.5424 62.7202ZM57.4283 72.2394C53.4202 72.2394 53.4202 67.9495 57.4283 67.9495C61.4676 67.9495 61.4676 72.2394 57.4283 72.2394ZM20.9171 58.3364C23.7666 58.3364 23.7666 61.3737 20.9171 61.3737C18.0677 61.3737 18.0677 58.3364 20.9171 58.3364ZM40.3 62.5636C40.3 64.5677 36.0101 64.5677 36.0101 62.5636C36.0101 60.5596 40.3 60.5596 40.3 62.5636ZM71.707 55.7061H20.7606C11.0848 55.7061 3.1626 63.6283 3.1626 73.304V75.7465C3.1626 77.1556 4.32118 78.3141 5.73027 78.3141H86.7374C88.1464 78.3141 89.305 77.1556 89.305 75.7465V73.304C89.305 63.6283 81.3828 55.7061 71.707 55.7061Z" fill="#F5BA38"/>
<path fill-rule="evenodd" clip-rule="evenodd" d="M87.1757 81.0383H5.26058C4.10199 81.0383 3.1626 81.9777 3.1626 83.1363V84.2636C3.1626 85.4222 4.10199 86.3616 5.26058 86.3616C9.23734 86.3616 8.92421 88.1777 9.86361 87.0191C12.0555 84.2949 13.2767 84.7333 14.6232 86.3616C15.1868 87.0191 15.9697 87.9898 19.3515 86.2363C23.1091 84.2949 22.4828 92.3737 24.5182 92.3737C25.7707 92.3737 25.3636 89.8373 26.7727 87.7707C29.0272 84.3575 33.9434 84.608 37.0434 86.6121C37.7636 87.0818 38.3899 87.6767 38.9535 88.303C40.9262 90.4636 39.9868 90.1818 41.3333 88.1777C42.8676 85.8606 45.4353 85.9545 47.8151 86.8313C49.2242 87.3636 50.1949 88.5535 50.9464 89.7121C51.4474 85.1717 54.2969 86.4242 56.8333 86.8313C62.1878 87.6767 65.1939 84.107 67.8555 88.9606C69.3272 91.6222 68.4505 90.4323 70.0474 88.71C72.6464 85.9545 74.8383 85.4222 76.1848 89.2424C76.999 91.4969 77.3434 94.409 78.9404 94.409C82.3535 94.409 78.2828 86.3616 87.0505 86.3616C88.3656 86.3616 89.2737 85.4222 89.2737 84.3575C89.305 82.8858 89.2111 81.0383 87.1757 81.0383Z" fill="#709A16"/>
<path fill-rule="evenodd" clip-rule="evenodd" d="M22.42 94.4716C20.823 93.2817 20.4473 90.8393 19.8523 89.0545C16.2826 90.6201 13.8715 90.0565 13.1513 88.8353C12.3372 87.4575 12.3372 87.8019 11.617 88.6474C8.89272 92.0292 9.36242 89.3363 5.2604 89.1171C2.8806 88.9918 2.91191 92.2484 3.3503 93.2191C3.66343 93.9706 4.44626 94.4716 5.2604 94.4716H22.42ZM43.2745 90.1817C40.018 96.9454 39.016 91.1838 35.5402 88.9292C33.6301 87.708 30.1857 87.1757 28.9018 89.5242C28.0877 90.9959 28.1816 93.3757 26.8038 94.5029H45.4351C50.0382 94.5343 52.6372 94.8787 55.7058 98.6989C57.1463 100.484 61.4362 106.183 63.8786 106.245C65.7887 106.277 68.0119 103.709 71.8947 98.1039C73.116 96.3191 74.1493 95.3797 75.2766 94.9413C74.619 93.7514 74.118 91.81 73.7422 90.5262C73.3038 89.0858 73.1473 89.1484 71.8008 90.5888C70.9867 91.4656 69.4523 98.9807 66.1644 91.6848C65.7261 90.7454 65.0685 89.2736 64.724 89.211C62.6261 88.804 60.3715 90.3696 55.3614 89.3676C53.7018 89.0231 53.7018 89.0231 53.6079 90.8706C53.5452 92.1231 53.4826 93.407 52.5745 93.9706C50.1008 95.5676 48.8483 90.1504 46.8755 89.4302C45.2786 88.804 44.0261 88.6474 43.2745 90.1817ZM87.0816 89.1171C83.0735 89.1171 83.6685 92.0605 82.9483 94.4716H87.2069C88.3654 94.4716 89.3048 93.5322 89.3048 92.3736C89.3048 90.5262 89.2422 89.305 87.0816 89.1171Z" fill="#FFB551"/>
<path fill-rule="evenodd" clip-rule="evenodd" d="M86.7687 97.1959L79.1283 97.1646C74.901 97.1959 75.1515 98.3232 72.0202 102.55C77.0616 102.55 82.1343 102.55 87.1757 102.55C89.7434 102.55 89.7121 98.8555 88.6788 97.8848C88.1151 97.3212 87.5202 97.3212 86.7687 97.1959ZM55.3929 102.55C54.8293 101.862 54.2343 101.141 53.6081 100.39C50.3828 96.4444 46.2495 97.2272 41.7717 97.2272H5.69896C3.47573 97.5717 3.1626 97.8848 3.1626 100.452C3.1626 101.611 4.1333 102.55 5.26058 102.55H55.3929Z" fill="#ED141F"/>
<path fill-rule="evenodd" clip-rule="evenodd" d="M57.8041 105.306H9.6758C6.07479 105.306 3.16267 108.249 3.16267 111.819C3.16267 114.606 2.88085 116.798 5.07277 118.99C6.26267 120.18 7.89095 120.9 9.6758 120.9H82.7607C86.3617 120.9 89.2738 117.956 89.2738 114.387C89.2738 111.6 89.5556 109.408 87.3637 107.216C86.1738 106.026 84.5455 105.306 82.7607 105.306H69.8283C65.4132 110.316 62.2819 109.972 57.8041 105.306Z" fill="#F5BA38"/>
</svg>
