<svg width="151" height="124" viewBox="0 0 151 124" fill="none" xmlns="http://www.w3.org/2000/svg">
<g clip-path="url(#clip0_1_4577)">
<g opacity="0.17">
<g opacity="0.17">
<path opacity="0.17" d="M85.0192 124C121.457 124 150.995 123.402 150.995 122.663C150.995 121.925 121.457 121.327 85.0192 121.327C48.5815 121.327 19.043 121.925 19.043 122.663C19.043 123.402 48.5815 124 85.0192 124Z" fill="#174D6A"/>
</g>
</g>
<path d="M89.7196 102.776L88.7076 105.926L84.4277 106.568L85.6289 101.218L89.7196 102.776Z" fill="#F7D2AF"/>
<path d="M101.779 102.705L100.55 105.893L96.3125 106.568L97.7975 101.033L101.779 102.705Z" fill="#F7D2AF"/>
<path d="M103.084 48.989L107.955 49.3904L105.922 52.5122L99.8447 51.9029L103.084 48.989Z" fill="#F7D2AF"/>
<path d="M72.473 36.5492C73.1493 38.4052 78.8621 49.1447 81.0375 50.5757C83.2129 52.0067 101.226 52.8048 101.652 52.5073C102.621 50.9771 104.48 48.5874 104.48 48.5874C104.48 48.5874 88.7271 45.664 85.0383 44.5306C81.3496 43.3971 80.3849 29.262 79.7606 27.5665C78.7486 24.8273 67.7438 23.5853 72.473 36.5492Z" fill="#B0284B"/>
<path d="M96.2363 106.271L95.5742 108.868L110.471 109.104C108.437 105.869 101.58 105.133 101.58 105.133L96.2363 106.271Z" fill="#952D4B"/>
<path d="M78.2846 83.5262C78.2846 83.5262 84.1535 80.5178 82.8482 73.7029C82.4605 71.6675 81.4059 69.4194 80.1526 69.4194H39.482C36.8952 69.4194 35.8926 75.2284 35.8926 77.9865H60.5882L78.2846 83.5262Z" fill="#174D6A"/>
<path d="M43.7005 122.097C51.7449 122.097 58.2662 115.584 58.2662 107.551C58.2662 99.5171 51.7449 93.0046 43.7005 93.0046C35.6561 93.0046 29.1348 99.5171 29.1348 107.551C29.1348 115.584 35.6561 122.097 43.7005 122.097Z" fill="#174D6A"/>
<path d="M35.4911 107.433C35.4249 111.962 39.0474 115.688 43.5827 115.75C48.1179 115.816 51.8492 112.198 51.9107 107.669C51.9769 103.14 48.3544 99.4136 43.8191 99.3522C39.2839 99.2861 35.5573 102.904 35.4911 107.433Z" fill="#FAFAFA"/>
<path d="M37.5338 107.461C37.4865 110.866 40.2058 113.662 43.6155 113.714C47.0252 113.761 49.8248 111.045 49.8768 107.64C49.9241 104.235 47.2049 101.439 43.7952 101.387C40.3855 101.34 37.5811 104.056 37.5338 107.461Z" fill="#DDDDDD"/>
<path d="M131.852 122.097C139.896 122.097 146.418 115.584 146.418 107.551C146.418 99.5171 139.896 93.0046 131.852 93.0046C123.807 93.0046 117.286 99.5171 117.286 107.551C117.286 115.584 123.807 122.097 131.852 122.097Z" fill="#174D6A"/>
<path d="M123.642 107.433C123.576 111.962 127.199 115.688 131.734 115.75C136.269 115.816 140.001 112.198 140.062 107.669C140.128 103.14 136.506 99.4136 131.971 99.3522C127.435 99.2861 123.709 102.904 123.642 107.433Z" fill="#FAFAFA"/>
<path d="M125.685 107.461C125.638 110.866 128.357 113.662 131.767 113.714C135.177 113.761 137.976 111.045 138.028 107.64C138.076 104.235 135.356 101.439 131.947 101.387C128.537 101.34 125.732 104.056 125.685 107.461Z" fill="#DDDDDD"/>
<path d="M120.667 96.4384C120.714 96.4714 124.464 101.869 124.989 102.635C126.247 104.467 127.477 106.262 128.541 107.815C129.534 109.265 131.213 109.813 132.296 109.039C133.322 108.307 133.455 106.644 132.608 105.218L127.018 95.8055C126.101 94.2565 123.164 89.6896 121.66 89.3118L122.615 92.3013L120.667 96.4384Z" fill="#6189B5"/>
<path d="M26.9263 94.804C26.2926 97.1464 25.2664 99.3661 24.2449 101.567C23.876 102.37 23.5024 103.173 23.0106 103.909C22.4053 104.811 21.6344 105.591 21.0527 106.507C21.8567 107.031 22.9349 106.729 23.7862 106.29C27.1581 104.542 29.3335 100.726 29.1159 96.9386C29.0781 96.2538 28.9551 95.5501 28.5721 94.9834" fill="#174D6A"/>
<path d="M124.621 86.2938C124.621 86.2938 141.177 84.348 145.103 94.4972C145.292 94.9931 144.852 95.4984 144.332 95.3803C128.442 91.7627 115.985 105.015 115.985 105.015L124.621 86.2938Z" fill="#F9A035"/>
<path d="M64.187 101.043C64.1066 101.085 54.5253 101.647 53.1728 101.718C49.9286 101.883 46.7601 102.034 44.0125 102.167C41.4493 102.29 39.4678 104.599 39.5765 107.329V107.333C39.6806 109.917 41.6243 111.981 44.0456 112.084L60.0111 112.755C62.6358 112.864 70.5571 112.802 72.1981 110.616L67.7669 108.977L64.187 101.043Z" fill="#6189B5"/>
<path d="M118.662 46.8447C118.662 46.8447 121.949 47.5531 122.389 52.2286C122.828 56.8994 118.686 58.6988 118.686 58.6988L118.662 46.8447Z" fill="white"/>
<path d="M118.521 58.9538L118.497 46.6416L118.696 46.6841C118.729 46.6936 119.571 46.8777 120.469 47.6617C121.292 48.3748 122.323 49.7444 122.555 52.2144C122.786 54.6891 121.741 56.361 120.824 57.3339C119.831 58.3823 118.795 58.8357 118.752 58.8546L118.521 58.9538ZM118.828 47.0666L118.852 58.4295C119.206 58.2359 119.916 57.8061 120.592 57.0883C121.855 55.7518 122.403 54.1224 122.224 52.238C122.001 49.8908 121.037 48.5921 120.266 47.9167C119.684 47.4114 119.121 47.1658 118.828 47.0666Z" fill="#FFB551"/>
<path d="M112.384 38.7925C112.436 36.3151 111.468 34.2858 110.222 34.26C108.977 34.2341 107.925 36.2215 107.874 38.6989C107.822 41.1763 108.79 43.2055 110.036 43.2314C111.281 43.2572 112.333 41.2699 112.384 38.7925Z" fill="#174D6A"/>
<path d="M24.0419 93.8123L24.2264 91.6729L70.9739 97.274C73.6837 97.6141 75.5706 100.315 75.0929 103.182L74.8754 104.481L25.1438 96.7687C23.6541 96.542 23.9048 95.4085 24.0419 93.8123Z" fill="#FFB551"/>
<path d="M114.903 59.2657L118.913 59.771C119.201 59.8088 119.461 59.5963 119.48 59.3082C119.48 59.3082 119.485 45.6831 119.012 45.4801C115.702 44.0632 107.487 47.5722 107.487 47.5722C105.652 47.7375 104.163 49.3007 104.021 51.204C104.021 51.2182 104.021 51.2323 104.021 51.2465L104.002 57.8867C104.002 57.9575 104.016 58.0283 104.045 58.0945C107.464 58.8029 110.888 59.4404 114.34 59.8938C114.269 59.5585 114.538 59.2185 114.903 59.2657Z" fill="#F9A035"/>
<path d="M126.172 80.06C125.916 79.1816 118.548 67.0442 114.406 60.0262C114.377 59.979 114.358 59.9318 114.349 59.8846C110.897 59.4312 107.478 58.7936 104.054 58.0852C104.073 58.1277 104.096 58.1655 104.125 58.1986C104.29 58.4016 104.626 58.8172 105.07 59.4028C106.872 61.7737 110.462 66.9025 111.696 71.5544C113.545 78.4968 113.956 85.0142 113.819 91.3663C113.692 97.1469 108.244 106.436 107.265 108.056C107.175 108.208 107.009 108.302 106.83 108.302H81.9591C81.7321 108.302 81.5382 108.156 81.472 107.938C81.1078 106.706 79.8452 102.432 77.9914 96.3723C76.3456 90.9979 78.0812 87.2905 78.2373 84.5278C78.2893 83.569 78.1569 82.7284 77.6272 81.9633C71.7914 73.5994 37.491 77.6184 36.3371 77.7554C36.3182 77.7601 36.2993 77.7601 36.2756 77.7648C24.4339 80.5843 23.7907 92.9531 23.7812 95.4278C23.7812 95.6781 23.961 95.8859 24.2021 95.9284L62.1204 102.342C62.2812 102.37 65.1281 108.113 65.1281 108.113C66.4239 110.852 67.5967 112.519 69.1526 113.525C70.699 114.527 72.4866 115.018 74.2979 115.051C79.5094 115.136 99.4096 115.126 102.138 114.985C105.855 114.791 108.769 115.325 112.23 113.284C115.692 111.249 125.704 95.645 126.555 89.8314C127.293 84.8536 126.602 81.5288 126.172 80.06Z" fill="#FFB551"/>
<path d="M109.582 42.873C109.624 42.958 109.662 43.0431 109.7 43.1281C109.653 43.0194 109.728 43.2036 109.733 43.2178C109.79 43.3689 109.842 43.5248 109.889 43.6806C109.974 43.9734 110.041 44.2662 110.083 44.5685C110.064 44.4315 110.093 44.6535 110.093 44.6582C110.102 44.7385 110.107 44.8188 110.112 44.9038C110.121 45.0549 110.126 45.2061 110.126 45.3572C110.126 45.5225 110.121 45.6831 110.107 45.8484C110.102 45.9192 110.097 45.99 110.088 46.0562C110.083 46.1034 110.078 46.1506 110.074 46.1978C110.083 46.1364 110.083 46.1317 110.074 46.1837C110.026 46.4954 109.96 46.8023 109.87 47.1093C109.832 47.2416 109.785 47.3785 109.738 47.5108C109.705 47.6005 109.672 47.6855 109.639 47.7705C109.686 47.6619 109.605 47.8413 109.601 47.8602C109.473 48.1342 109.331 48.4034 109.166 48.6584C108.962 48.9748 108.887 49.074 108.636 49.3479C108.381 49.6313 108.357 50.0705 108.636 50.3491C108.896 50.6089 109.383 50.6325 109.639 50.3491C111.634 48.1436 112.098 44.8377 110.807 42.1646C110.641 41.8199 110.149 41.7301 109.837 41.9096C109.483 42.108 109.412 42.5283 109.582 42.873Z" fill="#174D6A"/>
<path d="M23.4502 96.4194C23.4502 96.4194 25.758 83.7672 33.476 82.5016C41.1939 81.2359 64.2958 80.6219 67.6345 85.1321C70.9733 89.6423 70.5051 104.174 70.5051 104.174L23.4502 96.4194Z" fill="#F9A035"/>
<path d="M47.0393 78.0667C46.7603 77.1646 46.5381 76.2248 46.1786 75.3511C45.9848 74.8741 45.7388 74.4207 45.3321 74.0902C44.9302 73.769 44.4856 73.5612 43.9938 73.4054C43.1283 73.1362 42.2535 72.8953 41.3833 72.6356C40.5084 72.3758 39.6335 72.135 38.735 71.9649C37.4676 71.7288 36.1954 71.6768 34.9138 71.6438C33.8592 71.6155 32.8047 71.6013 31.7501 71.5871C29.1727 71.5588 26.6 71.5541 24.0226 71.5635C21.3365 71.5729 18.6503 71.5918 15.9642 71.6249C13.8266 71.6485 11.6938 71.6816 9.55622 71.7335C9.3576 71.7382 9.15897 71.743 8.95562 71.7477C8.46379 71.7619 7.99088 72.1727 8.01452 72.6875C8.03817 73.1834 8.43069 73.6415 8.95562 73.6273C10.9466 73.5754 12.9423 73.5423 14.9332 73.5187C17.539 73.4856 20.1448 73.462 22.7552 73.4479C25.361 73.4337 27.962 73.4337 30.5678 73.4573C32.554 73.4715 34.545 73.4856 36.5312 73.5801C36.7535 73.5895 36.9757 73.6084 37.1933 73.6273C37.3115 73.6368 37.425 73.6509 37.5385 73.6651C37.5716 73.6698 37.723 73.6934 37.548 73.6651C37.6047 73.6746 37.6615 73.684 37.7182 73.6887C38.1675 73.7596 38.6168 73.8493 39.0613 73.9532C39.922 74.1563 40.7685 74.4113 41.6198 74.6663C42.0548 74.7986 42.4899 74.9261 42.925 75.0536C43.1236 75.1103 43.3222 75.1622 43.5209 75.2236C43.6202 75.2567 43.7148 75.2897 43.8093 75.3275C43.6249 75.2567 43.8708 75.3606 43.9276 75.3936C43.9701 75.4172 44.0127 75.4456 44.0553 75.4739C44.2019 75.5589 44.0742 75.4881 44.0458 75.4597C44.1215 75.5259 44.1924 75.5967 44.2586 75.677C44.1404 75.54 44.2633 75.6959 44.3012 75.7667C44.3248 75.8092 44.3485 75.8565 44.3721 75.899C44.391 75.9415 44.4525 76.1068 44.3816 75.9178C44.5282 76.3334 44.6559 76.749 44.7836 77.1694C44.9254 77.6322 45.0673 78.0997 45.2139 78.5626C45.3605 79.0301 45.876 79.3796 46.3725 79.219C46.8549 79.0679 47.1907 78.5673 47.0393 78.0667Z" fill="#9C9B9B"/>
<path d="M25.4701 73.7832C26.0849 75.4739 26.5341 77.2261 26.7895 79.0113C26.799 79.0727 26.8084 79.1293 26.8131 79.1907C26.799 79.0916 26.799 79.0963 26.8131 79.2049C26.8321 79.3466 26.851 79.4883 26.8699 79.6299C26.903 79.8614 26.9361 80.0928 27.007 80.3147C27.13 80.7209 27.3097 81.0232 27.5935 81.3349C28.0144 81.8118 28.5819 82.2936 29.1966 82.4825C29.6648 82.6289 30.2418 82.3077 30.3553 81.826C30.4735 81.316 30.1992 80.8248 29.6979 80.6689C29.575 80.6312 29.9438 80.8059 29.7452 80.6878C29.7027 80.6642 29.6601 80.6406 29.6223 80.617C29.5608 80.5792 29.504 80.5367 29.4426 80.4942C29.2723 80.3761 29.6081 80.6359 29.4473 80.4942C29.3385 80.3998 29.2297 80.31 29.1304 80.2108C29.0406 80.1258 28.9602 79.9983 28.8609 79.9228C28.9555 80.0503 28.9744 80.0739 28.9176 79.9983C28.9034 79.9747 28.8845 79.9511 28.8703 79.9275C28.8325 79.8755 28.7379 79.8047 28.8845 79.9747C28.7805 79.8519 28.7616 79.5402 28.7332 79.3844C28.7237 79.3277 28.7143 79.271 28.7048 79.2096C28.7143 79.2994 28.719 79.3135 28.7095 79.2427C28.6906 79.0868 28.667 78.931 28.6481 78.7751C28.6197 78.5673 28.5913 78.3595 28.5582 78.1517C28.2934 76.4893 27.8677 74.86 27.2908 73.2826C27.1253 72.8197 26.6429 72.4608 26.1321 72.6261C25.6734 72.7772 25.2904 73.292 25.4701 73.7832Z" fill="#9C9B9B"/>
<path d="M41.1797 43.8319V69.788C41.1797 70.9026 40.2149 71.8093 39.0279 71.8093H9.88223C8.69521 71.8093 7.73047 70.9026 7.73047 69.788V43.8319C7.73047 42.7173 8.69521 41.8105 9.88223 41.8105H39.0279C40.2149 41.8105 41.1797 42.7173 41.1797 43.8319Z" fill="#F9A035"/>
<path d="M41.1797 43.8319V46.3774H7.73047V43.8319C7.73047 42.7173 8.69521 41.8105 9.88223 41.8105H39.0279C40.2149 41.8105 41.1797 42.7173 41.1797 43.8319Z" fill="#174D6A"/>
<path d="M41.1799 91.262C43.4877 91.4981 45.7955 91.7342 48.1033 91.9657C48.6945 92.0271 49.2856 92.0885 49.8768 92.1451C50.0659 92.164 50.2314 91.9704 50.2314 91.7909C50.2314 91.5831 50.0659 91.4556 49.8768 91.4367C47.5689 91.2006 45.2611 90.9644 42.9533 90.733C42.3622 90.6716 41.771 90.6102 41.1799 90.5535C40.9907 90.5346 40.8252 90.7283 40.8252 90.9077C40.8252 91.1155 40.986 91.2383 41.1799 91.262Z" fill="#174D6A"/>
<path d="M40.6027 92.7876C42.9106 93.0237 45.2184 93.2598 47.5262 93.4913C48.1173 93.5527 48.7085 93.6141 49.2996 93.6707C49.4888 93.6896 49.6543 93.496 49.6543 93.3165C49.6543 93.1087 49.4888 92.9812 49.2996 92.9623C46.9918 92.7262 44.684 92.49 42.3762 92.2586C41.785 92.1972 41.1939 92.1358 40.6027 92.0792C40.4136 92.0603 40.248 92.2539 40.248 92.4334C40.248 92.6412 40.4088 92.7687 40.6027 92.7876Z" fill="#174D6A"/>
<path d="M40.0266 94.313C42.3344 94.5491 44.6422 94.7852 46.95 95.0167C47.5412 95.0781 48.1323 95.1394 48.7235 95.1961C48.9126 95.215 49.0781 95.0214 49.0781 94.8419C49.0781 94.6341 48.9126 94.5066 48.7235 94.4877C46.4156 94.2516 44.1078 94.0154 41.8 93.784C41.2088 93.7226 40.6177 93.6612 40.0266 93.6046C39.8374 93.5857 39.6719 93.7793 39.6719 93.9588C39.6719 94.1666 39.8327 94.2941 40.0266 94.313Z" fill="#174D6A"/>
<path d="M31.8965 82.9691C32.1093 82.8605 32.3363 82.7849 32.568 82.714C32.795 82.6432 33.0315 82.5865 33.2632 82.5299C33.7314 82.4212 34.1996 82.3362 34.6725 82.2512C35.6183 82.0906 36.5641 81.9726 37.5147 81.8592C38.4653 81.7553 39.4205 81.6656 40.3711 81.59C41.3264 81.5145 42.2817 81.4578 43.237 81.4058C43.7146 81.3822 44.1922 81.3586 44.6699 81.3397C45.1475 81.3208 45.6252 81.3067 46.1028 81.2925C47.0581 81.2689 48.0181 81.2547 48.9734 81.25C49.9287 81.25 50.8887 81.2642 51.844 81.2878C52.7993 81.3114 53.7593 81.3539 54.7146 81.4058C55.6699 81.4672 56.6299 81.5428 57.5804 81.6467C57.8169 81.6703 58.0581 81.6987 58.2945 81.727L59.0086 81.8167C59.4815 81.8781 59.9545 81.9348 60.4321 82.0009C61.3827 82.1284 62.3379 82.2748 63.279 82.5015C63.752 82.6196 64.2201 82.7518 64.6741 82.9266C65.1329 83.1013 65.5774 83.3044 66.003 83.5547C66.8495 84.0506 67.6062 84.7212 68.1595 85.5335C68.3014 85.7319 68.4244 85.9444 68.5426 86.1569C68.5993 86.2655 68.6608 86.3694 68.7081 86.4828L68.7885 86.6481L68.8642 86.8134C68.9162 86.922 68.9587 87.0353 69.006 87.1487C69.0486 87.262 69.0959 87.3754 69.1337 87.4887L69.1952 87.6587L69.252 87.8288C69.2898 87.9421 69.3229 88.0602 69.356 88.1735C69.6161 89.1039 69.7816 90.0484 69.8904 91.0024C69.9471 91.4794 69.985 91.9517 70.0181 92.4287C70.0512 92.9057 70.0701 93.3827 70.0937 93.8597C70.0464 93.3827 69.9944 92.9104 69.9377 92.4381C69.8809 91.9659 69.8147 91.4936 69.739 91.0213C69.583 90.0815 69.3891 89.1511 69.0959 88.2538C68.9493 87.8051 68.7838 87.3659 68.5804 86.9409L68.5047 86.785L68.4244 86.6292C68.3723 86.5253 68.3108 86.4261 68.2541 86.3222C68.1311 86.1239 68.0082 85.9255 67.871 85.7413L67.819 85.6705L67.767 85.6044L67.6582 85.4674C67.5826 85.3777 67.5069 85.2927 67.4265 85.2076C67.2704 85.0376 67.1049 84.8771 66.9299 84.7259C66.58 84.4237 66.1969 84.1592 65.7949 83.9325C65.3882 83.7058 64.9626 83.5216 64.5228 83.3658C64.083 83.2099 63.6337 83.0824 63.175 82.9785C62.2576 82.766 61.3212 82.6385 60.3754 82.5251L58.9519 82.3551L58.2425 82.2654C58.0061 82.237 57.7696 82.2087 57.5331 82.1851C56.5873 82.0859 55.6415 82.0151 54.6909 81.9584C52.7898 81.8403 50.884 81.7884 48.9781 81.7742C48.0228 81.7648 47.0723 81.7648 46.117 81.7789C45.6394 81.7837 45.1617 81.7931 44.6888 81.8026C44.2112 81.812 43.7335 81.8215 43.2606 81.8356C42.783 81.8498 42.3053 81.864 41.8324 81.8828L40.4042 81.9442C39.4536 81.9915 38.4984 82.0481 37.5478 82.119C36.5972 82.1898 35.6467 82.2748 34.7009 82.3882C34.2279 82.4448 33.755 82.511 33.2869 82.5913C33.0504 82.629 32.8187 82.6763 32.5869 82.7329C32.3505 82.8132 32.1188 82.8746 31.8965 82.9691Z" fill="#174D6A"/>
<path d="M24.7984 89.9207C24.0039 89.7602 23.5404 88.5039 23.7627 87.1154C23.9802 85.7269 24.8031 84.7304 25.5929 84.891L24.7984 89.9207Z" fill="#C20E1A"/>
<path d="M24.8457 84.3953L26.8413 84.4426C26.8413 84.4426 25.5929 89.7178 24.822 90.2184C24.0512 90.719 24.2971 89.817 24.2971 89.817L25.5266 85.3163L24.7416 84.7779C24.5714 84.6645 24.647 84.3906 24.8457 84.3953Z" fill="#9C9B9B"/>
<path d="M126.787 85.7979C127.075 87.0683 127.137 88.4001 127 89.713C126.929 90.3695 126.81 91.0212 126.636 91.6588C126.55 91.9799 126.446 92.2963 126.333 92.608C126.276 92.7639 126.215 92.9197 126.148 93.0709C126.115 93.1464 126.082 93.222 126.049 93.2976L125.945 93.5195C125.396 94.7049 124.786 95.862 124.12 96.9813C123.448 98.1006 122.729 99.1915 121.911 100.207C122.531 99.0593 123.136 97.9164 123.727 96.764C124.318 95.6117 124.89 94.4546 125.43 93.2834L125.529 93.0661C125.562 92.9953 125.595 92.9197 125.623 92.8489C125.685 92.7025 125.746 92.5561 125.803 92.4097C125.917 92.1121 126.021 91.8146 126.115 91.5076C126.3 90.8984 126.446 90.2797 126.555 89.6469C126.782 88.3906 126.844 87.0966 126.787 85.7979Z" fill="#174D6A"/>
<path d="M116.657 95.3803C115.858 98.2234 110.982 109.992 107.151 110.28C103.046 110.318 90.6891 110.229 81.6139 109.992C78.4643 109.907 77.0077 101.704 75.9106 98.077C73.9905 91.7438 73.9527 84.2819 78.2373 84.5274C78.0812 87.2902 76.3456 90.9976 77.9914 96.372C79.8499 102.431 81.1126 106.71 81.472 107.938C81.5335 108.155 81.7321 108.302 81.9591 108.302H106.83C107.009 108.302 107.17 108.207 107.265 108.056C108.244 106.436 113.692 97.1466 113.819 91.366C113.956 85.0139 113.545 78.4965 111.696 71.5541C110.457 66.9022 106.409 60.8429 104.073 58.1179C106.555 59.0814 111.043 62.5384 113.063 67.1997C116.368 74.8506 118.359 89.3068 116.657 95.3803Z" fill="#F9A035"/>
<path d="M104.054 58.085C104.924 58.1558 105.789 58.2691 106.655 58.3872C107.515 58.51 108.376 58.647 109.237 58.7981C110.093 58.9492 110.949 59.1098 111.805 59.2893C112.656 59.4687 113.507 59.6576 114.354 59.8843C113.484 59.8135 112.618 59.7001 111.753 59.5821C110.892 59.4593 110.031 59.3223 109.171 59.1712C108.315 59.0201 107.459 58.8595 106.603 58.68C105.747 58.5006 104.895 58.3117 104.054 58.085Z" fill="#174D6A"/>
<path d="M117.12 45.2909C116.917 48.9794 116.95 52.682 117.21 56.3704C117.286 57.4189 117.376 58.4673 117.489 59.5158C117.522 59.8133 117.995 59.818 117.962 59.5158C117.569 55.8415 117.409 52.1436 117.475 48.4457C117.494 47.3925 117.532 46.3441 117.593 45.2909C117.607 44.9886 117.134 44.9886 117.12 45.2909Z" fill="#174D6A"/>
<path d="M128.338 88.9763C132.977 88.5182 137.877 89.1038 141.792 91.8099C142.79 92.4994 143.694 93.3212 144.469 94.2516C144.568 94.3696 144.734 94.1996 144.635 94.0863C141.684 90.5442 137.111 88.8866 132.604 88.6315C131.18 88.5513 129.757 88.5985 128.338 88.7402C128.187 88.7543 128.187 88.9905 128.338 88.9763Z" fill="#174D6A"/>
<path d="M79.8171 112.373C83.624 112.434 87.431 112.462 91.2427 112.467C95.0355 112.477 98.8282 112.467 102.621 112.462C103.581 112.462 104.541 112.458 105.501 112.458C106.385 112.458 107.279 112.491 108.168 112.453C109.053 112.415 109.885 112.023 110.594 111.513C112.273 110.309 113.536 108.552 114.624 106.823C115.333 105.69 116 104.514 116.562 103.3C116.572 103.281 116.581 103.263 116.591 103.239C116.671 103.064 116.638 102.861 116.463 102.752C116.312 102.663 116.056 102.705 115.976 102.88C115.522 103.876 114.988 104.84 114.425 105.78C113.408 107.489 112.245 109.208 110.717 110.517C110.079 111.064 109.351 111.537 108.537 111.697C108.357 111.735 108.178 111.745 107.955 111.745C107.483 111.745 107.01 111.745 106.541 111.745C105.596 111.745 104.655 111.744 103.709 111.749C99.9632 111.754 96.2177 111.763 92.4723 111.759C88.7268 111.754 84.9813 111.735 81.2358 111.683C80.7629 111.678 80.29 111.669 79.8218 111.659C79.3584 111.655 79.3584 112.363 79.8171 112.373Z" fill="#174D6A"/>
<path d="M87.2607 11.5801C87.0905 16.3406 85.7569 24.2417 80.9899 24.2417C76.2182 24.2417 72.3545 20.3785 72.3545 15.618C72.3545 10.8575 73.7922 5.81836 78.5591 5.81836C83.3261 5.81836 87.4546 6.19618 87.2607 11.5801Z" fill="#F7D2AF"/>
<path d="M78.7674 60.5077C78.7674 60.5077 98.7338 59.8843 104.011 62.8219C111.715 67.1148 101.997 104.169 101.997 104.169L95.6835 105.01L96.8894 89.033L98.3791 72.6357C98.3791 72.6357 82.527 68.7017 78.285 69.0559C74.0477 69.4101 67.7343 68.2058 68.018 66.6473C68.3018 65.0935 78.7674 60.5077 78.7674 60.5077Z" fill="#174D6A"/>
<path d="M60.7629 64.6353C60.7629 64.6353 59.0604 70.1798 63.6004 70.8882C68.1403 71.5966 91.2422 71.4549 91.2422 71.4549C91.2422 71.4549 85.5956 91.5737 83.4675 104.703C86.3948 104.198 90.7929 103.64 90.7929 103.64C90.7929 103.64 102.252 73.684 102.762 70.3215C103.268 67.0061 104.682 59.3458 80.0956 60.621C80.0956 60.621 70.661 61.7828 60.7629 64.6353Z" fill="#6189B5"/>
<path d="M84.0918 106.271L83.4297 108.868L98.3265 109.104C96.2929 105.869 89.4357 105.133 89.4357 105.133L84.0918 106.271Z" fill="#E23656"/>
<path d="M65.6153 28.2043C62.2576 33.7252 57.3582 49.074 59.0276 66.2222C61.2976 71.8895 70.7322 62.0237 80.9755 60.4652C80.9755 58.1983 77.0456 49.0976 80.025 34.188C81.5383 26.5986 78.4643 24.223 75.0783 23.7177C71.3092 23.1557 67.5873 24.9598 65.6153 28.2043Z" fill="#E23656"/>
<path d="M72.7001 18.0503C73.0169 21.0398 71.8252 24.1898 71.8252 24.1898C71.8252 24.1898 74.256 26.844 77.9731 27.9822C78.0156 25.9514 78.5548 22.0646 78.5548 22.0646C78.5548 22.0646 75.3721 20.9784 72.7001 18.0503Z" fill="#F7D2AF"/>
<path d="M98.5539 50.9536C98.5539 50.9536 97.8918 55.1946 95.1583 55.5488C95.1583 55.5488 94.047 53.7778 98.5539 50.9536Z" fill="#322B80"/>
<path d="M96.6477 51.4873L101.41 52.191L99.4852 55.8558L93.4082 55.1002L96.6477 51.4873Z" fill="#F7D2AF"/>
<path d="M67.0671 38.7454C67.7434 40.6015 73.4562 51.341 75.6316 52.772C77.807 54.2029 94.7326 55.8465 95.1582 55.5489C94.5907 53.6598 98.6247 50.9065 98.6247 50.9065C98.6247 50.9065 85.4256 48.6585 81.7369 47.525C78.0482 46.3915 74.9742 31.4583 74.35 29.7628C73.338 27.0236 62.338 25.7816 67.0671 38.7454Z" fill="#FA3C65"/>
<path d="M84.9337 15.4623C85.0803 16.1755 85.1654 16.898 85.1749 17.6253C85.1796 17.9607 85.2269 18.4282 84.7776 18.4707C84.4229 18.5038 84.0351 18.381 83.7135 18.2346C83.5764 18.1732 83.4534 18.3763 83.5953 18.4377C84.125 18.6785 85.26 19.0138 85.3972 18.1496C85.4634 17.7151 85.4066 17.2334 85.3688 16.7989C85.3262 16.3266 85.2553 15.8638 85.1607 15.4009C85.1323 15.2545 84.9006 15.3159 84.9337 15.4623Z" fill="#174D6A"/>
<path d="M80.176 19.7553C81.1975 20.4826 82.3798 20.9548 83.6189 21.1249C83.9168 21.1674 84.0445 20.7093 83.7466 20.6715C82.5406 20.5015 81.4056 20.0528 80.4172 19.3491C80.1618 19.1696 79.9254 19.5805 80.176 19.7553Z" fill="#174D6A"/>
<path d="M80.1013 19.722C80.158 19.5756 80.262 19.4481 80.3944 19.3631C80.5221 19.2781 80.4039 19.075 80.2762 19.16C80.0871 19.2828 79.9547 19.4528 79.8743 19.6606C79.8175 19.8023 80.0445 19.8637 80.1013 19.722Z" fill="#174D6A"/>
<path d="M100.294 57.0553C103.032 56.5311 105.771 55.988 108.504 55.4354C108.949 55.3457 109.407 54.9537 109.63 54.5712C109.866 54.1697 109.965 53.5747 109.819 53.1213C109.672 52.6679 109.388 52.2287 108.953 51.9973C108.49 51.7517 108.022 51.7045 107.501 51.8084C104.768 52.3609 102.035 52.9041 99.2917 53.4283C98.8471 53.5133 98.3884 53.9147 98.1661 54.2925C97.9297 54.694 97.8304 55.289 97.977 55.7424C98.1236 56.1958 98.4073 56.635 98.8424 56.8664C99.3153 57.112 99.774 57.1545 100.294 57.0553Z" fill="#174D6A"/>
<path d="M100.19 52.3089C99.8025 52.4411 99.4336 52.6536 99.1688 52.9653C98.9039 53.277 98.2939 53.8957 98.483 53.9005C98.8377 53.9052 100.294 54.0091 100.611 54.1649C100.923 54.3113 101.046 55.0717 101.297 55.3078C101.373 55.3787 101.448 55.4495 101.5 55.5345C101.548 55.6195 101.576 55.7187 101.614 55.8084C101.784 56.191 102.257 56.4035 102.654 56.2807C102.905 56.2004 103.118 56.0068 103.382 55.9926C103.652 55.9737 103.94 56.1437 104.172 56.0115C104.38 55.8934 104.451 55.5676 104.692 55.5392C104.82 55.5251 104.934 55.6006 105.052 55.6431C105.307 55.7281 105.61 55.6195 105.785 55.4117C105.96 55.2039 106.017 54.9158 105.979 54.6466C106.083 54.8403 106.187 55.0434 106.357 55.185C106.527 55.3267 106.768 55.4023 106.972 55.3125C107.118 55.2464 107.213 55.1048 107.284 54.9631C107.539 54.4294 107.487 53.7918 107.312 53.2251C107.147 52.6914 106.877 52.1955 106.527 51.761C106.409 51.6146 106.262 51.5013 106.121 51.3738C105.392 50.7268 105 51.0904 104.484 51.2841C103.974 51.4777 103.349 51.2841 102.815 51.3927C102.555 51.4446 102.361 51.9263 102.096 51.9358C101.732 51.9452 101.396 51.7327 101.056 51.8555C100.729 51.9689 100.19 52.3089 100.19 52.3089Z" fill="#F7D2AF"/>
<path d="M78.5866 18.1024C78.5866 18.1024 84.0582 16.7186 86.7208 16.4116C88.6455 19.3917 86.0398 26.3577 82.0484 25.1392C80.9938 24.8181 78.8609 24.1569 78.3502 23.3635C76.9598 21.2194 78.5866 18.1024 78.5866 18.1024Z" fill="#00D1D3"/>
<path d="M79.4715 18.2771C79.183 18.2205 78.9371 18.0882 78.6817 17.9513C78.3885 17.7954 78.1 17.6396 77.8068 17.4884C77.2393 17.1862 76.6671 16.8839 76.0996 16.5817C75.6976 16.3691 75.3382 16.9784 75.7402 17.1956C76.3361 17.512 76.9319 17.8285 77.5278 18.1449C78.0811 18.4377 78.6581 18.8391 79.2776 18.9619C79.7269 19.0517 79.9208 18.3669 79.4715 18.2771Z" fill="#00D1D3"/>
<path d="M78.568 22.7873C77.7783 22.3481 77.0594 21.8097 76.3595 21.2429C76.0427 20.9879 75.6643 20.7376 75.4184 20.407C75.1773 20.0811 75.1158 19.6561 75.0638 19.2641C75.0401 19.0752 74.9171 18.9099 74.7091 18.9099C74.5388 18.9099 74.3307 19.0752 74.3544 19.2641C74.4159 19.7222 74.4773 20.185 74.6996 20.5959C74.9361 21.0304 75.3428 21.3279 75.7211 21.6349C76.5109 22.2725 77.3148 22.9006 78.2086 23.3965C78.6106 23.6232 78.97 23.0092 78.568 22.7873Z" fill="#00D1D3"/>
<path d="M79.5615 19.9254C80.8431 20.3741 82.1767 20.6527 83.5292 20.7613C83.6805 20.7755 83.6805 20.5394 83.5292 20.5252C82.1956 20.4166 80.8856 20.1379 79.6229 19.6987C79.4763 19.6468 79.4148 19.8782 79.5615 19.9254Z" fill="#174D6A"/>
<path d="M79.3625 21.1534C80.6866 22.046 82.1668 22.6788 83.7322 23.0141C83.8788 23.0472 83.945 22.8205 83.7936 22.7875C82.252 22.4569 80.7907 21.8335 79.4807 20.9503C79.3577 20.8653 79.2395 21.0684 79.3625 21.1534Z" fill="#174D6A"/>
<path d="M86.2295 20.5771C86.5652 20.5205 86.8868 20.4307 87.1989 20.2985C87.3361 20.2418 87.2746 20.0104 87.1375 20.0718C86.8253 20.204 86.5038 20.2938 86.168 20.3504C86.0167 20.3741 86.0829 20.6055 86.2295 20.5771Z" fill="#174D6A"/>
<path d="M88.538 9.9225C88.155 12.0997 79.1034 11.1835 77.7461 11.788C76.4787 14.65 78.9379 21.2476 73.1872 20.9737C71.2625 20.9737 66.4766 15.7031 66.4766 9.93667C66.4766 4.17021 70.5389 0.769846 76.9658 0.0614365C82.7117 -0.566687 88.2022 3.54681 88.538 9.9225Z" fill="#174D6A"/>
<path d="M88.4145 8.81738C88.5421 8.85989 90.7128 11.4102 90.7128 11.4102C90.7128 11.4102 83.761 12.8128 79.3676 12.3028C74.9743 11.7927 75.3904 11.0701 75.3904 11.0701L88.4145 8.81738Z" fill="#F9A035"/>
<path fill-rule="evenodd" clip-rule="evenodd" d="M82.5974 14.4514C82.9852 14.4514 83.2974 14.8434 83.2974 15.3251C83.2974 15.8068 82.9852 16.1988 82.5974 16.1988C82.2096 16.1988 81.8975 15.8068 81.8975 15.3251C81.8928 14.8434 82.2096 14.4514 82.5974 14.4514Z" fill="#174D6A"/>
<path fill-rule="evenodd" clip-rule="evenodd" d="M86.6698 14.2532C87.0056 14.2532 87.2751 14.6027 87.2751 15.0277C87.2751 15.4575 87.0056 15.8022 86.6698 15.8022C86.334 15.8022 86.0645 15.4527 86.0645 15.0277C86.0645 14.6027 86.334 14.2532 86.6698 14.2532Z" fill="#174D6A"/>
<path d="M81.0844 14.1022C80.952 14.1022 80.8243 14.0408 80.7439 13.9228C80.6162 13.7339 80.6682 13.4835 80.8574 13.356C81.3729 13.0113 82.2241 12.709 82.9619 12.8176C83.1841 12.8507 83.3402 13.0585 83.3071 13.2805C83.274 13.5024 83.0659 13.6583 82.8436 13.6252C82.4038 13.5591 81.7607 13.7291 81.3114 14.0314C81.2405 14.0833 81.1648 14.1022 81.0844 14.1022Z" fill="#174D6A"/>
<path d="M87.2561 13.8707C87.171 13.8707 87.0859 13.8423 87.0102 13.7904C86.7879 13.6251 86.3907 13.5023 86.0833 13.5117C85.8563 13.5165 85.6718 13.337 85.6671 13.115C85.6624 12.8883 85.8421 12.7042 86.0643 12.6994C86.4758 12.69 87.0764 12.8269 87.4973 13.1434C87.677 13.2803 87.7148 13.5354 87.5777 13.7148C87.502 13.814 87.3838 13.8707 87.2561 13.8707Z" fill="#174D6A"/>
<path d="M30.9177 88.9245C31.1683 88.5703 31.3717 88.2916 31.6176 87.9988C31.75 87.843 31.8871 87.6918 32.0338 87.5502C32.1047 87.4793 32.1804 87.4085 32.256 87.3424C32.2939 87.3093 32.3317 87.2762 32.3695 87.2432C32.4736 87.1582 32.2418 87.3282 32.4357 87.1912C32.7857 86.9409 33.0931 86.7945 33.4809 86.6859C33.9396 86.5584 34.4078 86.4923 34.8807 86.4309C35.259 86.3789 35.4671 85.8925 35.3772 85.5572C35.2637 85.1463 34.8854 85.0093 34.5024 85.0613C33.4951 85.1982 32.4925 85.3872 31.6554 86.0058C30.8515 86.6009 30.265 87.3943 29.6881 88.1972C29.4658 88.5089 29.6313 88.9859 29.9435 89.1653C30.3029 89.3873 30.6954 89.2362 30.9177 88.9245Z" fill="white"/>
<path d="M37.8224 86.2467C38.1913 86.2467 38.5507 85.9208 38.5317 85.5382C38.5128 85.1557 38.2196 84.8298 37.8224 84.8298C37.4535 84.8298 37.0941 85.1557 37.113 85.5382C37.1319 85.9255 37.4251 86.2467 37.8224 86.2467Z" fill="white"/>
<path d="M141.201 90.7709C139.541 89.661 137.787 88.6457 135.763 88.452C135.394 88.4142 135.039 88.8015 135.053 89.1604C135.072 89.576 135.365 89.8311 135.763 89.8688C135.937 89.8877 136.079 89.9066 136.302 89.9538C136.529 90.0011 136.751 90.0577 136.973 90.1286C137.413 90.2655 137.739 90.4025 138.137 90.5961C138.959 90.9976 139.73 91.4934 140.487 91.9988C140.804 92.2113 141.272 92.0602 141.456 91.7437C141.66 91.3895 141.518 90.9834 141.201 90.7709Z" fill="white"/>
<path d="M132.925 89.4579C133.294 89.4579 133.653 89.132 133.634 88.7494C133.615 88.3669 133.322 88.041 132.925 88.041C132.556 88.041 132.197 88.3669 132.216 88.7494C132.234 89.1367 132.528 89.4579 132.925 89.4579Z" fill="white"/>
<path d="M113.233 47.657C113.186 47.6759 113.2 47.6712 113.285 47.6428C113.337 47.6287 113.384 47.6145 113.436 47.6051C113.545 47.5815 113.654 47.5626 113.762 47.5437C113.989 47.5012 114.221 47.4634 114.448 47.4256C114.897 47.3548 115.333 47.2934 115.782 47.2367C116.151 47.1942 116.51 46.9439 116.491 46.5283C116.477 46.1835 116.174 45.7727 115.782 45.8199C115.21 45.8907 114.642 45.9663 114.075 46.056C113.545 46.141 113.011 46.2071 112.519 46.4338C112.169 46.5944 112.084 47.095 112.263 47.402C112.471 47.7609 112.883 47.8176 113.233 47.657Z" fill="white"/>
<path d="M69.3135 8.4631C69.3419 8.22696 69.2851 8.59061 69.3277 8.35448C69.3419 8.27891 69.3561 8.20807 69.3703 8.13251C69.3986 8.00027 69.4365 7.86804 69.4743 7.7358C69.5169 7.60356 69.5594 7.47605 69.6114 7.34854C69.5736 7.44299 69.6587 7.23991 69.6587 7.24463C69.6918 7.17852 69.7249 7.10768 69.758 7.04156C70.0371 6.50789 70.2972 6.1773 70.7417 5.77114C71.0255 5.51139 71.0018 5.02968 70.7417 4.76993C70.458 4.48656 70.0229 4.51018 69.7391 4.76993C68.6798 5.73336 68.0603 7.051 67.8947 8.4631C67.8522 8.83147 68.2494 9.18568 68.6041 9.17151C69.025 9.15262 69.2662 8.85981 69.3135 8.4631Z" fill="white"/>
<path d="M72.1554 4.4488C72.5243 4.4488 72.8837 4.12293 72.8648 3.74039C72.8458 3.35785 72.5526 3.03198 72.1554 3.03198C71.7865 3.03198 71.4271 3.35785 71.446 3.74039C71.4649 4.12766 71.7581 4.4488 72.1554 4.4488Z" fill="white"/>
<path d="M10.1193 44.2191C11.4671 44.2191 12.8149 44.2191 14.1627 44.2191C14.5315 44.2191 14.891 43.8932 14.872 43.5107C14.8531 43.1281 14.5599 42.8022 14.1627 42.8022C12.8149 42.8022 11.4671 42.8022 10.1193 42.8022C9.75039 42.8022 9.39098 43.1281 9.40989 43.5107C9.42408 43.8979 9.72202 44.2191 10.1193 44.2191Z" fill="white"/>
<path d="M16.2433 44.2615C16.6122 44.2615 16.9716 43.9357 16.9526 43.5531C16.9337 43.1706 16.6405 42.8447 16.2433 42.8447C15.8744 42.8447 15.515 43.1706 15.5339 43.5531C15.5528 43.9404 15.846 44.2615 16.2433 44.2615Z" fill="white"/>
<path d="M70.1696 33.3047L17.2363 32.8796L70.1696 32.4546V33.3047Z" fill="#E0E0E0"/>
<path d="M56.3229 36.1384L3.38965 35.7134L56.3229 35.2883V36.1384Z" fill="#E0E0E0"/>
<path d="M65.3793 63.6199L12.4414 63.1948L65.3793 62.7698V63.6199Z" fill="#E0E0E0"/>
<path d="M52.4682 105.558L-0.469727 105.133L52.4682 104.708V105.558Z" fill="#E0E0E0"/>
<path d="M31.6792 51.1755L-21.2588 50.7505L31.6792 50.3254V51.1755Z" fill="#E0E0E0"/>
<path d="M25.938 58.51L-27 58.085L25.938 57.6599V58.51Z" fill="#E0E0E0"/>
</g>
<defs>
<clipPath id="clip0_1_4577">
<rect width="151" height="124" fill="white"/>
</clipPath>
</defs>
</svg>
