<svg width="90" height="81" viewBox="0 0 90 81" fill="none" xmlns="http://www.w3.org/2000/svg">
<path d="M2.90294 69.4555C2.90294 69.4555 1.1056 75.1632 14.4777 66.9838C27.8498 58.8044 61.2185 52.5519 77.0059 54.5486C92.79 56.5419 81.6438 19.0203 69.9295 12.9937C58.2152 6.96713 21.5674 32.9838 2.90294 69.4555Z" fill="#F7AF41"/>
<g opacity="0.3">
<path opacity="0.3" d="M3.96322 68.193C3.96322 68.193 1.10608 75.1664 14.4748 66.9837C27.8436 58.801 61.2157 52.5518 77.003 54.5485C92.7904 56.5418 81.6442 19.0202 69.9299 12.9936C58.2157 6.96707 22.6277 31.7179 3.96322 68.193Z" fill="#6C184E"/>
</g>
<path d="M5.20911 71.5617C4.50811 71.5617 3.94998 71.3956 3.53802 71.06C2.27888 70.0401 2.95994 68.0534 2.98984 67.9703C2.99981 67.9437 3.00978 67.9205 3.02306 67.8939C11.6011 51.1298 22.6709 38.8574 30.445 31.5152C40.2988 22.2096 50.6942 15.3458 58.9699 12.6813C63.744 11.1431 67.528 11.0634 70.2124 12.4454C74.4682 14.6315 78.9068 20.8873 82.0862 29.1797C85.2025 37.3026 86.2257 45.2959 84.7573 50.0401C83.6975 53.4587 81.4383 55.2361 78.1825 55.2361C77.7805 55.2361 77.3619 55.2095 76.9267 55.1531C60.6842 53.0999 27.5878 59.678 14.7972 67.5052C10.3653 70.2195 7.19582 71.5617 5.20911 71.5617ZM4.13602 68.4122C4.02306 68.771 3.84366 69.7311 4.3121 70.1065C4.70745 70.4221 6.5812 71.0932 14.156 66.4587C20.4915 62.5816 31.631 58.8939 44.7174 56.3457C57.3852 53.8773 69.4849 52.977 77.0829 53.9371C80.3918 54.3524 82.5812 52.9238 83.5845 49.678C84.9765 45.1863 83.9633 37.4986 80.94 29.6215C77.9068 21.7245 73.5812 15.565 69.6476 13.5418C67.2988 12.3325 63.734 12.4421 59.342 13.8541C51.2357 16.4621 41.0098 23.2262 31.2855 32.4089C23.5878 39.6813 12.631 51.8275 4.13602 68.4122Z" fill="#6C184E"/>
<path d="M70.7575 20.1829C68.9036 19.7577 70.9435 19.06 68.4817 16.6082C66.0232 14.1564 63.3189 16.173 63.3189 16.173C63.7575 15.2726 63.8571 14.4388 63.3854 13.7776C61.2691 10.8108 55.7109 12.668 53.6777 10.2893C51.6445 7.91052 46.7874 10.0932 46.7874 10.0932C46.7874 10.0932 17.7874 27.4022 9.48836 47.3391C1.18936 67.2726 1.82058 73.3922 5.42856 72.0101C9.03653 70.6281 11.6977 67.5185 14.3389 69.9703C16.9801 72.4221 13.681 77.0168 16.8771 79.2792C18.6678 80.5483 22.8073 78.2726 20.8173 74.8739C18.8272 71.4786 16.1894 65.1796 20.6545 61.8042C25.1196 58.4254 35.3721 56.6281 34.7674 61.3723C33.2658 73.1297 45.7741 68.143 41.8904 63.1763C38.5913 58.957 41.6279 51.5484 48.9834 55.6281C55.1595 59.05 54.3721 54.3889 60.4651 52.3889C65.0099 50.8972 73.3688 50.8474 73.3688 50.8474C79.2359 47.4022 73.9302 45.7012 73.9302 45.7012C73.9302 45.7012 78.8472 41.9171 77.6146 39.2992C76.382 36.6813 76.98 32.565 77.0897 28.3922C77.196 24.2228 72.6146 20.6082 70.7575 20.1829Z" fill="#FFCE00"/>
<g opacity="0.3">
<path opacity="0.3" d="M70.7567 20.1829C68.9029 19.7577 70.9428 19.06 68.481 16.6082C66.0225 14.1564 63.3182 16.173 63.3182 16.173C63.7567 15.2726 63.8564 14.4388 63.3846 13.7776C61.2684 10.8108 55.7102 12.668 53.677 10.2893C51.6438 7.91052 46.7866 10.0932 46.7866 10.0932C46.7866 10.0932 46.1122 10.4952 44.9395 11.2494C54.0126 13.6348 72.7368 21.276 69.2883 48.4852C69.2883 48.4852 33.0724 51.0832 23.1189 57.2726C15.9594 61.7244 8.76342 70.0866 3.17871 71.1596C3.57738 72.1829 4.37472 72.4155 5.42456 72.0168C9.03253 70.6381 11.6937 67.5251 14.3348 69.9769C16.976 72.4287 13.677 77.0234 16.8731 79.2859C18.6637 80.555 22.8033 78.2792 20.8132 74.8806C18.8232 71.4852 16.1853 65.1862 20.6505 61.8108C25.1156 58.4321 35.368 56.6347 34.7634 61.3789C33.2617 73.1364 45.77 68.1497 41.8863 63.1829C38.5873 58.9636 41.6239 51.555 48.9793 55.6347C55.1554 59.0567 54.368 54.3955 60.4611 52.3955C65.0059 50.9038 73.3647 50.854 73.3647 50.854C79.2318 47.4088 73.9262 45.7078 73.9262 45.7078C73.9262 45.7078 78.8431 41.9238 77.6105 39.3058C76.378 36.6879 76.976 32.5716 77.0856 28.3989C77.1953 24.2228 72.6139 20.6082 70.7567 20.1829Z" fill="#6C184E"/>
</g>
<g opacity="0.65">
<g opacity="0.65">
<path opacity="0.65" d="M72.3411 21.1132C72.5039 21.1497 72.6867 21.2129 72.8827 21.2959C72.371 20.9238 71.8827 20.6315 71.4541 20.4321C71.4973 20.7544 71.6401 20.9537 72.3411 21.1132Z" fill="white"/>
</g>
<g opacity="0.65">
<path opacity="0.65" d="M75.5641 46.6481C75.5541 46.6381 75.5442 46.6281 75.5342 46.6182C75.5242 46.6281 75.5176 46.6315 75.5176 46.6315C75.5176 46.6315 75.5342 46.6381 75.5641 46.6481Z" fill="white"/>
</g>
<g opacity="0.65">
<path opacity="0.65" d="M64.9033 17.1034C64.9033 17.1034 66.488 15.924 68.3352 16.4722C67.2654 15.4822 66.1591 15.3094 65.2588 15.4257C65.3385 15.934 65.1957 16.5021 64.9033 17.1034Z" fill="white"/>
</g>
<g opacity="0.65">
<path opacity="0.65" d="M62.9664 13.2894C61.1325 11.522 57.6807 12.0403 55.3418 11.3027C56.9298 13.007 60.4448 12.4024 62.9664 13.2894Z" fill="white"/>
</g>
<g opacity="0.65">
<path opacity="0.65" d="M46.7901 10.0901C46.7901 10.0901 33.8831 17.7944 22.8266 28.8409C22.6107 29.0037 22.4014 29.1864 22.2087 29.3957C22.0858 29.5286 21.9761 29.6648 21.8731 29.8077C16.7303 35.0901 12.0924 41.0834 9.49107 47.3359C1.69373 66.0601 1.7801 72.595 4.80668 72.1797C3.76349 69.7711 5.11898 62.5784 11.0758 48.2694C13.3183 42.8874 17.0658 37.6947 21.3482 32.9838C21.4379 33.1432 21.5476 33.2927 21.6838 33.419C22.6339 34.2994 24.4113 33.924 25.6539 32.5818C26.8964 31.2396 27.1323 29.4389 26.1821 28.5585C26.0891 28.4721 25.9861 28.4024 25.8798 28.3392C36.5808 18.0635 47.6306 10.1931 47.6306 10.1931C47.6306 10.1931 51.3815 9.67483 53.6539 10.2562C51.5974 7.93064 46.7901 10.0901 46.7901 10.0901Z" fill="white"/>
</g>
</g>
<path d="M18.1093 80.2495C17.5212 80.2495 16.9664 80.0967 16.5212 79.7811C14.5744 78.4024 14.694 76.2894 14.8003 74.4289C14.89 72.8708 14.973 71.3957 13.9199 70.4223C12.4448 69.0535 11.0262 69.7446 8.65079 71.0868C7.71059 71.6183 6.73717 72.1665 5.64747 72.5851C4.34182 73.0834 3.56109 72.6682 3.13584 72.2329C0.428204 69.4456 4.787 57.027 8.91989 47.1001C13.2588 36.6848 23.2455 27.027 30.8634 20.7612C39.0926 13.9904 46.4016 9.60507 46.4747 9.56188C46.4946 9.54859 46.5145 9.53862 46.5378 9.52866C46.7537 9.43231 51.8401 7.18979 54.1458 9.88746C54.9431 10.821 56.5378 10.9871 58.2288 11.1632C60.282 11.3792 62.6042 11.6217 63.8866 13.4157C64.2155 13.8775 64.3551 14.4057 64.3052 15.0004C65.5909 14.5918 67.3517 14.6084 68.9165 16.1698C70.3883 17.6383 70.4381 18.6283 70.4647 19.2197C70.468 19.2961 70.4747 19.3958 70.4813 19.4456C70.5178 19.4688 70.6275 19.522 70.8933 19.5818C73.0295 20.0735 77.8168 23.9174 77.7006 28.4057C77.6773 29.326 77.6275 30.2496 77.581 31.1399C77.4215 34.2197 77.2687 37.1333 78.1657 39.0336C79.2786 41.3991 76.5278 44.2529 75.076 45.5386C75.777 45.9306 76.6142 46.6017 76.7271 47.6084C76.8667 48.8542 75.8667 50.0868 73.674 51.3758C73.581 51.429 73.4747 51.4589 73.365 51.4589C73.282 51.4589 65.0461 51.5253 60.6474 52.9705C58.4581 53.6914 57.2288 54.7512 56.1424 55.6881C54.1258 57.429 52.684 58.3858 48.6773 56.1632C45.9331 54.6416 43.571 54.6881 42.1989 56.2961C40.7604 57.9805 40.8335 60.8343 42.3684 62.7977C43.4913 64.2329 43.5411 65.9107 42.5046 67.2861C41.2421 68.9539 38.7936 69.6682 36.9265 68.9074C35.5976 68.3658 33.468 66.6549 34.1524 61.2961C34.2521 60.5187 34.0029 59.9871 33.3717 59.6216C31.0395 58.2695 24.4614 59.6947 21.0229 62.2961C16.7272 65.5452 19.8169 71.9605 21.3451 74.5685C22.3252 76.2429 22.1259 77.9605 20.8102 79.1698C20.0395 79.8741 19.0362 80.2495 18.1093 80.2495ZM12.2189 68.4489C13.0694 68.4489 13.9199 68.7446 14.7538 69.5187C16.2289 70.8874 16.1192 72.8044 16.0229 74.4954C15.9232 76.2628 15.8368 77.7911 17.2289 78.7778C17.8966 79.2495 19.1558 79.0137 19.9797 78.2595C20.4913 77.7911 21.2122 76.7645 20.2853 75.1864C18.591 72.2961 15.2023 65.1599 20.282 61.316C23.8136 58.6449 30.973 56.811 33.9896 58.5585C35.0594 59.1765 35.5378 60.1798 35.375 61.4522C34.9464 64.821 35.6607 67.0668 37.3949 67.7711C38.7471 68.3226 40.6009 67.7745 41.5278 66.5486C41.9332 66.0103 42.4614 64.904 41.4049 63.5552C39.5245 61.1499 39.4647 57.615 41.2687 55.502C43.0295 53.4422 46.0229 53.2861 49.2787 55.0934C52.7405 57.0137 53.6109 56.2595 55.3451 54.7612C56.4581 53.8011 57.8434 52.605 60.2687 51.8077C64.5477 50.4024 71.9497 50.2529 73.1923 50.2363C75.2986 48.9705 75.5477 48.1366 75.5079 47.7479C75.4248 46.9971 74.1723 46.4256 73.7371 46.2861C73.5212 46.2163 73.3617 46.0303 73.3218 45.8077C73.282 45.5818 73.3717 45.3559 73.5511 45.2163C74.7238 44.3127 77.8866 41.3293 77.0527 39.5652C76.0228 37.3825 76.1823 34.3227 76.3517 31.0835C76.3982 30.1997 76.4448 29.2861 76.468 28.3825C76.5644 24.6449 72.3484 21.1865 70.6142 20.7878C69.5012 20.532 69.2687 20.0635 69.2321 19.2861C69.2089 18.821 69.179 18.1831 68.0428 17.0502C65.9996 15.0137 63.7737 16.6051 63.6773 16.6715C63.4481 16.8376 63.1358 16.831 62.9198 16.6483C62.7039 16.4655 62.6375 16.1632 62.7604 15.9074C63.3218 14.7579 62.9896 14.2928 62.88 14.1399C61.9198 12.7944 60.0627 12.6017 58.0926 12.3958C56.2388 12.2031 54.3218 12.0004 53.2056 10.6948C51.7936 9.04361 48.3285 10.0868 47.066 10.6449C46.5444 10.9605 39.5079 15.2396 31.6209 21.7313C24.1259 27.8974 14.2953 37.3924 10.0561 47.5718C7.01624 54.8675 5.00627 60.7147 4.07936 64.9506C3.03285 69.728 3.68734 71.0369 4.01956 71.3758C4.10926 71.4688 4.38501 71.7512 5.20893 71.4389C6.21225 71.0535 7.14581 70.5286 8.04614 70.0203C9.42155 69.2429 10.8269 68.4489 12.2189 68.4489Z" fill="#6C184E"/>
<path d="M51.166 50.4356C54.6743 49.8043 58.1959 49.2329 61.7374 48.7744C63.5082 48.5452 65.2822 48.3458 67.0663 48.1897C68.8503 48.0335 70.6377 47.9206 72.4384 47.8873C72.7341 47.8807 72.9799 48.1166 72.9865 48.4156C72.9932 48.7113 72.7573 48.9571 72.4583 48.9638C72.4483 48.9638 72.4417 48.9638 72.4317 48.9638H72.4284C70.6643 48.9073 68.8902 48.9306 67.1161 48.997C65.342 49.0634 63.568 49.1731 61.7939 49.3093C58.2424 49.5884 54.7009 49.9804 51.166 50.4356Z" fill="#6C184E"/>
<g opacity="0.3">
<g opacity="0.3">
<path opacity="0.3" d="M62.4912 12.9771C62.4912 12.9771 62.5078 12.9638 62.541 12.9439C62.5311 12.9372 62.5244 12.9306 62.5178 12.9272C62.5078 12.9405 62.5012 12.9572 62.4912 12.9771Z" fill="#6C184E"/>
</g>
<g opacity="0.3">
<path opacity="0.3" d="M76.2617 25.1997C76.1521 29.3724 75.5541 33.492 76.7867 36.1066C76.8531 36.2462 76.8996 36.3924 76.9328 36.5385C76.7003 34.1764 77.0126 31.296 77.089 28.3957C77.1189 27.2429 76.79 26.1366 76.2617 25.1233C76.2584 25.1465 76.2617 25.1731 76.2617 25.1997Z" fill="#6C184E"/>
</g>
<g opacity="0.3">
<path opacity="0.3" d="M76.9829 36.9834C77.0162 39.4917 73.1025 42.505 73.1025 42.505C73.1025 42.505 75.1524 43.1628 75.2919 44.4884C76.6441 43.1562 78.4082 40.9834 77.6108 39.2957C77.2952 38.6213 77.0992 37.8405 76.9829 36.9834Z" fill="#6C184E"/>
</g>
</g>
<path d="M54.5943 28.437C58.7388 25.757 60.3645 20.9027 58.2255 17.5948C56.0864 14.2869 50.9925 13.778 46.848 16.4581C42.7035 19.1382 41.0778 23.9924 43.2169 27.3003C45.356 30.6082 50.4498 31.1171 54.5943 28.437Z" fill="#EE1822"/>
<g opacity="0.65">
<path opacity="0.65" d="M52.0252 29.4852C47.6432 30.6215 43.796 28.4188 43.4339 24.5683C43.0718 20.7178 46.3309 16.6746 50.7162 15.5384C53.9388 14.7045 56.8724 15.6746 58.3408 17.7776C56.8724 15.3059 53.6199 14.1231 50.0285 15.0534C45.3807 16.2594 41.9223 20.5451 42.3076 24.6281C42.6897 28.7112 46.7694 31.0467 51.4172 29.8407C52.6432 29.5218 53.786 28.9869 54.7993 28.3025C53.9488 28.8208 53.0186 29.2294 52.0252 29.4852Z" fill="white"/>
</g>
<path d="M51.4209 16.7345L52.4342 27.5418C55.2714 26.2993 57.2382 23.5053 56.989 20.8275C56.7398 18.1465 54.3511 16.4787 51.4209 16.7345Z" fill="#BD1622"/>
<path d="M48.8797 17.4155C46.1123 18.6846 44.2053 21.4355 44.4545 24.0733C44.7036 26.7112 47.0226 28.3657 49.8897 28.1763L48.8797 17.4155Z" fill="#BD1622"/>
<path d="M48.8797 17.4155C46.1123 18.6846 44.2053 21.4355 44.4545 24.0733C44.7036 26.7112 47.0226 28.3657 49.8897 28.1763L48.8797 17.4155Z" fill="#BD1622"/>
<path d="M49.2684 21.0203C48.3614 21.4355 47.7368 22.3359 47.8199 23.1997C47.8996 24.0634 48.6604 24.605 49.6006 24.5418L49.2684 21.0203Z" fill="#EE1822"/>
<path d="M51.7129 20.3856C52.6531 20.3225 53.4139 20.864 53.4937 21.7278C53.5734 22.5916 52.9521 23.4919 52.0451 23.9072L51.7129 20.3856Z" fill="#EE1822"/>
<path d="M49.006 30.6781C47.3149 30.6781 45.7369 30.2197 44.4711 29.3326C42.9196 28.2429 41.9661 26.5917 41.7867 24.6781C41.3814 20.3592 45.0193 15.8144 49.8963 14.5519C52.5109 13.8742 55.089 14.2429 56.9727 15.5652C58.5242 16.6549 59.4777 18.306 59.6571 20.2197C60.0624 24.5386 56.4246 29.0834 51.5475 30.3459C50.6903 30.5685 49.8332 30.6781 49.006 30.6781ZM52.4412 15.2629C51.7003 15.2629 50.9329 15.3625 50.1588 15.5619C45.7535 16.7047 42.4644 20.7512 42.8266 24.5818C42.9761 26.1864 43.7734 27.5718 45.0724 28.4821C46.7036 29.6283 48.9694 29.9406 51.2883 29.3393C55.6937 28.1964 58.9827 24.1499 58.6206 20.3193C58.4711 18.7147 57.6737 17.3293 56.3747 16.419C55.2883 15.6549 53.9196 15.2629 52.4412 15.2629Z" fill="#6C184E"/>
<path d="M47.9162 25.8142C47.976 25.9704 48.0192 26.1199 48.0524 26.2694C48.089 26.4189 48.1156 26.5684 48.1023 26.7079C48.0857 26.9139 47.9063 27.07 47.7003 27.0534C47.4943 27.0368 47.3381 26.8574 47.3547 26.6514C47.3581 26.6182 47.3647 26.5816 47.378 26.5517C47.4278 26.4189 47.5076 26.2959 47.6072 26.173C47.6969 26.0534 47.7966 25.9338 47.9162 25.8142Z" fill="#F6C547"/>
<path d="M46.7231 24.728C46.6998 24.8941 46.6633 25.047 46.6167 25.1931C46.5769 25.3426 46.5237 25.4855 46.4473 25.6018C46.331 25.7745 46.0985 25.821 45.9257 25.7081C45.7529 25.5918 45.7064 25.3593 45.8194 25.1865C45.8393 25.1566 45.8626 25.13 45.8858 25.1101C45.9921 25.0171 46.125 24.9506 46.2712 24.8908C46.4141 24.8277 46.5603 24.7712 46.7231 24.728Z" fill="#F6C547"/>
<path d="M46.4045 22.9871C46.3082 23.1133 46.2052 23.2196 46.1022 23.3193C45.9992 23.4223 45.8929 23.512 45.7733 23.5684C45.5839 23.6581 45.3613 23.5751 45.2716 23.389C45.1819 23.1997 45.265 22.9771 45.451 22.8874C45.4842 22.8708 45.5208 22.8608 45.5573 22.8542C45.6869 22.8342 45.8231 22.8508 45.966 22.8807C46.1088 22.904 46.255 22.9339 46.4045 22.9871Z" fill="#F6C547"/>
<path d="M47.0724 21.2063C46.9295 21.2495 46.79 21.2727 46.6571 21.2893C46.5209 21.3093 46.3913 21.3159 46.2717 21.2893C46.0691 21.2428 45.9395 21.0435 45.986 20.8408C46.0325 20.6382 46.2319 20.5086 46.4345 20.5551C46.4744 20.5651 46.5142 20.5784 46.5475 20.5983C46.6505 20.6614 46.7402 20.7545 46.8265 20.8608C46.9129 20.9638 46.996 21.0767 47.0724 21.2063Z" fill="#F6C547"/>
<path d="M48.4941 20.0104C48.3546 19.9439 48.2316 19.8708 48.1154 19.7911C47.9958 19.7147 47.8894 19.6316 47.813 19.5319C47.6868 19.3658 47.72 19.1299 47.8861 19.0037C48.0522 18.8774 48.2881 18.9107 48.4144 19.0768C48.4376 19.1067 48.4575 19.1432 48.4675 19.1798C48.5107 19.2994 48.5207 19.4323 48.5207 19.5751C48.5207 19.7113 48.514 19.8542 48.4941 20.0104Z" fill="#F6C547"/>
<path d="M54.0019 24.2229C54.1381 24.3026 54.2577 24.389 54.3673 24.4787C54.4836 24.5684 54.5832 24.6614 54.653 24.7711C54.766 24.9472 54.7161 25.1797 54.5401 25.2927C54.364 25.4056 54.1314 25.3558 54.0185 25.1797C53.9985 25.1465 53.9819 25.1133 53.9719 25.0767C53.9387 24.9538 53.9354 24.8143 53.9454 24.6681C53.9553 24.5252 53.9686 24.379 54.0019 24.2229Z" fill="#F6C547"/>
<path d="M54.9121 22.5717C55.0583 22.5451 55.1978 22.5351 55.334 22.5318C55.4702 22.5252 55.6031 22.5318 55.7161 22.5684C55.9154 22.6348 56.0217 22.8474 55.9552 23.0434C55.8888 23.2428 55.6762 23.3491 55.4802 23.2826C55.4403 23.2693 55.4038 23.2494 55.3739 23.2262C55.2775 23.1531 55.1978 23.0501 55.1247 22.9371C55.0483 22.8275 54.9752 22.7079 54.9121 22.5717Z" fill="#F6C547"/>
<path d="M54.8926 20.7279C54.9956 20.6116 55.1019 20.5153 55.2082 20.4256C55.3145 20.3326 55.4241 20.2528 55.5437 20.2063C55.7364 20.1332 55.9557 20.2296 56.0321 20.4223C56.1052 20.615 56.0088 20.8342 55.8161 20.9106C55.7796 20.9239 55.7397 20.9339 55.7032 20.9339C55.5769 20.9405 55.4441 20.914 55.3079 20.8741C55.1716 20.8375 55.0321 20.791 54.8926 20.7279Z" fill="#F6C547"/>
<path d="M53.9453 19.3459C53.9752 19.1831 54.0151 19.0336 54.0649 18.8908C54.1114 18.7446 54.1646 18.6084 54.2476 18.4987C54.3706 18.3293 54.6064 18.2928 54.7725 18.4157C54.942 18.5386 54.9785 18.7745 54.8556 18.9406C54.8357 18.9705 54.8091 18.9938 54.7825 19.017C54.6729 19.1001 54.54 19.1632 54.3971 19.213C54.251 19.2662 54.1048 19.3127 53.9453 19.3459Z" fill="#F6C547"/>
<path d="M52.4006 18.9072C52.3475 18.7478 52.3109 18.595 52.2844 18.4421C52.2545 18.2893 52.2345 18.1398 52.2511 18.0003C52.2744 17.7943 52.4604 17.6481 52.6698 17.6714C52.8757 17.6946 53.0219 17.8807 52.9987 18.09C52.9953 18.1232 52.9854 18.1597 52.9721 18.1896C52.9189 18.3192 52.8292 18.4421 52.7295 18.5584C52.6299 18.678 52.5236 18.7943 52.4006 18.9072Z" fill="#F6C547"/>
<path d="M52.4337 28.06C52.3407 28.06 52.251 28.0367 52.1679 27.9869C52.0251 27.9005 51.9287 27.7543 51.9121 27.5849L50.8988 16.7776C50.8856 16.6381 50.9287 16.5018 51.0184 16.3955C51.1081 16.2892 51.2344 16.2228 51.3739 16.2095C54.6529 15.9238 57.231 17.844 57.5067 20.7709C57.7725 23.6181 55.7293 26.6613 52.643 28.0134C52.5766 28.0467 52.5068 28.06 52.4337 28.06ZM51.9919 17.2294L52.8855 26.7344C55.1978 25.4487 56.6795 23.0799 56.4735 20.8706C56.2708 18.6979 54.4237 17.2261 52.0018 17.2261C51.9952 17.2294 51.9919 17.2294 51.9919 17.2294Z" fill="#BD1622"/>
<path d="M49.4403 28.7111C46.4702 28.7111 44.1878 26.8407 43.9354 24.1231C43.6696 21.2925 45.6131 18.3424 48.6629 16.9437C48.8157 16.8739 48.9951 16.8806 49.1413 16.967C49.2875 17.05 49.3838 17.2028 49.4004 17.369L50.4104 28.1264C50.4237 28.266 50.3805 28.4055 50.2875 28.5118C50.1978 28.6181 50.0649 28.6846 49.9254 28.6945C49.7626 28.7045 49.5998 28.7111 49.4403 28.7111ZM48.4337 18.2361C46.1978 19.5384 44.7726 21.8739 44.9752 24.0268C45.1779 26.1829 46.932 27.6248 49.3207 27.6713L48.4337 18.2361Z" fill="#BD1622"/>
<path d="M35.7139 47.3138C39.5903 44.807 41.1109 40.267 39.1103 37.1732C37.1097 34.0795 32.3455 33.6036 28.4691 36.1103C24.5927 38.6171 23.072 43.1571 25.0726 46.2509C27.0732 49.3446 31.8374 49.8205 35.7139 47.3138Z" fill="#EE1822"/>
<g opacity="0.65">
<path opacity="0.65" d="M33.3116 48.2958C29.212 49.3589 25.614 47.2991 25.2751 43.6978C24.9362 40.0965 27.9861 36.3158 32.0857 35.2526C35.1023 34.4719 37.8432 35.3789 39.2186 37.3457C37.8432 35.0334 34.8033 33.9271 31.4412 34.7975C27.0924 35.9237 23.8598 39.9337 24.2186 43.7543C24.5774 47.5749 28.3914 49.7576 32.7402 48.6314C33.8864 48.3324 34.9562 47.834 35.903 47.1928C35.1123 47.6746 34.2386 48.0566 33.3116 48.2958Z" fill="white"/>
</g>
<path d="M32.7432 36.3691L33.6933 46.4754C36.3478 45.3126 38.1884 42.7013 37.9525 40.193C37.7166 37.6913 35.484 36.1299 32.7432 36.3691Z" fill="#BD1622"/>
<path d="M30.3679 37.0071C27.7799 38.1931 25.9958 40.7679 26.2284 43.233C26.4609 45.7014 28.6304 47.2496 31.3147 47.0702L30.3679 37.0071Z" fill="#BD1622"/>
<path d="M30.3679 37.0071C27.7799 38.1931 25.9958 40.7679 26.2284 43.233C26.4609 45.7014 28.6304 47.2496 31.3147 47.0702L30.3679 37.0071Z" fill="#BD1622"/>
<path d="M30.7333 40.3789C29.8861 40.7676 29.3014 41.6115 29.3778 42.4188C29.4542 43.2261 30.1652 43.7344 31.0423 43.6746L30.7333 40.3789Z" fill="#EE1822"/>
<path d="M33.0156 39.7843C33.896 39.7245 34.607 40.2328 34.6801 41.0401C34.7565 41.8474 34.1718 42.6913 33.3246 43.08L33.0156 39.7843Z" fill="#EE1822"/>
<path d="M30.4845 49.462C28.8898 49.462 27.4047 49.0301 26.212 48.1962C24.7503 47.1696 23.8499 45.6115 23.6805 43.8042C23.2984 39.7411 26.7204 35.4653 31.3051 34.2793C33.7635 33.6414 36.1921 33.9902 37.9662 35.2328C39.428 36.2593 40.3283 37.8175 40.4977 39.6248C40.8798 43.6912 37.4579 47.9637 32.8732 49.1497C32.0692 49.359 31.2652 49.462 30.4845 49.462ZM33.6971 35.0401C33.0094 35.0401 32.2951 35.1331 31.5742 35.3191C27.4778 36.3823 24.418 40.1431 24.7503 43.7045C24.8898 45.1896 25.6273 46.472 26.83 47.3158C28.3449 48.3789 30.4479 48.668 32.6041 48.1098C36.7004 47.0467 39.7602 43.2859 39.428 39.7245C39.2884 38.2394 38.5509 36.957 37.3482 36.1132C36.3416 35.4055 35.0692 35.0401 33.6971 35.0401Z" fill="#6C184E"/>
<path d="M30.215 45.0203C30.2981 45.1399 30.3645 45.2628 30.4243 45.3857C30.4874 45.5086 30.5406 45.6315 30.5638 45.7544C30.5937 45.9238 30.4841 46.0833 30.3147 46.1132C30.1452 46.1431 29.9858 46.0335 29.9559 45.864C29.9525 45.8375 29.9492 45.8142 29.9525 45.7876C29.9625 45.6614 29.9991 45.5352 30.0489 45.4056C30.0954 45.2794 30.1452 45.1498 30.215 45.0203Z" fill="#F6C547"/>
<path d="M28.8231 44.4587C28.8298 44.6116 28.8264 44.7577 28.8131 44.8973C28.8032 45.0401 28.7832 45.1797 28.7401 45.3026C28.6803 45.4621 28.5042 45.5451 28.3447 45.4853C28.1853 45.4255 28.1022 45.2494 28.162 45.09C28.1687 45.0667 28.1819 45.0468 28.1952 45.0268C28.2683 44.9172 28.3713 44.8175 28.4776 44.7278C28.5839 44.6348 28.6969 44.5418 28.8231 44.4587Z" fill="#F6C547"/>
<path d="M28.0822 43.0732C28.0191 43.2061 27.946 43.3257 27.8696 43.4387C27.7932 43.555 27.7134 43.6613 27.6171 43.7444C27.4875 43.854 27.2915 43.8374 27.1819 43.7078C27.0723 43.5782 27.0889 43.3822 27.2184 43.2726C27.2384 43.256 27.2583 43.2427 27.2816 43.2327C27.3945 43.1762 27.5274 43.1463 27.6636 43.1231C27.7965 43.0998 27.936 43.0799 28.0822 43.0732Z" fill="#F6C547"/>
<path d="M28.2548 41.3491C28.1385 41.4221 28.0223 41.4786 27.906 41.5285C27.7897 41.5816 27.6734 41.6248 27.5605 41.6348C27.3911 41.6514 27.2382 41.5285 27.2183 41.359C27.2017 41.1896 27.3246 41.0368 27.494 41.0168C27.5206 41.0135 27.5505 41.0135 27.5771 41.0202C27.6901 41.0401 27.803 41.0899 27.916 41.1464C28.0289 41.2062 28.1419 41.2693 28.2548 41.3491Z" fill="#F6C547"/>
<path d="M29.2786 39.8907C29.1457 39.8707 29.0228 39.8408 28.9032 39.8076C28.7836 39.7744 28.6673 39.7345 28.5743 39.6681C28.4314 39.5717 28.3949 39.379 28.4912 39.2362C28.5876 39.0933 28.7803 39.0567 28.9231 39.1531C28.9464 39.1697 28.9696 39.1896 28.9863 39.2096C29.0593 39.296 29.1092 39.4056 29.1557 39.5219C29.2055 39.6415 29.2454 39.7611 29.2786 39.8907Z" fill="#F6C547"/>
<path d="M35.1588 43.3723C35.2784 43.4487 35.3814 43.5351 35.4777 43.6215C35.5774 43.7079 35.6671 43.7976 35.7302 43.9006C35.8199 44.0468 35.7734 44.2361 35.6272 44.3258C35.481 44.4155 35.2917 44.369 35.202 44.2228C35.1887 44.1996 35.1754 44.173 35.1688 44.1497C35.1355 44.0335 35.1289 43.9072 35.1289 43.7743C35.1322 43.6481 35.1389 43.5152 35.1588 43.3723Z" fill="#F6C547"/>
<path d="M36.0127 41.8275C36.1456 41.8109 36.2718 41.8076 36.3947 41.8142C36.5177 41.8176 36.6373 41.8242 36.7436 41.8641C36.9064 41.9206 36.9894 42.1 36.9329 42.2594C36.8765 42.4189 36.6971 42.5053 36.5376 42.4488C36.511 42.4388 36.4844 42.4256 36.4612 42.4089C36.3682 42.3425 36.2918 42.2528 36.2187 42.1498C36.1456 42.0501 36.0758 41.9471 36.0127 41.8275Z" fill="#F6C547"/>
<path d="M35.9922 40.1066C36.0885 40.0069 36.1915 39.9239 36.2945 39.8475C36.3975 39.7677 36.5005 39.698 36.6101 39.6581C36.7696 39.6016 36.949 39.6847 37.0054 39.8441C37.0619 40.0036 36.9789 40.183 36.8194 40.2395C36.7928 40.2495 36.7662 40.2528 36.7397 40.2561C36.6234 40.2661 36.5005 40.2428 36.3742 40.2162C36.248 40.1897 36.1218 40.1564 35.9922 40.1066Z" fill="#F6C547"/>
<path d="M35.1055 38.811C35.1387 38.6682 35.1852 38.532 35.235 38.4057C35.2849 38.2762 35.338 38.1499 35.4178 38.0502C35.5207 37.914 35.7134 37.8875 35.8496 37.9904C35.9859 38.0934 36.0124 38.2861 35.9095 38.4223C35.8928 38.4423 35.8762 38.4622 35.8563 38.4755C35.7566 38.5552 35.6337 38.615 35.5041 38.6682C35.3812 38.7247 35.2483 38.7745 35.1055 38.811Z" fill="#F6C547"/>
<path d="M33.6603 38.4023C33.6204 38.2561 33.5939 38.1166 33.5739 37.9737C33.554 37.8342 33.5407 37.6946 33.5573 37.5651C33.5806 37.3956 33.7367 37.276 33.9061 37.2993C34.0756 37.3225 34.1952 37.4787 34.1719 37.6481C34.1686 37.6714 34.1619 37.698 34.1553 37.7179C34.1088 37.8408 34.0291 37.9538 33.9427 38.0667C33.8596 38.183 33.7666 38.2926 33.6603 38.4023Z" fill="#F6C547"/>
<path d="M33.6935 47.0136C33.6004 47.0136 33.5041 46.987 33.421 46.9405C33.2715 46.8541 33.1752 46.6979 33.1586 46.5285L32.2084 36.4189C32.1951 36.276 32.2383 36.1332 32.3313 36.0235C32.4244 35.9139 32.5539 35.8441 32.6968 35.8308C35.7898 35.5617 38.2283 37.3757 38.4875 40.1431C38.74 42.8242 36.813 45.6946 33.9094 46.967C33.8396 46.9969 33.7665 47.0136 33.6935 47.0136ZM33.3313 36.8807L34.1552 45.6415C36.2649 44.4388 37.6071 42.2694 37.4177 40.2428C37.2317 38.2528 35.5473 36.9006 33.3313 36.8807Z" fill="#BD1622"/>
<path d="M30.8928 47.6218C28.0889 47.6218 25.9327 45.8543 25.6935 43.2829C25.4443 40.6151 27.2749 37.8344 30.1453 36.5188C30.3048 36.4457 30.4875 36.4557 30.637 36.542C30.7865 36.6284 30.8862 36.7846 30.9028 36.9573L31.8463 47.0204C31.8596 47.1633 31.8131 47.3095 31.7201 47.4191C31.6271 47.5288 31.4908 47.5985 31.348 47.6085C31.1952 47.6151 31.0423 47.6218 30.8928 47.6218ZM29.9061 37.8543C27.8696 39.0703 26.5772 41.2098 26.76 43.1832C26.946 45.1567 28.5407 46.4822 30.7201 46.5454L29.9061 37.8543Z" fill="#BD1622"/>
<path d="M21.0796 40.6213C15.4019 40.8539 15.2889 43.7343 17.0929 48.1762C20.5049 46.7542 22.7607 44.2492 21.0796 40.6213Z" fill="#48C75A"/>
<path d="M16.9563 49.1697C16.8832 49.1697 16.8134 49.1564 16.7436 49.1265C16.6041 49.0667 16.4945 48.9504 16.448 48.8076C15.5809 46.2727 14.9463 43.688 16.1556 41.9538C16.9995 40.7478 18.6041 40.1365 21.0692 40.0833C21.2752 40.0734 21.4679 40.193 21.5609 40.379C22.2785 41.8009 22.4014 43.2129 21.9297 44.5684C21.2984 46.379 19.6107 47.9969 17.1822 49.1199C17.1091 49.1531 17.0327 49.1697 16.9563 49.1697ZM20.7436 41.173C18.8466 41.2594 17.634 41.7179 17.036 42.5717C16.1822 43.7943 16.6274 45.8873 17.2719 47.8807C19.1191 46.9139 20.4347 45.5983 20.9164 44.2162C21.2519 43.2395 21.1955 42.2196 20.7436 41.173Z" fill="#661A47"/>
<path d="M21.2522 41.133C20.8835 41.3024 20.528 41.5184 20.1891 41.7974C19.8536 42.0732 19.5247 42.3921 19.2323 42.7542C18.641 43.4785 18.1459 44.319 17.7373 45.2393C17.7373 44.7343 17.817 44.226 17.9433 43.7277C18.0762 43.2326 18.2556 42.7443 18.5014 42.2758C18.7473 41.8107 19.0496 41.3589 19.4483 40.9735C19.8436 40.5914 20.3386 40.2592 20.9067 40.1164C21.1958 40.0433 21.4881 40.216 21.5612 40.5051C21.6277 40.7609 21.4981 41.02 21.2655 41.1263L21.2522 41.133Z" fill="#651B47"/>
<path d="M31.3574 25.1269C36.384 22.4758 37.9288 24.9077 38.5999 29.6552C34.9355 30.1402 31.7262 29.107 31.3574 25.1269Z" fill="#48C75A"/>
<path d="M37.7696 30.5752C35.6367 30.5752 33.8327 30.0204 32.6068 28.9672C31.5171 28.0337 30.9158 26.7513 30.8194 25.1599C30.8062 24.9539 30.9158 24.7579 31.0952 24.6583C33.2513 23.4656 34.949 23.1865 36.2812 23.8044C38.1982 24.6948 38.949 27.2496 39.4706 29.8775C39.5005 30.027 39.464 30.1832 39.3743 30.3028C39.2846 30.4257 39.145 30.5021 38.9922 30.5154C38.5769 30.5553 38.1683 30.5752 37.7696 30.5752ZM31.9224 25.4323C32.0553 26.5652 32.5204 27.4789 33.3045 28.15C34.4141 29.1035 36.2115 29.5785 38.2945 29.4855C37.8494 27.4357 37.1849 25.4058 35.8294 24.7779C34.8859 24.3426 33.6068 24.5553 31.9224 25.4323Z" fill="#661A47"/>
<path d="M31.2481 24.6019C31.8129 24.4425 32.4076 24.479 32.9392 24.6119C33.4774 24.7448 33.9657 24.984 34.4142 25.263C34.8594 25.5421 35.2647 25.8743 35.6269 26.2365C35.9857 26.6019 36.3112 27.0006 36.5637 27.4391C35.7498 26.8511 34.8993 26.3727 34.0255 26.0438C33.5903 25.881 33.1451 25.768 32.7166 25.6983C32.2847 25.6285 31.8694 25.6219 31.4641 25.6584L31.4441 25.6617C31.1485 25.6883 30.886 25.4723 30.8561 25.1767C30.8362 24.9076 31.0023 24.6717 31.2481 24.6019Z" fill="#651B47"/>
<path d="M53.7074 42.9906C49.8137 39.3793 47.8303 41.2032 46.0762 45.3228C49.2655 46.6451 52.4117 46.4922 53.7074 42.9906Z" fill="#48C75A"/>
<path d="M49.0426 46.6949C47.9496 46.6949 46.7503 46.4623 45.5078 46.0005C45.3749 45.9507 45.2686 45.8477 45.2154 45.7148C45.1623 45.5819 45.1689 45.4357 45.232 45.3062C46.3417 43.0603 47.6373 40.9374 49.5808 40.5985C50.933 40.3626 52.3981 41.0271 54.0559 42.6251C54.1954 42.758 54.2452 42.9607 54.1821 43.1467C53.7104 44.5587 52.8599 45.5686 51.6473 46.15C50.8898 46.5155 50.0061 46.6949 49.0426 46.6949ZM46.3882 45.2431C48.2453 45.8311 49.9828 45.8344 51.2154 45.2464C52.0858 44.8278 52.727 44.1168 53.1223 43.1301C51.8167 41.9308 50.7137 41.4258 49.7536 41.5919C48.3782 41.8311 47.2852 43.5022 46.3882 45.2431Z" fill="#661A47"/>
<path d="M53.4809 43.439C53.1254 43.3061 52.7467 43.2131 52.3414 43.1732C51.9361 43.1333 51.5108 43.1267 51.0756 43.1699C50.2051 43.2529 49.3247 43.4789 48.4443 43.8144C48.7799 43.4789 49.1686 43.1998 49.5806 42.9573C49.9958 42.718 50.441 42.5154 50.9095 42.3725C51.3779 42.2297 51.8796 42.13 52.3979 42.1433C52.9128 42.1532 53.4577 42.2629 53.9261 42.5453C54.1653 42.6881 54.2417 42.9971 54.0989 43.2363C53.9726 43.449 53.7135 43.532 53.4909 43.449L53.4809 43.439Z" fill="#651B47"/>
<path d="M9.29793 52.1033C9.6069 52.1199 9.89594 52.1465 10.1916 52.1797C10.4873 52.2129 10.7863 52.2528 11.0853 52.306C11.3843 52.3591 11.6866 52.4222 11.9956 52.5119C12.3046 52.605 12.6169 52.7046 12.9657 52.9206L13.0056 52.9438C13.3577 53.1598 13.4674 53.6216 13.2514 53.9704C13.0355 54.3226 12.5737 54.4323 12.2248 54.2163C12.185 54.193 12.1451 54.1598 12.1119 54.1299C11.9856 54.0136 11.763 53.8907 11.5338 53.7877C11.3012 53.6814 11.0488 53.5851 10.7896 53.4987C10.5305 53.4123 10.2647 53.3326 9.9956 53.2628C9.7265 53.193 9.44743 53.1266 9.18498 53.0701L9.17501 53.0668C8.90923 53.0103 8.73979 52.7512 8.79295 52.4854C8.83946 52.2528 9.05873 52.09 9.29793 52.1033Z" fill="#48C75A"/>
<g opacity="0.3">
<path opacity="0.3" d="M9.29793 52.1033C9.6069 52.1199 9.89594 52.1465 10.1916 52.1797C10.4873 52.2129 10.7863 52.2528 11.0853 52.306C11.3843 52.3591 11.6866 52.4222 11.9956 52.5119C12.3046 52.605 12.6169 52.7046 12.9657 52.9206L13.0056 52.9438C13.3577 53.1598 13.4674 53.6216 13.2514 53.9704C13.0355 54.3226 12.5737 54.4323 12.2248 54.2163C12.185 54.193 12.1451 54.1598 12.1119 54.1299C11.9856 54.0136 11.763 53.8907 11.5338 53.7877C11.3012 53.6814 11.0488 53.5851 10.7896 53.4987C10.5305 53.4123 10.2647 53.3326 9.9956 53.2628C9.7265 53.193 9.44743 53.1266 9.18498 53.0701L9.17501 53.0668C8.90923 53.0103 8.73979 52.7512 8.79295 52.4854C8.83946 52.2528 9.05873 52.09 9.29793 52.1033Z" fill="#6C184E"/>
</g>
<path d="M12.6102 54.7612C12.4009 54.7612 12.1883 54.7047 11.9956 54.5884C11.9358 54.5519 11.8727 54.5054 11.8195 54.4555C11.7896 54.429 11.67 54.3293 11.3511 54.1831C11.1517 54.0901 10.9225 54.0004 10.6534 53.914C10.4076 53.8309 10.1484 53.7545 9.88596 53.6848C9.61686 53.615 9.34443 53.5485 9.09859 53.4987C8.84609 53.4455 8.64011 53.306 8.5039 53.1C8.36769 52.894 8.32118 52.6482 8.37101 52.409C8.46403 51.9671 8.87267 51.6515 9.3245 51.6781C9.6235 51.6947 9.91254 51.7213 10.2414 51.7578C10.5537 51.791 10.866 51.8375 11.1617 51.8907C11.5238 51.9538 11.8262 52.0236 12.1152 52.1067C12.4806 52.2163 12.8096 52.3292 13.1883 52.5618L13.2282 52.5851C13.7797 52.9239 13.9524 53.6515 13.6135 54.203C13.3909 54.5618 13.0056 54.7612 12.6102 54.7612ZM9.26802 52.5319C9.24144 52.5319 9.21487 52.5485 9.20822 52.5817C9.2049 52.6017 9.21154 52.6183 9.21819 52.6283C9.22483 52.6382 9.23812 52.6515 9.25806 52.6548C9.53048 52.7113 9.81952 52.7778 10.1019 52.8542C10.3843 52.9273 10.66 53.0103 10.9225 53.0967C11.2215 53.1964 11.4806 53.296 11.7099 53.4024C12.0189 53.5452 12.2514 53.6848 12.3976 53.8176C12.4109 53.8309 12.4308 53.8442 12.4474 53.8542C12.5969 53.9439 12.7929 53.8974 12.886 53.7479C12.979 53.5984 12.9325 53.4024 12.783 53.3093L12.7431 53.2861C12.4507 53.1067 12.1883 53.0203 11.8727 52.9239C11.6169 52.8509 11.3444 52.7877 11.0155 52.7279C10.7331 52.6781 10.4507 52.6382 10.1484 52.605C9.83613 52.5718 9.55706 52.5452 9.27467 52.5286C9.27134 52.5319 9.27134 52.5319 9.26802 52.5319Z" fill="#661A47"/>
<path d="M9.97968 52.6883C8.24879 46.3561 0.969727 51.5189 0.969727 51.5189C0.969727 51.5189 6.69065 58.3694 9.97968 52.6883Z" fill="#48C75A"/>
<g opacity="0.65">
<path opacity="0.65" d="M9.93982 52.7514C9.95311 52.7282 9.9664 52.7082 9.97968 52.6883C8.24879 46.3561 0.969727 51.5189 0.969727 51.5189C0.969727 51.5189 1.16574 51.7514 1.50129 52.0969C2.86673 51.2265 8.13583 48.2564 9.93982 52.7514Z" fill="white"/>
</g>
<path d="M6.554 55.3693C3.4045 55.3693 0.248359 51.9574 0.112146 51.8045C0.0290896 51.7115 -0.0107775 51.5886 0.00251151 51.4623C0.0191228 51.3394 0.0855679 51.2265 0.19188 51.1567C0.374604 51.0371 4.69686 48.2198 7.79653 49.3859C9.07227 49.8677 9.94602 50.9374 10.3945 52.572C10.4244 52.6816 10.4078 52.8012 10.3513 52.9009C9.49752 54.3726 8.37128 55.1965 7.00583 55.3427C6.853 55.3627 6.7035 55.3693 6.554 55.3693ZM1.11547 51.5986C2.05567 52.5089 4.62045 54.7381 6.91281 54.4922C7.94603 54.3793 8.8231 53.7514 9.51745 52.6251C9.1354 51.3693 8.45765 50.5487 7.49752 50.1866C5.33473 49.376 2.25832 50.9408 1.11547 51.5986Z" fill="#661A47"/>
<path d="M9.92237 53.1135C9.51041 53.0936 9.10509 53.0371 8.69977 52.9673C8.29446 52.9009 7.89246 52.8078 7.49047 52.7148C6.68648 52.5254 5.88582 52.3228 5.0918 52.0537C5.92568 51.9972 6.75293 52.0038 7.58017 52.0271C7.99213 52.0404 8.40409 52.0537 8.81273 52.0935C9.22137 52.1301 9.63001 52.1766 10.032 52.263C10.2646 52.3128 10.4107 52.5421 10.3609 52.7746C10.3177 52.9806 10.1283 53.1201 9.92237 53.1135Z" fill="#651B47"/>
<path d="M6.4043 55.3661C6.95579 54.8777 7.51061 54.396 8.07207 53.9209C8.63353 53.4458 9.19831 52.9707 9.78967 52.5155C9.97904 52.3693 10.2481 52.4059 10.3943 52.5919C10.5405 52.7813 10.504 53.0504 10.3179 53.1966C10.2946 53.2132 10.2714 53.2265 10.2481 53.2398H10.2448C9.6003 53.562 8.95578 53.9142 8.31459 54.2697C7.67672 54.6285 7.03885 54.994 6.4043 55.3661Z" fill="#661A47"/>
<path d="M9.99856 52.7712C9.99856 52.7712 6.30421 52.9938 5.45703 59.3892C5.45703 59.3892 13.0019 56.9872 9.99856 52.7712Z" fill="#48C75A"/>
<g opacity="0.65">
<path opacity="0.65" d="M6.52348 58.7944C7.21783 53.5519 10.2045 53.2794 10.3109 53.2695C10.2245 53.1067 10.1215 52.9406 9.99856 52.7678C9.99856 52.7678 6.30421 52.9904 5.45703 59.3858C5.45703 59.3858 7.08162 58.8675 8.52348 57.8907C7.4969 58.4854 6.52348 58.7944 6.52348 58.7944Z" fill="white"/>
</g>
<path d="M5.45751 59.8177C5.35785 59.8177 5.2615 59.7845 5.18177 59.7181C5.06881 59.625 5.01233 59.4789 5.03227 59.3327C5.91599 52.665 9.80635 52.3527 9.97246 52.3427C10.1186 52.3328 10.2615 52.4025 10.3479 52.5221C11.1087 53.5886 11.318 54.6517 10.9758 55.6849C10.0921 58.336 5.77313 59.738 5.5904 59.7978C5.54722 59.8111 5.5007 59.8177 5.45751 59.8177ZM9.79638 53.2364C9.05884 53.4025 6.79306 54.2763 5.99572 58.7314C7.18509 58.253 9.60369 57.0902 10.1652 55.4091C10.3944 54.7115 10.2748 53.9972 9.79638 53.2364Z" fill="#661A47"/>
<path d="M7.91309 55.5552C8.18551 55.037 8.46458 54.522 8.75362 54.0104C9.04265 53.4988 9.33833 52.9938 9.67721 52.4889C9.8101 52.2895 10.0792 52.2364 10.2752 52.3693C10.4745 52.5021 10.5277 52.7712 10.3948 52.9673C10.3749 52.9972 10.3516 53.0237 10.325 53.047C9.90644 53.4257 9.50113 53.841 9.09913 54.2629C8.69714 54.6882 8.30179 55.12 7.91309 55.5552Z" fill="#661A47"/>
<path d="M9.96901 52.7513C9.96901 52.7513 6.52382 51.3958 7.69658 45.0537C7.69658 45.0537 14.1285 49.6683 9.96901 52.7513Z" fill="#48C75A"/>
<g opacity="0.65">
<path opacity="0.65" d="M8.69658 45.8776C8.12847 45.366 7.69658 45.0537 7.69658 45.0537C6.52383 51.3958 9.969 52.7513 9.969 52.7513C10.0188 52.7148 10.0687 52.6749 10.1152 52.6384C9.42747 52.1301 7.64675 50.3394 8.69658 45.8776Z" fill="white"/>
</g>
<path d="M9.96914 53.1799C9.91598 53.1799 9.86282 53.1699 9.81299 53.15C9.66017 53.0902 6.05552 51.5918 7.27479 44.9772C7.30137 44.8344 7.40103 44.7115 7.53725 44.6583C7.67346 44.6051 7.82628 44.6218 7.94588 44.7081C8.10203 44.8211 11.7764 47.4889 11.7964 50.2862C11.803 51.3726 11.2748 52.3194 10.2216 53.1001C10.1485 53.15 10.0588 53.1799 9.96914 53.1799ZM8.00236 45.841C7.3811 50.3261 9.26814 51.8576 9.9193 52.243C10.6103 51.6683 10.9459 51.0271 10.9392 50.2862C10.9293 48.5188 8.98575 46.6649 8.00236 45.841Z" fill="#661A47"/>
<path d="M8.84668 49.459C9.08256 49.9939 9.32509 50.5254 9.57426 51.0503C9.82675 51.5753 10.0826 52.0969 10.365 52.5852C10.4846 52.7912 10.4148 53.057 10.2055 53.1766C9.99951 53.2962 9.73373 53.2264 9.61412 53.0171C9.59751 52.9872 9.5809 52.9507 9.57426 52.9208C9.40814 52.3361 9.28522 51.7646 9.16562 51.1866C9.04934 50.6085 8.94303 50.0337 8.84668 49.459Z" fill="#661A47"/>
<path d="M3.44119 70.0735C3.45781 70.1 3.46777 70.1133 3.48438 70.1266C3.501 70.1399 3.5309 70.1565 3.58073 70.1665C3.67708 70.1897 3.83322 70.1897 3.99601 70.1665C4.32824 70.1167 4.69369 69.9904 5.05249 69.8409C5.7701 69.5386 6.47774 69.1366 7.16544 68.7147C8.54418 67.8608 9.87641 66.9007 11.1754 65.904C12.4744 64.904 13.7435 63.8575 14.9794 62.7778C15.2884 62.5087 15.5973 62.2362 15.8997 61.9605C16.2086 61.6847 16.501 61.409 16.8199 61.1299C16.9794 60.9904 17.1322 60.8509 17.2917 60.7146L17.7801 60.3193L18.0259 60.1233L18.2784 59.9372L18.7834 59.5618C21.5143 57.6316 24.5442 56.1897 27.6638 55.0867C29.2252 54.5286 30.8099 54.0502 32.4146 53.6515C34.0192 53.2462 35.6405 52.914 37.2751 52.6814C34.0392 53.3326 30.8731 54.2827 27.8066 55.4655C26.2751 56.0635 24.7767 56.7412 23.3249 57.4954C21.8731 58.2562 20.4777 59.1166 19.1688 60.0867L18.687 60.4621L18.4445 60.6482L18.212 60.8442L17.7468 61.2362C17.594 61.3724 17.4478 61.512 17.2983 61.6482C16.9993 61.9173 16.7036 62.2163 16.4013 62.4954C16.099 62.7811 15.7967 63.0635 15.491 63.3426C14.2684 64.4622 13.0159 65.5485 11.7236 66.595C10.4312 67.6382 9.10564 68.6482 7.69368 69.5519C6.98272 70.0037 6.25847 70.4323 5.46113 70.7877C5.05913 70.9605 4.64717 71.1233 4.16212 71.2064C3.9196 71.2429 3.65382 71.2695 3.34817 71.203C3.19535 71.1698 3.02923 71.1067 2.87973 71.0037C2.72691 70.9007 2.59734 70.7545 2.51096 70.605C2.36146 70.3492 2.45116 70.0203 2.70698 69.8708C2.96279 69.7246 3.28837 69.811 3.43787 70.0635L3.44119 70.0735Z" fill="#6C184E"/>
<g opacity="0.3">
<path opacity="0.3" d="M65.881 45.3535C66.3392 45.2347 66.6402 44.8664 66.5532 44.5307C66.4662 44.195 66.0243 44.0191 65.566 44.1378C65.1078 44.2565 64.8068 44.6249 64.8938 44.9606C64.9808 45.2963 65.4227 45.4722 65.881 45.3535Z" fill="#6C184E"/>
</g>
<g opacity="0.3">
<path opacity="0.3" d="M62.0253 43.5409C62.7713 43.3477 63.2615 42.7489 63.1202 42.2037C62.9789 41.6584 62.2597 41.373 61.5137 41.5663C60.7678 41.7596 60.2776 42.3583 60.4189 42.9036C60.5601 43.4489 61.2794 43.7342 62.0253 43.5409Z" fill="#6C184E"/>
</g>
<g opacity="0.3">
<path opacity="0.3" d="M53.1585 37.3945C53.7198 37.1825 54.0398 36.6531 53.8732 36.212C53.7067 35.7709 53.1167 35.585 52.5554 35.797C51.9941 36.0089 51.6741 36.5383 51.8406 36.9794C52.0072 37.4206 52.5972 37.6064 53.1585 37.3945Z" fill="#6C184E"/>
</g>
<g opacity="0.3">
<path opacity="0.3" d="M63.3711 26.7382C63.759 26.5918 63.98 26.2253 63.8646 25.9198C63.7493 25.6143 63.3413 25.4853 62.9534 25.6318C62.5655 25.7782 62.3445 26.1447 62.4598 26.4502C62.5752 26.7557 62.9832 26.8847 63.3711 26.7382Z" fill="#6C184E"/>
</g>
<g opacity="0.3">
<path opacity="0.3" d="M64.7582 34.6198C65.1993 34.4533 65.4508 34.0372 65.3199 33.6904C65.189 33.3437 64.7252 33.1976 64.2841 33.3642C63.843 33.5308 63.5915 33.9469 63.7224 34.2936C63.8533 34.6403 64.317 34.7864 64.7582 34.6198Z" fill="#6C184E"/>
</g>
<g opacity="0.3">
<path opacity="0.3" d="M56.4047 31.2994C56.5144 31.5852 56.3051 31.9273 55.9396 32.0669C55.5742 32.2031 55.1921 32.0835 55.0858 31.7978C54.9762 31.5121 55.1855 31.1699 55.5509 31.0303C55.913 30.8941 56.2951 31.0137 56.4047 31.2994Z" fill="#6C184E"/>
</g>
<g opacity="0.3">
<path opacity="0.3" d="M44.1035 41.743C44.4517 41.4919 44.5739 41.0663 44.3765 40.7925C44.179 40.5186 43.7366 40.5002 43.3884 40.7513C43.0401 41.0025 42.9179 41.428 43.1154 41.7019C43.3128 41.9757 43.7552 41.9941 44.1035 41.743Z" fill="#6C184E"/>
</g>
<g opacity="0.3">
<path opacity="0.3" d="M45.8315 34.3191C46.1768 34.0701 46.2983 33.6487 46.103 33.3778C45.9077 33.107 45.4695 33.0893 45.1242 33.3382C44.7789 33.5872 44.6574 34.0086 44.8527 34.2795C45.048 34.5504 45.4862 34.5681 45.8315 34.3191Z" fill="#6C184E"/>
</g>
<g opacity="0.3">
<path opacity="0.3" d="M22.3837 54.0817C22.8421 53.7512 23.0031 53.1912 22.7434 52.8311C22.4837 52.471 21.9016 52.447 21.4432 52.7775C20.9849 53.108 20.8238 53.6679 21.0835 54.0281C21.3432 54.3882 21.9254 54.4122 22.3837 54.0817Z" fill="#6C184E"/>
</g>
<g opacity="0.3">
<path opacity="0.3" d="M22.8079 48.5476C23.1948 48.2685 23.331 47.7962 23.1121 47.4926C22.8932 47.189 22.402 47.1691 22.0151 47.4481C21.6281 47.7272 21.4919 48.1995 21.7109 48.5031C21.9298 48.8067 22.4209 48.8266 22.8079 48.5476Z" fill="#6C184E"/>
</g>
<g opacity="0.3">
<path opacity="0.3" d="M14.4113 58.9885C14.6657 58.805 14.7555 58.4946 14.6117 58.2951C14.4678 58.0957 14.145 58.0828 13.8905 58.2663C13.636 58.4499 13.5463 58.7603 13.6901 58.9597C13.8339 59.1591 14.1568 59.172 14.4113 58.9885Z" fill="#6C184E"/>
</g>
<g opacity="0.3">
<path opacity="0.3" d="M22.9973 38.624C23.3843 38.345 23.5205 37.8726 23.3015 37.569C23.0826 37.2654 22.5915 37.2455 22.2045 37.5246C21.8176 37.8036 21.6814 38.2759 21.9003 38.5795C22.1192 38.8831 22.6104 38.903 22.9973 38.624Z" fill="#6C184E"/>
</g>
<g opacity="0.3">
<path opacity="0.3" d="M30.6677 33.3654C31.1737 33.0005 31.3516 32.3826 31.0651 31.9853C30.7785 31.5879 30.1361 31.5616 29.6301 31.9265C29.1241 32.2914 28.9462 32.9093 29.2327 33.3066C29.5192 33.704 30.1617 33.7303 30.6677 33.3654Z" fill="#6C184E"/>
</g>
<path d="M73.2193 46.3259C72.1362 52.482 86.1927 53.4787 86.1927 53.4787C86.1927 53.4787 95.0963 32.6415 80.7309 14.8575C66.3655 -2.92653 46.8306 -0.232185 44.701 3.96714C42.5715 8.16647 46.7907 10.0867 46.7907 10.0867C46.7907 10.0867 79.0864 12.9339 73.2193 46.3259Z" fill="#EB984E"/>
<g opacity="0.65">
<path opacity="0.65" d="M80.7301 14.8575C66.368 -2.92989 46.8298 -0.232213 44.7003 3.96712C42.8032 7.70798 45.9428 9.64153 46.6504 10.0203C45.7966 9.10001 45.089 7.58838 46.182 5.43223C46.6471 4.51529 48.0092 3.67476 49.9893 3.13988C49.5308 3.43224 49.2783 3.76446 49.3315 4.07343C49.4411 4.69469 50.7733 4.98041 52.3049 4.70466C53.8365 4.43224 54.986 3.70466 54.8763 3.0834C54.8365 2.86081 54.6371 2.68141 54.3315 2.55516C61.3049 2.3824 71.4145 5.31928 79.6803 15.5552C93.0324 32.09 84.7567 51.4621 84.7567 51.4621C84.7567 51.4621 75.4876 50.8043 73.162 47.1764C73.4477 52.5784 86.1919 53.482 86.1919 53.482C86.1919 53.482 95.0956 32.6415 80.7301 14.8575Z" fill="white"/>
</g>
<g opacity="0.3">
<path opacity="0.3" d="M86.1919 53.4822C86.1919 53.4822 87.4045 50.6416 88.2118 46.1632C86.74 44.7646 84.5075 43.6117 82.162 42.6682C80.0889 41.8343 78.8032 39.7546 78.9959 37.5287C79.4942 31.7845 79.4676 24.5486 74.4909 18.3825C63.2617 4.47556 48.0424 6.36593 46.0059 9.61177C46.4477 9.93071 46.7899 10.0902 46.7899 10.0902C46.7899 10.0902 79.0889 12.934 73.2185 46.3293C72.1354 52.4855 86.1919 53.4822 86.1919 53.4822Z" fill="#6C184E"/>
</g>
<path d="M86.1923 54.0967C86.179 54.0967 86.1624 54.0967 86.1491 54.0967C85.7537 54.0701 76.4281 53.3658 73.468 49.5751C72.6873 48.5751 72.3983 47.4455 72.6142 46.2229C74.3584 36.2994 72.8534 28.1465 68.1391 21.9971C60.5013 12.0336 46.8734 10.7147 46.7371 10.7014C46.6674 10.6947 46.6009 10.6781 46.5378 10.6482C46.4514 10.6084 44.4381 9.67148 43.7305 7.65487C43.3019 6.42896 43.4448 5.09673 44.1558 3.69142C44.993 2.04358 47.8268 0.774478 51.5544 0.379129C59.6973 -0.478013 71.7637 2.77115 81.2122 14.4721C88.7537 23.811 89.8634 33.9871 89.4647 40.8741C89.0328 48.3293 86.8534 53.5053 86.7604 53.7213C86.6607 53.9505 86.4381 54.0967 86.1923 54.0967ZM73.2188 46.3259L73.8235 46.4323C73.6707 47.3126 73.87 48.0901 74.4348 48.8143C76.7238 51.7479 83.9198 52.6415 85.7903 52.8243C86.3052 51.4621 87.8933 46.8376 88.2388 40.7545C88.6175 34.0934 87.5411 24.2595 80.2554 15.2396C71.1159 3.92398 59.5013 0.774478 51.6807 1.5984C47.9664 1.99042 45.7737 3.20969 45.2488 4.24291C44.694 5.33594 44.571 6.34258 44.8833 7.23627C45.3418 8.55853 46.6242 9.30936 46.9631 9.48544C47.6242 9.5552 50.8634 9.95055 54.9464 11.409C59.1026 12.8907 64.9331 15.7977 69.1059 21.2363C74.0428 27.6715 75.6308 36.1465 73.8235 46.4289L73.2188 46.3259Z" fill="#6C184E"/>
<path d="M86.1921 53.482C86.1921 53.482 83.4412 56.5884 78.0094 54.9006C72.5775 53.2163 71.3017 49.4588 73.2187 46.3259C75.1323 43.193 90.0891 47.1432 86.1921 53.482Z" fill="#F7AF41"/>
<g opacity="0.3">
<path opacity="0.3" d="M86.1921 53.482C86.1921 53.482 83.4412 56.5884 78.0094 54.9006C72.5775 53.2163 71.3017 49.4588 73.2187 46.3259C75.1323 43.193 90.0891 47.1432 86.1921 53.482Z" fill="#6C184E"/>
</g>
<path d="M81.1395 56.0203C80.1628 56.0203 79.0598 55.8708 77.8272 55.4854C74.0664 54.3193 72.6379 52.3758 72.0997 50.9472C71.5017 49.3625 71.7143 47.6083 72.6944 46.0037C73.4352 44.7911 75.2857 44.5818 76.7076 44.6183C80.4186 44.7147 85.3854 46.5951 86.9435 49.4622C87.691 50.8442 87.6146 52.3425 86.7176 53.801C86.6977 53.8309 86.6777 53.8608 86.6545 53.8874C86.5548 53.997 84.711 56.0203 81.1395 56.0203ZM76.4153 45.8442C75.0432 45.8442 74.0532 46.1399 73.7442 46.6482C72.9535 47.9406 72.7841 49.2794 73.2492 50.5186C73.8738 52.1731 75.6279 53.5219 78.1927 54.316C82.897 55.7744 85.3754 53.4489 85.701 53.11C86.3422 52.0369 86.3953 51.0369 85.8605 50.0535C84.5581 47.6482 80.0565 45.9406 76.6744 45.8509C76.5847 45.8442 76.4983 45.8442 76.4153 45.8442Z" fill="#6C184E"/>
<path d="M54.4247 7.42229C54.2951 7.14986 54.252 6.84754 54.252 6.55186C54.252 6.25285 54.3084 5.95053 54.4147 5.66481C54.5177 5.37578 54.6872 5.11 54.9064 4.89405C55.1224 4.67478 55.4015 4.52196 55.7038 4.46216C55.5609 4.74455 55.4048 4.95385 55.2852 5.18973C55.1589 5.41565 55.0427 5.63824 54.943 5.87412C54.84 6.11 54.7503 6.35584 54.6672 6.61166C54.5875 6.87079 54.5078 7.13657 54.4247 7.42229Z" fill="#6D184E"/>
<path d="M56.053 8.49879C55.9666 8.10012 55.9866 7.68816 56.0497 7.28285C56.1195 6.88086 56.259 6.48551 56.455 6.12006C56.6477 5.75129 56.9168 5.41906 57.2424 5.1566C57.3254 5.09348 57.4085 5.02704 57.4949 4.97056C57.5846 4.9174 57.6776 4.86757 57.7706 4.82438C57.8603 4.77454 57.96 4.74132 58.0597 4.71142C58.1593 4.68152 58.259 4.65494 58.3587 4.63501C58.0829 4.95062 57.8072 5.19647 57.5812 5.4988C57.3487 5.78451 57.1327 6.08019 56.95 6.39913C56.764 6.71474 56.6012 7.05029 56.455 7.40245C56.3088 7.75129 56.1826 8.11341 56.053 8.49879Z" fill="#6D184E"/>
<path d="M79.0391 34.7013C79.3779 34.4289 79.7799 34.2495 80.1952 34.1166C80.6138 33.987 81.0557 33.9272 81.5008 33.9338C81.946 33.9338 82.3945 34.0269 82.8032 34.2029C82.9028 34.2495 83.0058 34.2926 83.1022 34.3491C83.1952 34.4089 83.2882 34.472 83.3779 34.5352C83.4709 34.595 83.5507 34.6714 83.6304 34.7511C83.7068 34.8308 83.7832 34.9073 83.853 34.9936C83.4244 34.8807 83.0523 34.7312 82.6537 34.6647C82.265 34.5817 81.8796 34.5219 81.4809 34.5053C81.0856 34.4853 80.6869 34.4953 80.2783 34.5318C79.8729 34.5651 79.4643 34.6282 79.0391 34.7013Z" fill="#6D184E"/>
<path d="M78.3584 37.5418C78.89 37.2661 79.478 37.1133 80.0727 37.0236C80.6707 36.9372 81.2853 36.9405 81.8866 37.0335C82.0361 37.0634 82.189 37.0767 82.3385 37.1199C82.4846 37.1631 82.6341 37.1996 82.7803 37.2462C82.9265 37.2927 83.066 37.3558 83.2089 37.4156L83.4182 37.5053L83.6175 37.6183C83.7471 37.698 83.8833 37.7711 84.0062 37.8575C84.1258 37.9505 84.2454 38.0501 84.3617 38.1465C84.4182 38.1963 84.478 38.2428 84.5311 38.296L84.684 38.4654C84.7836 38.5817 84.88 38.6947 84.9697 38.8143C84.4315 38.5385 83.9498 38.2395 83.4082 38.0535L83.2155 37.9704L83.0129 37.9073C82.8767 37.8674 82.7471 37.8143 82.6142 37.7777C82.478 37.7445 82.3418 37.708 82.2056 37.6747C82.0694 37.6382 81.9298 37.6216 81.7936 37.5917C81.2388 37.492 80.674 37.4455 80.0993 37.4389C79.5278 37.4389 78.9498 37.4754 78.3584 37.5418Z" fill="#6D184E"/>
<path d="M60.8057 32.6117C65.1578 30.316 66.4967 32.4223 67.0781 36.5353C63.902 36.9506 61.1246 36.0569 60.8057 32.6117Z" fill="#48C75A"/>
<path d="M66.3575 37.3291C64.5104 37.3291 62.9489 36.8474 61.8858 35.9371C60.9423 35.1265 60.4207 34.0168 60.3376 32.6381C60.3277 32.4587 60.4207 32.2893 60.5768 32.2029C62.4439 31.1697 63.9124 30.9272 65.0685 31.4654C66.7296 32.2361 67.3775 34.4487 67.8326 36.7245C67.8592 36.854 67.8293 36.9869 67.7496 37.0932C67.6698 37.1996 67.5502 37.266 67.4207 37.2793C67.0585 37.3125 66.7031 37.3291 66.3575 37.3291ZM61.2944 32.874C61.4107 33.8541 61.8127 34.6447 62.4905 35.2295C63.4506 36.0534 65.0054 36.4653 66.8127 36.3889C66.4273 34.6148 65.8492 32.8541 64.6765 32.3125C63.8625 31.9305 62.7529 32.1165 61.2944 32.874Z" fill="#661A47"/>
<path d="M60.7128 32.1566C61.2011 32.0171 61.7161 32.0503 62.1779 32.1633C62.643 32.2762 63.0682 32.4856 63.4536 32.7248C63.839 32.9673 64.1911 33.253 64.5034 33.5686C64.8157 33.8842 65.0948 34.2297 65.3141 34.6085C64.6097 34.0969 63.8722 33.6849 63.1147 33.3992C62.736 33.2563 62.3539 33.16 61.9818 33.1002C61.6098 33.0404 61.251 33.0337 60.8988 33.0669H60.8822C60.6264 33.0902 60.3971 32.9008 60.3739 32.645C60.354 32.4191 60.5001 32.2164 60.7128 32.1566Z" fill="#651B47"/>
</svg>
