<svg width="17" height="22" viewBox="0 0 17 22" fill="none" xmlns="http://www.w3.org/2000/svg">
<path d="M0.333496 21.8918C0.333496 19.7746 1.1746 17.7442 2.67176 16.2472C4.16893 14.7501 6.19952 13.9091 8.31683 13.9091C10.4341 13.9091 12.4647 14.7501 13.9619 16.2472C15.4591 17.7442 16.3002 19.7746 16.3002 21.8918H14.3043C14.3043 20.3039 13.6735 18.7811 12.5506 17.6583C11.4278 16.5355 9.90482 15.9048 8.31683 15.9048C6.72885 15.9048 5.2059 16.5355 4.08303 17.6583C2.96016 18.7811 2.32933 20.3039 2.32933 21.8918H0.333496ZM8.31683 12.9113C5.00874 12.9113 2.32933 10.2321 2.32933 6.92426C2.32933 3.61644 5.00874 0.937256 8.31683 0.937256C11.6249 0.937256 14.3043 3.61644 14.3043 6.92426C14.3043 10.2321 11.6249 12.9113 8.31683 12.9113ZM8.31683 10.9156C10.5222 10.9156 12.3085 9.12948 12.3085 6.92426C12.3085 4.71905 10.5222 2.93293 8.31683 2.93293C6.11144 2.93293 4.32516 4.71905 4.32516 6.92426C4.32516 9.12948 6.11144 10.9156 8.31683 10.9156Z" fill="#2D3748"/>
</svg>
