<svg width="105" height="81" viewBox="0 0 105 81" fill="none" xmlns="http://www.w3.org/2000/svg">
<g clip-path="url(#clip0_1_2249)">
<path d="M101.503 32.9119V32.9153L101.483 32.9359C100.404 34.1382 99.0232 34.9833 97.1957 34.9833C96.5018 34.9833 95.4678 34.9317 94.1831 34.8665C92.2698 34.7703 89.8068 34.6432 87.0484 34.6295L86.9831 34.918C86.7083 36.1512 86.4473 37.3123 85.4786 37.8481C84.637 38.3153 84.0874 38.1573 83.8194 37.2504C83.6683 36.7386 83.658 35.897 83.7748 34.6707C82.2736 34.7153 80.7107 34.7978 79.1305 34.9455C77.4301 35.0966 75.6988 35.3199 73.9744 35.6359C73.9195 35.7287 73.8645 35.8043 73.7958 35.873C73.5966 36.0962 73.3699 36.2336 73.126 36.2852C72.8718 36.3401 72.6176 36.3058 72.3737 36.1821C72.0233 36.0104 71.721 35.6497 71.5458 35.1413C71.4531 34.8768 71.3638 34.7016 71.2779 34.6191C71.2538 34.6432 71.2229 34.6844 71.1851 34.7394C70.9172 35.1447 70.6836 35.9966 70.5599 37.3191C70.4088 38.968 70.2611 40.1187 69.9451 40.8779C69.5603 41.8019 68.9764 42.1764 67.987 42.1042C66.4447 41.9943 66.4206 39.4832 66.5477 36.8348C65.2184 37.0271 63.8203 37.2195 62.3981 37.4084C60.5226 37.6558 58.7501 37.8791 57.1356 38.0714C55.3253 38.2878 51.6875 38.4562 48.0772 38.6245C44.0547 38.8065 40.0631 38.9955 38.7063 39.2428C36.7998 39.5932 35.2265 39.71 34.0964 39.5932C33.4265 39.521 32.8907 39.3664 32.5094 39.126C32.0491 38.8306 31.8086 38.4321 31.8086 37.9134C31.8086 37.697 31.8601 37.4634 31.9563 37.2229C32.341 36.2543 33.1345 35.1241 34.3849 33.8909C35.4841 32.8123 36.9475 31.6444 38.8265 30.4283C40.4685 29.3634 41.6501 28.0512 42.873 26.6841C44.5322 24.8394 46.2704 22.9055 49.3551 21.2944C51.2684 20.2948 53.5356 18.6459 56.0123 16.8356C60.368 13.665 65.3729 10.0135 70.4191 8.45744C72.4424 7.83225 74.1015 7.37195 75.4687 6.99065C78.0004 6.28989 79.5496 5.8605 80.6523 5.146C80.7553 3.4525 81.7412 2.07846 83.0671 1.21969C83.7713 0.762819 84.5786 0.45366 85.3893 0.316256C86.2102 0.178852 87.0415 0.223509 87.8041 0.484576C89.0373 0.900223 90.0576 1.85518 90.4972 3.47655C91.0709 5.57196 92.0224 6.69523 93.2247 8.11049C94.1385 9.18568 95.193 10.4223 96.33 12.3563C97.7247 14.7196 98.8926 15.8463 99.8991 16.8185C100.816 17.7047 101.613 18.4708 102.338 19.8723C103.104 21.3425 103.777 22.8745 104.124 24.3963C104.475 25.9593 104.475 27.4948 103.849 28.9238C103.262 30.2772 102.527 31.7474 101.496 32.905V32.9119H101.503Z" fill="#3F2109"/>
<path d="M81.5972 5.40712C81.5972 6.37581 81.8308 7.38917 82.2258 8.34413C82.638 9.33687 83.2289 10.2609 83.9193 10.9823C84.8743 11.975 85.2384 13.0159 85.6231 14.1254C86.0456 15.3277 86.4956 16.6158 87.8388 17.959C88.7731 18.8933 89.491 19.4189 90.1265 19.8826C91.3048 20.7448 92.2151 21.4078 93.596 23.8227C94.8189 25.9627 95.712 27.4742 96.2444 28.3673C96.9074 27.7833 97.5567 27.2406 98.3502 27.0998C97.9105 25.365 97.1341 22.8746 96.2857 20.8101C94.9425 17.533 89.0651 10.9823 85.788 7.28955C84.3487 5.66818 84.3212 3.44567 84.7369 1.46362C84.335 1.60103 83.9468 1.78652 83.5861 2.02011C82.4457 2.76209 81.6041 3.9472 81.5938 5.40712H81.5972Z" fill="#D55412"/>
<path d="M98.3503 27.0998C98.948 26.9933 99.635 27.1135 100.477 27.6185C101.672 28.333 102.194 29.1437 102.359 29.9166C102.593 29.4666 102.799 29.0028 102.995 28.5563C103.527 27.3334 103.524 25.9902 103.211 24.6093C102.892 23.1906 102.242 21.7273 101.507 20.3155C100.848 19.0479 100.109 18.3334 99.2503 17.5056C98.1957 16.4922 96.9797 15.314 95.5232 12.8441C94.424 10.9789 93.4038 9.77658 92.5107 8.73231C91.2362 7.23117 90.2229 6.03919 89.5943 3.73768C89.2439 2.45982 88.4572 1.71441 87.5092 1.39494C86.9011 1.19227 86.221 1.15792 85.5477 1.26784C85.2729 1.3125 85.005 1.37777 84.737 1.47051C84.3145 3.45256 84.3454 5.67507 85.7882 7.29644C89.0653 10.9926 94.9427 17.5399 96.2858 20.817C97.1343 22.8746 97.9072 25.3719 98.3503 27.1067V27.0998Z" fill="#ED9352"/>
<path d="M97.0244 27.718C97.9485 27.0447 98.9515 26.7046 100.473 27.6115C100.834 27.8245 101.133 28.0478 101.377 28.2745C101.59 27.292 101.803 25.7909 101.538 24.3653C101.092 21.9505 98.237 19.4119 95.5645 16.1692C92.8955 12.9299 92.576 11.2158 90.3569 8.48145C88.1344 5.74712 88.1241 4.63758 87.3684 2.44599C87.2172 1.99942 87.0901 1.59752 86.9836 1.2437C86.5233 1.16126 86.0356 1.16813 85.5478 1.24714C84.8642 1.35706 84.184 1.62156 83.5898 2.00629C83.1947 2.26393 82.834 2.57309 82.5283 2.93034C82.5627 4.24941 82.8684 5.80208 83.813 7.26543C86.1008 10.8242 87.1794 11.2673 87.8802 13.3009C88.581 15.3345 89.1546 16.7944 92.5829 19.3364C96.0111 21.8783 97.2168 24.544 97.2168 25.4989C97.2168 25.9661 97.1206 26.8833 97.0244 27.7043V27.718Z" fill="#FFC280"/>
<path d="M35.1654 34.4405C35.1344 34.6432 35.1757 34.7291 35.2753 34.7565C35.5638 34.8287 36.0757 34.7909 36.7111 34.7531C37.2024 34.7187 37.7623 34.681 38.3531 34.681C39.1741 34.681 40.0432 34.4817 40.9398 34.2791C42.6333 33.8943 44.4127 33.489 46.3191 34.2138C47.4252 34.6363 48.7134 34.7565 49.9741 34.7153C51.75 34.6604 53.4573 34.2756 54.529 33.9287C55.5081 33.6126 56.2019 33.4375 56.8821 33.3619C57.5622 33.2794 58.2115 33.2966 59.1046 33.3516C59.8844 33.4031 60.9802 33.0562 62.0451 32.6165C63.1443 32.1596 64.2057 31.5962 64.8653 31.2356C65.7309 30.7649 66.4626 30.6894 67.0122 31.2768C67.4588 31.7577 67.6855 32.7333 67.6271 34.3993C67.6065 34.9283 67.5825 35.4436 67.5515 35.9623C67.4141 38.4664 67.2664 41.1115 68.0634 41.1699C68.5752 41.2042 68.8809 41.0084 69.0836 40.5206C69.3515 39.8714 69.4889 38.7928 69.6298 37.2401C69.7672 35.7527 70.0592 34.7497 70.4061 34.2275C70.5779 33.963 70.7805 33.7913 71.0004 33.7088C71.2786 33.6058 71.5466 33.647 71.8008 33.8256C72.055 34.0077 72.2782 34.3478 72.45 34.839C72.5428 35.1035 72.6664 35.2752 72.8038 35.3405C72.845 35.3611 72.8897 35.3714 72.9309 35.3611C72.9824 35.3508 73.0374 35.3096 73.0924 35.2443C73.3019 35.0073 73.4634 34.5298 73.4771 33.7535L73.4874 33.1867C73.4908 32.7367 73.4977 32.3451 73.5286 32.0188C73.6592 30.4627 74.1641 29.8066 76.4966 29.9989C78.1385 30.1363 79.2446 30.0127 80.361 29.8924C81.0309 29.8169 81.7042 29.7447 82.5149 29.7207C83.8168 29.6863 84.4763 30.0436 84.782 30.9127C85.0362 31.6443 84.9504 32.7023 84.7786 34.231C84.6171 35.629 84.6 36.5222 84.7339 36.9756C84.7683 37.1027 84.8713 37.1061 85.0294 37.0203C85.6339 36.6871 85.8469 35.7287 86.0736 34.7084C86.4446 33.0596 86.8397 31.2836 88.8767 30.7924C89.337 30.6825 89.55 30.497 89.7526 30.3253C90.2816 29.8684 90.7522 29.4665 93.1156 29.7825C94.1083 29.913 94.8606 29.5077 95.5202 28.9856C94.998 28.1131 94.0706 26.5501 92.7824 24.2932C91.4977 22.0501 90.6629 21.4387 89.5774 20.6417C88.9145 20.1539 88.1587 19.6009 87.1832 18.6287C85.6923 17.1379 85.2011 15.7364 84.7442 14.4345C84.3904 13.4246 84.0607 12.4765 83.2465 11.6315C82.4771 10.8242 81.821 9.80742 81.3641 8.70475C81.0309 7.90437 80.8007 7.0559 80.7114 6.22461C79.5504 6.8498 78.032 7.26888 75.7408 7.90437C74.3771 8.28567 72.7282 8.73567 70.7153 9.36085C65.8168 10.8757 60.8806 14.4723 56.5867 17.5982C54.0756 19.4291 51.7775 21.0986 49.8126 22.1257C46.8825 23.6509 45.2027 25.5299 43.5951 27.3127C42.3275 28.7211 41.1115 30.0779 39.3596 31.2115C37.6043 32.3485 36.2268 33.434 35.186 34.4371H35.1654V34.4405Z" fill="#FFC014"/>
<path d="M66.5999 35.8659C66.6308 35.3369 66.6548 34.8148 66.6754 34.3545C66.727 32.9598 66.5896 32.2041 66.3148 31.9087C66.1361 31.7163 65.7823 31.8022 65.3117 32.0598C64.6384 32.4239 63.5461 33.0045 62.4056 33.4785C61.2274 33.9697 59.9873 34.3442 59.0427 34.2858C58.2114 34.2308 57.6068 34.2205 56.9885 34.2892C56.3702 34.3613 55.7312 34.5228 54.8141 34.8182C53.6839 35.1823 51.877 35.5876 50.0015 35.6495C48.6274 35.6941 47.2122 35.5567 45.9859 35.093C44.3439 34.4678 42.7053 34.8388 41.1492 35.1995C40.1943 35.4159 39.2737 35.6254 38.3599 35.6254C37.7725 35.6254 37.2435 35.6598 36.7764 35.6907C36.0619 35.7422 35.4848 35.7834 35.052 35.6701C34.7428 35.5945 34.5092 35.4674 34.3684 35.2682C33.6092 36.1201 33.1111 36.8895 32.8432 37.5594C32.7917 37.6899 32.7607 37.8067 32.7607 37.9029C32.7607 38.0643 32.8535 38.2086 33.0252 38.3151C33.2794 38.4765 33.6745 38.583 34.2035 38.638C35.2478 38.7479 36.7351 38.638 38.5489 38.3048C39.9676 38.0403 43.9969 37.8582 48.0538 37.6693C51.6332 37.5079 55.2366 37.3395 57.04 37.1231C58.785 36.9102 60.5747 36.6869 62.2957 36.4602C63.7006 36.2712 65.1503 36.0754 66.617 35.8625H66.5999V35.8659ZM100.779 32.3072C100.872 32.1972 102.624 29.9953 99.9924 28.4221C99.0856 27.8793 98.4054 27.9961 97.7871 28.3602C96.1073 29.3633 95.5062 31.0465 92.9883 30.7098C91.0406 30.4522 90.7211 30.7236 90.3673 31.0293C90.0822 31.2732 89.7799 31.5377 89.0929 31.6991C88.0623 31.9465 87.5952 32.7434 87.3032 33.6709C89.9997 33.6915 92.3803 33.8117 94.2352 33.9079C95.4787 33.9697 96.4783 34.0178 97.2031 34.0178C98.718 34.0178 99.8722 33.3068 100.783 32.2934L100.779 32.3072ZM83.875 33.7121C84.0021 32.5339 84.0536 31.7094 83.8853 31.2182C83.7444 30.806 83.3494 30.6411 82.5318 30.6617C81.7796 30.6824 81.1166 30.7545 80.457 30.8301C79.296 30.9572 78.1384 31.0877 76.4139 30.94C74.8681 30.8129 74.5418 31.1873 74.4662 32.0907C74.4422 32.4239 74.4319 32.7812 74.425 33.1865L74.4147 33.7636C74.4113 34.0728 74.3804 34.351 74.3323 34.6018C75.9055 34.3338 77.4822 34.1346 79.0383 33.9938C80.6872 33.8426 82.3154 33.7568 83.875 33.7155V33.7121Z" fill="#D55412"/>
<path d="M54.6597 26.1103C55.4669 25.7943 56.3635 25.7565 57.0987 26.0244C57.4147 26.1412 57.7411 26.4367 57.9094 26.7561C57.9918 26.9141 58.0365 27.079 58.0262 27.2473C58.0159 27.4363 57.9437 27.608 57.7926 27.7489C57.6002 27.9275 57.2739 28.0546 56.7723 28.0683C56.604 28.0718 56.4769 28.1405 56.4185 28.2263C56.4082 28.247 56.3979 28.2607 56.3979 28.2779C56.3979 28.2813 56.3979 28.2882 56.4013 28.2985C56.4529 28.3706 56.6006 28.4359 56.8823 28.4599C57.0643 28.4737 57.2361 28.4943 57.3941 28.5252C57.5521 28.5561 57.693 28.5973 57.8098 28.642C58.2048 28.8 58.3525 29.092 58.3285 29.4389C58.3079 29.7275 58.1464 30.0538 57.9059 30.3355C57.6792 30.6034 57.3838 30.8542 57.0678 31.0156C56.5387 31.2905 55.9719 31.3317 55.5975 30.8989C55.3982 30.6721 55.2918 30.3252 55.1818 29.9748L55.1784 29.9542C55.0685 29.5901 54.9414 29.408 54.828 29.3565L54.8177 29.3531C54.8143 29.3531 54.8177 29.3531 54.8177 29.3565C54.773 29.4115 54.7524 29.5282 54.7765 29.6863C54.8589 30.016 54.7902 30.2943 54.6288 30.4969C54.5257 30.624 54.3917 30.7202 54.2371 30.7752C54.0894 30.8301 53.9211 30.8508 53.7597 30.8302C53.4299 30.7889 53.0864 30.6034 52.8528 30.2153C52.6432 29.8752 52.5367 29.4286 52.5333 28.9786C52.5299 28.5286 52.626 28.0649 52.8184 27.7008C53.2135 26.9554 53.8971 26.416 54.6597 26.1241V26.1103Z" fill="#3F2109"/>
<path d="M56.906 26.557C56.298 26.3337 55.5423 26.3749 54.8622 26.6394C54.2233 26.8867 53.6462 27.3402 53.3164 27.9516C53.1687 28.2299 53.0932 28.594 53.1 28.9547C53.1035 29.3085 53.1825 29.6486 53.3371 29.9028C53.4676 30.1192 53.6565 30.2257 53.8248 30.2463C53.9073 30.2566 53.976 30.2463 54.0412 30.2222C54.0962 30.2016 54.1477 30.1673 54.1821 30.1192C54.237 30.0436 54.2645 29.9371 54.2267 29.7894L54.2233 29.7688C54.158 29.4287 54.2336 29.1402 54.3847 28.9615C54.4706 28.8585 54.5771 28.7932 54.7008 28.7692C54.821 28.7451 54.9481 28.7589 55.0752 28.8207C55.3088 28.9375 55.5526 29.2329 55.7141 29.7654L55.7175 29.786C55.8103 30.0814 55.8996 30.3631 56.0232 30.5073C56.195 30.7066 56.5007 30.655 56.803 30.497C57.0469 30.3699 57.2839 30.1741 57.4659 29.9543C57.6343 29.7516 57.7442 29.5421 57.7545 29.3806C57.7579 29.2844 57.7133 29.1986 57.593 29.147C57.5106 29.1127 57.4041 29.0852 57.2839 29.0612C57.1568 29.0371 57.0056 29.0165 56.8339 28.9993C56.3564 28.9581 56.0748 28.7967 55.9374 28.594C55.8549 28.4772 55.8274 28.3501 55.8309 28.223C55.8343 28.1028 55.8824 27.986 55.9511 27.8829C56.1022 27.6665 56.3976 27.4982 56.7515 27.4879C57.1018 27.4776 57.3045 27.4123 57.4041 27.3196C57.4385 27.2852 57.4556 27.2474 57.4591 27.2096C57.4625 27.1478 57.4385 27.0791 57.4041 27.0001C57.2976 26.7974 57.095 26.6154 56.9026 26.5432V26.557H56.906Z" fill="#F4EBE0"/>
<path d="M72.5802 12.1742C72.5905 12.102 72.6043 12.0265 72.6249 11.9509C72.8344 11.0749 73.5524 10.3982 74.4901 10.0032C75.1497 9.72495 75.9191 9.57724 76.692 9.59785C77.4683 9.61846 78.2447 9.80052 78.9145 10.1749C79.8385 10.6936 80.553 11.5662 80.7694 12.8612C80.8347 13.2459 80.8347 13.6066 80.7832 13.9398C80.6767 14.62 80.3538 15.1868 79.8763 15.6127C79.4091 16.0352 78.7977 16.3135 78.1107 16.4303C77.6504 16.5058 77.1523 16.5127 76.6439 16.4337C76.5065 16.4131 76.3588 16.3822 76.2077 16.3478C75.1668 16.1005 74.1947 15.5474 73.5146 14.8226C72.8138 14.0772 72.4257 13.1497 72.5699 12.1742H72.5802Z" fill="#3F2109"/>
<path d="M73.1742 12.078C73.1604 12.1398 73.1501 12.1948 73.1398 12.2566C73.0196 13.0467 73.3493 13.8093 73.9368 14.431C74.5413 15.0734 75.4173 15.5715 76.3516 15.7948C76.4719 15.8257 76.6058 15.8497 76.7433 15.8703C77.1898 15.9425 77.6261 15.9356 78.0314 15.8669C78.6085 15.7707 79.1204 15.5371 79.512 15.1936C79.8933 14.8535 80.1509 14.4035 80.2368 13.8608C80.278 13.5825 80.278 13.2837 80.223 12.9574C80.0341 11.8513 79.4261 11.1058 78.6463 10.6696C78.0589 10.3398 77.3719 10.1784 76.6883 10.1612C75.9978 10.1474 75.3074 10.2711 74.72 10.5219C73.9436 10.8516 73.3459 11.3875 73.1845 12.078H73.1742Z" fill="#F83822"/>
<path d="M75.5614 11.6658C75.2935 11.3566 75.0393 11.0818 74.9122 11.0165C74.5962 10.8482 73.813 12.0299 73.8164 12.8406C73.8164 13.4932 74.105 14.0428 75.3072 13.3524C76.2175 12.8371 76.2381 12.4455 75.5614 11.6658ZM76.0355 11.5696C75.8671 11.1986 75.7263 10.8482 75.716 10.7074C75.6954 10.3535 77.3786 10.3845 78.1137 10.728C78.7079 11.0028 78.7972 11.2467 77.674 12.047C76.8221 12.6551 76.4614 12.5074 76.032 11.5696H76.0355ZM75.5511 13.7715C75.211 14.0875 74.9019 14.3967 74.8366 14.5238C74.6786 14.8432 76.4992 15.6127 77.3099 15.5955C77.9488 15.5818 78.0518 15.2245 77.3545 14.0291C76.7534 12.9848 76.4442 12.9436 75.5511 13.7715ZM78.3198 12.1673C78.7491 11.9887 78.9724 11.9406 79.1167 11.9646C79.7212 12.0711 79.8415 13.9226 79.2369 14.5375C78.7904 14.9875 78.5877 15.0493 77.7976 13.9192C77.1072 12.9367 77.1999 12.6344 78.3266 12.1707H78.3198V12.1673Z" fill="#D42411"/>
<path d="M76.8499 14.218C76.7675 14.273 76.7984 14.4928 76.9152 14.6989C77.032 14.9085 77.1934 15.0287 77.2759 14.9737C77.3583 14.9188 77.3274 14.6989 77.2106 14.4928C77.0938 14.2833 76.9324 14.1596 76.8499 14.218ZM76.6576 11.6005C76.7434 11.5592 76.7434 11.3325 76.661 11.0886C76.5786 10.8516 76.448 10.6867 76.3622 10.728C76.2763 10.7692 76.2763 10.9959 76.3587 11.2398C76.4412 11.4768 76.5717 11.6417 76.6576 11.6005ZM77.4476 11.6348C77.3823 11.5592 77.4682 11.3566 77.6297 11.1848C77.798 11.0131 77.98 10.9306 78.0453 11.0131C78.1105 11.0886 78.0247 11.2913 77.8632 11.4631C77.6949 11.6348 77.5129 11.7173 77.4476 11.6417V11.6348ZM77.032 11.5696C77.1247 11.6005 77.2415 11.4184 77.2862 11.1642C77.3308 10.91 77.2965 10.6764 77.2037 10.6455C77.111 10.6146 76.9942 10.7967 76.9461 11.0509C76.9014 11.3051 76.9358 11.5386 77.0285 11.5696H77.032ZM78.2548 12.6997C78.2995 12.7821 78.5296 12.7718 78.7666 12.6791C79.0036 12.5863 79.1582 12.4455 79.1101 12.3631C79.0655 12.2806 78.8353 12.2875 78.5983 12.3837C78.3613 12.4764 78.2102 12.6207 78.2548 12.6997ZM78.2548 13.4932C78.327 13.4279 78.533 13.4966 78.7117 13.6547C78.8937 13.8127 78.9796 13.9947 78.904 14.06C78.8319 14.1253 78.6258 14.0566 78.4472 13.8985C78.2651 13.7405 78.1793 13.5585 78.2548 13.4932ZM78.2995 13.0776C78.2754 13.1737 78.4609 13.2802 78.722 13.3146C78.9796 13.3489 79.2097 13.3008 79.2338 13.2081C79.2578 13.1119 79.0723 13.0054 78.8113 12.9711C78.5537 12.9333 78.3269 12.9848 78.2995 13.0776ZM75.2183 12.8989C75.184 12.8131 74.9538 12.7924 74.7099 12.8543C74.4626 12.9161 74.2943 13.0363 74.3287 13.1222C74.363 13.2081 74.5932 13.2287 74.837 13.1669C75.0844 13.105 75.2527 12.9848 75.2183 12.8989ZM75.3179 12.1123C75.2355 12.1673 75.0431 12.0711 74.8817 11.8959C74.7237 11.7173 74.6584 11.5249 74.7409 11.4699C74.8233 11.415 75.0157 11.5112 75.1771 11.6863C75.3351 11.865 75.4004 12.0573 75.3179 12.1123ZM75.2218 12.5176C75.2561 12.4249 75.0844 12.3012 74.837 12.2291C74.5897 12.1638 74.3561 12.1776 74.3149 12.2703C74.2806 12.3631 74.4523 12.4867 74.6996 12.5589C74.9504 12.6241 75.1805 12.6104 75.2218 12.5176ZM76.0393 13.9844C76.0908 14.06 75.9774 14.2627 75.7851 14.431C75.5927 14.5993 75.4004 14.668 75.3454 14.5924C75.2939 14.5169 75.4072 14.3142 75.5996 14.1459C75.792 13.9776 75.9843 13.9089 76.0393 13.9844ZM76.4137 14.1218C76.5099 14.1218 76.5648 14.3314 76.5339 14.589C76.503 14.8466 76.3965 15.0562 76.2969 15.0562C76.2007 15.0562 76.1458 14.8466 76.1767 14.589C76.2076 14.3279 76.3141 14.1218 76.4137 14.1218Z" fill="#FFCC3D"/>
<path d="M71.1754 26.4126C71.1788 26.337 71.1857 26.2649 71.1857 26.1859C71.1857 25.2824 70.6395 24.4614 69.822 23.8569C69.2449 23.4309 68.5304 23.1114 67.7747 22.9534C67.0155 22.792 66.2186 22.792 65.4766 22.9981C64.4563 23.2866 63.5598 23.9702 63.048 25.1828C62.8968 25.5435 62.8109 25.8939 62.78 26.2271C62.7251 26.9107 62.9106 27.5393 63.2781 28.0614C63.6388 28.5801 64.1644 28.9889 64.8033 29.2637C65.2327 29.4458 65.717 29.5694 66.2289 29.6072C66.3663 29.6175 66.5174 29.621 66.6754 29.621C67.7472 29.621 68.8224 29.3049 69.6537 28.7622C70.5056 28.1988 71.1033 27.3882 71.1857 26.4023H71.1754V26.4126Z" fill="#3F2109"/>
<path d="M70.6187 26.1861C70.6187 26.2479 70.6187 26.3063 70.6153 26.3647C70.55 27.1617 70.0519 27.8246 69.3374 28.2953C68.5954 28.783 67.6336 29.0613 66.6752 29.0613C66.555 29.0613 66.4176 29.0578 66.2733 29.0475C65.8233 29.0132 65.3974 28.9067 65.0195 28.7487C64.4768 28.522 64.0371 28.175 63.7348 27.7491C63.4462 27.3334 63.2951 26.8319 63.3398 26.2823C63.3638 26.004 63.4359 25.7086 63.563 25.4098C64.0027 24.3758 64.7653 23.7918 65.6275 23.548C66.2768 23.3659 66.9775 23.3659 67.6508 23.5067C68.3241 23.6476 68.9699 23.9327 69.4817 24.314C70.1618 24.8155 70.6118 25.475 70.6187 26.1861Z" fill="#F83822"/>
<path d="M68.3959 25.2311C68.7257 24.9941 69.0383 24.7845 69.1757 24.7502C69.5192 24.6643 70.0139 25.9937 69.8181 26.7803C69.667 27.4158 69.2616 27.8795 68.2448 26.9315C67.4856 26.217 67.5543 25.8322 68.3925 25.2276V25.2311H68.3959ZM67.9597 25.0284C68.207 24.709 68.4269 24.3998 68.4681 24.2624C68.5711 23.9223 66.9257 23.5616 66.1287 23.7265C65.4898 23.8571 65.3421 24.07 66.249 25.1177C66.936 25.9009 67.3276 25.846 67.9597 25.0284ZM67.9185 27.2818C68.1761 27.6666 68.4063 28.0375 68.4372 28.1784C68.5196 28.5219 66.565 28.8517 65.7784 28.6456C65.16 28.4841 65.1428 28.1131 66.0978 27.1101C66.9257 26.2376 67.2383 26.2685 67.915 27.2818H67.9185ZM65.5963 25.0799C65.2219 24.8051 65.0123 24.7055 64.8715 24.6952C64.2634 24.6609 63.7104 26.4299 64.1604 27.165C64.4902 27.7078 64.6722 27.8143 65.7062 26.9005C66.6028 26.1036 66.5891 25.791 65.5997 25.0799H65.5963Z" fill="#D42411"/>
<path d="M66.552 27.4123C66.6173 27.4879 66.5382 27.6905 66.3734 27.8623C66.2119 28.0409 66.023 28.1199 65.9611 28.0444C65.8959 27.9688 65.9749 27.7661 66.1398 27.5944C66.3012 27.4192 66.4902 27.3367 66.552 27.4123ZM67.349 24.9116C67.2768 24.8497 67.3284 24.6264 67.4589 24.4135C67.5963 24.2005 67.7646 24.0734 67.8333 24.1352C67.9055 24.1971 67.8539 24.4203 67.7234 24.6333C67.5894 24.8463 67.4245 24.9734 67.349 24.9116ZM66.5726 24.7673C66.655 24.7054 66.6173 24.4925 66.497 24.2864C66.3768 24.0768 66.2119 23.9635 66.1329 24.0184C66.0504 24.0803 66.0882 24.2932 66.2085 24.4993C66.3287 24.7054 66.4902 24.8222 66.5726 24.7673ZM66.9883 24.7948C66.8921 24.8051 66.8199 24.5955 66.8371 24.3379C66.8474 24.0803 66.9402 23.8604 67.0398 23.857C67.136 23.8535 67.2081 24.0562 67.1978 24.3138C67.1841 24.5715 67.0948 24.7913 66.9951 24.7948H66.9883ZM65.5352 25.6123C65.4699 25.6844 65.25 25.6226 65.0439 25.4749C64.8344 25.3272 64.721 25.1554 64.7794 25.0902C64.8447 25.018 65.0645 25.0799 65.2706 25.2276C65.4802 25.3684 65.597 25.547 65.5352 25.6123ZM65.3531 26.3783C65.2981 26.2959 65.0783 26.3165 64.8722 26.4299C64.6592 26.5398 64.5321 26.6978 64.587 26.7802C64.642 26.8627 64.8619 26.8421 65.068 26.7287C65.2844 26.6154 65.4115 26.4608 65.3531 26.3783ZM65.4046 25.9627C65.4081 26.0589 65.2019 26.1207 64.9443 26.0932C64.6867 26.0692 64.4737 25.9661 64.4737 25.8699C64.4702 25.7738 64.6764 25.7119 64.934 25.7394C65.1916 25.7635 65.4046 25.8665 65.4046 25.9627ZM68.4482 26.5054C68.5032 26.4299 68.7265 26.4608 68.9567 26.5776C69.1799 26.6944 69.3208 26.8524 69.2658 26.928C69.2109 27.0035 68.9876 26.9726 68.7574 26.8558C68.5341 26.739 68.3933 26.581 68.4482 26.5054ZM68.5341 25.7188C68.5994 25.7944 68.8124 25.7428 69.0048 25.6089C69.204 25.4715 69.3105 25.2997 69.2418 25.2276C69.1765 25.152 68.9635 25.2035 68.7712 25.3375C68.5753 25.4749 68.4689 25.6467 68.5341 25.7188ZM68.5341 26.1413C68.5204 26.0451 68.7162 25.9593 68.9738 25.9524C69.2315 25.9421 69.4548 26.0177 69.4719 26.1138C69.4857 26.21 69.2899 26.2959 69.0322 26.3028C68.7712 26.3062 68.5479 26.2375 68.5341 26.1413ZM67.3971 27.3711C67.3318 27.4363 67.3936 27.6562 67.5379 27.8623C67.6856 28.0718 67.8574 28.1852 67.9295 28.1199C68.0017 28.0547 67.933 27.8348 67.7887 27.6287C67.641 27.4226 67.4692 27.3058 67.3971 27.3711ZM67.002 27.4192C66.9058 27.3951 66.8028 27.5875 66.7787 27.8451C66.7478 28.1028 66.8028 28.3329 66.899 28.3535C66.9951 28.3776 67.0982 28.1852 67.1222 27.9276C67.1532 27.6665 67.0982 27.4398 67.002 27.4192Z" fill="#FFCC3D"/>
<path d="M56.8024 20.0542C57.2387 19.9923 57.6612 19.9717 58.039 19.9923C58.6642 20.0233 59.1966 20.1607 59.5848 20.3668C60.0245 20.6004 60.2993 20.9233 60.3543 21.3114C60.3646 21.3733 60.3646 21.4385 60.3646 21.5038C60.3337 22.05 60.0108 22.7954 59.3031 23.3381C58.7844 23.74 58.07 24.0389 57.1184 24.0801C55.5864 24.1454 54.6521 23.8328 54.1987 23.3553C53.9616 23.1011 53.8448 22.8091 53.838 22.4931C53.8345 22.1942 53.9307 21.8885 54.1059 21.6C54.5559 20.8855 55.5452 20.2328 56.8024 20.0542Z" fill="#772D19"/>
<path d="M58.0122 20.5559C57.6687 20.5353 57.2874 20.5559 56.8821 20.6109C55.8035 20.762 54.9584 21.3048 54.5943 21.899C54.4672 22.0983 54.402 22.3009 54.4054 22.4864C54.4088 22.6582 54.4775 22.8196 54.6149 22.9639C54.9653 23.3349 55.7519 23.5719 57.0985 23.5169C57.9195 23.4826 58.5275 23.2284 58.9637 22.8918C59.5202 22.4555 59.7847 21.8887 59.8053 21.4731C59.8053 21.449 59.8053 21.4181 59.8019 21.3872C59.771 21.188 59.6027 21.0128 59.3244 20.8651C58.9981 20.7002 58.5481 20.5869 58.0122 20.5559ZM56.9611 21.1296C57.4523 21.0952 57.8783 21.1845 58.1428 21.346C58.2802 21.4319 58.3798 21.5452 58.4313 21.6689C58.4931 21.8166 58.4931 21.9746 58.4107 22.1292C58.318 22.3181 58.1118 22.5036 57.7615 22.6719C57.5382 22.7784 57.0092 22.8849 56.5558 22.8849C56.1813 22.8849 55.831 22.8025 55.642 22.5964C55.5458 22.4864 55.4909 22.3525 55.4806 22.2151C55.4703 22.0948 55.4943 21.9712 55.5527 21.8544C55.6042 21.7479 55.6832 21.6414 55.7897 21.5487C56.0268 21.3391 56.4184 21.1674 56.9611 21.1262V21.1296Z" fill="#37B34A"/>
<path d="M57.8436 21.8302C57.6753 21.7272 57.3765 21.6688 57.0055 21.6997C56.5933 21.7306 56.3219 21.8405 56.1673 21.9779C56.1158 22.0226 56.0849 22.0638 56.0643 22.105C56.0505 22.136 56.0437 22.16 56.0505 22.1806C56.0505 22.1944 56.0609 22.215 56.0712 22.2321C56.133 22.3043 56.3288 22.3283 56.5624 22.3283C56.9437 22.3283 57.3593 22.2459 57.5276 22.1703C57.7509 22.0638 57.8711 21.9711 57.9089 21.8921C57.9089 21.8886 57.9123 21.8921 57.9123 21.8921C57.9089 21.8749 57.8849 21.8543 57.8436 21.8302Z" fill="#FFCC3D"/>
<path d="M74.3767 21.8407C73.9645 22.0091 73.5661 22.1258 73.1916 22.1945C72.5836 22.3113 72.0306 22.3045 71.5977 22.2049C71.1168 22.0881 70.7699 21.8339 70.6256 21.4732C70.6016 21.4182 70.5844 21.353 70.5706 21.2842C70.4676 20.7415 70.605 19.9446 71.158 19.2472C71.5634 18.7354 72.1886 18.2751 73.1058 18.0037C74.576 17.5743 75.555 17.6534 76.1115 18.0072C76.4069 18.1961 76.589 18.4537 76.668 18.7595C76.7435 19.048 76.7229 19.3675 76.6164 19.6938C76.3554 20.4942 75.5516 21.3667 74.3767 21.8407Z" fill="#3F2109"/>
<path d="M73.0816 21.6413C73.4217 21.576 73.7858 21.4695 74.1603 21.3184C75.1737 20.9062 75.8607 20.1814 76.0771 19.5218C76.1492 19.2985 76.1699 19.0856 76.1183 18.9069C76.0737 18.7455 75.9706 18.5978 75.8023 18.4913C75.3729 18.2165 74.5553 18.1718 73.2568 18.5531C72.4702 18.7798 71.9343 19.1714 71.5942 19.6043C71.1545 20.1607 71.0377 20.7756 71.1167 21.181C71.1201 21.205 71.1304 21.2359 71.1408 21.2634C71.2163 21.4455 71.4259 21.5829 71.7282 21.6585C72.0889 21.7443 72.556 21.7443 73.0816 21.6413Z" fill="#37B34A"/>
<path d="M73.8747 20.5628C72.8511 20.896 72.0679 20.4906 72.9919 19.7418C73.277 19.5082 74.3556 19.0686 74.7266 19.3193C75.0701 19.5563 74.888 20.2262 73.8747 20.5628Z" fill="#37B34A"/>
<path d="M73.9647 20.8306C73.4975 20.9818 73.0578 20.9989 72.7693 20.9028C72.6112 20.8512 72.491 20.7722 72.4086 20.6589C72.3124 20.5318 72.278 20.3806 72.3158 20.202C72.3605 19.9993 72.5151 19.7657 72.8174 19.5184C73.0063 19.3673 73.4907 19.1337 73.9372 19.0203C74.2979 18.9344 74.6586 18.9241 74.8922 19.0822C75.0124 19.1646 75.1018 19.2814 75.1395 19.4119C75.1739 19.5218 75.1842 19.6489 75.1533 19.7829C75.1292 19.8997 75.0777 20.0199 74.9953 20.1367C74.8132 20.4012 74.4766 20.6554 73.9613 20.8272V20.8306H73.9647Z" fill="#772D19"/>
<path d="M73.7861 20.2913C74.1777 20.1607 74.4113 19.9718 74.5212 19.7897C74.5555 19.7279 74.5762 19.6729 74.5865 19.6283C74.5899 19.5939 74.5899 19.563 74.583 19.5424C74.5796 19.5218 74.5624 19.508 74.5487 19.4977C74.4662 19.4359 74.2704 19.4531 74.0472 19.508C72.8414 19.7966 72.2678 20.81 73.7826 20.2981L73.7861 20.2913Z" fill="#FFCC3D"/>
<path d="M80.2853 18.9586C80.2819 18.9036 80.2716 18.8521 80.2716 18.8005C80.2578 18.5841 80.2922 18.378 80.3574 18.196C80.5257 17.7597 80.8933 17.4196 81.3605 17.1929C81.8002 16.9765 82.3292 16.8425 82.841 16.8116C83.3322 16.7807 83.8097 16.8322 84.1944 16.9799C84.6547 17.1517 85.067 17.4059 85.3761 17.6635C85.7368 17.9727 85.9635 18.3127 85.9841 18.591C86.0082 19.0066 85.8055 19.5391 85.2422 19.9651C84.8402 20.2708 84.2597 20.5216 83.4456 20.6349C83.3047 20.6555 83.1708 20.6693 83.0402 20.6761C82.2605 20.7277 81.6215 20.5937 81.1544 20.312C80.6632 20.0131 80.3643 19.5528 80.2819 18.9689V18.9586H80.2853ZM82.4047 18.9036C82.4666 18.9654 82.6177 19.0204 82.7998 19.0547C83.0093 19.096 83.2464 19.096 83.449 19.0444C83.5589 19.0135 83.6586 18.9723 83.7273 18.907C83.7513 18.883 83.7685 18.8624 83.7719 18.8452V18.8349C83.7685 18.8211 83.7582 18.8005 83.7376 18.7834C83.6723 18.7112 83.5555 18.6528 83.4147 18.6219C83.2944 18.591 83.0643 18.6082 82.8376 18.6666C82.7105 18.6975 82.5937 18.7421 82.5078 18.7971C82.4528 18.8315 82.4151 18.8692 82.4047 18.8933V18.9036Z" fill="#3F2109"/>
<path d="M80.8317 18.7663C80.8352 18.8109 80.8352 18.8487 80.842 18.8865C80.897 19.2987 81.1065 19.6182 81.4466 19.8243C81.8176 20.0476 82.3397 20.1472 83.0027 20.1094C83.1195 20.0991 83.2397 20.0888 83.3668 20.075C84.071 19.9789 84.5691 19.7693 84.8989 19.5186C85.2836 19.2231 85.4313 18.8831 85.4176 18.6323C85.4073 18.5121 85.2562 18.3129 85.0054 18.1033C84.7409 17.88 84.3871 17.6671 83.992 17.5159C83.6863 17.3991 83.2878 17.3579 82.8756 17.3854C82.4359 17.4163 81.9825 17.5228 81.6081 17.7083C81.2645 17.88 80.9897 18.1136 80.8833 18.409C80.842 18.519 80.8214 18.6426 80.8317 18.78V18.7663ZM81.9791 19.285C81.9172 19.2197 81.8726 19.1441 81.852 19.0617C81.8279 18.9586 81.8279 18.8625 81.8485 18.7732C81.8932 18.5842 82.0203 18.44 82.1989 18.3266C82.3397 18.2338 82.5184 18.1686 82.697 18.1239C83.0061 18.0415 83.3462 18.0277 83.5455 18.0724C83.7997 18.1342 84.0161 18.2545 84.1604 18.4056C84.2325 18.4812 84.2806 18.5671 84.3115 18.6598C84.3458 18.7628 84.3527 18.8728 84.3252 18.9793C84.2943 19.0995 84.2291 19.2163 84.1123 19.3296C83.9714 19.4602 83.7894 19.546 83.5901 19.5976C83.305 19.6697 82.9752 19.6697 82.697 19.6182C82.3878 19.5632 82.1268 19.4396 81.9791 19.285Z" fill="#37B34A"/>
<path d="M62.9349 15.2177C63.5979 14.5341 64.6078 14.1013 65.6624 14.0154C66.6517 13.933 67.6856 14.1631 68.5169 14.7677C68.9188 15.0631 69.2692 15.5131 69.4994 16.0112C69.7329 16.5025 69.8497 17.0452 69.8051 17.5261C69.7536 18.0586 69.4856 18.4399 69.1559 18.646C68.9875 18.7525 68.8055 18.8143 68.62 18.8349C68.4276 18.8486 68.2387 18.8212 68.0738 18.7387C67.799 18.6082 67.586 18.3471 67.507 17.9589C67.4452 17.746 67.349 17.6154 67.2494 17.5673C67.2288 17.557 67.215 17.557 67.1979 17.557C67.1875 17.5605 67.1738 17.5708 67.1532 17.5914C67.0501 17.7219 67.0021 18.0139 67.0776 18.4983L67.0811 18.5223C67.1463 18.9689 67.2116 19.3983 67.1154 19.7555C66.9368 20.4082 66.3082 20.6521 65.6108 20.6315C65.1849 20.6177 64.728 20.5044 64.3364 20.3326C63.9311 20.1506 63.5841 19.886 63.4124 19.5872C63.2132 19.2437 63.22 18.8624 63.5498 18.4983C63.6529 18.3883 63.7834 18.2715 63.9414 18.1548C64.0925 18.0448 64.2712 17.928 64.4704 17.8112C64.7899 17.6189 64.9307 17.4506 64.9513 17.3235C64.9547 17.2994 64.9513 17.2719 64.941 17.2513C64.9273 17.2273 64.8998 17.1998 64.8654 17.186C64.7383 17.1139 64.5357 17.1105 64.3227 17.1998C63.7696 17.4437 63.354 17.4849 63.0586 17.3922C62.825 17.32 62.667 17.1792 62.5674 16.9902C62.4746 16.8219 62.4403 16.6193 62.4471 16.4131C62.4574 15.9838 62.6601 15.496 62.9384 15.2074V15.2177H62.9349Z" fill="#3F2109"/>
<path d="M65.7033 14.5788C64.7861 14.6544 63.9067 15.0185 63.34 15.6093C63.151 15.8017 63.0171 16.1383 63.0102 16.4372C63.0068 16.5471 63.0239 16.6536 63.0652 16.7326C63.0961 16.7944 63.151 16.8391 63.2232 16.8597C63.3949 16.9147 63.6732 16.8734 64.0888 16.6914C64.4701 16.5231 64.8651 16.5505 65.1331 16.7017C65.2602 16.7738 65.3598 16.87 65.4285 16.9902C65.5006 17.1173 65.5315 17.265 65.504 17.4162C65.4628 17.6944 65.2395 18.0139 64.7518 18.3024C64.5697 18.4124 64.4083 18.5154 64.2743 18.6185C64.1472 18.7146 64.0407 18.8074 63.9651 18.8933C63.8277 19.041 63.8243 19.1887 63.8999 19.3192C64.0098 19.5116 64.2606 19.6902 64.5628 19.8311C64.8857 19.9788 65.267 20.0749 65.6174 20.0853C66.0743 20.099 66.4693 19.9685 66.562 19.6249C66.6273 19.3879 66.5723 19.0101 66.5105 18.6253L66.5071 18.6013C66.404 17.9383 66.5105 17.4952 66.6994 17.2582C66.8025 17.1311 66.9227 17.0555 67.0601 17.0211C67.1975 16.9902 67.3349 17.0005 67.4723 17.0624C67.7162 17.1689 67.9429 17.4368 68.0494 17.8318L68.0529 17.8524C68.0941 18.0551 68.1903 18.1822 68.3105 18.244C68.3861 18.2784 68.4719 18.2956 68.5578 18.2853C68.654 18.275 68.7502 18.244 68.8429 18.1822C69.0422 18.0551 69.1967 17.8215 69.2345 17.4814C69.2689 17.107 69.1692 16.6639 68.9803 16.2585C68.788 15.8429 68.4994 15.4685 68.1731 15.228C67.462 14.699 66.5655 14.5066 65.7033 14.5788Z" fill="#F4EBE0"/>
<path d="M74.4628 23.036C75.1979 22.7681 76.1013 22.8093 76.9017 23.1219C77.6609 23.4173 78.341 23.9532 78.7429 24.6986C78.9353 25.0627 79.0315 25.5264 79.0281 25.9764C79.0246 26.4264 78.9181 26.873 78.7086 27.2131C78.475 27.5978 78.1315 27.7867 77.8017 27.828C77.6334 27.8486 77.472 27.828 77.3242 27.773C77.1662 27.718 77.0357 27.6218 76.9326 27.4947C76.7712 27.2921 76.6991 27.0138 76.7849 26.6841C76.8158 26.5261 76.7952 26.4093 76.7437 26.3543C76.7403 26.3509 76.7437 26.3509 76.7437 26.3509L76.7334 26.3543C76.6269 26.4093 76.4998 26.5913 76.383 26.9589L76.3796 26.9795C76.2697 27.3333 76.1632 27.6802 75.9639 27.907C75.5826 28.3432 75.0158 28.302 74.4937 28.0272C74.1845 27.8657 73.8857 27.615 73.6555 27.347C73.4185 27.0619 73.2536 26.739 73.233 26.4505C73.209 26.107 73.3532 25.8116 73.7517 25.6535C73.8685 25.6089 74.0094 25.5677 74.1674 25.5367C74.3185 25.5058 74.4903 25.4852 74.6792 25.4715C74.9643 25.4474 75.1086 25.3856 75.1601 25.31C75.1636 25.3066 75.1636 25.2963 75.1636 25.2894C75.1636 25.2757 75.1532 25.2585 75.1429 25.2379C75.0811 25.152 74.954 25.0868 74.7891 25.0799C74.2807 25.0661 73.9578 24.939 73.7689 24.7604C73.6178 24.6196 73.5456 24.441 73.5353 24.2589C73.5319 24.0974 73.5765 23.9257 73.6521 23.7677C73.8204 23.4482 74.1502 23.1528 74.4628 23.036Z" fill="#3F2109"/>
<path d="M76.7019 23.6509C76.0183 23.3864 75.266 23.3452 74.658 23.5685C74.4656 23.6406 74.263 23.8227 74.1565 24.0253C74.1153 24.1009 74.0947 24.173 74.1015 24.2349C74.1015 24.2761 74.1221 24.3173 74.1565 24.3448C74.2527 24.4375 74.4553 24.5028 74.8092 24.5131C75.163 24.5234 75.4584 24.6952 75.6095 24.9081C75.6817 25.0146 75.7263 25.1314 75.7297 25.2482C75.7332 25.3753 75.7057 25.5024 75.6233 25.6192C75.4859 25.8219 75.1973 25.9833 74.7267 26.0245C74.555 26.0383 74.4038 26.0589 74.2767 26.0864C74.1565 26.1104 74.05 26.1379 73.9676 26.1723C73.8405 26.2238 73.7958 26.3097 73.8061 26.4058C73.8164 26.5742 73.9332 26.7803 74.0947 26.9795C74.2733 27.1959 74.5103 27.3952 74.7542 27.5223C75.0599 27.6803 75.3691 27.7249 75.5408 27.5326C75.661 27.3917 75.7538 27.1066 75.8465 26.8112L75.85 26.7906C76.0183 26.2581 76.2622 25.9627 76.4889 25.8459C76.616 25.7841 76.7465 25.7704 76.8633 25.7944C76.9835 25.8184 77.09 25.8871 77.1793 25.9868C77.327 26.1654 77.4026 26.4539 77.3408 26.794L77.3373 26.8146C77.303 26.9555 77.3236 27.0688 77.382 27.1444C77.4164 27.189 77.4679 27.2268 77.5228 27.2474C77.5881 27.2715 77.6603 27.2784 77.7393 27.2715C77.911 27.2509 78.0931 27.1444 78.227 26.928C78.3782 26.6738 78.4606 26.3303 78.464 25.9799C78.4675 25.6192 78.3988 25.2551 78.2476 24.9768C77.9179 24.3585 77.3442 23.912 76.7019 23.6646V23.6509Z" fill="#F4EBE0"/>
<path d="M43.9826 30.3047C43.9791 30.2498 43.9688 30.1982 43.9688 30.1467C43.9551 29.9303 43.9894 29.7242 44.0547 29.5421C44.223 29.1059 44.5906 28.7658 45.0577 28.5391C45.4974 28.3227 46.0264 28.1887 46.5383 28.1578C47.0295 28.1269 47.507 28.1784 47.8917 28.3261C48.352 28.4979 48.7642 28.7521 49.0734 29.0097C49.4341 29.3188 49.6608 29.6589 49.6814 29.9372C49.7054 30.3528 49.5028 30.8853 48.9394 31.3112C48.5375 31.6169 47.957 31.8677 47.1429 31.9811C47.002 32.0017 46.868 32.0154 46.7375 32.0223C45.9577 32.0738 45.3188 31.9398 44.8516 31.6582C44.3604 31.3593 44.0616 30.899 43.9791 30.315V30.3047H43.9826ZM46.102 30.2498C46.1638 30.3116 46.315 30.3666 46.4971 30.4009C46.7066 30.4421 46.9436 30.4421 47.1463 30.3906C47.2562 30.3597 47.3558 30.3185 47.4245 30.2532C47.4486 30.2292 47.4658 30.2085 47.4692 30.1914V30.1811C47.4658 30.1673 47.4555 30.1467 47.4348 30.1295C47.3696 30.0574 47.2528 29.999 47.1119 29.9681C46.9917 29.9372 46.7616 29.9543 46.5348 30.0127C46.4077 30.0437 46.2909 30.0883 46.2051 30.1433C46.1501 30.1776 46.1123 30.2154 46.102 30.2395V30.2498Z" fill="#772D19"/>
<path d="M44.529 30.1054C44.5324 30.1501 44.5324 30.1878 44.5393 30.2256C44.5943 30.6378 44.8038 30.9573 45.1439 31.1634C45.5149 31.3867 46.037 31.4863 46.7 31.4485C46.8168 31.4382 46.937 31.4279 47.0641 31.4142C47.7683 31.318 48.2664 31.1084 48.5962 30.8577C48.9809 30.5623 49.1286 30.2222 49.1149 29.9714C49.1046 29.8512 48.9534 29.652 48.7027 29.4424C48.4381 29.2191 48.0843 29.0062 47.6893 28.855C47.3836 28.7382 46.9851 28.697 46.5729 28.7245C46.1332 28.7554 45.6798 28.8619 45.3053 29.0474C44.9618 29.2191 44.687 29.4527 44.5805 29.7482C44.5393 29.8581 44.5187 29.9817 44.529 30.1191V30.1054ZM45.6763 30.6241C45.6145 30.5588 45.5698 30.4833 45.5492 30.4008C45.5252 30.2978 45.5252 30.2016 45.5458 30.1123C45.5904 29.9233 45.7175 29.7791 45.8962 29.6657C46.037 29.573 46.2156 29.5077 46.3943 29.463C46.7034 29.3806 47.0435 29.3669 47.2427 29.4115C47.4969 29.4733 47.7133 29.5936 47.8576 29.7447C47.9297 29.8203 47.9778 29.9062 48.0088 29.9989C48.0431 30.102 48.05 30.2119 48.0225 30.3184C47.9916 30.4386 47.9263 30.5554 47.8095 30.6688C47.6687 30.7993 47.4866 30.8852 47.2874 30.9367C47.0023 31.0088 46.6725 31.0088 46.3943 30.9573C46.0885 30.9023 45.824 30.7821 45.6763 30.6241Z" fill="#37B34A"/>
<path d="M80.4123 24.5543C80.4226 24.4822 80.4363 24.4066 80.4569 24.331C80.6665 23.4551 81.3844 22.7784 82.3222 22.3833C82.9817 22.1051 83.7512 21.9574 84.524 21.978C85.3004 21.9986 86.0767 22.1806 86.7465 22.5551C87.6706 23.0738 88.3851 23.9463 88.6015 25.2413C88.6667 25.6261 88.6667 25.9868 88.6152 26.32C88.5087 27.0001 88.1858 27.5669 87.7084 27.9929C87.2412 28.4154 86.6297 28.6936 85.9427 28.8104C85.4824 28.886 84.9843 28.8929 84.4759 28.8139C84.3385 28.7933 84.1908 28.7623 84.0397 28.728C82.9989 28.4807 82.0267 27.9276 81.3466 27.2028C80.6459 26.4574 80.2577 25.5299 80.402 24.5543H80.4123Z" fill="#3F2109"/>
<path d="M81.0033 24.4615C80.9895 24.5165 80.9792 24.5783 80.9689 24.6401C80.8487 25.4302 81.1785 26.1928 81.7659 26.8145C82.3705 27.4569 83.2464 27.955 84.1808 28.1783C84.301 28.2092 84.435 28.2332 84.5724 28.2539C85.019 28.326 85.4552 28.3191 85.8606 28.2504C86.4377 28.1542 86.9496 27.9206 87.3412 27.5771C87.7225 27.2371 87.9801 26.7871 88.066 26.2443C88.1072 25.9661 88.1072 25.6672 88.0522 25.3409C87.8633 24.2348 87.2553 23.4894 86.4755 23.0531C85.8881 22.7234 85.201 22.5619 84.5174 22.5447C83.827 22.531 83.1365 22.6547 82.5491 22.9054C81.7727 23.2352 81.175 23.7711 81.0136 24.4615H81.0033Z" fill="#F83822"/>
<path d="M83.3866 24.0459C83.1187 23.7367 82.8645 23.4619 82.7374 23.3966C82.4214 23.2283 81.6382 24.41 81.6416 25.2207C81.6416 25.8733 81.9302 26.423 83.1324 25.7325C84.0427 25.2172 84.0633 24.8256 83.3866 24.0459ZM83.8607 23.9497C83.6923 23.5787 83.5515 23.2283 83.5412 23.0875C83.5206 22.7337 85.2038 22.7646 85.9388 23.1081C86.5331 23.3829 86.6224 23.6268 85.4992 24.4272C84.6473 25.0352 84.2866 24.8875 83.8572 23.9497H83.8607ZM83.3763 26.1516C83.0362 26.4676 82.7271 26.7768 82.6618 26.9039C82.5038 27.2233 84.3244 27.9928 85.135 27.9756C85.774 27.9619 85.877 27.6046 85.1797 26.4092C84.5786 25.3649 84.2694 25.3237 83.3763 26.1516ZM86.145 24.5474C86.5743 24.3688 86.7976 24.3207 86.9419 24.3447C87.5464 24.4512 87.6667 26.3027 87.0621 26.9176C86.6155 27.3676 86.4129 27.4294 85.6228 26.2993C84.9324 25.3169 85.0251 25.0146 86.1518 24.5508H86.145V24.5474Z" fill="#D42411"/>
<path d="M84.6821 26.5981C84.5996 26.6531 84.6306 26.8729 84.7474 27.0791C84.8642 27.2886 85.0256 27.4088 85.1081 27.3539C85.1905 27.2989 85.1596 27.0791 85.0428 26.8729C84.926 26.6668 84.7611 26.5397 84.6821 26.5981ZM84.4897 23.9806C84.5756 23.9394 84.5756 23.7127 84.4932 23.4688C84.4107 23.2317 84.2802 23.0669 84.1943 23.1081C84.1084 23.1493 84.1084 23.376 84.1909 23.6199C84.2699 23.8569 84.4038 24.0218 84.4897 23.9806ZM85.2798 24.0149C85.2145 23.9394 85.3004 23.7367 85.4619 23.5649C85.6302 23.3932 85.8123 23.3108 85.8775 23.3863C85.9428 23.4619 85.8569 23.6646 85.6955 23.8363C85.5271 24.0115 85.3451 24.0905 85.2798 24.0149ZM84.8642 23.9497C84.9569 23.9806 85.0737 23.7985 85.1184 23.5443C85.163 23.2901 85.1287 23.0566 85.0359 23.0256C84.9432 22.9947 84.8264 23.1768 84.7783 23.431C84.7336 23.6852 84.768 23.9188 84.8607 23.9497H84.8642ZM86.0871 25.0798C86.1317 25.1623 86.3619 25.152 86.5989 25.0592C86.8359 24.9665 86.9905 24.8256 86.9424 24.7432C86.8978 24.6607 86.6676 24.6676 86.4306 24.7638C86.1936 24.8565 86.039 24.9974 86.0871 25.0798ZM86.0871 25.8699C86.1592 25.8046 86.3653 25.8733 86.5439 26.0314C86.726 26.1894 86.8119 26.3714 86.7363 26.4367C86.6642 26.502 86.4581 26.4333 86.2794 26.2752C86.0974 26.1207 86.0115 25.9386 86.0871 25.8699ZM86.1317 25.4543C86.1077 25.5504 86.2932 25.6569 86.5542 25.6913C86.8119 25.7256 87.042 25.6775 87.0661 25.5848C87.0901 25.4886 86.9046 25.3821 86.6436 25.3478C86.3859 25.3134 86.1558 25.3649 86.1317 25.4543ZM83.047 25.2791C83.0126 25.1932 82.7825 25.1726 82.5386 25.2344C82.2912 25.2962 82.1229 25.4165 82.1573 25.5023C82.1916 25.5882 82.4218 25.6088 82.6657 25.547C82.9164 25.4852 83.0848 25.3649 83.047 25.2791ZM83.15 24.4924C83.0676 24.5474 82.8752 24.4512 82.7137 24.276C82.5557 24.0974 82.4905 23.905 82.5729 23.8501C82.6554 23.7951 82.8477 23.8913 83.0092 24.0665C83.1638 24.2451 83.229 24.4375 83.15 24.4924ZM83.0538 24.8978C83.0882 24.805 82.9164 24.6814 82.6691 24.6092C82.4218 24.544 82.1882 24.5577 82.147 24.6504C82.1126 24.7432 82.2844 24.8669 82.5317 24.939C82.779 25.0043 83.0126 24.9905 83.0538 24.8978ZM83.8714 26.3646C83.9229 26.4401 83.8096 26.6428 83.6172 26.8111C83.4248 26.9794 83.2325 27.0481 83.1775 26.9726C83.126 26.897 83.2393 26.6943 83.4317 26.526C83.6206 26.3577 83.813 26.2855 83.8714 26.3646ZM84.2458 26.4985C84.342 26.4985 84.397 26.7081 84.3661 26.9657C84.3351 27.2233 84.2287 27.4329 84.129 27.4329C84.0329 27.4329 83.9779 27.2233 84.0088 26.9657C84.0363 26.7081 84.1428 26.4985 84.2458 26.4985Z" fill="#FFCC3D"/>
<path d="M48.7751 26.2923L48.7442 26.2717C48.5415 26.1206 48.4144 25.9625 48.3697 25.7736C48.3251 25.5641 48.3835 25.3683 48.569 25.1553C48.727 24.9733 49.0568 24.7156 49.4106 24.4546C49.9293 24.0801 50.5167 23.7091 50.6884 23.6164C51.2312 23.3416 51.4029 23.4859 51.7499 23.7778L51.7945 23.8191C51.9732 23.9702 52.09 24.1145 52.1106 24.2862C52.1346 24.4889 52.0384 24.6607 51.7877 24.8187C51.4716 25.011 51.1247 25.2446 50.7846 25.4816C50.4308 25.729 50.0942 25.9729 49.84 26.1755C49.2423 26.6461 49.2423 26.6427 48.7751 26.2923Z" fill="#772D19"/>
<path d="M49.0912 25.8218L49.1221 25.8424C49.2389 25.9282 49.2389 25.9282 49.4931 25.7324C50.1457 25.2206 50.6747 24.9218 51.3583 24.4958C51.5094 24.3996 51.5506 24.3584 51.4338 24.2588L51.3892 24.2176C51.2312 24.087 51.1556 24.0183 50.9495 24.1248C50.4995 24.3515 49.4931 25.0283 49.0671 25.3718C48.8541 25.5435 48.8576 25.6466 49.0877 25.8183L49.0912 25.8218Z" fill="#37B34A"/>
<path d="M67.4172 12.2258V12.1915C67.4137 11.9373 67.4618 11.7415 67.5855 11.5938C67.7229 11.4323 67.9153 11.3567 68.2004 11.3705C68.4375 11.3842 68.8428 11.4873 69.2654 11.6075C69.8803 11.7896 70.533 12.03 70.7048 12.109C71.251 12.3735 71.2407 12.5968 71.2235 13.0537L71.2201 13.1155C71.2097 13.3491 71.1651 13.5277 71.0414 13.648C70.8937 13.7957 70.7013 13.8197 70.4231 13.7132C70.0795 13.5827 69.6776 13.4453 69.286 13.3216C68.8737 13.1911 68.4752 13.0777 68.1592 12.9987C67.424 12.8064 67.424 12.8064 67.4172 12.2258Z" fill="#3F2109"/>
<path d="M67.9806 12.1844V12.2188C67.9806 12.3665 67.9806 12.3665 68.2966 12.442C69.1038 12.6447 69.6603 12.8817 70.416 13.1668C70.5877 13.2321 70.6427 13.239 70.6496 13.0844V13.0225C70.6599 12.8199 70.6633 12.7168 70.4503 12.6172C69.9935 12.4008 68.8462 12.0127 68.3138 11.8856C68.0459 11.8203 67.9703 11.889 67.9737 12.1741L67.9806 12.1844Z" fill="#37B34A"/>
<path d="M48.5753 33.2862L48.5513 33.2622C48.3829 33.0733 48.2833 32.8981 48.2765 32.7057C48.273 32.4927 48.3692 32.3107 48.5856 32.1321C48.7745 31.9844 49.1421 31.792 49.544 31.6031C50.1211 31.3351 50.7703 31.0741 50.9524 31.026C51.5364 30.8577 51.6772 31.0294 51.9623 31.3867L51.9967 31.4313C52.1444 31.6134 52.2303 31.7748 52.2131 31.95C52.1993 32.1595 52.0722 32.3038 51.7974 32.4103C51.4539 32.5408 51.0623 32.7057 50.6879 32.8706C50.2929 33.0492 49.9184 33.2244 49.6264 33.3721C48.9532 33.7225 48.9532 33.7156 48.5616 33.2862H48.5753Z" fill="#3F2109"/>
<path d="M48.974 32.874L48.998 32.8981C49.0942 33.0045 49.0942 33.0045 49.3828 32.8568C50.1179 32.4755 50.695 32.2832 51.4473 31.9946C51.619 31.9293 51.6637 31.8916 51.5675 31.7782L51.5263 31.7335C51.3992 31.5755 51.3339 31.4965 51.1106 31.5618C50.6229 31.7026 49.5133 32.1767 49.0324 32.4274C48.7919 32.5614 48.7816 32.661 48.974 32.874Z" fill="#37B34A"/>
<path d="M59.1254 29.6143L59.1117 29.5799C59.0189 29.3464 58.9949 29.1437 59.0567 28.9616C59.122 28.7624 59.28 28.6216 59.5479 28.5357C59.7746 28.4635 60.1902 28.4155 60.6265 28.3845C61.2654 28.3399 61.9592 28.3296 62.1516 28.3433C62.7561 28.3948 62.8248 28.6078 62.9691 29.0372L62.9897 29.0922C63.0618 29.3154 63.0859 29.4975 63.0137 29.6486C62.9279 29.8376 62.7561 29.9338 62.4607 29.9338C62.0897 29.9338 61.6707 29.9475 61.2585 29.9681C60.8291 29.9921 60.4101 30.0231 60.0872 30.0643C59.3315 30.1502 59.3315 30.1502 59.122 29.6074V29.6143H59.1254Z" fill="#3F2109"/>
<path d="M59.6441 29.3772L59.6578 29.4115C59.7128 29.5489 59.7128 29.5489 60.0323 29.5146C60.8601 29.4184 61.4612 29.4424 62.2684 29.4424C62.4505 29.4424 62.5055 29.4287 62.4608 29.281L62.4402 29.226C62.3749 29.0337 62.344 28.9375 62.1173 28.9169C61.6089 28.8757 60.4032 28.9203 59.8639 28.9925C59.5891 29.0268 59.5445 29.1196 59.6475 29.384L59.6441 29.3772Z" fill="#37B34A"/>
<path d="M88.9833 27.993L88.9695 27.9586C88.863 27.7319 88.8287 27.5292 88.8768 27.3437C88.9317 27.141 89.0863 26.9933 89.3474 26.8937C89.5707 26.8113 89.9863 26.7426 90.4226 26.6842C91.0581 26.6017 91.7521 26.5571 91.9444 26.5639C92.5525 26.5845 92.6349 26.7906 92.7963 27.2166L92.817 27.2716C92.9028 27.488 92.9338 27.6735 92.8685 27.8281C92.7929 28.0204 92.6246 28.1235 92.3326 28.1372C91.9616 28.1578 91.5425 28.1922 91.1371 28.2403C90.7077 28.2849 90.2955 28.3433 89.976 28.3983C89.2203 28.5254 89.2203 28.5185 88.9833 27.993Z" fill="#3F2109"/>
<path d="M89.4841 27.7285L89.4978 27.7629C89.5597 27.8934 89.5597 27.8934 89.8791 27.8453C90.6967 27.7079 91.3047 27.7045 92.112 27.6564C92.294 27.6461 92.349 27.6254 92.294 27.4846L92.2734 27.4296C92.2013 27.2373 92.1635 27.1445 91.9333 27.1411C91.4249 27.1274 90.2226 27.2338 89.6868 27.3335C89.4188 27.385 89.3707 27.4743 89.4875 27.7388L89.4841 27.7285Z" fill="#37B34A"/>
<path d="M40.1936 43.76L43.1341 44.6462C44.0822 42.6676 45.4012 40.9226 47.9673 40.5138C49.1592 40.3249 50.4921 40.3421 51.6944 40.3146C53.0856 40.2905 54.4837 40.2424 55.868 40.0604C56.0397 40.0398 56.2115 40.0157 56.3867 39.9848C57.5168 39.8028 58.6642 39.4764 59.7806 39.205L60.8798 38.9371L62.2882 40.0226C62.6729 39.4902 63.1367 39.0024 63.7241 38.5867C64.4351 38.0783 65.2389 37.7589 66.1012 37.6215C67.2931 37.4325 68.626 37.4428 69.8282 37.4222C71.2195 37.3982 72.6141 37.3501 74.0019 37.168C74.1736 37.1474 74.3454 37.1234 74.5206 37.0925C75.6507 36.9104 76.798 36.5841 77.9145 36.3127L79.0137 36.0448L81.5488 37.9959C83.1667 36.3539 85.19 35.1448 87.8797 34.7188C89.1129 34.5196 90.2533 34.4955 91.2736 34.7806L100.555 33.3001L96.1617 43.5539C97.4052 43.1485 98.7243 43.0764 100.026 43.492C103.434 44.5707 104.633 48.1741 104.306 51.3515C103.932 54.9893 101.802 58.3763 98.951 60.9217C94.6949 64.721 88.9342 66.7236 83.366 67.6717L9.89263 80.251L15.9796 65.9232L39.6475 61.8698L39.1391 60.4099C37.2429 61.6843 35.1131 62.6049 32.7498 62.9828C29.9467 63.4294 27.2811 62.124 27.1197 59.3279C27.0647 58.3248 27.312 57.5038 27.7174 56.5592L28.2464 55.3225C25.5189 57.7683 21.9361 59.1733 17.8311 59.8259C17.5082 59.8775 17.1819 59.9221 16.859 59.9633L14.3445 65.8167L2.14648 67.7576L13.1354 41.8844C11.648 41.7539 10.4938 40.8092 10.401 39.2463C10.219 36.1272 13.4583 35.1894 16.0896 34.7669C18.0304 34.4577 20.7853 34.0661 22.8395 34.7257C24.5193 33.702 26.4395 33.1146 28.3975 32.802C31.1009 32.3726 34.6597 32.2043 36.2982 34.5471C36.7139 35.1413 36.9372 35.8215 37.0093 36.5394C38.3284 35.6325 39.9085 35.0142 41.2654 34.8012C43.615 34.4268 46.4627 35.2581 46.607 37.7932C46.7856 40.8608 43.1341 43.097 40.1902 43.7531L40.1936 43.76ZM79.2404 55.1027C78.3232 54.9103 77.5057 54.529 76.8736 53.9554C75.5133 54.8725 74.0431 55.666 72.5076 56.2569L79.2438 55.1061V55.1027H79.2404ZM57.7092 58.7885L57.2008 57.3321C55.8165 58.3214 54.3394 59.1183 52.8004 59.6301L57.7058 58.7885H57.7092ZM46.3802 60.7259C45.9509 60.7878 45.518 60.8462 45.0921 60.9183C44.381 61.0282 43.6734 61.1519 42.9623 61.2824C42.6463 61.3374 42.2719 61.3992 41.9524 61.4851L46.3802 60.7259ZM57.2901 48.5829C56.8333 49.0294 56.3764 49.4691 55.9195 49.9054C56.4039 49.5653 56.8333 49.1393 57.2901 48.5829ZM78.0828 43.018C77.4988 43.6157 76.9114 44.2134 76.3171 44.7974C75.211 45.8932 74.0912 46.9787 72.9645 48.0573C73.1534 48.0332 73.3389 48.0023 73.5278 47.9749C74.4038 47.834 74.9328 47.5042 75.6232 46.9443C75.9771 46.6558 76.3446 46.3397 76.6641 46.0065C76.8805 45.4844 77.1209 44.9623 77.3683 44.4504C77.6019 43.973 77.8389 43.4886 78.0828 43.018Z" fill="#3F2109"/>
<path d="M39.3969 41.7741C41.4923 41.4409 44.4568 39.8333 44.3572 38.0367C44.3023 37.0543 42.911 36.6661 41.5164 36.8894C39.0569 37.281 36.4702 39.1463 36.563 40.6989C36.6179 41.647 38.0023 41.9974 39.3969 41.7741Z" fill="#F83822"/>
<path d="M94.5818 46.8614C92.6032 48.524 91.8028 48.2423 93.2078 44.9653L97.0379 36.0134L92.1532 36.7898L91.7891 37.6623C91.1639 36.9478 90.3532 36.4703 88.1376 36.8241C84.936 37.3325 82.3872 39.05 79.4296 45.2366C79.1204 45.8515 78.8559 46.4527 78.6326 47.0263C78.217 47.5141 77.688 48.0053 77.0491 48.524C75.7403 49.5855 74.8059 49.9152 73.7823 50.0767C71.8964 50.3755 70.1651 50.4786 68.9731 50.6641C67.8258 50.853 67.2178 51.0557 66.73 51.2377C69.1861 48.5755 75.2147 43.2821 79.0174 38.8783L78.3681 38.3768C77.1452 38.6756 75.9223 39.0157 74.7716 39.1978C71.5323 39.7096 68.1212 39.4416 66.359 39.7199C63.4014 40.1905 63.2468 43.945 61.2579 46.779C57.627 52.0072 56.9537 52.574 50.8427 53.5495C49.6954 53.7316 49.0874 53.9343 48.5996 54.1163C51.0144 51.4576 57.0843 46.195 60.8869 41.7569L60.2377 41.2554C59.0113 41.5542 57.7885 41.8943 56.6411 42.0764C53.4018 42.5882 49.9908 42.3202 48.2286 42.5985C45.0683 43.1 44.7866 47.5141 42.887 50.5438C41.2175 53.2266 38.9813 56.0297 37.2569 56.3045C36.8069 56.3766 36.5458 56.2736 36.5252 55.8888C36.5149 55.7171 36.587 55.4869 36.6935 55.2259L40.558 46.1263L35.2473 44.5221L29.8165 57.2491C29.4867 58.0152 29.3493 58.4961 29.3871 59.0938C29.4626 60.5022 30.7852 61.1789 32.5096 60.9041C39.153 59.8426 43.4744 53.5873 45.6042 49.6267C46.9129 47.1809 47.3045 46.7653 48.8194 46.5214C49.8843 46.353 51.6534 46.1779 52.9724 46.0404C50.1385 49.3622 44.4981 54.1988 40.8466 58.369L41.2416 59.5163C41.6916 59.3755 43.203 59.1006 44.8484 58.8361C46.6553 58.5476 48.5034 58.3587 50.5988 58.0255C56.3869 57.1014 61.5224 50.7122 64.0266 46.0508C64.9609 44.2714 66.1735 43.7218 67.7296 43.4744C68.6743 43.3233 69.7873 43.2855 71.1063 43.1515C68.2724 46.4389 62.6285 51.2412 58.9804 55.4801L59.3755 56.6205C59.8255 56.4797 61.3369 56.2049 62.9823 55.9404C64.7892 55.6518 66.6373 55.4629 68.7327 55.1297C72.288 54.5663 75.5445 52.574 77.791 50.5919C77.791 50.6435 77.791 50.695 77.7945 50.7431C77.901 52.6736 79.6013 53.4018 81.817 53.0446C84.3177 52.6496 85.5612 51.9557 86.6605 50.9251C87.6498 54.5972 91.7478 52.0415 95.6982 48.3179C97.9654 46.1813 99.0818 48.3832 98.3776 50.4236C97.6459 52.5328 94.97 54.5457 90.3944 55.3289L17.5738 67.7914L17.5875 67.8017L13.4551 77.5333L83.112 65.6101C96.6119 63.2983 101.565 56.2633 102.081 51.2927C102.599 46.3187 98.6696 43.4195 94.5818 46.8614ZM89.2643 40.0771L85.7639 48.3385L85.7673 48.3351C85.2486 49.4446 84.7471 50.0595 84.0532 50.1694C83.6822 50.2313 83.4658 50.0492 83.4452 49.6988C83.4246 49.3141 83.5208 48.9087 83.7441 48.445L87.0624 40.6405C87.3853 39.8092 87.7769 39.3558 88.5944 39.2252C89.1269 39.1394 89.3055 39.3626 89.3192 39.6065C89.333 39.7474 89.3433 39.9191 89.2643 40.0771Z" fill="#F83822"/>
<path d="M15.3274 57.9983C16.1072 57.9433 16.8492 57.8609 17.5877 57.7441C24.2724 56.6792 28.0751 53.6975 30.0125 49.2354L34.1037 39.782C34.5812 38.7102 34.8147 37.7175 34.7667 36.9789C34.6567 35.0484 32.8293 34.2343 28.6453 34.9007C26.0999 35.306 24.2449 36.1339 22.9053 37.2675C22.0224 36.3091 19.666 36.3297 16.3442 36.8553C13.2664 37.3465 12.6 38.0232 12.6584 39.0056C12.6927 39.6033 13.1668 39.8816 13.9877 39.7511L14.4 39.6858C15.5061 39.5072 16.0935 39.6652 16.1244 40.1564C16.1347 40.3694 16.0694 40.5926 15.9561 40.8572L5.6748 65.0677L12.7683 63.9376V63.941L15.3274 57.9983ZM22.9121 40.1083C23.4583 38.8167 24.4476 38.0198 26.0072 37.769C27.2816 37.5663 27.8415 38.006 27.8827 38.748C27.9068 39.1705 27.7762 39.7579 27.0858 41.4308L23.2522 50.3449C21.9022 53.5395 20.2808 54.8277 17.5705 55.2605C17.2408 55.312 16.8286 55.343 16.4198 55.3704L22.9121 40.1083Z" fill="#F83822"/>
<path d="M25.2031 36.8246C35.9756 34.1933 32.5817 38.9543 29.6138 47.7138C30.3283 46.065 32.7981 41.7539 33.4748 38.7929C34.6118 33.7673 28.0336 35.715 25.2031 36.8246ZM92.9054 48.7134C90.2948 48.5348 91.7993 45.7249 92.2425 44.6909L94.8806 38.5352C95.7222 36.5669 94.2176 37.1406 92.8711 37.5356C93.723 37.3845 94.4821 37.1921 93.8707 38.6314L91.1054 45.0825C90.5386 46.4154 89.5081 49.7234 92.9054 48.7134ZM81.9509 47.8203L85.252 40.057C85.6642 39.0059 86.3032 38.2227 87.6188 38.0131C88.2062 37.9169 88.7455 38.0372 89.089 38.3429C88.8967 38.3223 88.6871 38.3291 88.4742 38.3635C87.1516 38.5765 86.5127 39.3631 86.1074 40.4074L82.8062 48.1707C82.5589 48.6997 82.4009 49.2424 82.4352 49.7989C82.4559 50.1631 82.607 50.4791 82.8509 50.7024C82.1158 50.6474 81.6177 50.139 81.5765 49.4486C81.5524 48.8921 81.7036 48.3493 81.9509 47.8203ZM65.8403 50.6818C68.5128 48.1363 73.3803 43.8871 75.5479 41.1837C77.0834 39.2704 73.4696 40.2597 72.3738 40.3524C74.7578 40.5551 74.325 41.1528 73.3116 42.3826C70.9208 45.2646 68.4132 47.8512 65.8403 50.6818ZM47.8129 53.5982C50.4854 51.0527 55.3529 46.8035 57.5205 44.1001C59.056 42.1868 55.4423 43.1761 54.3465 43.2688C56.7304 43.4715 56.2976 44.0692 55.2842 45.299C52.8934 48.181 50.3824 50.7676 47.8129 53.5982ZM40.4996 38.044C40.5545 38.0337 40.6164 38.0234 40.6713 38.0131C43.6496 37.5356 42.1759 39.5795 40.3862 40.4795C40.0977 40.6272 39.7816 40.7578 39.4587 40.8745C40.1011 40.7474 40.7709 40.5001 41.3446 40.2116C44.5186 38.6143 43.6221 36.9104 40.4927 38.0406L40.4996 38.044ZM36.6042 57.1672C35.2095 56.9577 35.3882 55.8481 35.7454 54.9653L38.2255 49.1291C39.4381 46.2745 38.2152 46.3707 35.821 45.639C38.2084 46.6215 38.0641 47.2363 37.2362 49.1806L34.7561 55.0168C34.2133 56.3394 35.134 57.5176 36.6042 57.1672ZM21.9569 39.844C23.2348 36.8417 19.3497 36.9723 17.0585 37.6112C19.4356 37.2402 22.0394 37.3948 20.9333 39.9849C17.615 47.786 14.3447 55.5596 11.0127 63.3332L12.0364 63.1718L21.9569 39.8475V39.844Z" fill="white"/>
<path d="M27.0998 67.6411C26.4746 67.7475 25.846 67.8575 25.2242 67.964C24.8601 69.0495 24.4925 70.135 24.1353 71.2205C23.7746 72.306 23.4105 73.3949 23.0498 74.4873C23.4758 74.4117 23.8983 74.3361 24.3242 74.2537C24.599 73.4361 24.867 72.622 25.1418 71.8044C25.341 71.7701 25.5368 71.7323 25.7395 71.6979C27.0139 71.4712 27.8349 70.7911 28.1784 69.7571C28.2712 69.4789 28.3673 69.1937 28.4635 68.9155C28.8105 67.8781 28.3742 67.4212 27.0998 67.6411ZM74.9782 60.4582C75.7099 60.3414 76.445 60.2246 77.1801 60.1044C77.2831 59.8193 77.3896 59.5376 77.4961 59.2456C76.3351 59.4345 75.1774 59.6166 74.0164 59.8021C73.6522 60.8052 73.2847 61.8116 72.9274 62.8147C72.5668 63.8178 72.2026 64.8277 71.8419 65.8376C72.9996 65.6384 74.1538 65.4426 75.3148 65.2502C75.4179 64.9617 75.5244 64.6765 75.624 64.388C74.8889 64.5082 74.1538 64.6353 73.4221 64.759C73.6351 64.1716 73.848 63.5807 74.061 62.9933C74.645 62.8971 75.229 62.801 75.8095 62.7048C75.9125 62.4197 76.019 62.1311 76.1186 61.846C75.5347 61.9422 74.9507 62.0384 74.3702 62.1345C74.5728 61.5781 74.7721 61.0181 74.9748 60.4616L74.9782 60.4582ZM69.2072 61.396C69.6469 61.3239 70.0935 61.2483 70.54 61.1796C70.2309 62.0452 69.9217 62.9075 69.6057 63.7765C69.2965 64.6422 68.9874 65.5113 68.6713 66.3769C69.0973 66.3048 69.5198 66.2361 69.9458 66.1605C70.2549 65.2949 70.5641 64.4258 70.8801 63.5636C71.1893 62.7013 71.4984 61.8357 71.8145 60.9735C72.2542 60.9013 72.7007 60.8258 73.1473 60.7571C73.2503 60.4719 73.3568 60.1834 73.4564 59.8983C72.1374 60.1113 70.8252 60.3208 69.5164 60.5338C69.4168 60.8189 69.3103 61.1074 69.2072 61.396ZM64.8721 62.6636C64.563 63.5361 65.0095 63.9311 65.4767 64.2609C65.9439 64.5907 66.4351 64.8586 66.2118 65.4838C66.0538 65.9201 65.7446 66.1227 65.3393 66.188C64.9271 66.2601 64.7347 66.1433 64.8893 65.7071C64.9408 65.5662 64.9924 65.4185 65.0473 65.2708C64.6454 65.343 64.2401 65.4082 63.8416 65.4804C63.7969 65.6075 63.7557 65.7346 63.7111 65.8548C63.3676 66.8338 63.8141 67.2838 65.0611 67.0674C66.3149 66.851 67.1599 66.1811 67.5103 65.2056C67.8194 64.3399 67.3729 63.9483 66.9057 63.6185C66.4385 63.2887 65.9473 63.0208 66.1706 62.3922C66.3217 61.9559 66.6172 61.7532 67.0191 61.688C67.4313 61.6227 67.5962 61.7498 67.445 62.1861C67.4141 62.272 67.3798 62.3544 67.3523 62.4403C67.7542 62.375 68.1595 62.3097 68.558 62.241C68.5786 62.1792 68.5992 62.1139 68.6233 62.0487C68.9668 61.08 68.5374 60.6231 67.2939 60.8258C66.0504 61.0284 65.2191 61.688 64.8687 62.667H64.8721V62.6636ZM63.6664 61.4819C63.0481 61.5849 62.4229 61.6845 61.8046 61.7876C61.2206 62.8491 60.6367 63.9071 60.0596 64.972C59.4825 66.0369 58.9019 67.1017 58.3317 68.1735C58.7164 68.1082 59.1115 68.0361 59.5031 67.9708C59.7057 67.5861 59.9153 67.2014 60.118 66.8132C60.6367 66.7273 61.1588 66.6346 61.6809 66.5453C61.6191 66.9059 61.5607 67.2666 61.5092 67.6239C61.9386 67.5517 62.3714 67.4762 62.7973 67.4006C62.9382 66.4113 63.0859 65.4288 63.2267 64.443C63.3676 63.4605 63.5221 62.4746 63.6664 61.4853V61.4819ZM62.2855 62.7323C62.2031 63.2338 62.1172 63.7353 62.0416 64.2334C61.966 64.7315 61.8802 65.233 61.8046 65.7346C61.3889 65.8067 60.9836 65.8754 60.5714 65.9441C60.8565 65.4082 61.1451 64.8723 61.4302 64.3365C61.7153 63.804 62.0038 63.2647 62.2924 62.7323H62.2855ZM56.4699 63.4983C56.9096 63.4262 57.3561 63.3506 57.8027 63.275C57.4935 64.1578 57.1775 65.0441 56.8684 65.9269C56.5592 66.8132 56.25 67.696 55.934 68.5857C56.36 68.5101 56.7825 68.438 57.2084 68.3624C57.5176 67.4796 57.8267 66.5933 58.1428 65.7105C58.4519 64.8277 58.7611 63.9449 59.0771 63.062C59.5168 62.9899 59.9634 62.9143 60.4099 62.8456C60.513 62.5502 60.6195 62.2582 60.7191 61.9697C59.4 62.1826 58.0878 62.3991 56.779 62.6189C56.676 62.9075 56.5695 63.2029 56.4699 63.4983ZM50.5512 64.491C50.9909 64.4155 51.434 64.3433 51.8806 64.2678C51.5714 65.1609 51.2623 66.054 50.9462 66.9472C50.6371 67.8403 50.3279 68.7369 50.0119 69.63C50.4378 69.5544 50.8604 69.4789 51.2863 69.4067C51.5955 68.5136 51.9046 67.6204 52.2207 66.7273C52.5298 65.8342 52.839 64.9479 53.155 64.0548C53.5947 63.9826 54.0413 63.9071 54.4878 63.8315C54.5909 63.5361 54.6974 63.2441 54.797 62.9487C53.4848 63.1651 52.176 63.3849 50.8604 63.6013C50.7573 63.9002 50.6508 64.1991 50.5512 64.4945V64.491ZM47.8821 67.8025C47.7791 68.1014 47.6726 68.4002 47.573 68.6991C47.4218 69.1491 47.1127 69.3586 46.7005 69.4308C46.2986 69.5029 46.1028 69.3861 46.2539 68.9327C46.4463 68.3693 46.6455 67.7956 46.8379 67.2323C47.0302 66.6689 47.2295 66.0953 47.4253 65.5319C47.5833 65.0819 47.8959 64.8689 48.3012 64.8002C48.7134 64.7281 48.9058 64.862 48.7478 65.3086C48.6653 65.5319 48.5898 65.7586 48.5142 65.9785C48.9161 65.9132 49.3214 65.8411 49.7199 65.7689C49.7852 65.5662 49.8573 65.3636 49.9295 65.1609C50.2798 64.1613 49.8333 63.6941 48.5795 63.9071C47.3256 64.1166 46.4806 64.8002 46.1302 65.8101C45.9413 66.3563 45.7489 66.9059 45.5634 67.4487C45.3745 67.9949 45.189 68.5445 45.0001 69.0907C44.6566 70.104 45.1031 70.5678 46.3501 70.3445C47.6039 70.1212 48.4558 69.4308 48.7993 68.4277C48.8955 68.1495 48.9917 67.8746 49.0879 67.5964C48.6859 67.6685 48.2806 67.7372 47.8821 67.8059V67.8025ZM43.4543 65.6933C44.186 65.5662 44.9211 65.446 45.6562 65.3189C45.7592 65.0201 45.8657 64.7212 45.9722 64.4155C44.8112 64.6147 43.6535 64.8071 42.4925 65.0029C42.1283 66.0575 41.7608 67.1189 41.4035 68.1735C41.0429 69.235 40.6787 70.293 40.318 71.3544C41.4757 71.1449 42.6299 70.9388 43.7909 70.7361C43.894 70.4304 44.0005 70.1315 44.1001 69.8292C43.365 69.9598 42.6299 70.0937 41.8982 70.2208C42.1112 69.6025 42.3241 68.9842 42.5371 68.3659C43.1211 68.2628 43.7051 68.1632 44.2856 68.0601C44.3886 67.7613 44.4951 67.4624 44.5947 67.1567C44.0108 67.2598 43.4268 67.3594 42.8463 67.4624C43.049 66.875 43.2482 66.2842 43.4509 65.6968H43.4543V65.6933ZM39.4696 66.3735C40.1635 66.2533 40.8642 66.1365 41.565 66.0128C41.668 65.7071 41.7745 65.4082 41.8741 65.1059C40.7474 65.2983 39.6276 65.4872 38.5009 65.6796C38.1368 66.7411 37.7692 67.8059 37.412 68.8708C37.0513 69.9357 36.6871 71.0075 36.3265 72.0724C36.7524 71.9968 37.1749 71.9212 37.6009 71.8457C37.8997 70.9628 38.1986 70.0869 38.4974 69.2075C39.0402 69.1113 39.5932 69.0151 40.1394 68.9189C40.2425 68.6132 40.349 68.3143 40.4486 68.0121C39.9024 68.1082 39.3493 68.2044 38.8066 68.3006C39.023 67.6617 39.2429 67.0227 39.4593 66.3769H39.4696V66.3735ZM35.636 72.1995C35.5845 71.9831 35.6566 71.7529 35.7631 71.4437C35.873 71.114 35.9864 70.7842 36.1032 70.4544C36.3265 69.7846 36.2818 69.338 35.7185 69.2418C36.3608 68.9327 36.773 68.4552 36.9929 67.8025C37.0478 67.6342 37.1097 67.4693 37.1646 67.301C37.4978 66.3185 37.0925 65.9269 35.7734 66.1536C35.131 66.2636 34.4887 66.3769 33.8463 66.4834C33.4822 67.5552 33.1146 68.6304 32.7574 69.6987C32.3967 70.7705 32.0326 71.8457 31.6719 72.9243C32.0979 72.8487 32.5204 72.7731 32.9463 72.6907C33.2417 71.8182 33.5337 70.9457 33.8326 70.0697C33.9803 70.0456 34.128 70.0182 34.2723 69.9941C34.8494 69.8911 35.028 70.0663 34.8288 70.664C34.7188 70.9972 34.602 71.3373 34.4852 71.6739C34.3066 72.196 34.3238 72.2888 34.3375 72.4434C34.7669 72.3678 35.1997 72.2854 35.636 72.2098V72.1995ZM35.423 67.0674C35.873 66.9849 36.007 67.1601 35.849 67.6136C35.7768 67.8231 35.7081 68.0361 35.636 68.2422C35.4643 68.754 35.1173 68.967 34.6433 69.0529C34.4749 69.0838 34.3135 69.1147 34.1452 69.1388C34.3616 68.4861 34.5849 67.8266 34.8081 67.1704C35.0108 67.1395 35.2204 67.1017 35.423 67.0674ZM30.5452 67.9124C31.2803 67.7853 32.0154 67.6582 32.7505 67.5277C32.8536 67.222 32.9601 66.9197 33.0597 66.6105C31.8986 66.8098 30.741 67.0124 29.5799 67.2082C29.2158 68.2869 28.8483 69.3621 28.491 70.4441C28.1303 71.5228 27.7662 72.6083 27.4055 73.6903C28.5631 73.4773 29.7173 73.2678 30.8784 73.0548C30.9814 72.7457 31.0879 72.4365 31.1876 72.1308C30.4524 72.2613 29.7173 72.3953 28.9857 72.5258C29.1986 71.8903 29.4116 71.2617 29.6246 70.6296C30.2086 70.5266 30.7925 70.4201 31.373 70.3205C31.4761 70.0113 31.5826 69.7056 31.6822 69.3964C31.0982 69.5029 30.5143 69.606 29.9337 69.7056C30.1364 69.1079 30.3356 68.5033 30.5383 67.9056L30.5452 67.9124ZM26.7769 68.572C27.1822 68.4998 27.354 68.6132 27.2028 69.0735C27.0964 69.3964 26.9864 69.7227 26.8799 70.0457C26.7219 70.5128 26.454 70.6983 26.0486 70.7705C25.846 70.8048 25.6467 70.8426 25.4509 70.877C25.6948 70.1418 25.9422 69.4067 26.186 68.675C26.3853 68.6407 26.5811 68.6029 26.7838 68.5685H26.7769V68.572Z" fill="white"/>
<path d="M93.0705 34.8082C91.353 34.7223 89.2988 34.6399 87.0523 34.6262L86.987 34.9147C86.7122 36.1479 86.4511 37.309 85.4756 37.8448C84.634 38.312 84.0843 38.154 83.8164 37.2471C83.6653 36.7353 83.6549 35.8937 83.7717 34.6674C82.2706 34.712 80.7076 34.7945 79.1275 34.9422C77.4271 35.0933 75.6958 35.3166 73.9714 35.6326C73.9164 35.7254 73.8615 35.801 73.7928 35.8697C73.5935 36.0929 73.3668 36.2303 73.1229 36.2819C72.8687 36.3368 72.6145 36.3025 72.3707 36.1788C72.0203 36.0002 71.718 35.6464 71.5428 35.138C71.4913 34.9971 71.4466 34.8804 71.3951 34.7876L72.1199 35.3063L90.3534 34.0491L93.0671 34.8082H93.0705ZM71.1443 34.8014C70.897 35.2307 70.6772 36.0586 70.5604 37.3124C70.4092 38.9612 70.2615 40.112 69.9455 40.8711C69.5607 41.7952 68.9768 42.1696 67.9875 42.0974C66.4451 41.9875 66.4211 39.4765 66.5482 36.828L66.4863 36.8383L68.3825 36.5395L71.1409 34.8048V34.8014H71.1443Z" fill="#3F2109"/>
<path d="M67.5508 35.7869L67.5405 35.9483C67.4031 38.4525 67.2553 41.0975 68.0523 41.1559C68.5641 41.1903 68.8698 40.9945 69.0725 40.5067C69.3405 39.8575 69.4779 38.7788 69.6187 37.2262C69.6943 36.3674 69.8317 35.6701 69.9931 35.1308L67.9905 35.2613L67.5508 35.7869ZM72.4939 34.9693C72.5798 35.1514 72.6828 35.275 72.7893 35.33C72.8305 35.3506 72.8752 35.3609 72.9164 35.3506C72.9679 35.3403 73.0229 35.2991 73.0779 35.2338C73.15 35.1582 73.2084 35.0518 73.2668 34.9178L72.4905 34.9693H72.4939ZM84.771 34.1689L84.7675 34.2308C84.6061 35.6289 84.5889 36.522 84.7229 36.9754C84.7572 37.1025 84.8603 37.1059 85.0183 37.0201C85.6229 36.6869 85.8359 35.7285 86.0626 34.7082C86.1072 34.4987 86.1588 34.2857 86.2103 34.0728L84.7744 34.1655V34.1689H84.771Z" fill="#FFC014"/>
<path d="M46.3014 15.8051C53.656 17.9589 53.8999 28.7863 44.1648 28.9443C43.811 30.8714 44.1648 32.9771 44.7625 34.7668C34.2992 34.2653 22.0634 37.5458 13.2523 43.2103C12.7611 40.792 11.6344 38.1195 9.53557 36.663C1.39439 38.2672 -3.51437 27.584 3.03293 22.4795C-0.941479 9.11006 20.5279 0.00705051 28.8477 7.02152C37.353 3.92306 44.6595 8.08296 46.3049 15.8051H46.3014Z" fill="#3F2109"/>
<path d="M12.2604 19.8722C10.0139 19.8928 8.12112 20.1917 6.54441 20.6898C3.8616 12.6929 16.5612 6.34138 23.8264 7.51275C29.9443 8.49519 31.3493 13.4417 25.8325 17.0829C30.6897 15.8291 32.1256 12.0024 30.4286 8.9177C35.145 6.87382 42.5202 9.6219 44.1622 15.4616C41.8813 15.3551 40.0126 16.0181 40.0126 16.0181C42.661 15.8703 47.2194 17.2306 48.4354 19.8482C49.7202 22.6031 47.9648 25.9077 42.9324 26.3749C41.3145 25.9524 39.4389 25.7394 37.4191 25.9146C32.9363 26.2993 32.8641 22.8196 36.9897 21.8406C31.5794 20.9131 31.0779 26.2684 26.5573 27.2405C23.6512 27.8692 19.1031 28.0581 17.6432 22.1291C16.7604 23.5856 17.0764 25.3444 17.7463 26.5501C18.0898 27.1753 19.718 28.8688 17.4989 30.0333C15.2627 31.2046 13.9986 32.3039 12.5077 33.2142C3.49748 38.6966 -4.68149 23.2661 12.2604 19.8654V19.8722ZM16.0047 39.1638C23.16 35.3508 31.0367 32.6783 40.1088 32.9771C40.8645 33.0012 41.3145 33.0184 41.5858 32.9531C38.6282 32.1665 34.9424 31.902 32.1084 32.0291C35.9076 30.9195 38.4668 31.0913 41.9568 31.5516C41.9534 31.4142 41.9534 31.2665 41.9568 31.105C41.9775 28.8928 42.7675 28.3707 39.9576 27.8142C31.1328 26.0657 18.1035 30.2978 12.5833 36.1306C15.0978 34.468 18.7562 32.4687 23.4004 31.0878C23.4004 31.0878 17.7257 33.8771 13.3425 37.4771C15.826 35.8935 19.2749 34.1004 23.5653 32.8226C23.5653 32.8226 18.5844 35.2718 14.3593 38.5386C16.8257 36.9928 19.402 35.6668 23.5653 34.4302C23.5653 34.4302 19.6184 36.5359 16.0047 39.15V39.1638Z" fill="#FDFDFD"/>
<path d="M12.2603 19.8722C10.0137 19.8928 8.121 20.1917 6.54429 20.6898C3.86147 12.6929 16.561 6.34138 23.8263 7.51275C24.2522 7.58489 24.6541 7.67076 25.032 7.77725C12.6175 7.82878 8.47825 14.5341 9.28893 18.8245C10.9034 19.1165 12.2603 19.8722 12.2603 19.8722ZM29.8343 14.8055C31.3251 13.1017 31.5037 10.8585 30.4285 8.92114C35.1346 6.88413 42.4823 9.61159 44.1483 15.4169C44.0281 15.0322 42.9907 12.0711 39.1674 10.7005C36.6048 9.78335 33.8361 9.94824 32.122 10.2024C32.122 10.5562 32.0774 10.9685 31.9709 11.4391C31.5999 13.057 30.6793 14.1253 29.8308 14.8055H29.8343ZM40.5037 16.0078C43.1899 16.0387 47.2846 17.3887 48.4319 19.8482C49.7166 22.6031 47.9613 25.9077 42.9288 26.3749C41.3109 25.9524 39.4353 25.7394 37.4155 25.9146C34.214 26.1928 33.2659 24.4959 34.4854 23.1459C34.5609 23.6028 34.8907 24.1112 35.8251 24.4684C37.972 25.2963 37.7865 24.3619 41.3934 24.8978C45.0002 25.4337 46.7281 23.3967 46.3674 20.628C46.0514 18.1787 41.5479 16.389 40.5002 16.0043L40.5037 16.0078ZM17.6362 22.1394C16.7534 23.5959 17.0694 25.3547 17.7393 26.5604C18.0828 27.1856 19.711 28.8791 17.4919 30.0436C15.2557 31.2149 13.9916 32.3142 12.5007 33.2245C5.29391 37.6111 -1.38049 28.6043 4.92292 23.0909C3.90957 24.915 2.95461 27.9138 5.1462 30.8714C8.6397 35.5878 16.695 28.6214 16.695 28.6214C16.695 28.6214 14.9259 25.0008 17.6431 22.1463L17.6362 22.1394ZM39.6071 27.7592C39.796 27.9379 39.9506 28.144 40.0125 28.3741C40.1945 29.0577 40.246 29.7791 39.9987 30.3252C39.8613 30.6241 38.5491 30.9607 37.3983 31.1978C38.8583 31.184 40.3044 31.3352 41.9533 31.5584C41.9498 31.421 41.9498 31.2733 41.9533 31.1119C41.9739 28.8997 42.764 28.3775 39.9541 27.8211C39.8373 27.8004 39.7273 27.7764 39.6105 27.7558V27.7592H39.6071ZM32.2835 32.0222C32.3659 32.0222 33.709 32.0084 33.9014 32.4035C34.1006 32.8157 25.7602 32.96 15.9977 39.1638C23.153 35.3508 31.0297 32.6783 40.1018 32.9771C40.8575 33.0012 41.3075 33.0184 41.5789 32.9531C38.6831 32.1802 35.0934 31.9123 32.2835 32.0222Z" fill="#CCCCCC"/>
</g>
<defs>
<clipPath id="clip0_1_2249">
<rect width="104.365" height="80" fill="white" transform="translate(0 0.250977)"/>
</clipPath>
</defs>
</svg>
