<svg width="21" height="21" viewBox="0 0 21 21" fill="none" xmlns="http://www.w3.org/2000/svg">
<g clip-path="url(#clip0_29_30618)">
<path d="M12.2859 12.4421C12.057 12.6878 11.781 12.8848 11.4743 13.0214C11.1677 13.1581 10.8366 13.2315 10.5009 13.2374C10.1653 13.2434 9.83184 13.1816 9.52055 13.0559C9.20925 12.9301 8.92647 12.743 8.68908 12.5056C8.45168 12.2682 8.26453 11.9854 8.1388 11.6741C8.01306 11.3628 7.95131 11.0294 7.95723 10.6937C7.96316 10.3581 8.03663 10.027 8.17327 9.72035C8.30991 9.41369 8.50692 9.13768 8.75254 8.90881M15.4692 15.6255C14.0447 16.7113 12.3101 17.3129 10.5192 17.3421C4.68587 17.3421 1.35254 10.6755 1.35254 10.6755C2.38911 8.74372 3.82682 7.05598 5.56921 5.72548L15.4692 15.6255ZM8.7692 4.20881C9.34281 4.07454 9.93009 4.00743 10.5192 4.00881C16.3525 4.00881 19.6859 10.6755 19.6859 10.6755C19.18 11.6218 18.5768 12.5128 17.8859 13.3338L8.7692 4.20881Z" stroke="white" stroke-linecap="round" stroke-linejoin="round"/>
<path d="M1.35254 1.50879L19.6859 19.8421" stroke="white" stroke-linecap="round" stroke-linejoin="round"/>
</g>
<defs>
<clipPath id="clip0_29_30618">
<rect width="20" height="20" fill="white" transform="translate(0.519531 0.675781)"/>
</clipPath>
</defs>
</svg>
