<svg width="14" height="12" viewBox="0 0 14 12" fill="none" xmlns="http://www.w3.org/2000/svg">
<path fill-rule="evenodd" clip-rule="evenodd" d="M7.11354 3.71948L7.14166 4.19421L6.67298 4.13608C4.96697 3.91325 3.47657 3.15756 2.21112 1.8884L1.59246 1.25866L1.43311 1.7237C1.09566 2.76034 1.31126 3.85512 2.01428 4.59143C2.38922 4.99833 2.30486 5.05646 1.65808 4.81426C1.43311 4.73675 1.23627 4.67862 1.21752 4.70769C1.1519 4.7755 1.37687 5.65714 1.55497 6.00591C1.79868 6.49033 2.29549 6.96505 2.83916 7.24601L3.29847 7.46884L2.7548 7.47853C2.22987 7.47853 2.21112 7.48822 2.26737 7.69167C2.45484 8.32141 3.19536 8.9899 4.02024 9.28055L4.6014 9.484L4.09523 9.79403C3.34534 10.2397 2.46421 10.4916 1.58309 10.511C1.16128 10.5206 0.814453 10.5594 0.814453 10.5885C0.814453 10.6853 1.95804 11.2279 2.62356 11.441C4.62015 12.0708 6.99168 11.7995 8.77267 10.7241C10.0381 9.95873 11.3036 8.43767 11.8941 6.96505C12.2128 6.1803 12.5315 4.74644 12.5315 4.05857C12.5315 3.61291 12.5596 3.55478 13.0845 3.02193C13.3939 2.7119 13.6845 2.37281 13.7407 2.27593C13.8344 2.09185 13.8251 2.09185 13.347 2.25655C12.5502 2.5472 12.4378 2.50845 12.8315 2.07248C13.122 1.76245 13.4689 1.20053 13.4689 1.03583C13.4689 1.00677 13.3283 1.05521 13.1689 1.1424C13.0002 1.23929 12.6252 1.38461 12.344 1.4718L11.8378 1.63651L11.3785 1.31679C11.1255 1.1424 10.7693 0.948638 10.5818 0.890509C10.1037 0.754873 9.37258 0.77425 8.94139 0.929262C7.76969 1.36523 7.02917 2.48907 7.11354 3.71948Z" fill="white"/>
</svg>
