<svg width="20" height="21" viewBox="0 0 20 21" fill="none" xmlns="http://www.w3.org/2000/svg">
<g clip-path="url(#clip0_1_4959)">
<path d="M4.6875 10.2775C4.6875 9.28659 4.96051 8.35835 5.4348 7.56354V4.19214H2.0634C0.725313 5.92995 0 8.04788 0 10.2775C0 12.5071 0.725313 14.625 2.0634 16.3628H5.4348V12.9914C4.96051 12.1966 4.6875 11.2684 4.6875 10.2775Z" fill="#FBBD00"/>
<path d="M10 15.5899L7.65625 17.9337L10 20.2774C12.2296 20.2774 14.3475 19.5521 16.0854 18.214V14.8462H12.7175C11.9158 15.3222 10.9836 15.5899 10 15.5899Z" fill="#0F9D58"/>
<path d="M5.43488 12.9912L2.06348 16.3626C2.3284 16.7067 2.61688 17.0362 2.92902 17.3484C4.81777 19.2371 7.32898 20.2773 10.0001 20.2773V15.5898C8.06164 15.5898 6.3627 14.546 5.43488 12.9912Z" fill="#31AA52"/>
<path d="M20 10.2774C20 9.66898 19.9449 9.05945 19.8363 8.46578L19.7483 7.98535H10V12.6729H14.7442C14.2835 13.5893 13.5752 14.337 12.7175 14.8462L16.0853 18.214C16.4294 17.9491 16.7589 17.6606 17.0711 17.3485C18.9598 15.4597 20 12.9485 20 10.2774Z" fill="#3C79E6"/>
<path d="M13.7565 6.52082L14.1708 6.93512L17.4854 3.62059L17.0711 3.20629C15.1823 1.31754 12.6711 0.277344 10 0.277344L7.65625 2.62109L10 4.96484C11.419 4.96484 12.7531 5.51742 13.7565 6.52082Z" fill="#CF2D48"/>
<path d="M10.0001 4.96484V0.277344C7.32902 0.277344 4.81781 1.31754 2.92902 3.20625C2.61688 3.5184 2.3284 3.84789 2.06348 4.19199L5.43488 7.5634C6.36273 6.00859 8.06168 4.96484 10.0001 4.96484Z" fill="#EB4132"/>
</g>
<defs>
<clipPath id="clip0_1_4959">
<rect width="20" height="20" fill="white" transform="translate(0 0.277344)"/>
</clipPath>
</defs>
</svg>
