<svg width="57" height="81" viewBox="0 0 57 81" fill="none" xmlns="http://www.w3.org/2000/svg">
<g clip-path="url(#clip0_1_2315)">
<path d="M25.0207 2.86182L14.6274 14.0752H46.8283L25.0207 2.86182Z" fill="#FFC014"/>
<path d="M24.6024 2.44337C21.5731 5.70697 18.5271 8.98731 15.4978 12.2509C15.0626 12.7195 14.6275 13.1881 14.2091 13.64C13.8743 14.0082 14.1087 14.6442 14.6275 14.6442C18.276 14.6442 21.9078 14.6442 25.5564 14.6442C31.3137 14.6442 37.071 14.6442 42.8283 14.6442C44.1505 14.6442 45.4894 14.6442 46.8116 14.6442C47.3806 14.6442 47.6484 13.8241 47.1128 13.5396C44.6526 12.2676 42.1756 11.0124 39.7153 9.74045C35.8158 7.73208 31.8995 5.72371 27.9999 3.71534C27.0961 3.24672 26.2091 2.79484 25.3053 2.32622C24.6359 1.97476 24.0333 2.99568 24.7028 3.34714C27.1631 4.61911 29.64 5.87434 32.1003 7.1463C35.9999 9.15467 39.9162 11.163 43.8158 13.1714C44.7195 13.64 45.6066 14.0919 46.5103 14.5605C46.6107 14.1923 46.7112 13.8241 46.8116 13.4559C43.163 13.4559 39.5312 13.4559 35.8827 13.4559C30.1254 13.4559 24.3681 13.4559 18.6107 13.4559C17.2886 13.4559 15.9497 13.4559 14.6275 13.4559C14.7614 13.7907 14.912 14.1254 15.0459 14.4601C18.0752 11.2132 21.1212 7.94965 24.1505 4.66932C24.5856 4.2007 25.0208 3.73208 25.4392 3.28019C25.958 2.72789 25.1212 1.89107 24.6024 2.44337Z" fill="#424243"/>
<path d="M23.632 3.096C23.9165 3.39725 24.3014 3.63156 24.6696 3.81566C28.9542 5.79056 33.2219 7.78219 37.5065 9.77382C40.586 11.2132 43.6822 12.6357 46.7617 14.0751H51.9667C50.5274 13.3554 49.088 12.6525 47.632 11.9328C43.1131 9.70688 38.6111 7.48094 34.0922 5.25499C32.6864 4.5688 31.2805 3.86587 29.8914 3.17968C28.3182 2.40981 26.7115 1.60646 25.0881 0.953739C23.7324 0.401438 22.5441 1.94119 23.632 3.096Z" fill="#FFC014"/>
<path d="M23.2134 3.51441C24.1004 4.3847 25.4059 4.80311 26.5105 5.30521C27.7657 5.89098 29.0042 6.46002 30.2594 7.04579C32.7532 8.2006 35.2469 9.35542 37.7406 10.527C40.2343 11.6818 42.7281 12.8366 45.2051 13.9914C45.8076 14.2759 46.3766 14.6609 47.0461 14.6609C47.5649 14.6609 48.1005 14.6609 48.6193 14.6609C49.7406 14.6609 50.8452 14.6609 51.9666 14.6609C52.5189 14.6609 52.8034 13.824 52.2678 13.5563C47.7155 11.3136 43.18 9.0709 38.6276 6.82822C36.3348 5.70688 34.0586 4.5688 31.7657 3.44746C29.6402 2.39307 27.4979 1.15458 25.2385 0.384703C24.4184 0.100184 23.4979 0.317757 22.9624 1.05416C22.3933 1.84077 22.5942 2.79474 23.2134 3.51441C23.7155 4.08345 24.5523 3.24663 24.0502 2.67759C23.6486 2.20897 23.7992 1.45583 24.5021 1.42236C24.9373 1.40562 25.4226 1.72361 25.8076 1.87424C26.2762 2.07508 26.7448 2.29265 27.2134 2.51023C29.1716 3.43073 31.113 4.41818 33.0712 5.38889C37.0544 7.36378 41.0377 9.32194 45.021 11.2968C47.2469 12.3847 49.4561 13.4893 51.682 14.5772C51.7825 14.209 51.8829 13.8408 51.9833 13.4726C51.0795 13.4726 50.1758 13.4726 49.272 13.4726C48.6862 13.4726 48.0837 13.4726 47.4979 13.4726C47.3138 13.4726 47.1297 13.4893 46.9456 13.4726C46.9122 13.4726 46.862 13.4726 46.8118 13.4726C46.795 13.4726 46.795 13.4726 46.7783 13.4726C47.0628 13.5395 46.4268 13.255 46.4436 13.255C41.6402 11.0291 36.8369 8.78638 32.0502 6.56044C30.6946 5.92445 29.3389 5.30521 27.9833 4.66922C27.2636 4.33449 26.5607 3.99977 25.841 3.68177C25.2218 3.39726 24.5691 3.14621 24.067 2.66085C23.4979 2.14202 22.6611 2.97885 23.2134 3.51441Z" fill="#3F2109"/>
<path d="M23.2297 5.74048L17.9912 10.9288C19.4305 12.3681 21.7569 12.3848 23.1962 10.9455C24.6523 9.52291 24.669 7.19655 23.2297 5.74048Z" fill="#F83822"/>
<path d="M23.029 5.95798C24.301 7.29689 24.3345 9.42241 23.0123 10.7446C21.6734 12.0668 19.5478 11.9998 18.2257 10.7279C17.9579 10.4601 17.5395 10.8785 17.8073 11.1463C19.3637 12.6525 21.8742 12.7195 23.4307 11.163C25.0039 9.60651 24.937 7.11279 23.4474 5.53957C23.1796 5.25505 22.7612 5.67346 23.029 5.95798Z" fill="#424243"/>
<path d="M32.7196 17.7573C34.7531 17.7573 36.4016 16.1088 36.4016 14.0753C36.4016 12.0418 34.7531 10.3933 32.7196 10.3933C30.6861 10.3933 29.0376 12.0418 29.0376 14.0753C29.0376 16.1088 30.6861 17.7573 32.7196 17.7573Z" fill="#F83822"/>
<path d="M36.1002 14.0753C36.0667 15.9163 34.5939 17.456 32.7194 17.456C30.8784 17.456 29.3386 15.9163 29.3386 14.0753C29.3386 12.2343 30.8784 10.6945 32.7194 10.6945C34.5939 10.6778 36.0667 12.2175 36.1002 14.0753C36.1002 14.4602 36.7027 14.4602 36.6859 14.0753C36.6525 12.4351 35.665 10.9456 34.1085 10.3598C32.5353 9.75728 30.711 10.2594 29.6399 11.5481C28.5855 12.82 28.4349 14.6778 29.2884 16.1004C30.142 17.523 31.8156 18.2761 33.4391 17.9749C35.3303 17.6401 36.6525 15.9497 36.7027 14.0585C36.7027 13.6903 36.1169 13.6903 36.1002 14.0753Z" fill="#424243"/>
<path d="M52.2179 40.3345H4.26807V69.7403H52.2179V40.3345Z" fill="#FFC014"/>
<path d="M52.2176 69.1546C50.6276 69.1546 49.0376 69.1546 47.4477 69.1546C43.6318 69.1546 39.7992 69.1546 35.9832 69.1546C31.3807 69.1546 26.7782 69.1546 22.1757 69.1546C18.1757 69.1546 14.1757 69.1546 10.1757 69.1546C8.85354 69.1546 7.5481 69.1546 6.22593 69.1546C5.64015 69.1546 4.95396 69.0542 4.35145 69.1546C4.31798 69.1546 4.30124 69.1546 4.26777 69.1546C4.4686 69.3554 4.66944 69.5562 4.85354 69.7403C4.85354 66.4265 4.85354 63.1127 4.85354 59.7989C4.85354 54.527 4.85354 49.2383 4.85354 43.9663C4.85354 42.7613 4.85354 41.5563 4.85354 40.3512C4.65271 40.5521 4.45187 40.7529 4.26777 40.937C5.85773 40.937 7.44768 40.937 9.03764 40.937C12.8535 40.937 16.6862 40.937 20.5021 40.937C25.1046 40.937 29.7071 40.937 34.3096 40.937C38.3096 40.937 42.3096 40.937 46.3096 40.937C47.6318 40.937 48.9372 40.937 50.2594 40.937C50.8452 40.937 51.5314 41.0374 52.1339 40.937C52.1674 40.937 52.1841 40.937 52.2176 40.937C52.0167 40.7362 51.8159 40.5353 51.6318 40.3512C51.6318 43.665 51.6318 46.9788 51.6318 50.2927C51.6318 55.5646 51.6318 60.8533 51.6318 66.1253C51.6318 67.3303 51.6318 68.5353 51.6318 69.7403C51.6318 70.4935 52.8201 70.4935 52.8201 69.7403C52.8201 66.4265 52.8201 63.1127 52.8201 59.7989C52.8201 54.527 52.8201 49.2383 52.8201 43.9663C52.8201 42.7613 52.8201 41.5563 52.8201 40.3512C52.8201 40.0332 52.5523 39.7655 52.2343 39.7655C50.6443 39.7655 49.0544 39.7655 47.4644 39.7655C43.6485 39.7655 39.8159 39.7655 36 39.7655C31.3975 39.7655 26.795 39.7655 22.1925 39.7655C18.1925 39.7655 14.1925 39.7655 10.1925 39.7655C8.26777 39.7655 6.30961 39.6818 4.36819 39.7655C4.33471 39.7655 4.31798 39.7655 4.2845 39.7655C3.96651 39.7655 3.69873 40.0332 3.69873 40.3512C3.69873 43.665 3.69873 46.9788 3.69873 50.2927C3.69873 55.5646 3.69873 60.8533 3.69873 66.1253C3.69873 67.3303 3.69873 68.5353 3.69873 69.7403C3.69873 70.0583 3.96651 70.3261 4.2845 70.3261C5.87446 70.3261 7.46442 70.3261 9.05438 70.3261C12.8703 70.3261 16.7029 70.3261 20.5188 70.3261C25.1213 70.3261 29.7238 70.3261 34.3263 70.3261C38.3263 70.3261 42.3263 70.3261 46.3263 70.3261C48.251 70.3261 50.2092 70.4098 52.1506 70.3261C52.1841 70.3261 52.2008 70.3261 52.2343 70.3261C52.9874 70.3261 52.9874 69.1546 52.2176 69.1546Z" fill="#3F2109"/>
<path d="M52.2179 16.0166H4.50244V25.7405H52.2179V16.0166Z" fill="#FFC014"/>
<path d="M52.2176 15.4307C50.6277 15.4307 49.0377 15.4307 47.4645 15.4307C43.6821 15.4307 39.8829 15.4307 36.1005 15.4307C31.498 15.4307 26.8954 15.4307 22.2929 15.4307C18.3264 15.4307 14.3599 15.4307 10.4101 15.4307C8.48541 15.4307 6.52725 15.3471 4.60256 15.4307C4.56909 15.4307 4.55235 15.4307 4.51888 15.4307C4.20089 15.4307 3.93311 15.6985 3.93311 16.0165C3.93311 19.2634 3.93311 22.4935 3.93311 25.7404C3.93311 26.0584 4.20089 26.3261 4.51888 26.3261C6.10884 26.3261 7.6988 26.3261 9.27202 26.3261C13.0544 26.3261 16.8536 26.3261 20.636 26.3261C25.2385 26.3261 29.8411 26.3261 34.4436 26.3261C38.4101 26.3261 42.3766 26.3261 46.3264 26.3261C48.2511 26.3261 50.2093 26.4098 52.1339 26.3261C52.1674 26.3261 52.1842 26.3261 52.2176 26.3261C52.5356 26.3261 52.8034 26.0584 52.8034 25.7404C52.8034 22.4935 52.8034 19.2634 52.8034 16.0165C52.8034 15.2634 51.6151 15.2634 51.6151 16.0165C51.6151 19.2634 51.6151 22.4935 51.6151 25.7404C51.8159 25.5395 52.0168 25.3387 52.2009 25.1546C50.6109 25.1546 49.021 25.1546 47.4478 25.1546C43.6653 25.1546 39.8662 25.1546 36.0837 25.1546C31.4812 25.1546 26.8787 25.1546 22.2762 25.1546C18.3097 25.1546 14.3431 25.1546 10.3934 25.1546C9.08792 25.1546 7.78248 25.1546 6.4603 25.1546C5.85779 25.1546 5.1716 25.0542 4.58583 25.1546C4.55235 25.1546 4.53562 25.1546 4.50214 25.1546C4.70298 25.3554 4.90382 25.5563 5.08792 25.7404C5.08792 22.4935 5.08792 19.2634 5.08792 16.0165C4.88708 16.2174 4.68624 16.4182 4.50214 16.6023C6.0921 16.6023 7.68206 16.6023 9.25528 16.6023C13.0377 16.6023 16.8369 16.6023 20.6193 16.6023C25.2218 16.6023 29.8243 16.6023 34.4268 16.6023C38.3934 16.6023 42.3599 16.6023 46.3097 16.6023C48.2344 16.6023 50.1925 16.686 52.1172 16.6023C52.1507 16.6023 52.1674 16.6023 52.2009 16.6023C52.9875 16.619 52.9875 15.4307 52.2176 15.4307Z" fill="#3F2109"/>
<path d="M8.23438 40.4515L10.6612 25.7402H16.9875L16.1674 40.4515C16.1674 40.4515 15.9331 44.4013 12.2176 44.4013C8.46868 44.4181 8.23438 40.4515 8.23438 40.4515Z" fill="#F0F1F1"/>
<path d="M8.80339 40.619C9.50632 36.3345 10.2093 32.0332 10.9289 27.7487C11.0293 27.1294 11.1298 26.5269 11.2302 25.9077C11.0461 26.0583 10.8452 26.1922 10.6611 26.3428C12.7699 26.3428 14.8787 26.3428 16.9875 26.3428C16.7867 26.142 16.5858 25.9412 16.4017 25.7571C16.2009 29.2884 16 32.8198 15.7992 36.3512C15.7155 37.7068 15.6486 39.0792 15.5649 40.4349C15.5649 40.4516 15.5649 40.4684 15.5649 40.4684C15.5482 40.6525 15.5649 40.4684 15.5482 40.6022C15.4812 40.9704 15.3975 41.3219 15.2636 41.6734C14.8787 42.6776 14.1256 43.4642 13.0712 43.7152C11.6821 44.0499 10.2093 43.5813 9.45611 42.3428C9.20507 41.9244 9.0377 41.4725 8.92055 40.9872C8.88708 40.8366 8.8536 40.6692 8.83687 40.5186C8.8536 40.6692 8.83687 40.5186 8.83687 40.4516C8.78666 39.6985 7.61511 39.6985 7.64858 40.4516C7.76574 42.3763 8.95402 44.301 10.8787 44.8366C12.318 45.2382 13.9917 44.9537 15.1298 43.9495C15.9164 43.2466 16.4017 42.2257 16.6193 41.2048C16.8369 40.1838 16.8034 39.096 16.8703 38.0583C17.0042 35.6315 17.1381 33.2048 17.272 30.778C17.3724 29.1043 17.4561 27.414 17.5565 25.7403C17.5733 25.4223 17.272 25.1545 16.9708 25.1545C14.862 25.1545 12.7532 25.1545 10.6444 25.1545C10.4101 25.1545 10.1088 25.3386 10.0754 25.5897C9.37243 29.8742 8.6695 34.1755 7.94984 38.46C7.84942 39.0792 7.749 39.6817 7.64858 40.301C7.53143 41.0374 8.6695 41.3554 8.80339 40.619Z" fill="#424243"/>
<path d="M24.0503 40.4515V25.7402H31.9666V40.4515C31.9666 40.4515 31.8495 44.4013 28.0168 44.4013C24.1842 44.4013 24.0503 40.4515 24.0503 40.4515Z" fill="#F83822"/>
<path d="M24.6528 40.4516C24.6528 36.1503 24.6528 31.8491 24.6528 27.5646C24.6528 26.9621 24.6528 26.3596 24.6528 25.757C24.452 25.9579 24.2511 26.1587 24.067 26.3428C26.7114 26.3428 29.339 26.3428 31.9834 26.3428C31.7825 26.142 31.5817 25.9411 31.3976 25.757C31.3976 29.3721 31.3976 32.9704 31.3976 36.5855C31.3976 37.8742 31.4478 39.1796 31.3976 40.4683C31.3976 40.5018 31.3976 40.5185 31.3976 40.552C31.3976 40.5855 31.3976 40.6357 31.3808 40.6692C31.3641 40.8365 31.3808 40.6692 31.3641 40.7696C31.2972 41.1378 31.2135 41.5227 31.0629 41.8742C30.6444 42.8784 29.8411 43.5813 28.77 43.7821C27.3474 44.0332 25.908 43.5646 25.1884 42.2759C24.9708 41.8742 24.8202 41.4558 24.7365 41.0039C24.6528 40.7194 24.6528 40.7361 24.6528 40.4516C24.6193 39.6985 23.4478 39.6817 23.4645 40.4516C23.5315 42.3428 24.6528 44.2006 26.5106 44.7863C27.9499 45.2382 29.6905 45.0206 30.8788 44.0667C31.6988 43.3972 32.2177 42.4098 32.4352 41.3721C32.6528 40.3512 32.5691 39.2968 32.5691 38.2591C32.5691 35.8156 32.5691 33.3721 32.5691 30.9453C32.5691 29.2047 32.5691 27.4809 32.5691 25.7403C32.5691 25.4223 32.3013 25.1545 31.9834 25.1545C29.339 25.1545 26.7114 25.1545 24.067 25.1545C23.7491 25.1545 23.4813 25.4223 23.4813 25.7403C23.4813 30.0416 23.4813 34.3428 23.4813 38.6273C23.4813 39.2298 23.4813 39.8324 23.4813 40.4349C23.4645 41.2215 24.6528 41.2215 24.6528 40.4516Z" fill="#3F2109"/>
<path d="M39.8827 40.4515L39.6484 25.7402H46.1924L47.7823 40.4515C47.7823 40.4515 47.5982 43.8155 44.3012 44.3511C41.0041 44.8867 39.9664 41.8741 39.8827 40.4515Z" fill="#48C75A"/>
<path d="M40.4687 40.4516C40.4018 36.1504 40.3348 31.8491 40.2679 27.5646C40.2511 26.9621 40.2511 26.3596 40.2344 25.757C40.0336 25.9579 39.8327 26.1587 39.6486 26.3428C41.8411 26.3428 44.0168 26.3428 46.2093 26.3428C46.0085 26.142 45.8076 25.9412 45.6235 25.757C45.975 29.0039 46.3265 32.234 46.6779 35.4809C46.8453 37.0374 47.0126 38.5939 47.18 40.1504C47.1967 40.2508 47.2135 40.3512 47.2135 40.4683C47.2135 40.4851 47.2135 40.5018 47.2135 40.5353C47.2135 40.7027 47.2302 40.5186 47.18 40.7361C47.0126 41.5897 46.6612 42.4098 45.975 43.0123C44.9039 43.9495 43.0461 44.2006 41.8746 43.3135C41.021 42.6441 40.5357 41.506 40.4687 40.4516C40.4185 39.6985 39.2302 39.6985 39.2804 40.4516C39.4478 43.0457 41.3725 45.2884 44.134 44.9704C46.3599 44.7194 48.3181 42.8449 48.3683 40.5186C48.4018 39.4474 48.1507 38.3261 48.0336 37.2717C47.7825 34.9621 47.5315 32.6524 47.2804 30.3428C47.1131 28.8031 46.9457 27.2801 46.7783 25.7403C46.7449 25.4223 46.544 25.1545 46.1926 25.1545C44.0001 25.1545 41.8244 25.1545 39.6319 25.1545C39.3139 25.1545 39.0294 25.4223 39.0461 25.7403C39.1131 30.0416 39.18 34.3428 39.2469 38.6273C39.2637 39.2299 39.2637 39.8324 39.2804 40.4349C39.2972 41.2215 40.4854 41.2215 40.4687 40.4516Z" fill="#3F2109"/>
<path d="M55.7154 40.4515L52.6359 25.7402H46.1924L47.7823 40.4515C47.7823 40.4515 47.7823 44.4013 51.7321 44.4013C55.7154 44.4181 55.7154 40.4515 55.7154 40.4515Z" fill="#F83822"/>
<path d="M56.2848 40.301C55.381 35.9997 54.494 31.7152 53.5902 27.414C53.4563 26.8114 53.3391 26.1922 53.2053 25.5897C53.155 25.3386 52.8873 25.1545 52.6362 25.1545C50.494 25.1545 48.3517 25.1545 46.1927 25.1545C45.8914 25.1545 45.5735 25.4223 45.6069 25.7403C46.0253 29.6566 46.4605 33.5897 46.8789 37.506C46.996 38.6106 47.0965 39.7152 47.2304 40.8198C47.3308 41.7905 47.6655 42.7278 48.2848 43.4976C49.222 44.6525 50.7115 45.0876 52.1509 44.9872C54.5609 44.8031 56.2848 42.8617 56.3015 40.4516C56.3015 39.6985 55.1299 39.6985 55.1132 40.4516C55.1132 40.9202 55.0128 41.4223 54.7785 41.9579C54.3266 43.0123 53.4228 43.665 52.2848 43.7989C51.0128 43.9495 49.6739 43.5981 48.9709 42.4767C48.6027 41.8742 48.4186 41.1211 48.3852 40.5688C48.1174 37.1713 47.6655 33.7905 47.2973 30.4098C47.1299 28.8533 46.9626 27.3135 46.7952 25.7571C46.5944 25.9579 46.3935 26.1587 46.2094 26.3428C48.3517 26.3428 50.494 26.3428 52.653 26.3428C52.4689 26.1922 52.268 26.0583 52.0839 25.9077C52.9877 30.2089 53.8747 34.4935 54.7785 38.7947C54.9124 39.3972 55.0295 40.0165 55.1634 40.619C55.2973 41.3554 56.4354 41.0374 56.2848 40.301Z" fill="#3F2109"/>
<path d="M48.8538 46.1418H39.3643V69.7402H48.8538V46.1418Z" fill="#3F2109"/>
<path d="M48.8535 69.1545C45.6903 69.1545 42.5271 69.1545 39.364 69.1545C39.5648 69.3553 39.7656 69.5562 39.9497 69.7403C39.9497 67.0792 39.9497 64.4348 39.9497 61.7737C39.9497 57.5394 39.9497 53.3051 39.9497 49.0708C39.9497 48.1001 39.9497 47.1294 39.9497 46.1419C39.7489 46.3428 39.5481 46.5436 39.364 46.7277C42.5271 46.7277 45.6903 46.7277 48.8535 46.7277C48.6526 46.5269 48.4518 46.326 48.2677 46.1419C48.2677 48.803 48.2677 51.4474 48.2677 54.1084C48.2677 58.3428 48.2677 62.5771 48.2677 66.8114C48.2677 67.7821 48.2677 68.7528 48.2677 69.7403C48.2677 70.4934 49.456 70.4934 49.456 69.7403C49.456 67.0792 49.456 64.4348 49.456 61.7737C49.456 57.5394 49.456 53.3051 49.456 49.0708C49.456 48.1001 49.456 47.1294 49.456 46.1419C49.456 45.8239 49.1882 45.5562 48.8702 45.5562C45.707 45.5562 42.5439 45.5562 39.3807 45.5562C39.0627 45.5562 38.7949 45.8239 38.7949 46.1419C38.7949 48.803 38.7949 51.4474 38.7949 54.1084C38.7949 58.3428 38.7949 62.5771 38.7949 66.8114C38.7949 67.7821 38.7949 68.7528 38.7949 69.7403C38.7949 70.0582 39.0627 70.326 39.3807 70.326C42.5439 70.326 45.707 70.326 48.8702 70.326C49.6234 70.326 49.6234 69.1545 48.8535 69.1545Z" fill="#424243"/>
<g opacity="0.56">
<g opacity="0.56">
<g opacity="0.56">
<g opacity="0.56">
<g opacity="0.56">
<g opacity="0.56">
<path opacity="0.56" d="M27.2133 75.414H0.9371C0.686054 75.414 0.501953 75.2132 0.501953 74.9788C0.501953 74.7278 0.70279 74.5437 0.9371 74.5437H27.2133C27.4643 74.5437 27.6484 74.7445 27.6484 74.9788C27.6484 75.2132 27.4643 75.414 27.2133 75.414Z" fill="#424243"/>
</g>
</g>
</g>
</g>
</g>
</g>
<g opacity="0.56">
<g opacity="0.56">
<g opacity="0.56">
<g opacity="0.56">
<g opacity="0.56">
<g opacity="0.56">
<path opacity="0.56" d="M29.6904 75.414H29.0377C28.7866 75.414 28.6025 75.2132 28.6025 74.9788C28.6025 74.7278 28.8034 74.5437 29.0377 74.5437H29.6904C29.9414 74.5437 30.1255 74.7445 30.1255 74.9788C30.1423 75.2132 29.9414 75.414 29.6904 75.414Z" fill="#424243"/>
</g>
</g>
</g>
</g>
</g>
</g>
<g opacity="0.56">
<g opacity="0.56">
<g opacity="0.56">
<g opacity="0.56">
<g opacity="0.56">
<g opacity="0.56">
<path opacity="0.56" d="M51.7489 77.7739H26.1756C25.9079 77.7739 25.707 77.5563 25.707 77.3053C25.707 77.0375 25.9246 76.8367 26.1756 76.8367H51.7489C52.0167 76.8367 52.2175 77.0542 52.2175 77.3053C52.2175 77.5731 52.0167 77.7739 51.7489 77.7739Z" fill="#424243"/>
</g>
</g>
</g>
</g>
</g>
</g>
<g opacity="0.56">
<g opacity="0.56">
<g opacity="0.56">
<g opacity="0.56">
<g opacity="0.56">
<g opacity="0.56">
<path opacity="0.56" d="M54.6442 77.7739H53.4559C53.1881 77.7739 52.9873 77.5563 52.9873 77.3053C52.9873 77.0375 53.2049 76.8367 53.4559 76.8367H54.6442C54.912 76.8367 55.1128 77.0542 55.1128 77.3053C55.1128 77.5731 54.912 77.7739 54.6442 77.7739Z" fill="#424243"/>
</g>
</g>
</g>
</g>
</g>
</g>
<g opacity="0.56">
<g opacity="0.56">
<g opacity="0.56">
<g opacity="0.56">
<g opacity="0.56">
<g opacity="0.56">
<path opacity="0.56" d="M21.7907 80.2507H20.6024C20.3346 80.2507 20.1338 80.0331 20.1338 79.7821C20.1338 79.5143 20.3514 79.3135 20.6024 79.3135H21.7907C22.0585 79.3135 22.2593 79.531 22.2593 79.7821C22.2593 80.0499 22.0585 80.2507 21.7907 80.2507Z" fill="#424243"/>
</g>
</g>
</g>
</g>
</g>
</g>
<path d="M16.9705 25.7571H24.05V40.4684C24.05 40.4684 23.6316 44.368 20.1002 44.4182C16.5521 44.4851 16.1504 40.4684 16.1504 40.4684L16.9705 25.7571Z" fill="#48C75A"/>
<path d="M16.9707 26.3427C19.3305 26.3427 21.6903 26.3427 24.0502 26.3427C23.8493 26.1419 23.6485 25.941 23.4644 25.7569C23.4644 28.3846 23.4644 31.0122 23.4644 33.6398C23.4644 35.3134 23.4644 36.9871 23.4644 38.644C23.4644 39.146 23.4644 39.6481 23.4644 40.1502C23.4644 40.2339 23.4644 40.3343 23.4644 40.418C23.4644 40.5519 23.5146 40.2339 23.4644 40.485C23.1464 41.9912 22.3431 43.464 20.6862 43.7653C18.7615 44.1168 17.3891 42.8615 16.887 41.1042C16.82 40.8866 16.7698 40.6691 16.7364 40.4348C16.7196 40.2841 16.7364 40.5686 16.7364 40.4013C16.7531 40.0833 16.7698 39.7653 16.7866 39.4473C16.8703 37.9076 16.9539 36.3845 17.0376 34.8448C17.205 31.8155 17.3724 28.7862 17.5565 25.7402C17.6067 24.9871 16.4184 24.9871 16.3682 25.7402C16.2175 28.5017 16.0502 31.2632 15.8995 34.0247C15.7991 35.7151 15.7154 37.4055 15.615 39.0958C15.5816 39.782 15.4979 40.4013 15.6485 41.0707C16.0334 42.7946 17.1548 44.4347 18.9456 44.8532C21.1548 45.372 23.2468 44.2339 24.1338 42.2088C24.4686 41.4557 24.6359 40.7193 24.6359 39.9159C24.6359 38.4599 24.6359 37.0205 24.6359 35.5645C24.6359 32.3511 24.6861 29.1377 24.6359 25.9243C24.6359 25.8574 24.6359 25.7904 24.6359 25.7235C24.6359 25.4055 24.3682 25.1377 24.0502 25.1377C21.6903 25.1377 19.3305 25.1377 16.9707 25.1377C16.2008 25.1544 16.2008 26.3427 16.9707 26.3427Z" fill="#3F2109"/>
<path d="M31.9663 25.7571V40.4684C31.9663 40.4684 32.1504 44.4851 35.9161 44.4182C39.6985 44.3512 39.8659 40.4684 39.8659 40.4684L39.6316 25.7571H31.9663Z" fill="#F0F1F1"/>
<path d="M31.3807 25.7571C31.3807 28.5688 31.3807 31.3638 31.3807 34.1755C31.3807 35.8659 31.3807 37.5562 31.3807 39.2634C31.3807 39.9328 31.3472 40.5855 31.4811 41.2382C31.8326 42.9788 33.0041 44.5521 34.8116 44.9203C37.0543 45.3721 39.1966 44.3345 40.0669 42.209C40.3514 41.4893 40.4686 40.7696 40.4686 40.0165C40.4518 38.5772 40.4183 37.1211 40.4016 35.6818C40.3514 32.4516 40.3514 29.2215 40.251 25.9914C40.251 25.9244 40.251 25.8575 40.251 25.7905C40.251 25.4726 39.9832 25.2048 39.6652 25.2048C37.1045 25.2048 34.5439 25.2048 31.9832 25.2048C31.23 25.2048 31.23 26.3931 31.9832 26.3931C34.5439 26.3931 37.1045 26.3931 39.6652 26.3931C39.4644 26.1922 39.2635 25.9914 39.0794 25.8073C39.1296 28.4349 39.1631 31.0625 39.2133 33.6901C39.2468 35.3805 39.2635 37.0876 39.297 38.778C39.3137 39.414 39.3639 40.0667 39.3137 40.6859C39.297 40.8366 39.3305 40.5521 39.3137 40.7027C39.297 40.7529 39.297 40.8198 39.2803 40.87C39.2468 41.0039 39.2301 41.1378 39.1799 41.2717C39.0794 41.6232 38.9623 41.9579 38.7782 42.2759C38.3263 43.0625 37.6066 43.5981 36.7196 43.7822C34.7782 44.1839 33.2217 43.1127 32.7363 41.255C32.6359 40.87 32.6024 40.7362 32.6024 40.4851C32.6024 40.2006 32.6024 39.8993 32.6024 39.6148C32.6024 38.1085 32.6024 36.5855 32.6024 35.0793C32.6024 31.983 32.6024 28.8868 32.6024 25.8073C32.5522 24.9872 31.3807 24.9872 31.3807 25.7571Z" fill="#3F2109"/>
<path d="M10.6613 25.757C10.3098 27.8658 9.95832 29.9745 9.60686 32.0833C9.15497 34.7612 8.70309 37.4223 8.26795 40.1001C8.10058 41.121 7.91648 42.0582 7.26376 42.9285C6.5441 43.8825 5.43949 44.3846 4.25121 44.4181C0.585938 44.5352 0.585938 40.3344 0.585938 40.3344L4.51899 25.7402L10.6613 25.757Z" fill="#F83822"/>
<path d="M10.092 25.6063C9.65684 28.167 9.23843 30.7444 8.80329 33.305C8.58571 34.6439 8.3514 35.9829 8.13383 37.305C7.93299 38.5268 7.7991 39.7653 7.51459 40.9703C7.26354 42.0247 6.71124 42.9619 5.72379 43.464C4.95392 43.849 3.96647 43.9494 3.12965 43.6816C2.05852 43.3301 1.52295 42.2925 1.28864 41.2548C1.2217 40.9201 1.23843 40.736 1.17149 40.4013C1.13802 40.2506 1.13802 40.5184 1.15475 40.485C1.17149 40.4347 1.18823 40.3678 1.20496 40.3176C1.4058 39.6481 1.57316 38.9787 1.74053 38.3092C2.39325 35.8992 3.04597 33.4891 3.69869 31.0791C4.1673 29.3552 4.61919 27.6481 5.08781 25.9243C4.90371 26.0749 4.70287 26.2088 4.51877 26.3594C6.56061 26.3594 8.61919 26.3594 10.661 26.3762C11.4142 26.3762 11.4142 25.2046 10.661 25.1879C8.61919 25.1879 6.56061 25.1879 4.51877 25.1711C4.26772 25.1711 4.01668 25.3552 3.94973 25.6063C2.82839 29.7569 1.70705 33.9243 0.585715 38.0749C0.401615 38.7444 0.200778 39.4138 0.0501504 40.0833C-0.0670044 40.6021 0.0668868 41.1879 0.184042 41.69C0.485297 42.9117 1.17149 44.0833 2.34304 44.6356C4.06689 45.4389 6.34304 44.9368 7.58153 43.4808C8.41835 42.4933 8.68613 41.2716 8.88697 40.0331C9.13802 38.4264 9.4058 36.8197 9.69032 35.2297C10.2091 32.1335 10.728 29.0373 11.2468 25.9243C11.364 25.1711 10.2259 24.8532 10.092 25.6063Z" fill="#3F2109"/>
<path d="M36.7867 45.7739H5.62354V62.4936H36.7867V45.7739Z" fill="#FFC280"/>
<path d="M19.7655 47.4138H7.89941V61.305H19.7655V47.4138Z" fill="#9ED1E3"/>
<path d="M19.7656 61.0206C16.3012 61.0206 12.8535 61.0206 9.38907 61.0206C8.88698 61.0206 8.40163 61.0206 7.89953 61.0206C7.99995 61.121 8.10037 61.2214 8.20079 61.3219C8.20079 57.2717 8.20079 53.2047 8.20079 49.1545C8.20079 48.5855 8.20079 47.9997 8.20079 47.4306C8.10037 47.5311 7.99995 47.6315 7.89953 47.7319C11.364 47.7319 14.8117 47.7319 18.2761 47.7319C18.7782 47.7319 19.2636 47.7319 19.7656 47.7319C19.6652 47.6315 19.5648 47.5311 19.4644 47.4306C19.4644 51.4809 19.4644 55.5478 19.4644 59.598C19.4644 60.1671 19.4644 60.7528 19.4644 61.3219C19.4644 61.7068 20.0502 61.7068 20.0502 61.3219C20.0502 57.2717 20.0502 53.2047 20.0502 49.1545C20.0502 48.5855 20.0502 47.9997 20.0502 47.4306C20.0502 47.2633 19.9163 47.1294 19.7489 47.1294C16.2845 47.1294 12.8368 47.1294 9.37234 47.1294C8.87025 47.1294 8.38489 47.1294 7.8828 47.1294C7.71543 47.1294 7.58154 47.2633 7.58154 47.4306C7.58154 51.4809 7.58154 55.5478 7.58154 59.598C7.58154 60.1671 7.58154 60.7528 7.58154 61.3219C7.58154 61.4892 7.71543 61.6231 7.8828 61.6231C11.3472 61.6231 14.7949 61.6231 18.2594 61.6231C18.7615 61.6231 19.2468 61.6231 19.7489 61.6231C20.1506 61.6064 20.1506 61.0206 19.7656 61.0206Z" fill="#424243"/>
<path d="M33.3051 47.3972H21.9243V61.2884H33.3051V47.3972Z" fill="#9ED1E3"/>
<g opacity="0.77">
<path opacity="0.77" d="M26.4099 59.8491H26.0752V61.573H26.4099V59.8491Z" fill="#424243"/>
<path opacity="0.77" d="M29.5227 59.8491H29.188V61.573H29.5227V59.8491Z" fill="#424243"/>
<g opacity="0.77">
<g opacity="0.77">
<g opacity="0.77">
<g opacity="0.77">
<path opacity="0.77" d="M30.1754 56.0834C30.1754 57.0709 29.1712 57.8575 27.9495 57.8575H27.8993C26.6775 57.8575 25.6733 57.0541 25.6733 56.0834L25.6901 52.5018C25.6901 51.5144 26.6943 50.7278 27.916 50.7278H27.9662C29.188 50.7278 30.1922 51.5311 30.1922 52.5018L30.1754 56.0834Z" fill="#DDB99F"/>
</g>
</g>
<g opacity="0.77">
<g opacity="0.77">
<path opacity="0.77" d="M26.2388 55.0961L26.2344 56.7363L29.3808 56.7447L29.3852 55.1045L26.2388 55.0961Z" fill="#DDB99F"/>
</g>
</g>
<g opacity="0.77">
<g opacity="0.77">
<g opacity="0.77">
<path opacity="0.77" d="M25.6922 53.5519L25.688 55.1418L30.1901 55.1539L30.1943 53.5639L25.6922 53.5519Z" fill="#DDB99F"/>
</g>
</g>
<g opacity="0.77">
<g opacity="0.77">
<g opacity="0.77">
<path opacity="0.77" d="M25.7234 53.2549C25.7234 53.2549 25.2046 53.2716 25.2046 53.7737C25.2046 54.2758 25.7234 54.2758 25.7234 54.2758V53.2549Z" fill="#DDB99F"/>
</g>
</g>
<g opacity="0.77">
<g opacity="0.77">
<path opacity="0.77" d="M25.6059 53.4558C25.6059 53.4558 25.3047 53.4558 25.3047 53.7571C25.3047 54.0583 25.6059 54.0416 25.6059 54.0416V53.4558Z" fill="#CFAC98"/>
</g>
</g>
</g>
<g opacity="0.77">
<g opacity="0.77">
<g opacity="0.77">
<path opacity="0.77" d="M30.1416 53.2717C30.1416 53.2717 30.6604 53.2885 30.6604 53.7906C30.6604 54.2926 30.1416 54.2759 30.1416 54.2759V53.2717Z" fill="#DDB99F"/>
</g>
</g>
<g opacity="0.77">
<g opacity="0.77">
<path opacity="0.77" d="M30.2422 53.4727C30.2422 53.4727 30.5434 53.4894 30.5434 53.7739C30.5434 54.0752 30.2422 54.0585 30.2422 54.0585V53.4727Z" fill="#CFAC98"/>
</g>
</g>
</g>
<g opacity="0.77">
<g opacity="0.77">
<path opacity="0.77" d="M30.1922 54.8281C30.1922 54.9452 30.1085 55.0289 29.9913 55.0289L25.8742 55.0122C25.757 55.0122 25.6733 54.9285 25.6733 54.8114V52.5185C25.6733 52.4013 25.757 52.3176 25.8742 52.3176L29.9913 52.3344C30.1085 52.3344 30.1922 52.418 30.1922 52.5352V54.8281Z" fill="#DDB99F"/>
</g>
</g>
<g opacity="0.77">
<g opacity="0.77">
<path opacity="0.77" d="M26.6606 52.2508C26.6941 52.1336 26.7276 52.0165 26.761 51.8993C26.8447 51.665 26.9619 51.4642 27.0288 51.2299C27.0958 51.0123 27.2966 50.8951 27.4807 50.7612C27.3803 50.7947 27.2799 50.778 27.1795 50.8114C26.9619 50.8784 26.7778 50.9788 26.5769 51.0792C26.259 51.2466 25.941 51.4642 25.8071 51.8156C25.623 52.2675 25.6732 52.7529 25.6899 53.2215C25.7067 53.8575 25.6899 54.5102 25.6899 55.1461C25.6899 55.1127 26.2087 55.1629 26.259 55.1629C26.3761 55.1629 26.5602 55.2131 26.6104 55.0959C26.6606 54.9453 26.51 54.6775 26.51 54.5102C26.51 53.757 26.4765 52.9872 26.6606 52.2508Z" fill="#D6AE99"/>
</g>
</g>
</g>
<path opacity="0.77" d="M27.5312 54.209H28.1003L28.0333 53.2383L27.5312 54.209Z" fill="#F83822"/>
<g opacity="0.77">
<g opacity="0.77">
<path opacity="0.77" d="M27.9994 54.6943C27.9994 54.7613 27.9492 54.8115 27.8823 54.8115C27.8153 54.8115 27.7651 54.7613 27.7651 54.6943V54.4768C27.7651 54.4098 27.8153 54.3596 27.8823 54.3596C27.9492 54.3596 27.9994 54.4098 27.9994 54.4768V54.6943Z" fill="#F1E8DB"/>
</g>
</g>
<path opacity="0.77" d="M28.9537 55.4475V55.6651C28.9537 56.2007 28.4851 56.6358 27.916 56.6358L26.4934 55.4475H25.6901L25.6733 60.3011L30.1587 60.3178L30.1754 55.4642L28.9537 55.4475Z" fill="#DDB99F"/>
<g opacity="0.77">
<g opacity="0.77">
<g opacity="0.77">
<path opacity="0.77" d="M26.9956 53.3889C26.9956 53.4726 26.9286 53.5395 26.845 53.5395C26.7613 53.5395 26.6943 53.4726 26.6943 53.3889C26.6943 53.3052 26.7613 53.2383 26.845 53.2383C26.9119 53.2383 26.9956 53.3052 26.9956 53.3889Z" fill="#313131"/>
</g>
</g>
<g opacity="0.77">
<g opacity="0.77">
<path opacity="0.77" d="M26.912 53.4057C26.912 53.4559 26.8785 53.4894 26.8283 53.4894C26.7781 53.4894 26.7446 53.4559 26.7446 53.4057C26.7446 53.3555 26.7781 53.322 26.8283 53.322C26.8785 53.322 26.9287 53.3555 26.912 53.4057Z" fill="#4E4E4E"/>
</g>
</g>
<g opacity="0.77">
<g opacity="0.77">
<path opacity="0.77" d="M26.9119 53.3385C26.9119 53.3553 26.8952 53.3887 26.8617 53.3887C26.8283 53.3887 26.8115 53.372 26.8115 53.3385C26.8115 53.3218 26.8283 53.2883 26.8617 53.2883C26.8952 53.2883 26.9119 53.3051 26.9119 53.3385Z" fill="white"/>
</g>
</g>
</g>
<g opacity="0.77">
<g opacity="0.77">
<g opacity="0.77">
<path opacity="0.77" d="M29.2046 53.4055C29.2046 53.4892 29.1376 53.5561 29.0539 53.5561C28.9703 53.5561 28.9033 53.4892 28.9033 53.4055C28.9033 53.3218 28.9703 53.2549 29.0539 53.2549C29.1376 53.2549 29.2046 53.3218 29.2046 53.4055Z" fill="#313131"/>
</g>
</g>
<g opacity="0.77">
<g opacity="0.77">
<path opacity="0.77" d="M29.1376 53.4055C29.1376 53.4557 29.1041 53.4891 29.0539 53.4891C29.0037 53.4891 28.9702 53.4557 28.9702 53.4055C28.9702 53.3553 29.0037 53.3218 29.0539 53.3218C29.1041 53.3218 29.1376 53.3553 29.1376 53.4055Z" fill="#4E4E4E"/>
</g>
</g>
<g opacity="0.77">
<g opacity="0.77">
<path opacity="0.77" d="M29.1375 53.3385C29.1375 53.3553 29.1208 53.3887 29.0873 53.3887C29.0706 53.3887 29.0371 53.372 29.0371 53.3385C29.0371 53.3218 29.0538 53.2883 29.0873 53.2883C29.1041 53.2883 29.1375 53.3218 29.1375 53.3385Z" fill="white"/>
</g>
</g>
</g>
<g opacity="0.77">
<g opacity="0.77">
<path opacity="0.77" d="M30.1587 59.9496L25.6733 60.1002L25.6901 55.1462H30.1587V59.9496Z" fill="white"/>
</g>
</g>
<g opacity="0.77">
<g opacity="0.77">
<g opacity="0.77">
<path opacity="0.77" d="M28.8867 53.1711C28.8867 53.1711 28.8867 53.1544 28.8867 53.1711C28.8867 53.1544 28.8867 53.1544 28.8867 53.1711C28.9035 53.1377 28.8867 53.1711 28.8867 53.1711C28.9202 53.1377 28.9537 53.1209 28.9704 53.1209C29.0541 53.0875 29.1378 53.1209 29.2047 53.1711C29.2717 53.2214 29.3553 53.1377 29.2884 53.0875C29.188 53.0038 29.0708 52.9703 28.9537 53.0038C28.8867 53.0205 28.8365 53.054 28.7863 53.0875C28.7361 53.1377 28.8198 53.2214 28.8867 53.1711Z" fill="#313131"/>
</g>
</g>
</g>
<g opacity="0.77">
<g opacity="0.77">
<g opacity="0.77">
<path opacity="0.77" d="M26.6773 53.1711C26.6773 53.1711 26.6773 53.1544 26.6773 53.1711C26.6773 53.1544 26.6773 53.1544 26.6773 53.1711C26.694 53.1377 26.6773 53.1711 26.6773 53.1711C26.7107 53.1377 26.7442 53.1209 26.7609 53.1209C26.8446 53.0875 26.9283 53.1209 26.9952 53.1711C27.0622 53.2214 27.1459 53.1377 27.0789 53.0875C26.9785 53.0038 26.8614 52.9703 26.7442 53.0038C26.6773 53.0205 26.627 53.054 26.5768 53.0875C26.5266 53.1377 26.6103 53.2214 26.6773 53.1711Z" fill="#313131"/>
</g>
</g>
</g>
<g opacity="0.77">
<g opacity="0.77">
<path opacity="0.77" d="M30.1585 56.6023H25.6899V56.9203H30.1585V56.6023Z" fill="#F83822"/>
</g>
</g>
<g opacity="0.77">
<path opacity="0.77" d="M28.9538 53.7402C28.7362 53.7402 28.5688 53.8574 28.5688 53.9913C28.5688 54.1252 28.7362 54.2423 28.9538 54.2423C29.1714 54.2423 29.3387 54.1252 29.3387 53.9913C29.3387 53.8574 29.1714 53.7402 28.9538 53.7402Z" fill="#F83822"/>
<path opacity="0.77" d="M26.8283 53.7402C26.6107 53.7402 26.4434 53.8574 26.4434 53.9913C26.4434 54.1252 26.6107 54.2423 26.8283 54.2423C27.0459 54.2423 27.2132 54.1252 27.2132 53.9913C27.2132 53.8574 27.0459 53.7402 26.8283 53.7402Z" fill="#F83822"/>
</g>
</g>
<g opacity="0.77">
<g opacity="0.77">
<path opacity="0.77" d="M26.3428 56.8869C26.3428 56.8869 26.5603 56.3848 27.1126 56.1003C27.665 55.8325 27.9997 55.1129 27.9662 54.9455C27.916 54.7782 27.6817 54.5271 28.3009 54.5773C28.5687 54.5941 28.8365 54.6275 29.0875 54.6443C29.2214 54.661 29.3553 54.6777 29.4892 54.6777C29.5394 54.6777 29.757 54.6777 29.7905 54.7279C29.7905 54.7447 29.7905 54.7614 29.7905 54.7782C29.7737 54.8786 29.757 54.979 29.7235 55.0794C29.7235 55.0961 29.7068 55.1129 29.7068 55.1296C29.6901 55.1464 29.6733 55.1464 29.6733 55.1631C29.6231 55.1966 29.6231 55.297 29.5896 55.3472C29.5729 55.3807 29.5562 55.4141 29.5394 55.4476C29.4892 55.5313 29.439 55.6317 29.3721 55.6986C29.2214 55.9162 29.0206 56.1003 28.7863 56.2175C28.5352 56.3514 28.2507 56.4183 27.9662 56.4183C26.6106 56.4853 26.3428 56.8869 26.3428 56.8869Z" fill="#FFC014"/>
</g>
<g opacity="0.77">
<path opacity="0.77" d="M28.0735 54.7379L28.0547 54.8535L29.2936 55.0555L29.3125 54.9399L28.0735 54.7379Z" fill="#BF8825"/>
</g>
<g opacity="0.77">
<path opacity="0.77" d="M28.351 55.2969C28.3677 55.414 28.2171 55.5312 28.0162 55.5647C27.8154 55.5981 27.6313 55.5144 27.6146 55.3973C27.5978 55.2801 27.7484 55.163 27.9493 55.1295C28.1669 55.1128 28.3342 55.1797 28.351 55.2969Z" fill="#B94F49"/>
</g>
<g opacity="0.77">
<path opacity="0.77" d="M29.2382 55.3471C29.2549 55.481 29.1043 55.6316 28.9034 55.6483C28.7026 55.6818 28.5185 55.5814 28.5018 55.4475C28.485 55.3136 28.6356 55.163 28.8365 55.1462C29.0373 55.1128 29.2047 55.1965 29.2382 55.3471Z" fill="#B94F49"/>
</g>
<g opacity="0.77">
<path opacity="0.77" d="M27.6649 56.0836C27.6817 56.2175 27.531 56.3682 27.3302 56.3849C27.1294 56.4184 26.9453 56.318 26.9285 56.1841C26.9118 56.0502 27.0624 55.8996 27.2632 55.8828C27.4641 55.8493 27.6314 55.933 27.6649 56.0836Z" fill="#B94F49"/>
</g>
<g opacity="0.77">
<path opacity="0.77" d="M28.4851 55.916C28.5018 56.0332 28.3847 56.1503 28.2006 56.1838C28.0332 56.2005 27.8826 56.1336 27.8658 56.0164C27.8491 55.8993 27.9663 55.7821 28.1504 55.7486C28.3177 55.7152 28.4684 55.7989 28.4851 55.916Z" fill="#B94F49"/>
</g>
</g>
<g opacity="0.77">
<g opacity="0.77">
<path opacity="0.77" d="M26.4934 55.8155C26.8114 55.9159 27.1294 56.6858 26.6441 56.7527C26.711 57.0038 26.3428 57.3887 26.1085 57.2214C25.9411 57.1042 26.0248 56.7862 26.0416 56.6188C26.0583 56.418 25.9746 56.0498 26.142 55.8824C26.2257 55.782 26.3596 55.7653 26.4934 55.8155Z" fill="#DDB99F"/>
</g>
<g opacity="0.77">
<path opacity="0.77" d="M25.6734 55.1294H25.891L25.6901 57.506L24.937 57.5729L25.6734 55.1294Z" fill="#F2F2F2"/>
</g>
<g opacity="0.77">
<path opacity="0.77" d="M24.9034 56.1168C25.0875 55.7654 25.3385 55.4641 25.623 55.1963C25.6565 55.1796 25.6732 55.1461 25.7067 55.1294H25.7569L25.3887 57.0541C25.4557 57.0541 25.5226 56.9871 25.5728 56.9537C25.6398 56.9035 25.7067 56.8532 25.7904 56.8532C25.9243 56.8365 26.0582 56.9537 26.1419 57.0373C26.2255 57.1378 26.326 57.2717 26.326 57.4055C26.326 57.5729 26.1586 57.7235 26.0414 57.824C25.7737 58.0415 25.4389 58.2591 25.0707 58.1252C24.9034 58.0583 24.8029 57.9076 24.736 57.7403C24.6691 57.5729 24.6356 57.3888 24.6356 57.2214C24.6021 56.8365 24.7193 56.4516 24.9034 56.1168Z" fill="white"/>
</g>
</g>
<g opacity="0.77">
<g opacity="0.77">
<path opacity="0.77" d="M29.3387 55.7486C29.004 55.8156 28.6191 56.552 29.0877 56.6691C28.9873 56.9034 29.322 57.3219 29.573 57.188C29.7404 57.0875 29.7069 56.7696 29.7069 56.6022C29.7237 56.4014 29.8241 56.0331 29.6902 55.8658C29.5898 55.7486 29.4559 55.7152 29.3387 55.7486Z" fill="#DDB99F"/>
</g>
<g opacity="0.77">
<path opacity="0.77" d="M30.2091 55.1461L30.0082 55.1294L29.958 57.5227L30.6944 57.6566L30.2091 55.1461Z" fill="#F2F2F2"/>
</g>
<g opacity="0.77">
<path opacity="0.77" d="M30.8784 56.2171C30.7278 55.8489 30.5102 55.5142 30.2592 55.2297C30.2424 55.1962 30.209 55.1795 30.1922 55.146H30.142L30.3094 57.0874C30.2424 57.0707 30.1922 57.0037 30.142 56.9703C30.0751 56.9201 30.0081 56.8699 29.9245 56.8531C29.7906 56.8364 29.6567 56.9201 29.5563 57.0037C29.4558 57.0874 29.3554 57.2213 29.3387 57.3552C29.3219 57.5226 29.4726 57.6732 29.573 57.7904C29.8073 58.0414 30.142 58.2925 30.4935 58.1753C30.6776 58.1251 30.778 57.9912 30.8617 57.8238C30.9454 57.6565 30.9956 57.4891 31.0123 57.305C31.096 56.9535 31.0291 56.5686 30.8784 56.2171Z" fill="white"/>
</g>
</g>
</g>
<path opacity="0.77" d="M30.4432 52.9705C30.393 52.87 30.3428 52.7696 30.3093 52.6525C30.1754 52.2843 30.142 51.8491 29.9076 51.5311C29.7235 51.2801 29.4892 51.0792 29.2215 50.9453C28.7194 50.6943 28.1001 50.5771 27.5478 50.6608C27.2466 50.711 26.8951 50.8114 26.6273 50.9621C26.3595 51.1294 26.1085 51.2968 25.9244 51.5646C25.6901 51.9328 25.6901 52.3847 25.6733 52.8031C25.6733 52.8366 25.6901 53.1713 25.6901 53.2048C25.6901 53.2048 25.7068 53.2048 25.7068 53.188C25.7068 53.2048 25.7068 53.2048 25.7068 53.2215C25.7068 53.2215 26.46 53.0709 26.7947 51.8491C26.7947 51.8491 26.8282 51.8658 26.8951 51.8993C27.3805 52.1671 27.8825 52.4014 28.3846 52.6357C28.7863 52.8198 29.1712 52.9705 29.5897 53.1043C29.757 53.1546 29.9411 53.2048 30.1085 53.2215C30.2758 53.2215 30.4432 53.1713 30.5269 53.0374C30.4934 53.0374 30.4599 53.0039 30.4432 52.9705Z" fill="#3F2109"/>
<path opacity="0.77" d="M28.5019 54.4934C28.5186 54.4767 28.5186 54.4432 28.5186 54.4097C28.5186 54.2926 28.4182 54.1921 28.3011 54.1921H27.5144C27.3973 54.1921 27.2969 54.2926 27.2969 54.4097C27.2969 54.4432 27.2969 54.4599 27.3136 54.4934H28.5019Z" fill="#3F2109"/>
<g opacity="0.77">
<path opacity="0.77" d="M24.7864 61.5731H25.9579C25.9412 61.4894 25.9077 61.4057 25.891 61.3388C25.8407 61.071 25.255 60.0668 25.9412 60.3346C26.46 60.5354 26.9286 60.6024 27.4976 60.5187C27.9161 60.4518 28.5186 60.435 28.937 60.5522C29.188 60.6191 29.2048 60.6024 29.4725 60.4852C29.6566 60.4183 30.0081 60.1672 30.2089 60.2342C30.3596 60.2844 30.393 60.435 30.3596 60.5856C30.3261 60.7865 30.2424 60.9706 30.1755 61.1547C30.1253 61.2886 30.0918 61.4225 30.0416 61.5563H31.2131C31.2131 61.5396 31.2299 61.5229 31.2299 61.4894C31.3135 61.1714 31.3972 60.8702 31.4809 60.5522C31.5646 60.2007 31.6817 59.8158 31.5813 59.4643C31.3805 58.8283 30.4935 59.0626 30.0583 59.23C29.9746 59.2635 29.8742 59.2969 29.7905 59.3472C29.6399 59.4141 29.4893 59.4978 29.3554 59.5815C29.2048 59.6651 29.0709 59.7656 28.9035 59.7656C28.7027 59.7656 28.5018 59.6986 28.301 59.6651C28.0165 59.6317 27.732 59.5815 27.4642 59.5982C27.2466 59.6149 27.0458 59.6819 26.8282 59.6819C26.2424 59.6484 25.7403 59.2635 25.1713 59.1463C24.8868 59.0961 24.552 59.1296 24.4516 59.4476C24.301 59.866 24.5018 60.3179 24.6023 60.7363C24.6525 61.0208 24.7194 61.2886 24.7864 61.5731Z" fill="#3F596D"/>
</g>
</g>
<g opacity="0.83">
<g opacity="0.83">
<g opacity="0.83">
<g opacity="0.83">
<g opacity="0.83">
<g opacity="0.83">
<g opacity="0.83">
<path opacity="0.83" d="M28.1002 61.1543V59.2966C28.1002 58.9451 27.3638 58.9451 27.3638 59.2966V61.1543H28.1002Z" fill="#424243"/>
</g>
</g>
</g>
</g>
</g>
</g>
<g opacity="0.83">
<g opacity="0.83">
<g opacity="0.83">
<g opacity="0.83">
<g opacity="0.83">
<g opacity="0.83">
<path opacity="0.83" d="M33.2048 58.1753H22.0918V59.3636H33.2048V58.1753Z" fill="#F0F1F1"/>
</g>
</g>
</g>
</g>
</g>
<g opacity="0.83">
<g opacity="0.83">
<g opacity="0.83">
<g opacity="0.83">
<g opacity="0.83">
<g opacity="0.83">
<path opacity="0.83" d="M22.0918 59.5142C25.3387 59.5142 28.5855 59.5142 31.8324 59.5142C32.2843 59.5142 32.7362 59.5142 33.2048 59.5142C33.3052 59.5142 33.3889 59.4472 33.3889 59.3803C33.3889 58.9786 33.3889 58.5937 33.3889 58.192C33.3889 58.1251 33.3052 58.0581 33.2048 58.0581C29.9579 58.0581 26.7111 58.0581 23.4642 58.0581C23.0123 58.0581 22.5604 58.0581 22.0918 58.0581C21.9914 58.0581 21.9077 58.1251 21.9077 58.192C21.9077 58.5937 21.9077 58.9786 21.9077 59.3803C21.9077 59.5644 22.2759 59.5644 22.2759 59.3803C22.2759 58.9786 22.2759 58.5937 22.2759 58.192C22.209 58.2422 22.1588 58.2924 22.0918 58.3259C25.3387 58.3259 28.5855 58.3259 31.8324 58.3259C32.2843 58.3259 32.7362 58.3259 33.2048 58.3259C33.1378 58.2757 33.0876 58.2255 33.0207 58.192C33.0207 58.5937 33.0207 58.9786 33.0207 59.3803C33.0876 59.3301 33.1378 59.2799 33.2048 59.2464C29.9579 59.2464 26.7111 59.2464 23.4642 59.2464C23.0123 59.2464 22.5604 59.2464 22.0918 59.2464C21.8575 59.2296 21.8575 59.5142 22.0918 59.5142Z" fill="#424243"/>
</g>
</g>
</g>
</g>
</g>
</g>
</g>
</g>
<path d="M33.2885 47.1294C29.9746 47.1294 26.6441 47.1294 23.3303 47.1294C22.8617 47.1294 22.3931 47.1294 21.9077 47.1294C21.7403 47.1294 21.6064 47.2633 21.6064 47.4306C21.6064 51.4809 21.6064 55.5478 21.6064 59.598C21.6064 60.1671 21.6064 60.7528 21.6064 61.3219C21.6064 61.4892 21.7403 61.6231 21.9077 61.6231C25.2215 61.6231 28.5521 61.6231 31.8659 61.6231C32.3345 61.6231 32.8031 61.6231 33.2885 61.6231C33.3721 61.6231 33.4224 61.5896 33.4726 61.5562L33.4893 61.5394L33.506 61.5227C33.5562 61.4725 33.573 61.4223 33.573 61.3386C33.573 57.2884 33.573 53.2214 33.573 49.1712C33.573 48.6022 33.573 48.0164 33.573 47.4474C33.5897 47.2633 33.4558 47.1294 33.2885 47.1294ZM23.3303 61.0206C22.9621 61.0206 22.5772 61.0206 22.209 61.0206C22.209 57.0541 22.209 53.1043 22.209 49.1378C22.209 48.6524 22.209 48.1838 22.209 47.6984C25.4391 47.6984 28.6525 47.6984 31.8826 47.6984C32.2508 47.6984 32.6357 47.6984 33.0039 47.6984C33.0039 51.665 33.0039 55.6148 33.0039 59.5813C33.0039 60.0666 33.0039 60.5353 33.0039 61.0206C29.7738 61.0206 26.5604 61.0206 23.3303 61.0206Z" fill="#424243"/>
<path d="M14.7784 58.1923C14.7784 56.9873 13.8077 56.0166 12.6027 56.0166C11.5483 56.0166 10.678 56.753 10.4772 57.7404C10.3935 57.7404 10.2931 57.7237 10.2094 57.7237C9.42276 57.7237 8.68636 57.9748 8.10058 58.4099C7.91648 58.2593 7.68217 58.1756 7.43113 58.1756C6.82862 58.1756 6.34326 58.661 6.34326 59.2635C6.34326 59.6317 6.52736 59.9664 6.81188 60.1672C6.69473 60.5187 6.62778 60.9036 6.62778 61.2886C6.62778 63.2635 8.23447 64.8702 10.2094 64.8702C12.1843 64.8702 13.791 63.2635 13.791 61.2886C13.791 60.8869 13.724 60.4852 13.5901 60.117C14.2763 59.7823 14.7784 59.0459 14.7784 58.1923Z" fill="#BCD589"/>
<path d="M15.0629 58.1922C15.0127 56.9705 14.1591 55.8994 12.9206 55.7487C11.6319 55.5814 10.4939 56.4349 10.1759 57.6734C10.2763 57.6065 10.36 57.5228 10.4604 57.4558C9.53988 57.4056 8.66959 57.6567 7.93319 58.1755C8.03361 58.1755 8.13403 58.1755 8.23445 58.1755C6.74491 57.1881 5.20516 59.2801 6.59428 60.4014C6.56081 60.301 6.54407 60.2173 6.5106 60.1169C5.75746 62.5772 7.54825 65.2048 10.1926 65.1881C12.837 65.1881 14.6445 62.5604 13.8579 60.0667C13.8077 60.1839 13.7742 60.2843 13.724 60.4014C14.5608 59.9328 15.0294 59.1462 15.0629 58.1922C15.0796 57.8073 14.4939 57.8073 14.4771 58.1922C14.4436 58.9286 14.0754 59.5311 13.4227 59.8826C13.3056 59.9496 13.2554 60.1002 13.2888 60.2173C13.9583 62.3261 12.4688 64.5855 10.1926 64.5855C7.93319 64.5855 6.44365 62.3596 7.07963 60.2508C7.11311 60.1671 7.07963 60.0332 6.99595 59.9663C6.1424 59.2801 6.97922 58.0583 7.91645 58.6776C8.00014 58.7278 8.13403 58.7278 8.21771 58.6776C8.88716 58.209 9.6403 57.9914 10.4604 58.0416C10.5775 58.0416 10.7114 57.9412 10.7449 57.824C11.2805 55.6818 14.3934 55.9663 14.4771 58.1922C14.4939 58.5772 15.0796 58.5772 15.0629 58.1922Z" fill="#424243"/>
<path d="M20.6192 65.6569C22.6343 65.6569 24.2678 64.0234 24.2678 62.0084C24.2678 59.9934 22.6343 58.3599 20.6192 58.3599C18.6042 58.3599 16.9707 59.9934 16.9707 62.0084C16.9707 64.0234 18.6042 65.6569 20.6192 65.6569Z" fill="#BCD589"/>
<path d="M23.9663 62.0082C23.9329 63.8325 22.46 65.3723 20.6023 65.3723C18.778 65.3723 17.2383 63.8492 17.2383 62.0082C17.2383 60.184 18.7613 58.6442 20.6023 58.6442C22.4768 58.6442 23.9329 60.1672 23.9663 62.0082C23.9663 62.3932 24.5688 62.3932 24.5521 62.0082C24.5186 60.3681 23.5479 58.8953 21.9914 58.3095C20.4349 57.7237 18.6107 58.2091 17.5563 59.4978C16.5186 60.7698 16.368 62.6108 17.2048 64.0166C18.0416 65.4225 19.6985 66.1756 21.322 65.8911C23.1965 65.5564 24.5019 63.8827 24.5521 62.0082C24.5688 61.6233 23.9831 61.6233 23.9663 62.0082Z" fill="#424243"/>
<path d="M30.795 66.1419C32.8101 66.1419 34.4436 64.396 34.4436 62.2424C34.4436 60.0887 32.8101 58.3428 30.795 58.3428C28.78 58.3428 27.1465 60.0887 27.1465 62.2424C27.1465 64.396 28.78 66.1419 30.795 66.1419Z" fill="#BCD589"/>
<path d="M34.1422 62.2424C34.1088 64.1002 32.7364 65.8407 30.7782 65.8407C28.8535 65.8407 27.4142 64.1002 27.4142 62.2424C27.4142 60.3847 28.8368 58.6441 30.7782 58.6441C32.7531 58.6441 34.1088 60.3847 34.1422 62.2424C34.1422 62.6274 34.7448 62.6274 34.728 62.2424C34.6945 60.552 33.7573 58.9453 32.1339 58.3094C30.5606 57.6901 28.7699 58.2424 27.7322 59.5646C26.6611 60.937 26.5272 62.8951 27.3807 64.4014C28.2008 65.8407 29.8242 66.6776 31.4644 66.3596C33.4226 65.9914 34.6778 64.1504 34.7113 62.2424C34.7448 61.8742 34.159 61.8742 34.1422 62.2424Z" fill="#424243"/>
<path d="M36.7864 62.4934H4.26758V69.7403H36.7864V62.4934Z" fill="#F0F1F1"/>
<path d="M36.7864 62.1921C33.1211 62.1921 29.4726 62.1921 25.8073 62.1921C19.9663 62.1921 14.142 62.1921 8.30104 62.1921C6.96212 62.1921 5.60648 62.1921 4.26756 62.1921C4.1002 62.1921 3.96631 62.326 3.96631 62.4934C3.96631 64.9034 3.96631 67.3302 3.96631 69.7403C3.96631 69.9076 4.1002 70.0415 4.26756 70.0415C7.93284 70.0415 11.5814 70.0415 15.2466 70.0415C21.0876 70.0415 26.9119 70.0415 32.7529 70.0415C34.0918 70.0415 35.4475 70.0415 36.7864 70.0415C36.9538 70.0415 37.0877 69.9076 37.0877 69.7403C37.0877 67.3302 37.0877 64.9034 37.0877 62.4934C37.0877 62.1085 36.5019 62.1085 36.5019 62.4934C36.5019 64.9034 36.5019 67.3302 36.5019 69.7403C36.6023 69.6398 36.7027 69.5394 36.8031 69.439C33.1379 69.439 29.4893 69.439 25.8241 69.439C19.983 69.439 14.1588 69.439 8.31777 69.439C6.97886 69.439 5.62321 69.439 4.2843 69.439C4.38472 69.5394 4.48514 69.6398 4.58556 69.7403C4.58556 67.3302 4.58556 64.9034 4.58556 62.4934C4.48514 62.5938 4.38472 62.6942 4.2843 62.7947C7.94957 62.7947 11.5981 62.7947 15.2634 62.7947C21.1044 62.7947 26.9287 62.7947 32.7697 62.7947C34.1086 62.7947 35.4642 62.7947 36.8031 62.7947C37.1713 62.7947 37.1713 62.1921 36.7864 62.1921Z" fill="#424243"/>
<path d="M14.5104 63.7654H6.0083V68.1168H14.5104V63.7654Z" fill="#F0F1F1"/>
<path d="M14.5102 67.8993C11.6817 67.8993 8.83655 67.8993 6.0081 67.8993C6.07505 67.9663 6.15873 68.0499 6.22567 68.1169C6.22567 66.6608 6.22567 65.2048 6.22567 63.7654C6.15873 63.8324 6.07505 63.916 6.0081 63.983C8.83655 63.983 11.6817 63.983 14.5102 63.983C14.4432 63.916 14.3596 63.8324 14.2926 63.7654C14.2926 65.2215 14.2926 66.6776 14.2926 68.1169C14.2926 68.4014 14.7278 68.4014 14.7278 68.1169C14.7278 66.6608 14.7278 65.2048 14.7278 63.7654C14.7278 63.6483 14.6273 63.5479 14.5102 63.5479C11.6817 63.5479 8.83655 63.5479 6.0081 63.5479C5.89095 63.5479 5.79053 63.6483 5.79053 63.7654C5.79053 65.2215 5.79053 66.6776 5.79053 68.1169C5.79053 68.234 5.89095 68.3345 6.0081 68.3345C8.83655 68.3345 11.6817 68.3345 14.5102 68.3345C14.7947 68.3345 14.7947 67.8993 14.5102 67.8993Z" fill="#424243"/>
<path d="M24.7697 63.7654H16.2676V68.1168H24.7697V63.7654Z" fill="#F0F1F1"/>
<path d="M24.7866 67.8993C21.9581 67.8993 19.1129 67.8993 16.2845 67.8993C16.3514 67.9663 16.4351 68.0499 16.502 68.1169C16.502 66.6608 16.502 65.2048 16.502 63.7654C16.4351 63.8324 16.3514 63.916 16.2845 63.983C19.1129 63.983 21.9581 63.983 24.7866 63.983C24.7196 63.916 24.6359 63.8324 24.569 63.7654C24.569 65.2215 24.569 66.6776 24.569 68.1169C24.569 68.4014 25.0041 68.4014 25.0041 68.1169C25.0041 66.6608 25.0041 65.2048 25.0041 63.7654C25.0041 63.6483 24.9037 63.5479 24.7866 63.5479C21.9581 63.5479 19.1129 63.5479 16.2845 63.5479C16.1673 63.5479 16.0669 63.6483 16.0669 63.7654C16.0669 65.2215 16.0669 66.6776 16.0669 68.1169C16.0669 68.234 16.1673 68.3345 16.2845 68.3345C19.1129 68.3345 21.9581 68.3345 24.7866 68.3345C25.0711 68.3345 25.0711 67.8993 24.7866 67.8993Z" fill="#424243"/>
<path d="M35.046 63.7654H26.5439V68.1168H35.046V63.7654Z" fill="#F0F1F1"/>
<path d="M35.0458 67.8993C32.2174 67.8993 29.3722 67.8993 26.5437 67.8993C26.6107 67.9663 26.6944 68.0499 26.7613 68.1169C26.7613 66.6608 26.7613 65.2048 26.7613 63.7654C26.6944 63.8324 26.6107 63.916 26.5437 63.983C29.3722 63.983 32.2174 63.983 35.0458 63.983C34.9789 63.916 34.8952 63.8324 34.8283 63.7654C34.8283 65.2215 34.8283 66.6776 34.8283 68.1169C34.8283 68.4014 35.2634 68.4014 35.2634 68.1169C35.2634 66.6608 35.2634 65.2048 35.2634 63.7654C35.2634 63.6483 35.163 63.5479 35.0458 63.5479C32.2174 63.5479 29.3722 63.5479 26.5437 63.5479C26.4266 63.5479 26.3262 63.6483 26.3262 63.7654C26.3262 65.2215 26.3262 66.6776 26.3262 68.1169C26.3262 68.234 26.4266 68.3345 26.5437 68.3345C29.3722 68.3345 32.2174 68.3345 35.0458 68.3345C35.3304 68.3345 35.3304 67.8993 35.0458 67.8993Z" fill="#424243"/>
<path d="M47.665 61.5059H40.7026V68.2674H47.665V61.5059Z" fill="#D55412"/>
<path d="M47.6651 67.9661C45.3387 67.9661 43.0124 67.9661 40.7028 67.9661C40.8032 68.0665 40.9036 68.1669 41.004 68.2673C41.004 66.0079 41.004 63.7653 41.004 61.5058C40.9036 61.6063 40.8032 61.7067 40.7028 61.8071C43.0291 61.8071 45.3555 61.8071 47.6651 61.8071C47.5647 61.7067 47.4643 61.6063 47.3638 61.5058C47.3638 63.7653 47.3638 66.0079 47.3638 68.2673C47.3638 68.6523 47.9496 68.6523 47.9496 68.2673C47.9496 66.0079 47.9496 63.7653 47.9496 61.5058C47.9496 61.3385 47.8157 61.2046 47.6484 61.2046C45.322 61.2046 42.9956 61.2046 40.686 61.2046C40.5187 61.2046 40.3848 61.3385 40.3848 61.5058C40.3848 63.7653 40.3848 66.0079 40.3848 68.2673C40.3848 68.4347 40.5187 68.5686 40.686 68.5686C43.0124 68.5686 45.3387 68.5686 47.6484 68.5686C48.05 68.5519 48.05 67.9661 47.6651 67.9661Z" fill="#424243"/>
<path d="M47.665 47.4138H40.7026V48.7527H47.665V47.4138Z" fill="#9ED1E3"/>
<path d="M47.6651 48.4683C45.3387 48.4683 43.0124 48.4683 40.7028 48.4683C40.8032 48.5687 40.9036 48.6691 41.004 48.7696C41.004 48.3177 41.004 47.8825 41.004 47.4306C40.9036 47.5311 40.8032 47.6315 40.7028 47.7319C43.0291 47.7319 45.3555 47.7319 47.6651 47.7319C47.5647 47.6315 47.4643 47.5311 47.3638 47.4306C47.3638 47.8825 47.3638 48.3177 47.3638 48.7696C47.3638 49.1545 47.9496 49.1545 47.9496 48.7696C47.9496 48.3177 47.9496 47.8825 47.9496 47.4306C47.9496 47.2633 47.8157 47.1294 47.6484 47.1294C45.322 47.1294 42.9956 47.1294 40.686 47.1294C40.5187 47.1294 40.3848 47.2633 40.3848 47.4306C40.3848 47.8825 40.3848 48.3177 40.3848 48.7696C40.3848 48.9369 40.5187 49.0708 40.686 49.0708C43.0124 49.0708 45.3387 49.0708 47.6484 49.0708C48.05 49.0541 48.05 48.4683 47.6651 48.4683Z" fill="#424243"/>
<path d="M47.665 49.5898H40.7026V56.8869H47.665V49.5898Z" fill="#9ED1E3"/>
<path d="M47.6651 56.5856C45.3387 56.5856 43.0124 56.5856 40.7028 56.5856C40.8032 56.6861 40.9036 56.7865 41.004 56.8869C41.004 54.4601 41.004 52.0166 41.004 49.5898C40.9036 49.6902 40.8032 49.7907 40.7028 49.8911C43.0291 49.8911 45.3555 49.8911 47.6651 49.8911C47.5647 49.7907 47.4643 49.6902 47.3638 49.5898C47.3638 52.0166 47.3638 54.4601 47.3638 56.8869C47.3638 57.2718 47.9496 57.2718 47.9496 56.8869C47.9496 54.4601 47.9496 52.0166 47.9496 49.5898C47.9496 49.4225 47.8157 49.2886 47.6484 49.2886C45.322 49.2886 42.9956 49.2886 40.686 49.2886C40.5187 49.2886 40.3848 49.4225 40.3848 49.5898C40.3848 52.0166 40.3848 54.4601 40.3848 56.8869C40.3848 57.0543 40.5187 57.1882 40.686 57.1882C43.0124 57.1882 45.3387 57.1882 47.6484 57.1882C48.05 57.1714 48.05 56.5856 47.6651 56.5856Z" fill="#424243"/>
<path d="M47.2969 60.0499H47.1296C47.0124 60.0499 46.9287 59.9662 46.9287 59.8491V57.8742C46.9287 57.757 47.0124 57.6733 47.1296 57.6733H47.2969C47.4141 57.6733 47.4977 57.757 47.4977 57.8742V59.8491C47.4977 59.9662 47.4141 60.0499 47.2969 60.0499Z" fill="#F0F1F1"/>
<path d="M47.2132 60.167C46.9956 60.167 46.8115 59.9829 46.8115 59.7654V57.9578C46.8115 57.7403 46.9956 57.5562 47.2132 57.5562C47.4308 57.5562 47.6149 57.7403 47.6149 57.9578V59.7654C47.6149 59.9997 47.4308 60.167 47.2132 60.167ZM47.2132 57.8072C47.1295 57.8072 47.0458 57.8741 47.0458 57.9746V59.7821C47.0458 59.8658 47.1128 59.9495 47.2132 59.9495C47.2969 59.9495 47.3806 59.8825 47.3806 59.7821V57.9746C47.3806 57.8741 47.3136 57.8072 47.2132 57.8072Z" fill="#424243"/>
<path d="M54.7453 14.075H1.27246V16.5017H54.7453V14.075Z" fill="#FFC280"/>
<path d="M54.745 13.4725C52.9709 13.4725 51.1968 13.4725 49.4395 13.4725C45.1885 13.4725 40.9374 13.4725 36.6864 13.4725C31.5316 13.4725 26.3935 13.4725 21.2387 13.4725C16.7868 13.4725 12.3349 13.4725 7.88304 13.4725C5.72405 13.4725 3.54831 13.3888 1.38932 13.4725C1.35584 13.4725 1.32237 13.4725 1.2889 13.4725C0.970907 13.4725 0.703125 13.7403 0.703125 14.0583C0.703125 14.8616 0.703125 15.6817 0.703125 16.485C0.703125 16.803 0.970907 17.0708 1.2889 17.0708C3.06296 17.0708 4.83702 17.0708 6.59434 17.0708C10.8454 17.0708 15.0964 17.0708 19.3475 17.0708C24.5023 17.0708 29.6404 17.0708 34.7952 17.0708C39.2471 17.0708 43.6989 17.0708 48.1508 17.0708C50.3098 17.0708 52.4856 17.1545 54.6446 17.0708C54.678 17.0708 54.7115 17.0708 54.745 17.0708C55.063 17.0708 55.3307 16.803 55.3307 16.485C55.3307 15.6817 55.3307 14.8616 55.3307 14.0583C55.3307 13.3051 54.1425 13.3051 54.1425 14.0583C54.1425 14.8616 54.1425 15.6817 54.1425 16.485C54.3433 16.2842 54.5441 16.0834 54.7282 15.8993C52.9542 15.8993 51.1801 15.8993 49.4228 15.8993C45.1717 15.8993 40.9207 15.8993 36.6697 15.8993C31.5148 15.8993 26.3768 15.8993 21.222 15.8993C16.7701 15.8993 12.3182 15.8993 7.86631 15.8993C6.3935 15.8993 4.9207 15.8993 3.4479 15.8993C2.77844 15.8993 2.0253 15.7989 1.37258 15.8993C1.33911 15.8993 1.30564 15.8993 1.27216 15.8993C1.473 16.1001 1.67384 16.3009 1.85794 16.485C1.85794 15.6817 1.85794 14.8616 1.85794 14.0583C1.6571 14.2591 1.45626 14.4599 1.27216 14.644C3.04622 14.644 4.82028 14.644 6.5776 14.644C10.8286 14.644 15.0797 14.644 19.3307 14.644C24.4856 14.644 29.6236 14.644 34.7784 14.644C39.2303 14.644 43.6822 14.644 48.1341 14.644C50.2931 14.644 52.4688 14.7277 54.6278 14.644C54.6613 14.644 54.6948 14.644 54.7282 14.644C55.4981 14.6608 55.4981 13.4725 54.745 13.4725Z" fill="#3F2109"/>
<g opacity="0.18">
<g opacity="0.18">
<g opacity="0.18">
<g opacity="0.18">
<g opacity="0.18">
<g opacity="0.18">
<path opacity="0.18" d="M4.13396 44.4181C6.32643 44.4181 8.08375 42.644 8.08375 40.4683C8.08375 42.6607 9.85781 44.4181 12.0335 44.4181C14.2093 44.4181 15.9833 42.644 15.9833 40.4683C15.9833 42.6607 17.7574 44.4181 19.9331 44.4181C22.1089 44.4181 23.8829 42.644 23.8829 40.4683C23.8829 42.6607 25.657 44.4181 27.8327 44.4181C30.0252 44.4181 31.7825 42.644 31.7825 40.4683C31.7825 42.6607 33.5566 44.4181 35.7323 44.4181C37.9248 44.4181 39.6821 42.644 39.6821 40.4683C39.6821 42.6607 41.4561 44.4181 43.6319 44.4181C45.8243 44.4181 47.5816 42.644 47.5816 40.4683C47.5816 42.6607 49.3557 44.4181 51.5314 44.4181C53.7239 44.4181 55.4812 42.644 55.4812 40.4683L55.4143 40.3511H0.451948C0.451948 40.3344 0.200902 44.4181 4.13396 44.4181Z" fill="#3F2109"/>
</g>
</g>
</g>
</g>
</g>
</g>
<path d="M55.8156 69.7405H0.585449V72.9371H55.8156V69.7405Z" fill="#F0F1F1"/>
<path d="M1.18822 72.937C1.18822 71.8659 1.18822 70.8115 1.18822 69.7404C0.987384 69.9412 0.786547 70.1421 0.602447 70.3262C2.42671 70.3262 4.26772 70.3262 6.09199 70.3262C10.4937 70.3262 14.8786 70.3262 19.2803 70.3262C24.6024 70.3262 29.9079 70.3262 35.2301 70.3262C39.8326 70.3262 44.4351 70.3262 49.0209 70.3262C50.5439 70.3262 52.0501 70.3262 53.5732 70.3262C54.2593 70.3262 55.046 70.4266 55.7322 70.3262C55.7656 70.3262 55.7991 70.3262 55.8326 70.3262C55.6317 70.1253 55.4309 69.9245 55.2468 69.7404C55.2468 70.8115 55.2468 71.8659 55.2468 72.937C55.2468 73.6902 56.4351 73.6902 56.4351 72.937C56.4351 71.8659 56.4351 70.8115 56.4351 69.7404C56.4351 69.4224 56.1673 69.1546 55.8493 69.1546C54.025 69.1546 52.184 69.1546 50.3598 69.1546C45.9581 69.1546 41.5732 69.1546 37.1715 69.1546C31.8493 69.1546 26.5439 69.1546 21.2217 69.1546C16.6192 69.1546 12.0167 69.1546 7.4309 69.1546C5.20496 69.1546 2.94554 69.0709 0.719601 69.1546C0.686129 69.1546 0.652656 69.1546 0.619183 69.1546C0.301191 69.1546 0.033409 69.4224 0.033409 69.7404C0.033409 70.8115 0.033409 71.8659 0.033409 72.937C-6.38366e-05 73.6902 1.18822 73.6902 1.18822 72.937Z" fill="#3F2109"/>
<path d="M42.6611 18.2258H12.6025V24.3346H42.6611V18.2258Z" fill="#F0F1F1"/>
<path d="M42.6612 24.0499C39.2805 24.0499 35.8997 24.0499 32.5022 24.0499C27.1131 24.0499 21.7073 24.0499 16.3181 24.0499C15.0796 24.0499 13.8412 24.0499 12.6027 24.0499C12.7031 24.1504 12.8035 24.2508 12.9039 24.3512C12.9039 22.3094 12.9039 20.2675 12.9039 18.2424C12.8035 18.3428 12.7031 18.4433 12.6027 18.5437C15.9834 18.5437 19.3642 18.5437 22.7617 18.5437C28.1508 18.5437 33.5566 18.5437 38.9458 18.5437C40.1842 18.5437 41.4227 18.5437 42.6612 18.5437C42.5608 18.4433 42.4604 18.3428 42.36 18.2424C42.36 20.2843 42.36 22.3261 42.36 24.3512C42.36 24.7361 42.9458 24.7361 42.9458 24.3512C42.9458 22.3094 42.9458 20.2675 42.9458 18.2424C42.9458 18.0751 42.8119 17.9412 42.6445 17.9412C39.2637 17.9412 35.883 17.9412 32.4855 17.9412C27.0964 17.9412 21.6905 17.9412 16.3014 17.9412C15.0629 17.9412 13.8244 17.9412 12.5859 17.9412C12.4186 17.9412 12.2847 18.0751 12.2847 18.2424C12.2847 20.2843 12.2847 22.3261 12.2847 24.3512C12.2847 24.5186 12.4186 24.6525 12.5859 24.6525C15.9667 24.6525 19.3474 24.6525 22.7449 24.6525C28.134 24.6525 33.5399 24.6525 38.929 24.6525C40.1675 24.6525 41.406 24.6525 42.6445 24.6525C43.0294 24.6357 43.0294 24.0499 42.6612 24.0499Z" fill="#424243"/>
<g opacity="0.63">
<g opacity="0.63">
<g opacity="0.63">
<g opacity="0.63">
<g opacity="0.63">
<g opacity="0.63">
<path opacity="0.63" d="M10.2258 54.7949C12.5187 53.1379 14.8116 51.4978 17.1045 49.8409C17.4058 49.6233 17.1212 49.1045 16.8033 49.3388C14.5104 50.9957 12.2175 52.6359 9.92459 54.2928C9.62333 54.5103 9.92459 55.0292 10.2258 54.7949Z" fill="#F0F1F1"/>
</g>
</g>
</g>
</g>
</g>
</g>
<g opacity="0.63">
<g opacity="0.63">
<g opacity="0.63">
<g opacity="0.63">
<g opacity="0.63">
<g opacity="0.63">
<path opacity="0.63" d="M23.615 54.4098C25.9079 52.7529 28.2008 51.1128 30.4937 49.4559C30.7949 49.2383 30.5104 48.7195 30.1924 48.9538C27.8995 50.6107 25.6066 52.2508 23.3137 53.9077C23.0125 54.1086 23.3137 54.6274 23.615 54.4098Z" fill="#F0F1F1"/>
</g>
</g>
</g>
</g>
</g>
</g>
<g opacity="0.63">
<g opacity="0.63">
<g opacity="0.63">
<g opacity="0.63">
<g opacity="0.63">
<g opacity="0.63">
<path opacity="0.63" d="M12.9037 55.4139C14.4435 54.3093 16 53.1879 17.5397 52.0833C17.841 51.8657 17.5565 51.3469 17.2385 51.5812C15.6987 52.6858 14.1422 53.8072 12.6025 54.9118C12.3012 55.1293 12.5858 55.6314 12.9037 55.4139Z" fill="#F0F1F1"/>
</g>
</g>
</g>
</g>
</g>
</g>
<path d="M20.5186 23.414V19.2131H21.6901C21.8575 19.2131 22.0248 19.2466 22.1755 19.3136C22.3261 19.3805 22.46 19.4642 22.5771 19.5813C22.6943 19.6985 22.778 19.8324 22.8449 19.983C22.9119 20.1336 22.9453 20.301 22.9453 20.4684C22.9453 20.6357 22.9119 20.8031 22.8449 20.9537C22.778 21.1043 22.6943 21.2382 22.5771 21.3554C22.46 21.4725 22.3261 21.5562 22.1755 21.6232C22.0248 21.6901 21.8575 21.7236 21.6901 21.7236H21.3386V23.3972H20.5186V23.414ZM21.3554 20.8868H21.6901C21.8073 20.8868 21.9077 20.8533 21.9914 20.7696C22.075 20.6859 22.1085 20.5855 22.1085 20.4684C22.1085 20.3512 22.075 20.2508 21.9914 20.1671C21.9077 20.0834 21.8073 20.05 21.6901 20.05H21.3554V20.8868Z" fill="#F83822"/>
<path d="M23.3472 19.2131H24.184V23.414H23.3472V19.2131Z" fill="#F83822"/>
<path d="M26.3429 20.05H24.619V19.2131H27.7822L25.891 22.5772H27.6148V23.414H24.4517L26.3429 20.05Z" fill="#F83822"/>
<path d="M29.9078 20.05H28.184V19.2131H31.3471L29.4559 22.5772H31.1798V23.414H28.0166L29.9078 20.05Z" fill="#F83822"/>
<path d="M34.4935 23.414L34.0751 22.2424H32.7864L32.368 23.414H31.481L33.004 19.2131H33.891L35.414 23.414H34.4935ZM33.4056 20.4516L33.0709 21.4056H33.7571L33.4056 20.4516Z" fill="#F83822"/>
</g>
<defs>
<clipPath id="clip0_1_2315">
<rect width="56.4184" height="80" fill="white" transform="translate(0 0.250977)"/>
</clipPath>
</defs>
</svg>
