<svg width="53" height="41" viewBox="0 0 53 41" fill="none" xmlns="http://www.w3.org/2000/svg">
<path d="M35.1094 32.1339L40.7871 31.8268C46.0392 13.4857 32.2416 3.14355 32.2416 3.14355L28.5879 7.12613C28.5879 7.12613 38.3859 17.195 35.1167 32.1339" fill="#2E2823"/>
<path d="M35.1094 32.1339L40.7871 31.8268C46.0392 13.4857 32.2416 3.14355 32.2416 3.14355L28.5879 7.12613C28.5879 7.12613 38.3859 17.195 35.1094 32.1339Z" stroke="#2E2823" stroke-miterlimit="10"/>
<path d="M3.90175 32.366C3.99847 32.5522 5.77818 32.4144 5.77818 32.4144C3.98155 34.4045 7.53854 32.6248 7.53854 32.6248C7.72473 32.7747 9.31824 32.3443 9.31824 32.3443C9.63743 32.7167 8.20593 33.8943 8.20593 33.8943C7.1057 34.7043 7.99314 35.4902 7.99314 35.4902C8.15303 35.5058 8.31443 35.4888 8.46762 35.4405C8.62082 35.3921 8.76266 35.3133 8.88462 35.2087C9.00658 35.1041 9.10615 34.976 9.17734 34.832C9.24853 34.6879 9.28988 34.531 9.2989 34.3706C9.59149 33.4034 10.7981 32.6199 10.7981 32.6199C13.3879 31.6285 14.8556 32.8617 14.8556 32.8617C14.8162 33.2113 14.6858 33.5444 14.4775 33.8278C14.2692 34.1112 13.9902 34.3351 13.6684 34.477C12.5319 35.229 13.412 35.8577 13.412 35.8577C14.2777 36.1406 14.5824 34.668 14.5824 34.668C14.8242 33.8459 15.7914 33.06 15.7914 33.06C18.0209 33.7347 16.6716 35.2822 16.6716 35.2822C15.3997 36.617 16.5967 36.7331 16.5967 36.7331C16.9979 36.3078 17.2813 35.7852 17.4188 35.2169C18.6061 33.3212 19.4258 33.8846 19.4258 33.8846C19.8514 34.656 18.7923 35.5627 18.7923 35.5627C17.825 36.53 18.3328 37.0668 18.3328 37.0668C18.8938 37.3739 19.155 36.235 19.155 36.235C19.155 35.7127 20.6058 34.2231 20.6058 34.2231C21.5731 34.0732 21.7907 33.4421 21.7907 33.4421C25.1131 33.2003 26.2714 32.2185 26.2714 32.2185L34.6283 31.9767C37.958 17.7246 28.3413 7.39697 28.3413 7.39697L3.87757 31.5536C3.7964 31.8194 3.80318 32.1044 3.89691 32.366" fill="#EF8B45"/>
<path d="M3.9015 32.366C3.99823 32.5522 5.77793 32.4144 5.77793 32.4144C3.9813 34.4045 7.53829 32.6248 7.53829 32.6248C7.72448 32.7747 9.31799 32.3443 9.31799 32.3443C9.63718 32.7167 8.20568 33.8943 8.20568 33.8943C7.10545 34.7043 7.99289 35.4902 7.99289 35.4902C8.15279 35.5058 8.31418 35.4888 8.46738 35.4405C8.62057 35.3921 8.76241 35.3133 8.88437 35.2087C9.00633 35.1041 9.1059 34.976 9.17709 34.832C9.24828 34.6879 9.28963 34.531 9.29865 34.3706C9.59124 33.4034 10.7979 32.6199 10.7979 32.6199C13.3876 31.6285 14.8554 32.8617 14.8554 32.8617C14.816 33.2113 14.6856 33.5444 14.4773 33.8278C14.2689 34.1112 13.99 34.3351 13.6681 34.477C12.5316 35.229 13.4118 35.8577 13.4118 35.8577C14.2775 36.1406 14.5821 34.668 14.5821 34.668C14.824 33.8459 15.7912 33.06 15.7912 33.06C18.0207 33.7347 16.6714 35.2822 16.6714 35.2822C15.3995 36.617 16.5964 36.7331 16.5964 36.7331C16.9977 36.3078 17.281 35.7852 17.4186 35.2169C18.6058 33.3212 19.4256 33.8846 19.4256 33.8846C19.8511 34.656 18.792 35.5627 18.792 35.5627C17.8248 36.53 18.3326 37.0668 18.3326 37.0668C18.8936 37.3739 19.1547 36.235 19.1547 36.235C19.1547 35.7127 20.6056 34.2231 20.6056 34.2231C21.5728 34.0732 21.7904 33.4421 21.7904 33.4421C25.1129 33.2003 26.2711 32.2185 26.2711 32.2185L34.628 31.9767C37.9577 17.7246 28.341 7.39697 28.341 7.39697L3.87732 31.5536C3.79771 31.8199 3.80619 32.1049 3.9015 32.366V32.366Z" stroke="#EF8B45" stroke-miterlimit="10"/>
<path d="M25.3986 10.3396C25.7356 10.4474 26.0478 10.6208 26.3175 10.8498C26.9022 11.3711 27.2682 12.0942 27.3422 12.874C27.4162 13.6539 27.1927 14.4329 26.7165 15.0548C26.4982 15.3617 26.2189 15.6202 25.8961 15.8142C25.5733 16.0081 25.214 16.1333 24.8405 16.1819C24.4671 16.2304 24.0877 16.2014 23.726 16.0965C23.3643 15.9916 23.0282 15.8131 22.7387 15.5723C22.236 15.1433 21.8948 14.5556 21.7715 13.9063" fill="#9C3F27"/>
<path d="M25.3986 10.3396C25.7356 10.4474 26.0478 10.6208 26.3175 10.8498C26.9022 11.3711 27.2682 12.0942 27.3422 12.874C27.4162 13.6539 27.1927 14.4329 26.7165 15.0548C26.4982 15.3617 26.2189 15.6202 25.8961 15.8142C25.5733 16.0081 25.214 16.1333 24.8405 16.1819C24.4671 16.2304 24.0877 16.2014 23.726 16.0965C23.3643 15.9916 23.0282 15.8131 22.7387 15.5723C22.236 15.1433 21.8948 14.5556 21.7715 13.9063" stroke="#9C3F27" stroke-miterlimit="10"/>
<path d="M32.2927 26.7632C31.3254 28.1197 29.5095 28.4051 28.2521 27.4016C26.9947 26.3981 26.7649 24.4854 27.7394 23.1312C28.7139 21.7771 30.5226 21.4894 31.78 22.4929C33.0374 23.4964 33.2671 25.3946 32.2927 26.7632Z" fill="#9C3F27"/>
<path d="M32.2927 26.7632C31.3254 28.1197 29.5095 28.4051 28.2521 27.4016C26.9947 26.3981 26.7649 24.4854 27.7394 23.1312C28.7139 21.7771 30.5226 21.4894 31.78 22.4929C33.0374 23.4964 33.2671 25.4066 32.2927 26.7632Z" stroke="#9C3F27" stroke-miterlimit="10"/>
<path d="M11.2044 32.2933C10.687 31.7678 10.3727 31.0758 10.3174 30.3404C10.262 29.6051 10.4692 28.8739 10.9021 28.2768C11.8694 26.9445 13.6346 26.664 14.8678 27.6481C16.101 28.6323 16.3186 30.5087 15.3708 31.8411C15.1706 32.1172 14.9254 32.3575 14.6453 32.552" fill="#9C3F27"/>
<path d="M11.2044 32.2933C10.687 31.7678 10.3727 31.0758 10.3174 30.3404C10.262 29.6051 10.4692 28.8739 10.9021 28.2768C11.8694 26.9445 13.6346 26.664 14.8678 27.6481C16.101 28.6323 16.3186 30.5087 15.3708 31.8411C15.1706 32.1172 14.9254 32.3575 14.6453 32.552" stroke="#9C3F27" stroke-miterlimit="10"/>
<path d="M22.127 29.2056C22.127 29.2056 23.7616 30.3953 24.0227 33.2365" stroke="#81BF71" stroke-width="8" stroke-miterlimit="10"/>
<path d="M13.264 22.1738C13.6847 22.6889 13.9701 23.5691 12.9424 24.8337" stroke="#81BF71" stroke-width="8" stroke-miterlimit="10"/>
<path d="M20.04 20.0531C20.04 20.0531 22.5041 18.063 24.6344 21.3008" stroke="#81BF71" stroke-width="8" stroke-miterlimit="10"/>
<path d="M29.3035 31.2876C29.006 31.7011 28.3362 31.6866 27.7849 31.2537C27.2336 30.8209 27.045 30.1366 27.3424 29.7231C27.6398 29.3096 28.3096 29.3241 28.861 29.7569C29.4123 30.1898 29.6009 30.8765 29.3035 31.2876Z" stroke="#1E1D1D" stroke-width="4" stroke-miterlimit="10"/>
<path d="M29.2015 31.1761C28.9403 31.5388 28.3455 31.5243 27.8715 31.1471C27.3976 30.7699 27.2259 30.1799 27.4846 29.8075C27.7434 29.4351 28.3382 29.4593 28.8122 29.8365C29.2861 30.2137 29.4626 30.8158 29.2015 31.1761Z" stroke="#2E2D2D" stroke-width="4" stroke-miterlimit="10"/>
<path d="M18.1637 25.7043C17.9509 25.2473 18.2774 24.6065 18.8891 24.2728C19.5009 23.9391 20.178 24.031 20.3908 24.4953C20.6036 24.9595 20.2771 25.5931 19.6653 25.9268C19.0536 26.2605 18.3862 26.1589 18.1637 25.7043Z" stroke="#1E1D1D" stroke-width="4" stroke-miterlimit="10"/>
<path d="M18.306 25.6536C18.1198 25.2522 18.4051 24.6864 18.9443 24.401C19.4836 24.1157 20.0712 24.1955 20.2574 24.5945C20.4436 24.9935 20.1582 25.5617 19.619 25.847C19.0798 26.1324 18.4922 26.0526 18.306 25.6536Z" stroke="#2E2D2D" stroke-width="4" stroke-miterlimit="10"/>
<path d="M30.5174 15.2339C30.8414 15.6087 30.6891 16.3172 30.1789 16.8129C29.6687 17.3086 28.994 17.4126 28.67 17.0378C28.346 16.663 28.4959 15.9593 29.0061 15.4757C29.5163 14.9921 30.1934 14.8688 30.5174 15.2339Z" stroke="#1E1D1D" stroke-width="4" stroke-miterlimit="10"/>
<path d="M30.3915 15.333C30.6744 15.6619 30.5439 16.2809 30.0965 16.7161C29.6492 17.1514 29.0592 17.2384 28.7763 16.9096C28.4933 16.5807 28.6239 15.9641 29.0713 15.5289C29.5186 15.0936 30.1086 15.0066 30.3915 15.333Z" stroke="#2E2D2D" stroke-width="4" stroke-miterlimit="10"/>
</svg>
