<svg width="352" height="235" viewBox="0 0 352 235" fill="none" xmlns="http://www.w3.org/2000/svg">
<path d="M300.528 78.2457C294.835 56.6257 282.187 40.4859 264.423 32.839C246.658 25.1921 221.244 32.7591 208.952 47.6957C199.96 58.6185 197.191 73.9452 187.133 83.8857C177.939 92.9755 164.192 95.8848 151.276 95.584C138.36 95.2832 125.669 92.2141 112.79 91.2036C99.912 90.1931 86.1746 91.4903 75.6146 98.9445C61.7552 108.73 53.4996 132.611 55.0906 149.516C57.2871 172.838 72.8126 196.437 94.1485 201.47L234.01 203.435C252.37 202.965 272.495 185.462 282.206 168.551C287.368 159.509 291.954 157.422 296.788 140.92C304.649 114.074 305.461 96.9705 300.528 78.2457Z" fill="#EBEBEB"/>
<path d="M340.802 217.229C340.802 217.3 267.243 217.351 176.535 217.351C85.827 217.351 12.2402 217.3 12.2402 217.229C12.2402 217.159 85.7848 217.107 176.535 217.107C267.285 217.107 340.802 217.163 340.802 217.229Z" fill="#263238"/>
<path d="M77.8436 215.162C84.1702 210.767 85.6298 202.58 85.4046 195.215C85.367 193.988 85.5078 192.691 84.9352 191.61C84.3626 190.529 82.9969 189.791 81.8939 190.303C80.9834 190.731 80.5798 191.789 80.0682 192.653C79.3838 193.822 78.3832 194.774 77.1818 195.398C76.398 195.798 75.4312 196.042 74.6568 195.614C73.6008 195.027 73.4835 193.56 73.4929 192.324C73.5179 190.046 73.5398 187.768 73.5586 185.491C73.6374 184.28 73.5217 183.064 73.216 181.89C72.8405 180.729 72.0051 179.648 70.8411 179.315C69.6772 178.981 68.2457 179.653 67.997 180.847C67.9476 181.353 67.9335 181.862 67.9547 182.37C67.9615 182.623 67.8934 182.873 67.759 183.088C67.6246 183.303 67.4298 183.473 67.1991 183.578C66.7298 183.719 66.2229 183.371 65.8615 183.014C64.6037 181.773 63.7542 180.194 62.961 178.596C62.1679 176.998 61.3982 175.39 60.2577 174.041C59.1172 172.692 57.5402 171.616 55.7943 171.513C54.0484 171.409 52.1804 172.481 51.7299 174.196C51.2793 175.912 52.279 177.674 53.3679 179.07C54.9739 181.145 56.8709 182.977 58.9999 184.508C59.4133 184.741 59.742 185.1 59.9385 185.533C60.1967 186.351 59.427 187.154 58.6197 187.413C57.7092 187.714 56.7424 187.615 55.7708 187.723C54.7993 187.831 53.7856 188.249 53.4242 189.133C52.922 190.383 53.9592 191.695 54.9824 192.555C57.0336 194.282 59.3677 195.642 61.8816 196.573C62.8049 196.834 63.6733 197.261 64.4441 197.833C65.1669 198.467 65.5987 199.567 65.1575 200.427C64.7163 201.287 63.5946 201.56 62.6513 201.367C61.7079 201.174 60.8725 200.676 59.9761 200.333C58.3006 199.694 56.1322 199.802 55.0528 201.25C54.7236 201.749 54.5142 202.317 54.4409 202.911C54.3677 203.504 54.4325 204.107 54.6304 204.671C55.0356 205.793 55.6611 206.822 56.4702 207.698C59.1184 210.906 62.5699 213.352 66.4716 214.786C70.3577 216.153 73.981 216.529 77.8342 215.129" fill="#EF8B45"/>
<path d="M77.4397 217.235C77.1863 214.316 77.0549 214.255 75.9754 210.537C74.7704 206.52 73.335 202.577 71.6763 198.726C71.2383 197.701 70.8096 196.689 70.3903 195.69C69.9632 194.693 69.5455 193.706 69.0715 192.766C68.1587 190.966 67.1465 189.218 66.0396 187.531C65.0024 185.904 63.9558 184.405 62.9655 183.004C61.9752 181.604 61.0271 180.325 60.1119 179.193C58.6817 177.399 57.1124 175.72 55.4186 174.173C54.8179 173.623 54.3391 173.233 54.0106 172.942L53.6351 172.636C53.5507 172.566 53.5037 172.533 53.499 172.538C53.5376 172.579 53.5784 172.618 53.6211 172.655L53.9824 172.979C54.3016 173.261 54.7709 173.68 55.3623 174.239C57.033 175.807 58.5846 177.497 60.004 179.296C60.9098 180.429 61.8485 181.717 62.82 183.117C63.7915 184.518 64.8381 186.022 65.8753 187.643C66.9665 189.333 67.9645 191.081 68.865 192.879C69.3343 193.819 69.752 194.797 70.1744 195.793C70.5968 196.79 71.0239 197.805 71.4604 198.829C73.1148 202.673 74.5532 206.607 75.7689 210.612C76.853 214.316 76.9985 214.372 77.2754 217.263" fill="#263238"/>
<path d="M68.9918 192.757C69.0495 192.588 69.0889 192.413 69.1091 192.236C69.1748 191.897 69.2546 191.408 69.3438 190.797C69.5174 189.58 69.7051 187.893 69.907 186.032C70.1088 184.17 70.3153 182.488 70.5077 181.275C70.6063 180.669 70.6861 180.18 70.7518 179.842C70.7951 179.668 70.8172 179.49 70.8175 179.311C70.7507 179.476 70.6988 179.648 70.6626 179.823C70.5781 180.157 70.4702 180.645 70.3528 181.233C70.1182 182.441 69.8835 184.128 69.6817 185.989C69.4799 187.85 69.3156 189.491 69.1842 190.764C69.1232 191.338 69.0669 191.822 69.0246 192.207C68.9896 192.388 68.9785 192.573 68.9918 192.757V192.757Z" fill="#263238"/>
<path d="M53.3066 189.763C53.5132 189.81 53.7238 189.837 53.9355 189.843C54.3345 189.88 54.9211 189.927 55.6392 190.017C57.0754 190.176 59.0513 190.487 61.2196 190.886C63.3879 191.286 65.3309 191.77 66.7296 192.146C67.4289 192.329 67.9921 192.493 68.3816 192.616C68.582 192.683 68.7877 192.733 68.9964 192.766C68.8081 192.669 68.6118 192.589 68.4098 192.526C68.0249 192.39 67.4711 192.202 66.7718 192C65.3638 191.582 63.4348 191.093 61.2618 190.67C59.3997 190.304 57.5198 190.036 55.6298 189.866C54.9071 189.8 54.3204 189.772 53.9168 189.763C53.7138 189.745 53.5096 189.745 53.3066 189.763V189.763Z" fill="#263238"/>
<path d="M75.7695 210.25C75.8154 210.191 75.8532 210.127 75.8822 210.058C75.9526 209.903 76.0417 209.715 76.1497 209.489C76.3844 208.995 76.6988 208.272 77.0884 207.374C77.8487 205.574 78.8296 203.059 79.8668 200.263C80.904 197.466 81.8615 194.947 82.5843 193.138L83.4525 190.994C83.5417 190.759 83.6215 190.567 83.6825 190.412C83.7435 190.257 83.7576 190.205 83.7482 190.2C83.7045 190.26 83.6683 190.324 83.6403 190.393L83.3727 190.957C83.1381 191.455 82.8189 192.179 82.4341 193.077C81.6691 194.872 80.6928 197.391 79.6556 200.183C78.6184 202.975 77.6609 205.499 76.9335 207.313C76.5815 208.192 76.2858 208.916 76.0699 209.451C75.976 209.686 75.9009 209.879 75.8399 210.039C75.8092 210.107 75.7856 210.178 75.7695 210.25V210.25Z" fill="#263238"/>
<path d="M54.9355 203.444C55.0011 203.48 55.0704 203.508 55.1421 203.529L55.7475 203.736L57.9815 204.469C59.8589 205.085 62.4543 205.973 65.3172 206.951C68.1801 207.928 70.7849 208.798 72.681 209.376C73.6197 209.667 74.3988 209.893 74.9338 210.039L75.5534 210.208C75.6239 210.228 75.6962 210.242 75.7693 210.25C75.7693 210.25 75.7035 210.212 75.5627 210.161L74.962 209.959L72.7467 209.225C70.8694 208.605 68.274 207.721 65.4064 206.739C62.5387 205.757 59.9433 204.892 58.0472 204.314C57.1086 204.023 56.3295 203.797 55.7944 203.651L55.1749 203.487C55.0986 203.457 55.0173 203.443 54.9355 203.444Z" fill="#263238"/>
<path d="M154.054 217.23H88.7369C80.8474 217.197 74.1875 210.457 74.211 202.552L74.9056 37.8119C74.913 35.9317 75.2903 34.0714 76.0159 32.3372C76.7415 30.6031 77.8012 29.0291 79.1345 27.7053C80.4678 26.3815 82.0485 25.3337 83.7863 24.6219C85.5241 23.9101 87.385 23.5481 89.2625 23.5568L154.88 23.8623C156.757 23.8703 158.613 24.2484 160.344 24.9751C162.074 25.7018 163.645 26.7628 164.966 28.0975C166.287 29.4322 167.332 31.0144 168.043 32.7538C168.753 34.4932 169.114 36.3557 169.105 38.2349L168.411 202.975C168.403 204.855 168.026 206.715 167.301 208.449C166.575 210.183 165.515 211.757 164.182 213.081C162.849 214.405 161.268 215.453 159.53 216.165C157.792 216.876 155.932 217.238 154.054 217.23Z" fill="#2D2723"/>
<path d="M154.791 30.1178L142.067 30.0802C141.652 30.0875 141.243 30.1766 140.863 30.3424C140.482 30.5082 140.138 30.7474 139.85 31.0464C139.562 31.3453 139.336 31.6982 139.184 32.0848C139.032 32.4715 138.958 32.8843 138.965 33.2997V35.6121C138.979 36.4507 138.66 37.2605 138.078 37.864C137.497 38.4676 136.7 38.8155 135.863 38.8316L111.063 38.7141C110.648 38.7031 110.24 38.6104 109.861 38.4412C109.482 38.2721 109.14 38.0297 108.854 37.7281C108.569 37.4265 108.345 37.0715 108.197 36.6835C108.048 36.2954 107.978 35.8818 107.989 35.4664V33.1587C108.009 32.3191 107.697 31.5057 107.12 30.8963C106.543 30.2868 105.748 29.9309 104.91 29.9063H100.437L89.3002 29.8546C87.9855 29.849 86.6826 30.1028 85.4659 30.6015C84.2492 31.1002 83.1425 31.8339 82.209 32.7609C81.2755 33.6879 80.5334 34.79 80.0252 36.0041C79.517 37.2183 79.2526 38.5209 79.247 39.8374L78.5665 200.601C78.5553 203.259 79.5986 205.813 81.4671 207.7C83.3355 209.588 85.8762 210.656 88.5304 210.668L154.017 210.969C155.332 210.976 156.635 210.723 157.853 210.225C159.07 209.727 160.178 208.993 161.112 208.066C162.046 207.139 162.789 206.036 163.297 204.821C163.805 203.607 164.069 202.303 164.074 200.986L164.736 40.1852C164.746 37.5308 163.705 34.9806 161.841 33.0936C159.977 31.2065 157.442 30.1364 154.791 30.1178V30.1178Z" fill="#F5F5F5"/>
<path d="M126.997 180.584C126.921 182.525 126.851 184.344 126.79 185.862H136.177L135.027 180.072L126.997 180.584Z" fill="#F5F5F5"/>
<path d="M88.7646 183.004L88.8444 185.862H125.851C125.912 184.255 125.983 182.478 126.053 180.645L88.7646 183.004Z" fill="#F5F5F5"/>
<path d="M135.52 180.043L136.674 185.857H154.021L153.809 178.887L135.52 180.043Z" fill="#F5F5F5"/>
<path d="M127.935 98.738L131.216 79.6983L122.627 79.0591V98.738H127.935Z" fill="#F5F5F5"/>
<path d="M87.9907 172.434L78.6698 176.091L78.6416 182.704L88.2677 182.093L87.9907 172.434Z" fill="#F5F5F5"/>
<path d="M87.9488 170.949L87.4419 153.216H87.4326V146.96L78.7874 147.876L78.6748 174.577L87.9441 170.939L87.9488 170.949Z" fill="#F5F5F5"/>
<path d="M87.4326 133.001L78.8579 131.863L78.7969 146.462L87.4326 145.545V133.001Z" fill="#F5F5F5"/>
<path d="M151.351 147.223L150.99 152.308L140.861 153.399L141.645 157.422L153.139 156.553L152.97 150.786L153.885 146.969L151.351 147.223Z" fill="#F5F5F5"/>
<path d="M133.093 158.066L141.171 157.455L139.411 148.431L132.361 149.146L133.093 158.066Z" fill="#F5F5F5"/>
<path d="M133.173 159.006L133.788 166.531L134.881 176.852L135.332 179.113L153.781 177.947L153.166 157.493L133.173 159.006Z" fill="#F5F5F5"/>
<path d="M101.418 123.469L102.127 124.686L87.9011 133.01V152.727L102.92 151.66L131.882 148.722L130.822 135.802L103.173 132.183L103.356 130.773L130.704 134.35L128.911 112.481L101.84 115.084L101.751 114.144L128.832 111.541L127.893 100.129H101.845L78.9837 104.293L78.8711 130.425L87.5209 131.6L101.418 123.469ZM89.356 150.828C89.356 150.828 89.464 134.575 89.356 133.969L100.967 127.784L102.474 150.001L89.356 150.828Z" fill="#F5F5F5"/>
<path d="M150.398 147.322L139.88 148.384L140.678 152.473L150.107 151.458L150.398 147.322Z" fill="#F5F5F5"/>
<path d="M127.128 177.101C127.095 177.956 127.062 178.802 127.034 179.639L134.863 179.141L134.459 177.12L127.128 177.101Z" fill="#F5F5F5"/>
<path d="M110.265 98.738L111.645 92.4729H122.158V79.0262L89.2907 76.5869V89.2158L79.0264 91.5423L78.9795 102.879L101.709 98.738H110.265Z" fill="#F5F5F5"/>
<path d="M132.197 61.3118L131.916 60.1603L144.466 55.1877L136.304 38.7753C136.149 38.8004 135.992 38.813 135.835 38.8129L121.966 38.7471L122.341 61.716L132.197 61.3118Z" fill="#F5F5F5"/>
<path d="M151.215 52.509V30.1041L142.068 30.0806C141.653 30.0879 141.244 30.177 140.863 30.3428C140.483 30.5086 140.139 30.7478 139.851 31.0468C139.562 31.3457 139.336 31.6986 139.184 32.0852C139.032 32.4719 138.958 32.8847 138.965 33.3001V35.6125C138.965 36.1288 138.843 36.6378 138.61 37.0983C138.377 37.5588 138.039 37.9579 137.623 38.2633L145.789 54.6851L151.215 52.509Z" fill="#F5F5F5"/>
<path d="M104.037 53.472L102.977 29.8781H100.438L90.5111 29.8311L86.2871 50.9294L104.037 53.472ZM101.775 32.2704L102.113 51.484L88.9201 49.5523L91.8065 32.2704H101.775Z" fill="#F5F5F5"/>
<path d="M104.516 53.5428V53.7402C104.516 55.5826 104.572 58.9102 104.6 62.4399L121.886 61.7349L121.511 38.7472L111.049 38.6955C110.634 38.6845 110.226 38.5918 109.847 38.4226C109.468 38.2535 109.126 38.0112 108.84 37.7095C108.555 37.4079 108.331 37.053 108.183 36.6649C108.034 36.2768 107.964 35.8632 107.975 35.4478V33.1401C107.995 32.3006 107.683 31.4871 107.106 30.8777C106.529 30.2682 105.734 29.9123 104.896 29.8877H103.437L104.497 53.5428H104.516Z" fill="#F5F5F5"/>
<path d="M84.8885 50.7182L89.075 29.8267C86.4603 29.8733 83.9678 30.9432 82.1309 32.8072C80.2941 34.6712 79.259 37.1813 79.2471 39.8001L79.2002 50.2153L79.2471 49.9098L84.8885 50.7182Z" fill="#F5F5F5"/>
<path d="M87.8829 76.4834L79.0923 75.8301L79.0312 90.0946L87.8829 88.0877V76.4834Z" fill="#F5F5F5"/>
<path d="M84.7946 51.1787L79.2001 50.375L79.1016 73.4755L80.3078 73.5648L84.7946 51.1787Z" fill="#F5F5F5"/>
<path d="M102.549 170.676L102.695 152.135L87.9062 153.183L88.4319 171.348L102.549 170.676Z" fill="#F5F5F5"/>
<path d="M105.271 166.381L126.213 176.429C126.466 169.849 126.682 163.739 126.682 163.33L127.151 163.307L127.377 162.865C127.672 163.011 127.672 163.011 127.517 167.49C127.428 169.986 127.306 173.308 127.179 176.631H134.421L133.356 166.555L131.948 149.165L104.581 151.928L105.271 166.381Z" fill="#F5F5F5"/>
<path d="M156.612 135.624L156.372 133.175L131.268 135.793L132.324 148.675L154.002 146.485L156.612 135.624Z" fill="#F5F5F5"/>
<path d="M122.158 93.8828H112.776L111.706 98.7379H122.158V93.8828Z" fill="#F5F5F5"/>
<path d="M152.735 95.5232L129.245 93.897L128.307 99.4524L129.297 111.513L154.068 109.125L152.735 95.5232ZM130.109 99.443L131.371 95.9368L151.773 97.2293L152.951 107.259L130.799 109.891L130.109 99.443Z" fill="#F5F5F5"/>
<path d="M155.171 120.73L154.138 110.065L129.353 112.448L130.287 123.799L155.171 120.73Z" fill="#F5F5F5"/>
<path d="M88.2952 183.037L78.6786 183.644L78.641 183.019L78.627 185.857H88.375L88.2952 183.037Z" fill="#F5F5F5"/>
<path d="M164.582 47.2116L164.722 47.5735L164.736 40.1851C164.746 37.5274 163.703 34.9745 161.834 33.0869C159.966 31.1993 157.426 30.1314 154.772 30.1177H151.651V52.3393L164.582 47.2116Z" fill="#F5F5F5"/>
<path d="M126.195 176.96L104.816 166.7L104.061 152.003L103.169 152.093L103.014 171.128L88.4414 171.819V172.242L88.723 182.055L126.077 179.705C126.124 178.789 126.162 177.872 126.195 176.96ZM89.3566 173.031L109.754 171.621L123.022 177.783L89.3566 179.606V173.031Z" fill="#F5F5F5"/>
<path d="M158.503 71.9101L159.381 66.7166C151.712 63.9765 151.182 55.9677 151.205 53.5566L146.202 55.54L153.735 70.6881L158.503 71.9101Z" fill="#F5F5F5"/>
<path d="M131.15 134.387L141.574 133.301L139.523 124.08L130.399 125.208L131.15 134.387Z" fill="#F5F5F5"/>
<path d="M152.768 79.8536H133.3L131.686 79.7314L129.484 92.5014L152.594 94.0994L152.059 88.5486L154.336 80.3518L152.768 79.8536Z" fill="#F5F5F5"/>
<path d="M152.294 77.5034L152.538 71.3934L144.888 56.0103L133.023 60.7103L137.102 77.4799L152.294 77.5034ZM144.424 57.8997L151.435 71.2571L150.422 75.4213L138.425 74.9513L135.426 62.3177L144.424 57.8997Z" fill="#F5F5F5"/>
<path d="M155.321 151.03L155.683 163.001L164.117 162.526L164.145 162.996L155.697 163.471L156.124 177.797L164.103 177.289L164.159 178.229L156.152 178.737L156.368 185.857H164.14L164.309 145.917L156.359 146.72L155.321 151.03Z" fill="#F5F5F5"/>
<path d="M104.052 53.9471L86.1888 51.3809L81.7207 73.6683L104.131 75.3321C104.221 71.9105 104.141 61.3731 104.052 53.9471Z" fill="#F5F5F5"/>
<path d="M133.431 77.5035H136.135L132.31 61.7773L122.369 62.1862L122.608 76.6998L133.431 77.5035Z" fill="#F5F5F5"/>
<path d="M104.586 75.3651L122.134 76.667L121.9 62.2051L104.609 62.9101C104.661 67.8028 104.661 73.0198 104.586 75.3651Z" fill="#F5F5F5"/>
<path d="M155.307 122.135L139.988 124.024L142.049 133.25L156.237 131.774L155.307 122.135Z" fill="#F5F5F5"/>
<path d="M159.461 66.2231L160.442 60.3951L164.666 60.7241L164.722 48.1704L151.679 53.3404C151.412 62.1717 156.955 65.2784 159.461 66.2231Z" fill="#F5F5F5"/>
<path d="M154.438 88.7552L154.969 94.2636L164.524 94.9263L164.571 83.5852L156.574 81.0566L154.438 88.7552Z" fill="#F5F5F5"/>
<path d="M158.982 135.788L156.476 146.236L164.309 145.442L164.356 134.486C161.953 133.852 159.855 133.335 158.724 133.119L158.982 135.788Z" fill="#F5F5F5"/>
<path d="M153.697 77.6817L164.581 81.1268L164.609 74.9275L153.918 72.1592L153.697 77.6817Z" fill="#F5F5F5"/>
<path d="M158.588 131.685C159.466 131.816 161.127 132.155 164.361 133.024L164.464 109.054L156.485 109.825L158.588 131.685Z" fill="#F5F5F5"/>
<path d="M156.387 108.904L164.469 108.124L164.516 96.3413L155.105 95.688L156.387 108.904Z" fill="#F5F5F5"/>
<path d="M160.361 66.5195C161.767 66.9561 163.194 67.3216 164.637 67.6146V61.6644L161.197 61.3965L160.361 66.5195Z" fill="#F5F5F5"/>
<path d="M159.418 72.1264L164.613 73.4706L164.637 68.0985C163.29 67.8259 161.821 67.4593 160.282 66.9893L159.418 72.1264Z" fill="#F5F5F5"/>
<path d="M88.2954 183.032L88.3752 185.852H88.8445L88.7647 182.995L126.053 180.645C125.983 182.478 125.912 184.254 125.851 185.862H126.79C126.851 184.344 126.922 182.525 126.997 180.584L135.046 180.071L136.196 185.862H136.665L135.51 180.043L153.814 178.887L154.026 185.862H156.372L156.156 178.736L164.163 178.229L164.107 177.289L156.128 177.796L155.701 163.471L164.149 163.001L164.121 162.531L155.673 163.001L155.311 151.03L156.349 146.72L164.299 145.916V145.446L156.466 146.241L158.972 135.793L158.714 133.123C159.845 133.339 161.943 133.856 164.346 134.491V133.01C161.112 132.155 159.451 131.802 158.573 131.671L156.461 109.825L164.44 109.054V108.114L156.358 108.894L155.077 95.6781L164.463 96.3314V94.9214L154.908 94.2587L154.378 88.7503L156.513 81.0517L164.492 83.5803V81.1222L153.608 77.6771L153.828 72.1546L164.52 74.9229V73.4659L159.324 72.1217L160.188 66.9846C161.746 67.4546 163.196 67.8212 164.543 68.0938V67.6238C163.101 67.3308 161.674 66.9653 160.268 66.5287L161.127 61.4057L164.567 61.6736V60.7336L160.343 60.4046L159.362 66.2326C156.856 65.2926 151.313 62.1812 151.58 53.3452L164.623 48.1752V47.5783L164.482 47.2164L151.585 52.33V30.1084H151.116V52.5133L145.681 54.6706L137.514 38.2488C137.127 38.5285 136.678 38.7107 136.205 38.7799L144.367 55.1923L131.915 60.1602L132.197 61.3117L122.341 61.7159L121.965 38.747H121.496L121.871 61.7347L104.586 62.4397C104.558 58.8959 104.52 55.5824 104.501 53.74V53.5426L103.441 29.8875H102.971L104.032 53.4815L86.2772 50.9294L90.5012 29.8311H89.2904H89.0651L84.8786 50.7226L79.2466 49.9142L79.1997 50.2197V50.3795L84.7942 51.1832L80.3073 73.5693L79.1011 73.48V75.83L87.8918 76.4833V88.0876L79.0401 90.0945V91.5421L89.3044 89.1921V76.6102L122.158 79.0495V92.5009H111.645L110.265 98.7613H101.709L78.9791 102.902V104.335L101.845 100.148H127.884L128.822 111.559L101.742 114.163L101.831 115.103L128.902 112.499L130.695 134.368L103.347 130.792L103.164 132.202L130.812 135.821L131.882 148.722L102.939 151.646L87.9199 152.713V133.01L102.145 124.701L101.437 123.483L87.521 131.6L78.8477 130.444V131.854L87.4318 133.01V145.554L78.7961 146.471V147.881L87.4412 146.964V153.22L87.9528 170.953L78.6834 174.591V176.104L88.0044 172.448L88.2813 182.106L78.6553 182.717V183.032L78.6928 183.657L88.2954 183.032ZM127.034 179.639C127.062 178.802 127.095 177.956 127.128 177.101H134.459L134.863 179.122L127.034 179.639ZM135.332 179.112L134.863 176.852L133.769 166.512L133.154 158.992L153.148 157.478L153.763 177.928L135.332 179.112ZM139.861 148.384L150.383 147.322L150.088 151.458L140.659 152.473L139.861 148.384ZM139.392 148.431L141.152 157.455L133.074 158.066L132.342 149.136L139.392 148.431ZM153.12 156.552L141.626 157.422L140.842 153.399L150.97 152.308L151.332 147.223L153.866 146.969L152.951 150.786L153.12 156.552ZM139.509 124.08L141.56 133.302L131.136 134.387L130.385 125.208L139.509 124.08ZM142.034 133.25L139.974 124.024L155.293 122.144L156.231 131.783L142.034 133.25ZM152.58 94.0989L129.47 92.4962L131.671 79.731L133.286 79.8532H152.758L154.321 80.3514L152.064 88.5482L152.58 94.0989ZM151.172 53.5238C151.149 55.949 151.679 63.9578 159.348 66.6838L158.503 71.9102L153.735 70.6741L146.202 55.5072L151.172 53.5238ZM144.855 56.0289L152.533 71.412L152.289 77.522H137.101L133.023 60.7524L144.855 56.0289ZM132.277 61.777L136.102 77.5032H133.431L122.608 76.7042L122.369 62.1859L132.277 61.777ZM121.867 62.2047L122.101 76.6666L104.553 75.3647C104.628 73.0147 104.614 67.8024 104.553 62.9097L121.867 62.2047ZM86.1552 51.3947L104.018 53.9609C104.107 61.3869 104.187 71.9149 104.098 75.3459L81.6872 73.6821L86.1552 51.3947ZM131.183 79.7122L127.898 98.7519H122.627V79.0589L131.183 79.7122ZM112.743 93.9015H122.13V98.7519H111.701L112.743 93.9015ZM128.231 99.4663L129.17 93.9109L152.66 95.5371L153.974 109.139L129.202 111.526L128.231 99.4663ZM154.082 110.079L155.114 120.743L130.24 123.817L129.301 112.462L154.082 110.079ZM131.211 135.807L156.316 133.189L156.555 135.637L153.946 146.499L132.267 148.689L131.211 135.807ZM133.267 166.587L134.332 176.664H127.147C127.274 173.341 127.396 170.018 127.485 167.522C127.64 163.043 127.64 163.043 127.344 162.897L127.119 163.339L126.649 163.363C126.649 163.753 126.447 169.896 126.18 176.462L105.271 166.38L104.53 151.937L131.882 149.192L133.267 166.587ZM102.638 152.149L102.493 170.69L88.3752 171.362L87.8495 153.197L102.638 152.149ZM88.3986 172.265V171.842L102.971 171.151L103.126 152.116L104.018 152.026L104.774 166.723L126.152 176.983C126.119 177.895 126.081 178.812 126.049 179.723L88.6943 182.073L88.3986 172.265Z" fill="white"/>
<path d="M109.754 171.597L89.3564 173.026V179.587L123.026 177.759L109.754 171.597Z" fill="#EBEBEB"/>
<path d="M151.773 97.2295L131.371 95.937L130.108 99.4432L130.798 109.891L152.951 107.259L151.773 97.2295Z" fill="#EBEBEB"/>
<path d="M88.53 210.668L154.016 210.969C155.331 210.976 156.635 210.723 157.852 210.224C159.07 209.726 160.177 208.993 161.112 208.065C162.046 207.138 162.788 206.036 163.296 204.821C163.805 203.606 164.069 202.303 164.074 200.986L164.14 185.861H78.627L78.5801 197.301V200.901C78.6459 203.505 79.7214 205.981 81.5788 207.804C83.4361 209.627 85.9292 210.654 88.53 210.668V210.668Z" fill="#EBEBEB"/>
<path d="M102.113 51.4841L101.775 32.2705H91.811L88.9199 49.5524L102.113 51.4841Z" fill="#EBEBEB"/>
<path d="M150.421 75.4215L151.435 71.2573L144.423 57.8999L135.426 62.3367L138.425 74.9703L150.421 75.4215Z" fill="#EBEBEB"/>
<path d="M89.3564 133.95C89.4644 134.557 89.3564 150.809 89.3564 150.809L102.498 149.982L100.991 127.765L89.3564 133.95Z" fill="#EBEBEB"/>
<path d="M133.098 147.167L132.403 137.094L154.898 134.199V135.938L152.176 145.202L133.098 147.167Z" fill="#EBEBEB"/>
<path d="M116.46 63.6335C116.46 64.1763 116.3 64.707 115.998 65.1584C115.697 65.6098 115.269 65.9616 114.768 66.1693C114.267 66.3771 113.716 66.4314 113.185 66.3255C112.653 66.2196 112.165 65.9582 111.781 65.5743C111.398 65.1905 111.137 64.7014 111.031 64.169C110.925 63.6365 110.98 63.0846 111.187 62.5831C111.395 62.0815 111.746 61.6529 112.197 61.3513C112.647 61.0496 113.177 60.8887 113.719 60.8887C114.446 60.8887 115.144 61.1779 115.658 61.6926C116.172 62.2074 116.46 62.9055 116.46 63.6335V63.6335Z" fill="#EF8B45"/>
<g opacity="0.6">
<path opacity="0.6" d="M116.456 63.5161C116.479 64.0587 116.342 64.5961 116.06 65.0603C115.779 65.5245 115.366 65.8947 114.875 66.124C114.383 66.3533 113.835 66.4315 113.299 66.3485C112.763 66.2656 112.264 66.0253 111.864 65.6582C111.465 65.291 111.183 64.8133 111.054 64.2857C110.926 63.7581 110.957 63.2042 111.143 62.6941C111.329 62.184 111.662 61.7407 112.1 61.4202C112.538 61.0997 113.06 60.9164 113.602 60.8935C114.328 60.863 115.036 61.122 115.571 61.6137C116.106 62.1054 116.424 62.7896 116.456 63.5161V63.5161Z" fill="white"/>
</g>
<path d="M113.719 65.363C114.725 65.363 115.54 64.5466 115.54 63.5394C115.54 62.5323 114.725 61.7158 113.719 61.7158C112.714 61.7158 111.898 62.5323 111.898 63.5394C111.898 64.5466 112.714 65.363 113.719 65.363Z" fill="#EF8B45"/>
<path d="M156.067 173.214C156.063 173.445 155.992 173.67 155.861 173.86C155.731 174.051 155.547 174.199 155.333 174.285C155.119 174.372 154.885 174.393 154.659 174.347C154.433 174.3 154.225 174.188 154.063 174.025C153.9 173.861 153.789 173.653 153.744 173.427C153.698 173.2 153.721 172.965 153.808 172.751C153.895 172.538 154.043 172.354 154.234 172.224C154.424 172.094 154.649 172.023 154.88 172.021C155.037 172.019 155.192 172.048 155.338 172.108C155.483 172.167 155.615 172.255 155.725 172.366C155.836 172.478 155.923 172.61 155.982 172.756C156.041 172.901 156.07 173.057 156.067 173.214V173.214Z" fill="#EF8B45"/>
<path d="M154.195 172.834L153.909 166.254L134.14 167.217C133.622 167.241 133.106 167.131 132.643 166.898L104.6 152.713C104.281 152.551 104.01 152.307 103.815 152.007C103.62 151.707 103.507 151.36 103.488 151.002L99.6677 76.8643C99.6585 76.6887 99.6868 76.5131 99.7508 76.3494C99.8147 76.1856 99.9128 76.0374 100.039 75.9146C100.164 75.7918 100.315 75.6973 100.48 75.6374C100.645 75.5774 100.821 75.5535 100.996 75.5671L113.016 76.4554V63.2954H114.424V76.634C114.427 76.8044 114.395 76.9736 114.331 77.1313C114.266 77.2889 114.17 77.4316 114.048 77.5505C113.922 77.6653 113.773 77.7532 113.612 77.809C113.451 77.8647 113.28 77.8871 113.109 77.8748L101.099 76.9865L104.905 150.932C104.912 151.041 104.948 151.146 105.008 151.238C105.068 151.329 105.151 151.404 105.248 151.453L133.291 165.647C133.536 165.771 133.809 165.83 134.084 165.817L154.021 164.844C154.351 164.829 154.673 164.946 154.918 165.168C155.04 165.278 155.139 165.412 155.21 165.561C155.28 165.711 155.319 165.873 155.326 166.037L155.612 172.773L154.195 172.834Z" fill="#EF8B45"/>
<path d="M101.967 112.617C103.927 112.617 105.515 111.026 105.515 109.064C105.515 107.102 103.927 105.511 101.967 105.511C100.008 105.511 98.4189 107.102 98.4189 109.064C98.4189 111.026 100.008 112.617 101.967 112.617Z" fill="#EF8B45"/>
<path d="M101.967 111.531C103.328 111.531 104.431 110.426 104.431 109.064C104.431 107.701 103.328 106.596 101.967 106.596C100.606 106.596 99.5029 107.701 99.5029 109.064C99.5029 110.426 100.606 111.531 101.967 111.531Z" fill="#FAFAFA"/>
<path d="M101.967 111.71C101.445 111.711 100.933 111.557 100.498 111.267C100.063 110.976 99.7235 110.563 99.5228 110.08C99.3221 109.597 99.2691 109.064 99.3705 108.551C99.4719 108.037 99.7232 107.565 100.093 107.195C100.462 106.824 100.933 106.572 101.445 106.469C101.958 106.367 102.49 106.419 102.973 106.619C103.456 106.819 103.869 107.158 104.159 107.593C104.45 108.029 104.605 108.541 104.605 109.064C104.604 109.765 104.326 110.436 103.831 110.932C103.337 111.428 102.667 111.708 101.967 111.71V111.71ZM101.967 106.77C101.514 106.77 101.071 106.903 100.694 107.155C100.316 107.406 100.022 107.764 99.848 108.183C99.6739 108.602 99.6279 109.063 99.7158 109.509C99.8036 109.954 100.021 110.363 100.341 110.684C100.662 111.005 101.07 111.224 101.514 111.313C101.959 111.402 102.419 111.357 102.838 111.184C103.257 111.01 103.615 110.716 103.867 110.339C104.119 109.962 104.253 109.518 104.253 109.064C104.252 108.457 104.011 107.875 103.582 107.445C103.154 107.016 102.574 106.773 101.967 106.77V106.77Z" fill="#EF8B45"/>
<path d="M122.867 94.1602H105.971C105.577 94.1602 105.198 94.3172 104.919 94.5966C104.64 94.876 104.483 95.255 104.483 95.6501V101.76C104.483 102.155 104.64 102.534 104.919 102.814C105.198 103.093 105.577 103.25 105.971 103.25H106.168V104.712L107.863 103.25H122.881C123.276 103.25 123.654 103.093 123.933 102.814C124.212 102.534 124.369 102.155 124.369 101.76V95.6501C124.369 95.4533 124.33 95.2584 124.254 95.0767C124.179 94.895 124.068 94.7301 123.928 94.5916C123.789 94.4531 123.623 94.3436 123.441 94.2696C123.259 94.1955 123.064 94.1584 122.867 94.1602V94.1602Z" fill="#EF8B45"/>
<g opacity="0.4">
<path opacity="0.4" d="M122.867 94.1602H105.971C105.577 94.1602 105.198 94.3172 104.919 94.5966C104.64 94.876 104.483 95.255 104.483 95.6501V101.76C104.483 102.155 104.64 102.534 104.919 102.814C105.198 103.093 105.577 103.25 105.971 103.25H106.168V104.712L107.863 103.25H122.881C123.276 103.25 123.654 103.093 123.933 102.814C124.212 102.534 124.369 102.155 124.369 101.76V95.6501C124.369 95.4533 124.33 95.2584 124.254 95.0767C124.179 94.895 124.068 94.7301 123.928 94.5916C123.789 94.4531 123.623 94.3436 123.441 94.2696C123.259 94.1955 123.064 94.1584 122.867 94.1602V94.1602Z" fill="white"/>
</g>
<path d="M108.285 98.6158C108.277 98.4138 108.33 98.2141 108.437 98.0424C108.543 97.8707 108.699 97.7347 108.883 97.652C109.067 97.5692 109.272 97.5434 109.471 97.5778C109.67 97.6123 109.854 97.7054 109.999 97.8453C110.145 97.9852 110.246 98.1655 110.289 98.363C110.331 98.5606 110.314 98.7665 110.24 98.9542C110.165 99.142 110.036 99.3032 109.869 99.417C109.702 99.5309 109.505 99.5923 109.303 99.5934C109.171 99.5998 109.04 99.5792 108.916 99.5329C108.792 99.4865 108.679 99.4155 108.584 99.324C108.489 99.2325 108.413 99.1225 108.362 99.0007C108.31 98.879 108.284 98.748 108.285 98.6158ZM110.04 98.6158C110.041 98.4685 109.998 98.3243 109.917 98.2015C109.836 98.0786 109.72 97.9827 109.585 97.9259C109.449 97.8691 109.299 97.854 109.155 97.8825C109.011 97.911 108.878 97.9819 108.774 98.086C108.67 98.1901 108.6 98.3229 108.571 98.4674C108.543 98.6119 108.558 98.7616 108.614 98.8974C108.671 99.0333 108.767 99.1493 108.89 99.2305C109.012 99.3117 109.156 99.3546 109.303 99.3537C109.401 99.357 109.498 99.3401 109.589 99.3042C109.68 99.2683 109.763 99.214 109.832 99.1448C109.901 99.0757 109.955 98.993 109.991 98.902C110.027 98.811 110.043 98.7136 110.04 98.6158V98.6158Z" fill="white"/>
<path d="M112.171 98.8506C112.176 98.9481 112.161 99.0456 112.127 99.1369C112.092 99.2282 112.039 99.3113 111.97 99.3808C111.902 99.4503 111.82 99.5046 111.729 99.5404C111.638 99.5762 111.541 99.5925 111.444 99.5885C111.344 99.5934 111.245 99.5737 111.155 99.531C111.065 99.4884 110.987 99.4242 110.927 99.3441V99.5744H110.674V97.5439H110.937V98.343C110.997 98.2676 111.075 98.2076 111.163 98.1676C111.251 98.1276 111.347 98.1088 111.444 98.1127C111.541 98.1086 111.638 98.1249 111.729 98.1607C111.82 98.1965 111.902 98.2508 111.97 98.3203C112.039 98.3898 112.092 98.4729 112.127 98.5642C112.161 98.6555 112.176 98.7531 112.171 98.8506V98.8506ZM111.908 98.8506C111.901 98.7596 111.867 98.6727 111.811 98.6005C111.756 98.5283 111.68 98.4739 111.594 98.444C111.508 98.4142 111.415 98.4101 111.326 98.4322C111.238 98.4544 111.158 98.5018 111.096 98.5688C111.034 98.6358 110.993 98.7194 110.978 98.8094C110.962 98.8994 110.974 98.9919 111.01 99.0756C111.046 99.1594 111.106 99.2307 111.182 99.2808C111.259 99.331 111.348 99.3579 111.439 99.3582C111.505 99.361 111.572 99.3497 111.633 99.325C111.695 99.3002 111.751 99.2626 111.797 99.2146C111.843 99.1666 111.879 99.1093 111.901 99.0466C111.924 98.9838 111.932 98.917 111.927 98.8506H111.908Z" fill="white"/>
<path d="M112.054 100.03L112.138 99.8281C112.199 99.8769 112.276 99.902 112.354 99.8986C112.49 99.8986 112.57 99.8093 112.57 99.6448V98.1267H112.828V99.6401C112.834 99.7033 112.826 99.7669 112.804 99.8266C112.783 99.8862 112.748 99.9404 112.703 99.9853C112.659 100.03 112.605 100.065 112.545 100.086C112.485 100.108 112.422 100.116 112.359 100.11C112.251 100.116 112.145 100.088 112.054 100.03V100.03ZM112.523 97.6802C112.523 97.6576 112.528 97.6352 112.536 97.6143C112.545 97.5935 112.558 97.5746 112.574 97.5589C112.59 97.5431 112.61 97.5307 112.631 97.5225C112.652 97.5143 112.674 97.5104 112.697 97.511C112.719 97.5097 112.742 97.513 112.763 97.5207C112.784 97.5283 112.804 97.5401 112.821 97.5555C112.837 97.5708 112.851 97.5894 112.86 97.61C112.869 97.6306 112.874 97.6529 112.875 97.6755C112.876 97.6989 112.872 97.7222 112.863 97.744C112.854 97.7657 112.841 97.7854 112.824 97.8017C112.807 97.8181 112.787 97.8307 112.765 97.8389C112.743 97.8472 112.72 97.8507 112.697 97.8494C112.674 97.8508 112.65 97.8472 112.629 97.839C112.607 97.8307 112.587 97.8179 112.571 97.8015C112.554 97.7851 112.542 97.7654 112.533 97.7436C112.525 97.7219 112.522 97.6987 112.523 97.6755V97.6802Z" fill="white"/>
<path d="M114.63 98.9356H113.457C113.463 98.9983 113.481 99.0593 113.511 99.1147C113.54 99.1702 113.581 99.2192 113.63 99.2586C113.679 99.2981 113.736 99.3273 113.796 99.3444C113.857 99.3616 113.92 99.3664 113.982 99.3586C114.06 99.3613 114.138 99.3472 114.21 99.3172C114.282 99.2872 114.347 99.242 114.4 99.1847L114.546 99.3539C114.438 99.4614 114.302 99.5358 114.154 99.5682C114.006 99.6006 113.851 99.5896 113.709 99.5367C113.566 99.4837 113.442 99.3909 113.351 99.2694C113.26 99.1479 113.205 99.0026 113.194 98.851C113.19 98.7539 113.206 98.6569 113.241 98.5663C113.276 98.4756 113.33 98.3931 113.398 98.3239C113.466 98.2547 113.548 98.2003 113.638 98.164C113.728 98.1278 113.824 98.1104 113.921 98.1131C114.018 98.1102 114.115 98.1277 114.204 98.1644C114.294 98.2011 114.375 98.2562 114.442 98.3261C114.51 98.3961 114.561 98.4793 114.595 98.5705C114.628 98.6617 114.641 98.7589 114.635 98.8557C114.636 98.8824 114.634 98.9092 114.63 98.9356ZM113.457 98.7476H114.395C114.395 98.623 114.346 98.5034 114.258 98.4153C114.17 98.3271 114.051 98.2776 113.926 98.2776C113.802 98.2776 113.682 98.3271 113.594 98.4153C113.506 98.5034 113.457 98.623 113.457 98.7476Z" fill="white"/>
<path d="M114.864 98.8506C114.862 98.7507 114.881 98.6514 114.919 98.5591C114.957 98.4667 115.014 98.3832 115.086 98.3139C115.157 98.2446 115.243 98.1909 115.336 98.1563C115.43 98.1217 115.53 98.1068 115.629 98.1127C115.746 98.1051 115.862 98.1296 115.965 98.1834C116.069 98.2373 116.155 98.3185 116.216 98.4182L116.019 98.5498C115.976 98.4844 115.917 98.4309 115.849 98.394C115.78 98.357 115.703 98.3379 115.625 98.3383C115.498 98.3505 115.381 98.4094 115.295 98.5037C115.209 98.598 115.162 98.7208 115.162 98.8482C115.162 98.9756 115.209 99.0984 115.295 99.1927C115.381 99.287 115.498 99.346 115.625 99.3582C115.702 99.359 115.779 99.3406 115.848 99.3045C115.917 99.2684 115.975 99.2158 116.019 99.1514L116.216 99.2783C116.156 99.3785 116.069 99.4603 115.966 99.515C115.862 99.5696 115.746 99.595 115.629 99.5885C115.53 99.5936 115.431 99.5783 115.337 99.5434C115.244 99.5085 115.159 99.4548 115.087 99.3856C115.015 99.3165 114.959 99.2333 114.92 99.1412C114.882 99.0492 114.863 98.9503 114.864 98.8506V98.8506Z" fill="white"/>
<path d="M117.39 99.49C117.297 99.5574 117.185 99.5921 117.071 99.5887C117.007 99.5992 116.941 99.5944 116.879 99.5745C116.817 99.5546 116.761 99.5203 116.715 99.4743C116.67 99.4284 116.635 99.3722 116.615 99.3103C116.596 99.2485 116.591 99.1828 116.601 99.1187V98.3197H116.353V98.1082H116.601V97.7886H116.864V98.1082H117.277V98.3197H116.864V99.1046C116.859 99.1362 116.861 99.1686 116.87 99.1992C116.88 99.2299 116.896 99.258 116.917 99.2816C116.939 99.3051 116.966 99.3234 116.996 99.3351C117.025 99.3468 117.058 99.3515 117.089 99.349C117.162 99.3504 117.233 99.3272 117.291 99.2832L117.39 99.49Z" fill="white"/>
<path d="M117.657 97.6758C117.658 97.653 117.663 97.6305 117.672 97.6096C117.682 97.5887 117.695 97.5699 117.711 97.5542C117.728 97.5385 117.747 97.5262 117.769 97.518C117.79 97.5099 117.813 97.506 117.836 97.5066C117.858 97.5053 117.881 97.5086 117.902 97.5163C117.923 97.5239 117.943 97.5358 117.96 97.5511C117.976 97.5664 117.99 97.585 117.999 97.6056C118.008 97.6262 118.013 97.6485 118.014 97.6711C118.014 97.7185 117.995 97.7639 117.962 97.7974C117.928 97.8309 117.883 97.8497 117.836 97.8497C117.788 97.8497 117.743 97.8309 117.709 97.7974C117.676 97.7639 117.657 97.7185 117.657 97.6711V97.6758ZM117.704 98.1458H117.967V99.5934H117.704V98.1458Z" fill="white"/>
<path d="M119.746 98.127L119.112 99.5746H118.845L118.211 98.127H118.488L118.957 99.2879L119.464 98.127H119.746Z" fill="white"/>
<path d="M121.252 98.9356H120.079C120.085 98.9983 120.103 99.0592 120.133 99.1147C120.163 99.1702 120.203 99.2191 120.252 99.2586C120.301 99.2981 120.358 99.3272 120.418 99.3444C120.479 99.3616 120.542 99.3664 120.604 99.3586C120.682 99.3613 120.76 99.3471 120.832 99.3171C120.904 99.2871 120.969 99.242 121.022 99.1847L121.163 99.3539C121.092 99.4332 121.004 99.4955 120.906 99.5362C120.807 99.5769 120.701 99.5949 120.595 99.5889C120.495 99.5961 120.394 99.5822 120.299 99.5482C120.204 99.5143 120.117 99.4609 120.044 99.3915C119.97 99.3221 119.912 99.2382 119.873 99.1452C119.834 99.0521 119.814 98.952 119.816 98.851C119.812 98.7538 119.828 98.6569 119.863 98.5663C119.898 98.4756 119.952 98.3931 120.02 98.3239C120.088 98.2547 120.17 98.2003 120.26 98.164C120.35 98.1278 120.446 98.1104 120.543 98.1131C120.64 98.1102 120.737 98.1277 120.826 98.1644C120.916 98.2011 120.997 98.2562 121.064 98.3261C121.132 98.3961 121.183 98.4793 121.217 98.5705C121.25 98.6617 121.263 98.7589 121.257 98.8557C121.258 98.8824 121.256 98.9091 121.252 98.9356ZM120.079 98.7476H121.018C121.018 98.6229 120.968 98.5034 120.88 98.4153C120.792 98.3271 120.673 98.2776 120.548 98.2776C120.424 98.2776 120.304 98.3271 120.216 98.4153C120.128 98.5034 120.079 98.6229 120.079 98.7476Z" fill="white"/>
<path d="M117.287 54.4169C117.291 53.8743 117.17 53.338 116.932 52.8502C116.695 52.3623 116.348 51.9361 115.919 51.6048C115.49 51.2736 114.99 51.0464 114.458 50.941C113.927 50.8356 113.378 50.8548 112.855 50.9972C112.332 51.1396 111.849 51.4013 111.444 51.7618C111.039 52.1223 110.723 52.5718 110.52 53.0751C110.318 53.5784 110.234 54.1218 110.276 54.6628C110.318 55.2038 110.485 55.7278 110.763 56.1935V56.1935C110.899 56.4191 111.068 56.5836 111.232 56.8233L113.274 59.5258C113.333 59.6046 113.409 59.6686 113.497 59.7127C113.585 59.7567 113.682 59.7796 113.781 59.7796C113.879 59.7796 113.976 59.7567 114.064 59.7127C114.152 59.6686 114.229 59.6046 114.288 59.5258L116.292 56.8656C116.475 56.6499 116.646 56.4239 116.803 56.1888V56.1888C117.119 55.6517 117.286 55.0401 117.287 54.4169V54.4169ZM113.776 55.9303C113.47 55.9313 113.17 55.8411 112.914 55.6712C112.659 55.5014 112.46 55.2595 112.342 54.9761C112.224 54.6928 112.193 54.3808 112.252 54.0796C112.311 53.7785 112.458 53.5017 112.675 53.2843C112.891 53.0669 113.167 52.9187 113.468 52.8585C113.768 52.7983 114.08 52.8287 114.363 52.946C114.646 53.0632 114.889 53.262 115.059 53.5172C115.229 53.7723 115.32 54.0724 115.32 54.3793C115.32 54.7899 115.158 55.1837 114.868 55.4744C114.579 55.7651 114.186 55.9291 113.776 55.9303V55.9303Z" fill="#EF8B45"/>
<path d="M94.542 193.006H93.8896V192.766H95.4666V193.006H94.8048V194.679H94.5326L94.542 193.006Z" fill="#263238"/>
<path d="M95.4438 193.956C95.4419 193.807 95.4843 193.661 95.5654 193.536C95.6466 193.411 95.763 193.313 95.8997 193.255C96.0365 193.196 96.1875 193.18 96.3337 193.207C96.4798 193.235 96.6145 193.305 96.7206 193.41C96.8268 193.514 96.8996 193.647 96.9299 193.793C96.9602 193.939 96.9465 194.091 96.8907 194.229C96.8349 194.367 96.7394 194.485 96.6163 194.569C96.4932 194.652 96.3481 194.697 96.1994 194.698C96.1 194.704 96.0006 194.688 95.9074 194.653C95.8143 194.618 95.7295 194.563 95.6585 194.494C95.5874 194.424 95.5316 194.34 95.4947 194.247C95.4577 194.155 95.4404 194.055 95.4438 193.956V193.956ZM96.6828 193.956C96.6828 193.827 96.6317 193.703 96.5406 193.612C96.4495 193.521 96.3259 193.469 96.1971 193.469C96.0682 193.469 95.9447 193.521 95.8536 193.612C95.7625 193.703 95.7113 193.827 95.7113 193.956C95.7113 194.085 95.7625 194.208 95.8536 194.3C95.9447 194.391 96.0682 194.442 96.1971 194.442C96.3259 194.442 96.4495 194.391 96.5406 194.3C96.6317 194.208 96.6828 194.085 96.6828 193.956Z" fill="#263238"/>
<path d="M98.1235 194.581C98.0347 194.652 97.923 194.689 97.8091 194.684C97.7453 194.694 97.6801 194.688 97.6188 194.668C97.5575 194.647 97.5018 194.613 97.4562 194.567C97.4106 194.522 97.3763 194.466 97.3561 194.405C97.3358 194.343 97.3302 194.278 97.3397 194.214V193.42H97.0957V193.204H97.3397V192.889H97.6213V193.204H98.0344V193.42H97.6213V194.205C97.6163 194.236 97.6184 194.269 97.6277 194.299C97.6369 194.33 97.653 194.358 97.6747 194.382C97.6964 194.405 97.7231 194.423 97.7529 194.435C97.7827 194.447 97.8147 194.452 97.8466 194.449C97.9212 194.448 97.9935 194.423 98.0531 194.379L98.1235 194.581Z" fill="#263238"/>
<path d="M99.5881 193.805V194.679H99.3393V194.491C99.2838 194.561 99.212 194.617 99.1302 194.653C99.0485 194.689 98.9591 194.704 98.87 194.698C98.5415 194.698 98.335 194.524 98.335 194.27C98.335 194.016 98.4851 193.847 98.9122 193.847H99.3299V193.795C99.3299 193.575 99.2032 193.443 98.9404 193.443C98.7698 193.437 98.603 193.494 98.4711 193.603L98.3584 193.405C98.5311 193.275 98.7433 193.209 98.9592 193.217C99.0413 193.203 99.1255 193.208 99.2053 193.232C99.2852 193.256 99.3584 193.298 99.4193 193.355C99.4802 193.412 99.5271 193.482 99.5564 193.56C99.5857 193.638 99.5965 193.722 99.5881 193.805V193.805ZM99.3252 194.237V194.035H98.9216C98.6635 194.035 98.5884 194.139 98.5884 194.261C98.5884 194.383 98.7057 194.496 98.9075 194.496C98.9955 194.502 99.0833 194.481 99.1583 194.435C99.2334 194.388 99.2918 194.319 99.3252 194.237V194.237Z" fill="#263238"/>
<path d="M100.071 192.653H100.334V194.679H100.071V192.653Z" fill="#263238"/>
<path d="M102.93 192.653V194.679H102.681V194.449C102.622 194.529 102.544 194.594 102.454 194.637C102.364 194.681 102.265 194.701 102.165 194.698C101.979 194.683 101.806 194.599 101.679 194.461C101.553 194.324 101.482 194.144 101.482 193.958C101.482 193.771 101.553 193.591 101.679 193.454C101.806 193.317 101.979 193.232 102.165 193.217C102.262 193.213 102.359 193.232 102.447 193.273C102.535 193.314 102.612 193.376 102.672 193.452V192.653H102.93ZM102.672 193.955C102.664 193.865 102.629 193.778 102.573 193.707C102.517 193.635 102.441 193.581 102.355 193.552C102.269 193.523 102.176 193.52 102.088 193.542C102 193.565 101.92 193.613 101.859 193.68C101.797 193.747 101.756 193.83 101.742 193.92C101.727 194.01 101.738 194.102 101.774 194.186C101.811 194.269 101.871 194.34 101.947 194.39C102.023 194.44 102.112 194.467 102.203 194.467C102.268 194.468 102.333 194.454 102.392 194.428C102.452 194.402 102.506 194.363 102.55 194.315C102.594 194.267 102.628 194.21 102.649 194.148C102.67 194.086 102.678 194.02 102.672 193.955V193.955Z" fill="#263238"/>
<path d="M103.38 192.785C103.38 192.762 103.385 192.739 103.394 192.717C103.403 192.696 103.416 192.677 103.432 192.66C103.449 192.644 103.469 192.632 103.49 192.623C103.512 192.615 103.535 192.611 103.558 192.611C103.583 192.607 103.609 192.608 103.633 192.615C103.657 192.622 103.68 192.634 103.699 192.65C103.718 192.666 103.734 192.687 103.744 192.71C103.755 192.733 103.76 192.758 103.76 192.783C103.76 192.808 103.755 192.833 103.744 192.856C103.734 192.879 103.718 192.899 103.699 192.915C103.68 192.932 103.657 192.944 103.633 192.95C103.609 192.957 103.583 192.958 103.558 192.954C103.535 192.955 103.513 192.951 103.491 192.943C103.47 192.935 103.451 192.922 103.434 192.907C103.417 192.891 103.404 192.872 103.395 192.851C103.386 192.83 103.38 192.808 103.38 192.785V192.785ZM103.427 193.232H103.69V194.679H103.427V193.232Z" fill="#263238"/>
<path d="M104.004 194.529L104.117 194.318C104.267 194.417 104.443 194.469 104.623 194.468C104.867 194.468 104.966 194.398 104.966 194.275C104.966 193.946 104.027 194.228 104.027 193.655C104.027 193.392 104.262 193.218 104.633 193.218C104.816 193.216 104.997 193.261 105.158 193.349L105.046 193.556C104.92 193.479 104.775 193.44 104.628 193.443C104.398 193.443 104.29 193.528 104.29 193.641C104.29 193.984 105.229 193.707 105.229 194.266C105.229 194.529 104.989 194.698 104.605 194.698C104.392 194.703 104.183 194.644 104.004 194.529V194.529Z" fill="#263238"/>
<path d="M106.369 194.581C106.279 194.653 106.166 194.69 106.05 194.684C105.986 194.694 105.921 194.688 105.86 194.668C105.799 194.647 105.743 194.613 105.697 194.567C105.652 194.522 105.617 194.466 105.597 194.405C105.577 194.343 105.571 194.278 105.581 194.214V193.42H105.332V193.204H105.6V192.889H105.862V193.204H106.275V193.42H105.862V194.205C105.857 194.236 105.859 194.269 105.869 194.299C105.878 194.33 105.894 194.358 105.916 194.382C105.937 194.405 105.964 194.423 105.994 194.435C106.024 194.447 106.056 194.452 106.088 194.449C106.161 194.449 106.232 194.424 106.289 194.379L106.369 194.581Z" fill="#263238"/>
<path d="M107.834 193.805V194.679H107.585V194.491C107.53 194.561 107.458 194.616 107.376 194.652C107.294 194.688 107.205 194.704 107.116 194.698C106.792 194.698 106.581 194.524 106.581 194.27C106.581 194.016 106.731 193.847 107.163 193.847H107.581V193.795C107.581 193.574 107.449 193.443 107.191 193.443C107.021 193.439 106.855 193.496 106.722 193.603L106.614 193.405C106.787 193.275 106.999 193.209 107.215 193.217C107.296 193.205 107.379 193.211 107.458 193.235C107.536 193.26 107.608 193.302 107.668 193.359C107.728 193.416 107.774 193.485 107.803 193.563C107.832 193.64 107.842 193.723 107.834 193.805V193.805ZM107.571 194.237V194.035H107.168C106.905 194.035 106.834 194.138 106.834 194.261C106.834 194.383 106.952 194.496 107.154 194.496C107.242 194.502 107.329 194.481 107.404 194.434C107.479 194.388 107.538 194.319 107.571 194.237V194.237Z" fill="#263238"/>
<path d="M109.688 193.847V194.679H109.43V193.875C109.43 193.593 109.285 193.452 109.036 193.452C108.973 193.447 108.909 193.455 108.85 193.476C108.79 193.498 108.736 193.532 108.691 193.577C108.646 193.622 108.612 193.676 108.59 193.736C108.569 193.796 108.561 193.859 108.567 193.922V194.665H108.304V193.217H108.552V193.438C108.615 193.36 108.695 193.297 108.787 193.256C108.878 193.216 108.978 193.197 109.078 193.203C109.163 193.194 109.249 193.205 109.33 193.235C109.41 193.264 109.483 193.312 109.542 193.375C109.601 193.437 109.645 193.512 109.67 193.594C109.695 193.676 109.702 193.762 109.688 193.847V193.847Z" fill="#263238"/>
<path d="M110.049 193.955C110.047 193.856 110.065 193.756 110.104 193.664C110.142 193.572 110.198 193.488 110.27 193.419C110.342 193.349 110.427 193.296 110.521 193.261C110.615 193.227 110.714 193.212 110.814 193.218C110.931 193.211 111.048 193.237 111.152 193.291C111.256 193.346 111.344 193.428 111.405 193.528L111.204 193.655C111.16 193.59 111.101 193.538 111.032 193.501C110.964 193.465 110.887 193.447 110.809 193.448C110.683 193.46 110.565 193.519 110.48 193.613C110.394 193.708 110.347 193.83 110.347 193.958C110.347 194.085 110.394 194.208 110.48 194.302C110.565 194.397 110.683 194.456 110.809 194.468C110.887 194.469 110.964 194.45 111.032 194.414C111.101 194.378 111.16 194.325 111.204 194.261L111.405 194.383C111.344 194.484 111.257 194.566 111.153 194.622C111.049 194.677 110.932 194.704 110.814 194.698C110.714 194.703 110.614 194.688 110.521 194.653C110.427 194.617 110.342 194.563 110.27 194.494C110.198 194.424 110.142 194.34 110.104 194.248C110.065 194.155 110.047 194.056 110.049 193.955V193.955Z" fill="#263238"/>
<path d="M113.02 194.045H111.846C111.852 194.107 111.871 194.168 111.9 194.224C111.93 194.279 111.971 194.328 112.02 194.368C112.069 194.407 112.125 194.436 112.186 194.454C112.246 194.471 112.31 194.476 112.372 194.468C112.45 194.47 112.528 194.456 112.6 194.426C112.672 194.396 112.737 194.351 112.79 194.294L112.935 194.463C112.862 194.541 112.773 194.603 112.675 194.643C112.576 194.684 112.469 194.703 112.363 194.698C112.262 194.705 112.16 194.691 112.065 194.657C111.97 194.623 111.883 194.569 111.809 194.499C111.736 194.429 111.678 194.345 111.639 194.251C111.6 194.158 111.581 194.057 111.584 193.955C111.58 193.858 111.596 193.761 111.631 193.671C111.666 193.58 111.719 193.498 111.787 193.428C111.856 193.359 111.937 193.305 112.027 193.269C112.117 193.232 112.214 193.215 112.311 193.218C112.408 193.215 112.505 193.232 112.595 193.269C112.685 193.306 112.767 193.362 112.834 193.432C112.901 193.503 112.953 193.587 112.986 193.678C113.019 193.77 113.032 193.868 113.024 193.965C113.025 193.992 113.024 194.018 113.02 194.045V194.045ZM111.846 193.857H112.785C112.785 193.732 112.736 193.613 112.648 193.524C112.56 193.436 112.44 193.387 112.316 193.387C112.191 193.387 112.072 193.436 111.984 193.524C111.896 193.613 111.846 193.732 111.846 193.857Z" fill="#263238"/>
<path d="M96.2604 196.827V201.386H95.2044V197.673H94.2939V196.827H96.2604Z" fill="#263238"/>
<path d="M98.2829 200.803C98.2729 201.029 98.2136 201.251 98.1093 201.452L97.7338 202.392H97.0908L97.3771 201.358C97.2683 201.313 97.1761 201.236 97.113 201.137C97.05 201.037 97.0193 200.921 97.0251 200.803C97.0251 200.636 97.0914 200.476 97.2093 200.358C97.3273 200.24 97.4872 200.173 97.654 200.173C97.8208 200.173 97.9808 200.24 98.0987 200.358C98.2167 200.476 98.2829 200.636 98.2829 200.803Z" fill="#263238"/>
<path d="M100.437 196.827V201.386H99.3578V197.673H98.4473V196.827H100.437Z" fill="#263238"/>
<path d="M101.207 199.107C101.207 197.603 102.038 196.757 103.159 196.757C104.281 196.757 105.112 197.612 105.112 199.107C105.112 200.601 104.286 201.457 103.159 201.457C102.033 201.457 101.207 200.611 101.207 199.107ZM104.051 199.107C104.051 198.073 103.685 197.64 103.159 197.64C102.634 197.64 102.272 198.073 102.272 199.107C102.272 200.141 102.638 200.573 103.159 200.573C103.68 200.573 104.051 200.146 104.051 199.107Z" fill="#263238"/>
<path d="M105.623 199.107C105.623 197.603 106.458 196.757 107.58 196.757C108.702 196.757 109.533 197.612 109.533 199.107C109.533 200.601 108.707 201.457 107.58 201.457C106.454 201.457 105.623 200.611 105.623 199.107ZM108.472 199.107C108.472 198.073 108.106 197.64 107.58 197.64C107.055 197.64 106.693 198.073 106.693 199.107C106.693 200.141 107.059 200.573 107.58 200.573C108.101 200.573 108.472 200.146 108.472 199.107Z" fill="#263238"/>
<path d="M118.019 199.379V201.386H117.005V199.539C117.005 198.97 116.752 198.707 116.339 198.707C115.926 198.707 115.564 199.003 115.564 199.647V201.405H114.551V199.558C114.551 198.989 114.311 198.726 113.889 198.726C113.467 198.726 113.119 199.022 113.119 199.666V201.424H112.105V197.87H113.072V198.275C113.21 198.12 113.381 197.997 113.571 197.916C113.762 197.835 113.968 197.797 114.175 197.805C114.4 197.793 114.624 197.839 114.825 197.94C115.027 198.04 115.199 198.191 115.325 198.378C115.478 198.193 115.672 198.045 115.89 197.945C116.109 197.846 116.347 197.798 116.588 197.805C117.423 197.828 118.019 198.312 118.019 199.379Z" fill="#263238"/>
<path d="M91.4935 197.359C91.99 195.244 90.6804 193.126 88.5684 192.629C86.4565 192.132 84.3419 193.443 83.8453 195.558C83.3488 197.673 84.6584 199.791 86.7703 200.288C88.8823 200.785 90.9969 199.474 91.4935 197.359Z" fill="#EF8B45"/>
<path d="M86.0855 197.184C86.4196 197.136 86.7571 197.116 87.0946 197.123C87.7376 197.123 88.6575 197.09 89.7557 197.081L89.6759 197.255C89.3615 196.897 89.0282 196.503 88.6716 196.094L88.6105 196.023L88.6716 195.943L89.6619 194.707L89.7557 194.905H89.2864H86.062L86.1747 194.797C86.1747 195.99 86.1465 196.996 86.1278 197.701C86.1356 198.074 86.1136 198.446 86.062 198.815C86.0135 198.446 85.9915 198.074 85.9963 197.701C85.9963 196.996 85.9635 195.99 85.9541 194.797V194.688H86.062H89.2864H89.9857L89.8261 194.886L88.8264 196.122V195.972L89.812 197.147L89.9622 197.32H89.7323C88.634 197.32 87.7141 197.292 87.0711 197.278C86.7405 197.275 86.4107 197.244 86.0855 197.184V197.184Z" fill="#FAFAFA"/>
<path d="M151.228 189.753H139.354C138.751 189.753 138.172 189.994 137.745 190.421C137.318 190.849 137.078 191.428 137.078 192.033V201.395C137.079 201.999 137.32 202.578 137.746 203.004C138.173 203.431 138.752 203.67 139.354 203.67H139.655V205.903L142.241 203.67H151.228C151.831 203.67 152.41 203.431 152.836 203.004C153.263 202.578 153.504 201.999 153.505 201.395V192.033C153.505 191.428 153.265 190.849 152.838 190.421C152.411 189.994 151.832 189.753 151.228 189.753V189.753Z" fill="#EF8B45"/>
<path d="M140.485 194.049V198.853C140.485 198.903 140.505 198.95 140.54 198.986C140.576 199.021 140.623 199.041 140.673 199.041H150.726C150.751 199.04 150.775 199.035 150.798 199.025C150.82 199.015 150.841 199 150.858 198.982C150.875 198.965 150.888 198.943 150.897 198.92C150.906 198.897 150.91 198.873 150.909 198.848L150.886 197.09C150.886 197.052 150.875 197.014 150.853 196.982L149.407 195.05C149.391 195.027 149.369 195.008 149.344 194.995C149.318 194.982 149.29 194.975 149.262 194.975H147.6C147.551 194.975 147.504 194.956 147.469 194.922C147.434 194.888 147.414 194.841 147.413 194.792V194.063C147.413 194.039 147.409 194.015 147.4 193.992C147.391 193.969 147.378 193.948 147.361 193.931C147.344 193.913 147.323 193.899 147.301 193.89C147.278 193.88 147.254 193.875 147.23 193.875H140.659C140.614 193.879 140.572 193.898 140.54 193.93C140.508 193.962 140.489 194.004 140.485 194.049V194.049Z" fill="#FAFAFA"/>
<path d="M147.882 195.384V196.931C147.882 196.959 147.893 196.987 147.914 197.007C147.934 197.027 147.961 197.039 147.99 197.039L150.21 197.001C150.229 197 150.248 196.994 150.264 196.984C150.28 196.973 150.293 196.959 150.302 196.941C150.311 196.924 150.314 196.905 150.313 196.886C150.312 196.866 150.305 196.848 150.294 196.832L149.248 195.29C149.238 195.275 149.225 195.263 149.21 195.255C149.194 195.246 149.176 195.242 149.159 195.243L147.976 195.276C147.949 195.279 147.925 195.291 147.907 195.311C147.89 195.331 147.881 195.358 147.882 195.384V195.384Z" fill="#EF8B45"/>
<path d="M151.111 199.187H140.283V199.52H151.111V199.187Z" fill="#FAFAFA"/>
<path d="M143.864 199.313C143.865 199.527 143.803 199.735 143.685 199.913C143.567 200.091 143.4 200.229 143.203 200.311C143.006 200.394 142.79 200.415 142.581 200.374C142.372 200.332 142.18 200.23 142.03 200.079C141.879 199.928 141.777 199.736 141.735 199.527C141.694 199.318 141.716 199.101 141.798 198.904C141.879 198.707 142.018 198.539 142.195 198.421C142.373 198.303 142.581 198.241 142.794 198.242C143.078 198.242 143.35 198.355 143.551 198.556C143.752 198.757 143.864 199.029 143.864 199.313Z" fill="#EF8B45"/>
<path d="M143.423 199.313C143.424 199.439 143.388 199.563 143.319 199.668C143.249 199.773 143.15 199.855 143.034 199.903C142.919 199.952 142.791 199.965 142.667 199.941C142.544 199.916 142.431 199.856 142.342 199.767C142.253 199.678 142.192 199.564 142.168 199.441C142.144 199.317 142.157 199.189 142.205 199.073C142.254 198.957 142.336 198.858 142.441 198.789C142.546 198.719 142.669 198.683 142.795 198.684C142.961 198.684 143.121 198.75 143.239 198.868C143.357 198.986 143.423 199.146 143.423 199.313Z" fill="#FAFAFA"/>
<path d="M147.408 199.041C147.38 199.041 147.356 197.88 147.356 196.452C147.356 195.023 147.356 193.862 147.408 193.862C147.46 193.862 147.455 195.023 147.455 196.452C147.455 197.88 147.432 199.041 147.408 199.041Z" fill="#EF8B45"/>
<path d="M149.717 199.313C149.717 199.525 149.655 199.732 149.537 199.909C149.419 200.085 149.252 200.222 149.057 200.303C148.861 200.384 148.646 200.406 148.438 200.364C148.231 200.323 148.04 200.221 147.891 200.071C147.741 199.921 147.639 199.73 147.598 199.522C147.556 199.314 147.578 199.099 147.659 198.903C147.74 198.707 147.877 198.54 148.053 198.422C148.229 198.305 148.436 198.242 148.647 198.242C148.931 198.242 149.203 198.355 149.404 198.556C149.605 198.757 149.717 199.029 149.717 199.313Z" fill="#EF8B45"/>
<path d="M149.248 199.313C149.249 199.439 149.212 199.562 149.143 199.667C149.074 199.772 148.976 199.854 148.86 199.903C148.744 199.952 148.617 199.965 148.493 199.941C148.37 199.917 148.257 199.857 148.168 199.768C148.079 199.68 148.018 199.567 147.993 199.444C147.968 199.32 147.98 199.193 148.028 199.076C148.076 198.96 148.157 198.861 148.262 198.791C148.366 198.721 148.489 198.684 148.614 198.684C148.781 198.684 148.942 198.75 149.06 198.868C149.179 198.986 149.246 199.146 149.248 199.313V199.313Z" fill="#FAFAFA"/>
<path d="M148.633 197.334C148.633 197.363 148.479 197.381 148.291 197.381C148.103 197.381 147.948 197.381 147.948 197.334C147.948 197.287 148.103 197.283 148.291 197.283C148.479 197.283 148.633 197.306 148.633 197.334Z" fill="#EF8B45"/>
<path d="M260.64 118.501C260.64 118.501 268.21 119.779 268.821 119.944C269.431 120.108 271.829 121.246 271.951 121.979C272.014 122.941 272.014 123.907 271.951 124.869C271.951 124.869 271.515 125.222 271.247 124.517C271.068 123.832 270.99 123.124 271.017 122.416L269.675 121.899L270.407 123.201L270.529 126.251C270.529 126.251 269.59 126.167 269.407 125.438C269.292 124.931 269.232 124.412 269.229 123.892L268.253 123.065L268.985 124.056L269.229 126.251C269.229 126.251 268.516 126.486 268.29 125.997C268.125 125.364 268.043 124.711 268.046 124.056L265.287 123.088L263.461 124.108L260.049 122.2L260.64 118.501Z" fill="#FFBE9D"/>
<path d="M234.132 99.7617C234.17 99.9121 243.256 112.452 243.256 112.452L261.513 118.139L260.682 125.005L238.309 120.493L230.368 111.366L234.132 99.7617Z" fill="#EF8B45"/>
<g opacity="0.2">
<path opacity="0.2" d="M234.132 99.7617C234.17 99.9121 243.256 112.452 243.256 112.452L261.513 118.139L260.682 125.005L238.309 120.493L230.368 111.366L234.132 99.7617Z" fill="black"/>
</g>
<path d="M202.33 117.006H165.027C164.237 117.006 163.596 117.648 163.596 118.44V122.853C163.596 123.645 164.237 124.287 165.027 124.287H202.33C203.12 124.287 203.761 123.645 203.761 122.853V118.44C203.761 117.648 203.12 117.006 202.33 117.006Z" fill="#F5F5F5"/>
<path d="M202.335 124.286C202.335 124.286 202.415 124.286 202.569 124.253C202.868 124.198 203.141 124.048 203.347 123.825C203.553 123.603 203.682 123.319 203.715 123.017C203.715 122.575 203.715 122.049 203.715 121.466C203.715 120.883 203.715 120.23 203.715 119.52C203.715 119.163 203.715 118.792 203.715 118.406C203.708 118.216 203.664 118.028 203.583 117.855C203.502 117.682 203.387 117.528 203.245 117.401C203.091 117.27 202.91 117.175 202.715 117.123C202.507 117.078 202.293 117.064 202.081 117.081H200.711H197.731L165.06 117.119C164.878 117.118 164.697 117.156 164.53 117.23C164.362 117.304 164.212 117.411 164.089 117.546C163.967 117.683 163.874 117.843 163.816 118.017C163.758 118.19 163.736 118.374 163.751 118.557C163.751 119.346 163.751 120.131 163.751 120.907V122.669C163.742 122.849 163.758 123.03 163.798 123.205C163.868 123.459 164.012 123.687 164.212 123.858C164.412 124.03 164.658 124.138 164.92 124.169C165.084 124.169 165.286 124.169 165.473 124.169H174.147L188.832 124.197L198.735 124.234L201.429 124.258H202.128H202.368H202.128H201.429L198.735 124.281L188.832 124.319L174.147 124.347H165.441C165.248 124.347 165.07 124.347 164.859 124.347C164.654 124.323 164.457 124.259 164.277 124.159C164.097 124.059 163.939 123.925 163.812 123.764C163.685 123.602 163.59 123.417 163.535 123.219C163.484 123.023 163.465 122.82 163.479 122.618V120.874C163.479 120.098 163.479 119.314 163.479 118.524C163.466 118.311 163.496 118.097 163.566 117.896C163.636 117.694 163.745 117.508 163.887 117.349C164.032 117.188 164.21 117.06 164.408 116.972C164.606 116.885 164.82 116.84 165.037 116.841L197.707 116.879H202.058C202.283 116.87 202.509 116.889 202.729 116.935C202.944 116.994 203.143 117.1 203.311 117.246C203.47 117.383 203.598 117.553 203.688 117.743C203.777 117.933 203.827 118.14 203.832 118.35C203.832 118.735 203.832 119.111 203.832 119.469C203.832 120.178 203.832 120.827 203.832 121.414C203.832 122.002 203.832 122.514 203.808 122.975C203.757 123.365 203.552 123.718 203.241 123.957C203.051 124.1 202.828 124.192 202.593 124.225C202.511 124.259 202.424 124.28 202.335 124.286Z" fill="#263238"/>
<path d="M303.619 217.316C314.206 216.807 322.376 207.8 321.867 197.198C321.359 186.596 312.364 178.414 301.777 178.924C291.191 179.433 283.021 188.44 283.529 199.042C284.038 209.644 293.032 217.825 303.619 217.316Z" fill="#263238"/>
<path d="M283.515 197.795C283.515 197.795 283.515 197.828 283.515 197.847C283.473 202.923 285.438 207.811 288.982 211.441C292.525 215.072 297.36 217.151 302.429 217.224C307.498 217.298 312.39 215.359 316.037 211.832C319.684 208.306 321.789 203.477 321.893 198.401C321.893 198.401 321.893 198.368 321.893 198.35L283.515 197.795Z" fill="#263238"/>
<path d="M289.227 197.926C289.188 200.595 289.941 203.215 291.389 205.455C292.837 207.696 294.917 209.456 297.364 210.513C299.811 211.57 302.516 211.876 305.137 211.393C307.759 210.911 310.178 209.66 312.089 207.801C314.001 205.941 315.319 203.555 315.876 200.945C316.434 198.336 316.206 195.619 315.222 193.139C314.238 190.658 312.541 188.526 310.347 187.012C308.152 185.497 305.559 184.668 302.894 184.63C299.321 184.578 295.874 185.95 293.311 188.444C290.748 190.937 289.279 194.348 289.227 197.926V197.926Z" fill="#FAFAFA"/>
<path d="M302.895 184.63C299.322 184.578 295.874 185.95 293.311 188.444C290.748 190.937 289.279 194.348 289.228 197.926L316.172 198.316C316.223 194.738 314.853 191.286 312.363 188.72C309.874 186.153 306.467 184.682 302.895 184.63Z" fill="#E0E0E0"/>
<path d="M294.493 198.001C294.469 199.627 294.927 201.223 295.809 202.589C296.691 203.954 297.958 205.026 299.449 205.67C300.939 206.314 302.587 206.501 304.184 206.208C305.781 205.914 307.255 205.152 308.42 204.019C309.585 202.887 310.388 201.433 310.728 199.843C311.067 198.253 310.929 196.598 310.329 195.087C309.73 193.576 308.696 192.277 307.359 191.354C306.023 190.432 304.443 189.927 302.819 189.903C300.643 189.872 298.543 190.707 296.982 192.226C295.42 193.744 294.525 195.822 294.493 198.001V198.001Z" fill="#263238"/>
<path d="M293.592 169.942C293.592 169.942 313.238 163.992 321.363 185.368L280.249 198.123L293.592 169.942Z" fill="#2D2723"/>
<path d="M185.216 217.317C195.802 216.808 203.972 207.801 203.464 197.199C202.955 186.597 193.961 178.416 183.374 178.925C172.787 179.434 164.617 188.442 165.126 199.043C165.634 209.645 174.629 217.827 185.216 217.317Z" fill="#263238"/>
<path d="M165.107 197.795C165.107 197.795 165.107 197.828 165.107 197.847C165.065 202.923 167.03 207.811 170.573 211.441C174.117 215.072 178.951 217.151 184.021 217.224C189.09 217.298 193.982 215.359 197.629 211.832C201.276 208.306 203.381 203.477 203.485 198.401V198.34L165.107 197.795Z" fill="#263238"/>
<path d="M170.837 197.926C170.799 200.595 171.551 203.215 172.999 205.455C174.448 207.696 176.527 209.456 178.974 210.513C181.421 211.57 184.127 211.876 186.748 211.393C189.369 210.911 191.788 209.66 193.7 207.801C195.611 205.941 196.929 203.555 197.487 200.945C198.044 198.336 197.817 195.619 196.832 193.139C195.848 190.658 194.152 188.526 191.957 187.012C189.763 185.497 187.169 184.668 184.504 184.63C180.931 184.578 177.484 185.95 174.921 188.444C172.358 190.937 170.889 194.348 170.837 197.926V197.926Z" fill="#FAFAFA"/>
<path d="M184.486 184.63C180.916 184.583 177.474 185.957 174.915 188.45C172.356 190.943 170.89 194.351 170.838 197.926L197.782 198.316C197.808 196.543 197.484 194.782 196.829 193.134C196.175 191.486 195.202 189.984 193.967 188.713C192.732 187.442 191.259 186.427 189.633 185.726C188.006 185.025 186.257 184.653 184.486 184.63Z" fill="#E0E0E0"/>
<path d="M176.085 198.001C176.061 199.627 176.519 201.223 177.401 202.589C178.283 203.954 179.55 205.026 181.04 205.67C182.531 206.314 184.179 206.501 185.776 206.208C187.373 205.914 188.847 205.152 190.012 204.019C191.176 202.887 191.98 201.433 192.319 199.843C192.659 198.253 192.521 196.598 191.921 195.087C191.322 193.576 190.288 192.277 188.951 191.354C187.614 190.432 186.034 189.927 184.411 189.903C182.235 189.872 180.135 190.707 178.573 192.226C177.012 193.744 176.117 195.822 176.085 198.001V198.001Z" fill="#263238"/>
<path d="M211.59 190.406C211.482 190.463 201.49 188.86 201.49 188.86C200.95 189.566 200.262 190.146 199.475 190.558C198.688 190.97 197.82 191.206 196.933 191.247C192.615 191.454 188.396 191.647 184.73 191.811C183.093 191.885 181.551 192.605 180.442 193.815C179.334 195.024 178.749 196.624 178.817 198.265V198.265C178.883 199.821 179.531 201.297 180.632 202.397C181.734 203.498 183.208 204.143 184.763 204.205L206.038 205.047C209.535 205.183 214.181 203.059 216.363 200.318L211.59 190.406Z" fill="#455A64"/>
<path d="M159.376 181.89C159.376 181.89 158.466 163.16 176.042 159.259V156.857H237.609V162.62C237.609 162.62 228.575 173.519 231.508 182.566C234.441 191.614 235.38 192.54 235.38 192.54H270.421C273.186 188.648 274.727 184.018 274.846 179.244C275.034 171.301 271.739 157.722 269.275 149.041C267.051 141.122 265.643 134.523 265.643 134.523L276.156 131.012C276.156 131.012 295.61 156.51 296.403 157.92C297.196 159.33 299.899 162.695 299.266 170.017C298.632 177.34 281.131 199.928 276.541 202.476C271.951 205.023 267.802 205.183 263.667 205.817C260.081 206.372 233.554 206.005 226.613 205.897C224.201 205.882 221.836 205.225 219.761 203.994C217.686 202.734 216.128 200.647 214.406 197.226L210.731 190.063L159.376 181.89Z" fill="#2D2723"/>
<path d="M164.089 180.602L156.335 192.765C156.105 193.102 155.991 193.505 156.01 193.913C156.029 194.321 156.18 194.712 156.44 195.026C156.7 195.341 157.056 195.562 157.453 195.656C157.85 195.75 158.266 195.712 158.64 195.548C159.605 195.116 160.486 194.518 161.245 193.78C164.788 190.401 171.101 181.499 171.101 181.499L164.089 180.602Z" fill="#455A64"/>
<path d="M219.7 182.792C219.7 182.792 219.7 182.731 219.747 182.613L219.902 182.101C220.088 181.444 220.225 180.773 220.31 180.094C220.57 177.584 220.155 175.049 219.109 172.753C218.405 171.168 217.438 169.714 216.25 168.452C214.886 167.011 213.302 165.796 211.557 164.852C209.623 163.807 207.554 163.035 205.409 162.559C203.096 162.059 200.735 161.815 198.369 161.83C196.013 161.847 193.661 162.021 191.329 162.352C189.057 162.657 186.879 163.033 184.824 163.503C181.174 164.279 177.657 165.582 174.381 167.371C172.182 168.594 170.172 170.131 168.416 171.935C167.796 172.574 167.351 173.105 167.055 173.467L166.722 173.886C166.686 173.935 166.645 173.981 166.6 174.022C167.117 173.254 167.702 172.534 168.346 171.869C170.086 170.031 172.092 168.464 174.297 167.221C177.578 165.4 181.109 164.073 184.777 163.282C186.833 162.812 189.001 162.422 191.296 162.112C193.647 161.779 196.018 161.603 198.392 161.586C200.771 161.57 203.145 161.817 205.47 162.324C207.636 162.816 209.725 163.607 211.674 164.674C213.444 165.631 215.049 166.865 216.429 168.33C217.625 169.614 218.595 171.092 219.296 172.701C220.339 175.028 220.731 177.595 220.432 180.127C220.333 180.808 220.176 181.48 219.963 182.134C219.888 182.35 219.831 182.515 219.784 182.642C219.761 182.694 219.732 182.745 219.7 182.792V182.792Z" fill="#263238"/>
<path d="M216.156 178.599C216.128 178.599 216.255 178.303 216.386 177.767C216.562 176.996 216.586 176.198 216.457 175.417C216.274 174.27 215.886 173.165 215.311 172.156C214.986 171.551 214.606 170.979 214.176 170.445C213.725 169.864 213.214 169.333 212.65 168.861C211.552 167.955 210.316 167.232 208.99 166.718C207.904 166.291 206.778 165.976 205.629 165.778C204.852 165.646 204.069 165.557 203.283 165.51C202.994 165.506 202.705 165.484 202.419 165.444C202.494 165.433 202.57 165.433 202.644 165.444C202.79 165.444 203.006 165.444 203.287 165.444C204.073 165.456 204.857 165.52 205.634 165.637C206.801 165.804 207.947 166.099 209.051 166.516C210.411 167.029 211.68 167.761 212.805 168.682C213.38 169.167 213.902 169.71 214.363 170.304C214.795 170.853 215.177 171.44 215.504 172.057C216.085 173.091 216.464 174.227 216.621 175.403C216.738 176.198 216.688 177.007 216.475 177.781C216.42 177.99 216.344 178.193 216.25 178.388C216.229 178.462 216.197 178.534 216.156 178.599Z" fill="#F5F5F5"/>
<g opacity="0.4">
<path opacity="0.4" d="M204.1 162.178C207.413 162.784 210.568 164.064 213.369 165.938C216.185 167.81 218.354 170.509 219.578 173.665C220.808 176.833 220.625 181.03 219.329 183.652L223.68 184.014C225.145 179.121 223.553 173.12 220.033 169.289C218.019 167.056 215.562 165.268 212.818 164.04C210.074 162.812 207.105 162.172 204.1 162.159" fill="black"/>
</g>
<path d="M202.71 123.92H164.652C162.428 123.92 160.625 125.725 160.625 127.953V152.839C160.625 155.066 162.428 156.872 164.652 156.872H202.71C204.934 156.872 206.737 155.066 206.737 152.839V127.953C206.737 125.725 204.934 123.92 202.71 123.92Z" fill="#455A64"/>
<path d="M206.737 131.271C206.737 131.341 196.369 131.393 183.585 131.393C170.8 131.393 160.428 131.341 160.428 131.271C160.428 131.2 170.791 131.148 183.585 131.148C196.379 131.148 206.737 131.205 206.737 131.271Z" fill="#263238"/>
<path d="M237.582 159.052C237.582 159.118 223.741 159.175 206.676 159.175C189.611 159.175 175.771 159.118 175.771 159.052C175.771 158.987 189.606 158.93 206.676 158.93C223.746 158.93 237.582 158.987 237.582 159.052Z" fill="#263238"/>
<path d="M237.61 156.872C238.237 156.076 238.624 155.117 238.727 154.108C238.82 152.562 238.116 150.625 236.45 150.625H215.19C213.535 150.625 211.949 151.284 210.779 152.455C209.609 153.626 208.952 155.215 208.952 156.872H237.61Z" fill="#455A64"/>
<path d="M265.643 134.523L261.945 126.801C261.451 125.741 261.37 124.535 261.717 123.418C262.064 122.301 262.815 121.354 263.822 120.762L274.88 114.158C275.456 113.811 276.117 113.627 276.79 113.627H279.179L280.117 129.236L276.438 130.66L278.784 134.457L265.643 134.523Z" fill="#EF8B45"/>
<path d="M279.212 114.21C279.212 114.21 282.995 115.079 283.469 120.917C283.943 126.754 280.132 128.578 280.132 128.578L279.212 114.21Z" fill="#EBEBEB"/>
<path d="M266.934 123.774C266.934 123.774 259.288 127.403 258.354 128.004C257.706 128.418 257.153 129.142 257.66 130.415C258.523 132.582 262.099 130.542 262.099 130.542L269.219 126.98C269.219 126.98 271.955 125.687 270.942 124.066C269.811 122.252 266.934 123.774 266.934 123.774Z" fill="#263238"/>
<path d="M256.111 122.454C256.111 122.454 263.297 123.685 263.907 123.864C264.517 124.042 266.911 125.166 267.033 125.899C267.096 126.861 267.096 127.827 267.033 128.789C267.033 128.789 266.601 129.142 266.329 128.437C266.152 127.75 266.074 127.04 266.099 126.331L264.756 125.814L265.489 127.116L265.611 130.171C265.611 130.171 264.672 130.086 264.494 129.353C264.378 128.847 264.319 128.33 264.315 127.812L263.334 126.98L264.066 127.971L264.315 130.171C264.315 130.171 263.602 130.401 263.377 129.913C263.211 129.279 263.129 128.626 263.133 127.971L260.373 127.008L258.547 128.028L255.675 126.43L256.111 122.454Z" fill="#FFBE9D"/>
<path d="M267.3 112.433C267.3 115.347 265.962 117.706 264.315 117.706C262.668 117.706 261.33 115.356 261.33 112.433C261.33 109.51 262.663 107.16 264.315 107.16C265.967 107.16 267.3 109.51 267.3 112.433Z" fill="#263238"/>
<path d="M264.803 116.057L266.445 121.753C266.745 121.602 266.984 121.353 267.124 121.047C267.263 120.741 267.293 120.396 267.21 120.07C266.797 118.12 266.563 116.733 266.112 115.023C266.056 114.853 264.803 116.057 264.803 116.057" fill="#263238"/>
<g opacity="0.4">
<path opacity="0.4" d="M232.321 184.978C232.161 184.508 231.992 184.038 231.851 183.535C231.71 183.032 231.532 182.595 231.41 182.125C231.221 181.42 231.083 180.702 230.997 179.977C228.228 191.257 232.457 199.214 239.713 199.773C250.32 200.591 263.25 201.183 268.478 199.811C278.01 197.306 281.507 189.344 282.342 188.033C283.178 186.721 290.757 172.842 286.097 159.48C281.436 146.118 273.354 131.929 273.354 131.929L265.643 134.523C265.643 134.523 267.051 141.103 269.29 149.018C271.754 157.699 275.049 171.277 274.861 179.22C274.741 183.995 273.2 188.625 270.435 192.516H235.399C235.399 192.516 234.648 191.764 232.335 184.996" fill="black"/>
</g>
<path d="M157.978 178.966L158.226 176.287L222.187 183.666C223.042 183.767 223.867 184.041 224.612 184.473C225.357 184.905 226.006 185.484 226.52 186.176C227.033 186.868 227.4 187.658 227.597 188.496C227.795 189.335 227.819 190.206 227.669 191.055L227.383 192.676L161.207 183.046C160.247 182.914 159.375 182.416 158.773 181.656C158.171 180.896 157.886 179.932 157.978 178.966V178.966Z" fill="#EF8B45"/>
<g opacity="0.6">
<path opacity="0.6" d="M157.978 178.966L158.226 176.287L222.187 183.666C223.042 183.767 223.867 184.041 224.612 184.473C225.357 184.905 226.006 185.484 226.52 186.176C227.033 186.868 227.4 187.658 227.597 188.496C227.795 189.335 227.819 190.206 227.669 191.055L227.383 192.676L161.207 183.046C160.247 182.914 159.375 182.416 158.773 181.656C158.171 180.896 157.886 179.932 157.978 178.966V178.966Z" fill="black"/>
</g>
<g opacity="0.3">
<path opacity="0.3" d="M282.342 196.883C282.342 196.883 296.422 181.373 299.327 169.181C300.787 169.173 302.245 169.281 303.687 169.505C303.687 169.505 295.361 192.174 282.342 196.883Z" fill="black"/>
</g>
<path d="M299.12 163.719C299.157 163.847 299.182 163.977 299.196 164.109C299.233 164.368 299.308 164.749 299.355 165.242C299.492 166.651 299.456 168.072 299.247 169.472C298.916 171.54 298.284 173.548 297.37 175.432C296.254 177.725 295.01 179.953 293.643 182.106C291.19 186.034 288.434 189.764 285.402 193.263C284.257 194.622 283.309 195.703 282.651 196.445L281.891 197.296C281.805 197.397 281.712 197.493 281.614 197.583C281.684 197.47 281.764 197.365 281.854 197.268L282.581 196.384L285.27 193.155C288.255 189.63 290.984 185.895 293.437 181.979C294.805 179.833 296.059 177.617 297.191 175.338C298.094 173.472 298.726 171.488 299.069 169.444C299.284 168.064 299.346 166.664 299.252 165.27C299.219 164.777 299.158 164.396 299.139 164.133C299.119 163.996 299.113 163.857 299.12 163.719V163.719Z" fill="#263238"/>
<path d="M274.781 196.77C273.975 196.152 273.22 195.47 272.523 194.73C271.772 194.048 271.075 193.308 270.439 192.517C271.999 193.815 273.451 195.237 274.781 196.77V196.77Z" fill="#263238"/>
<path d="M232.991 196.295C233.218 195.571 233.569 194.892 234.028 194.289C234.42 193.639 234.92 193.062 235.507 192.583C235.558 192.634 234.916 193.405 234.23 194.425C233.545 195.445 233.057 196.324 232.991 196.295Z" fill="#263238"/>
<path d="M205.939 205.248C206.709 204.545 207.358 203.72 207.859 202.804C208.384 201.805 208.704 200.71 208.798 199.585C208.94 198.213 208.7 196.828 208.106 195.584C207.511 194.34 206.584 193.284 205.428 192.535C204.496 191.901 203.445 191.461 202.34 191.242C201.315 191.057 200.267 191.043 199.237 191.2C199.303 191.172 199.373 191.151 199.444 191.139C199.648 191.086 199.854 191.045 200.063 191.017C200.831 190.914 201.61 190.933 202.372 191.073C203.509 191.274 204.593 191.708 205.555 192.347C206.757 193.112 207.72 194.2 208.334 195.488C208.947 196.776 209.186 198.21 209.023 199.627C208.915 200.782 208.57 201.902 208.009 202.917C207.64 203.599 207.165 204.218 206.601 204.75C206.454 204.897 206.297 205.033 206.132 205.159C206.072 205.197 206.007 205.227 205.939 205.248V205.248Z" fill="#263238"/>
<path d="M182.571 200.337C182.41 199.596 182.333 198.84 182.341 198.081C182.26 197.325 182.26 196.563 182.341 195.807C182.575 197.305 182.648 198.824 182.557 200.337H182.571Z" fill="#263238"/>
<path d="M184.279 200.342C183.928 198.853 183.735 197.331 183.702 195.802C183.916 196.538 184.053 197.294 184.11 198.058C184.246 198.811 184.303 199.577 184.279 200.342V200.342Z" fill="#263238"/>
<path d="M210.66 156.872C210.66 156.937 202.884 156.994 193.295 156.994C183.707 156.994 175.93 156.937 175.93 156.872C175.93 156.806 183.707 156.75 193.295 156.75C202.884 156.75 210.66 156.801 210.66 156.872Z" fill="#263238"/>
<path d="M185.476 156.848C185.406 156.848 185.354 147.918 185.354 136.93C185.354 125.941 185.387 117.03 185.476 117.03C185.566 117.03 185.598 125.96 185.598 136.953C185.598 147.946 185.542 156.848 185.476 156.848Z" fill="#263238"/>
<path d="M180.694 156.815C180.628 156.815 180.961 147.885 181.44 136.906C181.919 125.927 182.379 117.002 182.426 117.006C182.473 117.011 182.163 125.936 181.684 136.916C181.205 147.895 180.783 156.82 180.694 156.815Z" fill="#263238"/>
<path d="M169.942 211.171C169.866 211.107 169.797 211.036 169.735 210.959C169.613 210.818 169.411 210.616 169.191 210.329C168.542 209.531 167.963 208.679 167.459 207.782C165.76 204.812 164.873 201.446 164.887 198.023C164.901 194.601 165.816 191.242 167.539 188.286C168.048 187.392 168.633 186.545 169.289 185.753C169.515 185.466 169.716 185.283 169.843 185.123C169.97 184.963 170.045 184.912 170.05 184.921C170.003 185.006 169.946 185.085 169.881 185.156C169.768 185.311 169.576 185.518 169.364 185.814C166.957 188.885 165.506 192.599 165.194 196.491C164.882 200.383 165.722 204.281 167.609 207.697C168.095 208.595 168.649 209.455 169.266 210.268C169.472 210.564 169.66 210.776 169.773 210.931C169.885 211.086 169.951 211.161 169.942 211.171Z" fill="#455A64"/>
<path d="M237.178 175.361L237.032 175.634L234.197 180.95L230.236 184.766L238.154 195.322L244.748 194.227C244.748 194.227 244.011 192.718 240.698 192.427L239.445 186.12L244.096 178.9" fill="#455A64"/>
<path d="M230.246 184.78L238.164 195.337L244.758 194.241L243.852 193.372L238.441 193.964L231.091 183.967L230.246 184.78Z" fill="#E0E0E0"/>
<path d="M240.181 189.541C240.144 189.616 239.712 189.461 239.243 189.564C238.773 189.668 238.393 189.936 238.332 189.879C238.271 189.823 238.567 189.381 239.186 189.273C239.806 189.165 240.233 189.48 240.181 189.541Z" fill="#263238"/>
<path d="M239.83 187.999C239.773 188.056 239.412 187.718 238.891 187.699C238.37 187.68 237.952 187.995 237.91 187.934C237.868 187.873 237.943 187.788 238.112 187.652C238.34 187.485 238.618 187.399 238.9 187.407C239.183 187.415 239.455 187.519 239.67 187.703C239.797 187.835 239.83 187.962 239.83 187.999Z" fill="#263238"/>
<path d="M239.525 185.955C239.459 186.007 239.168 185.664 238.685 185.579C238.201 185.494 237.812 185.715 237.746 185.645C237.68 185.574 237.788 185.509 237.962 185.41C238.191 185.288 238.454 185.247 238.71 185.293C238.965 185.339 239.197 185.47 239.37 185.664C239.529 185.814 239.558 185.936 239.525 185.955Z" fill="#263238"/>
<path d="M241.026 184.098C240.956 184.136 240.707 183.793 240.252 183.596C239.797 183.398 239.384 183.426 239.365 183.346C239.346 183.267 239.834 183.074 240.374 183.346C240.914 183.619 241.106 184.075 241.026 184.098Z" fill="#263238"/>
<path d="M241.665 182.6C241.632 182.623 241.374 182.397 240.975 182.003L240.299 181.302C240.146 181.165 240.013 181.007 239.905 180.832C239.873 180.769 239.855 180.701 239.85 180.631C239.845 180.561 239.854 180.49 239.877 180.423C239.903 180.347 239.952 180.281 240.016 180.232C240.081 180.184 240.158 180.156 240.238 180.151C240.478 180.154 240.712 180.229 240.909 180.367C241.081 180.477 241.239 180.608 241.379 180.757C241.612 181.014 241.784 181.321 241.881 181.655C242.004 181.956 242.004 182.294 241.881 182.595C241.833 182.304 241.767 182.017 241.684 181.735C241.569 181.446 241.399 181.182 241.182 180.959C241.053 180.832 240.91 180.722 240.754 180.63C240.605 180.533 240.434 180.473 240.257 180.456C240.232 180.457 240.208 180.465 240.188 180.479C240.168 180.493 240.153 180.513 240.144 180.536C240.119 180.598 240.119 180.667 240.144 180.729C240.236 180.88 240.346 181.019 240.473 181.143L241.116 181.89C241.336 182.096 241.521 182.335 241.665 182.6V182.6Z" fill="#263238"/>
<path d="M241.932 182.754C241.899 182.754 241.867 182.406 242.158 181.95C242.356 181.65 242.645 181.421 242.983 181.298C243.322 181.175 243.69 181.165 244.035 181.269C244.073 181.294 244.105 181.326 244.129 181.364C244.153 181.402 244.169 181.445 244.176 181.49C244.182 181.566 244.166 181.643 244.129 181.711C244.076 181.805 244.008 181.889 243.927 181.96C243.796 182.086 243.655 182.201 243.505 182.303C243.251 182.474 242.972 182.604 242.679 182.688C242.416 182.795 242.127 182.816 241.853 182.749C241.853 182.702 242.158 182.674 242.613 182.491C242.875 182.387 243.123 182.249 243.35 182.082C243.484 181.983 243.609 181.873 243.725 181.753C243.782 181.703 243.831 181.644 243.871 181.579C243.894 181.513 243.871 181.532 243.871 181.518C243.807 181.491 243.738 181.476 243.669 181.476C243.586 181.469 243.503 181.469 243.42 181.476C243.259 181.49 243.101 181.528 242.951 181.589C242.697 181.687 242.473 181.849 242.298 182.059C242.161 182.282 242.039 182.514 241.932 182.754V182.754Z" fill="#263238"/>
<path d="M235.474 183.704C235.5 183.859 235.479 184.018 235.414 184.162C235.35 184.305 235.244 184.426 235.111 184.509C234.978 184.592 234.823 184.634 234.666 184.629C234.509 184.623 234.357 184.572 234.23 184.48C234.102 184.389 234.004 184.261 233.949 184.114C233.894 183.967 233.884 183.807 233.919 183.654C233.955 183.501 234.035 183.362 234.15 183.254C234.265 183.147 234.409 183.076 234.563 183.051C234.771 183.018 234.982 183.068 235.152 183.191C235.323 183.313 235.438 183.497 235.474 183.704V183.704Z" fill="#E0E0E0"/>
<path d="M261.208 180.437L263.325 194.199L280.441 191.651C280.094 190.03 270.754 188.061 270.754 188.061L269.759 179.187L261.208 180.437Z" fill="#455A64"/>
<path d="M265.352 188.108C265.195 188.182 265.07 188.312 265.003 188.472C264.935 188.633 264.929 188.813 264.986 188.977C265.056 189.137 265.183 189.264 265.343 189.333C265.502 189.402 265.682 189.407 265.845 189.349C266.015 189.269 266.148 189.127 266.219 188.953C266.289 188.779 266.292 188.585 266.225 188.409C266.137 188.248 265.989 188.128 265.814 188.075C265.639 188.021 265.45 188.038 265.287 188.122" fill="#E0E0E0"/>
<path d="M263.325 194.199L263.165 192.789L279.634 190.867C279.634 190.867 280.446 191.088 280.441 191.637L263.325 194.199Z" fill="#E0E0E0"/>
<path d="M271.017 187.934C271.017 188.018 270.618 188.117 270.242 188.446C269.867 188.775 269.707 189.161 269.623 189.142C269.538 189.123 269.595 188.615 270.05 188.225C270.505 187.835 271.026 187.854 271.017 187.934Z" fill="#263238"/>
<path d="M272.922 188.409C272.955 188.488 272.612 188.681 272.382 189.081C272.152 189.48 272.124 189.861 272.04 189.87C271.955 189.88 271.833 189.4 272.129 188.93C272.424 188.46 272.908 188.329 272.922 188.409Z" fill="#263238"/>
<path d="M274.265 190.406C274.19 190.439 274.012 190.035 274.157 189.546C274.303 189.057 274.669 188.813 274.716 188.879C274.762 188.945 274.556 189.227 274.439 189.631C274.321 190.035 274.345 190.387 274.265 190.406Z" fill="#263238"/>
<path d="M270.566 185.936C270.566 186.016 270.144 185.96 269.675 186.058C269.205 186.157 268.863 186.369 268.806 186.303C268.75 186.237 269.064 185.885 269.614 185.772C270.163 185.659 270.599 185.861 270.566 185.936Z" fill="#263238"/>
<path d="M269.867 183.963C269.597 184.08 269.3 184.123 269.008 184.085C268.691 184.076 268.376 184.029 268.069 183.944C267.883 183.899 267.699 183.841 267.52 183.77C267.416 183.732 267.319 183.677 267.234 183.605C267.17 183.555 267.124 183.485 267.105 183.405C267.086 183.326 267.096 183.242 267.131 183.168C267.164 183.103 267.212 183.047 267.27 183.004C267.329 182.961 267.397 182.932 267.469 182.919C267.576 182.903 267.685 182.903 267.793 182.919C267.983 182.933 268.172 182.968 268.356 183.023C268.664 183.11 268.957 183.245 269.224 183.422C269.693 183.732 269.858 184.024 269.829 184.047C269.801 184.071 269.562 183.845 269.116 183.601C268.854 183.459 268.575 183.353 268.285 183.286C268.117 183.241 267.944 183.215 267.769 183.206C267.581 183.206 267.427 183.206 267.394 183.295C267.361 183.384 267.394 183.337 267.427 183.389C267.491 183.438 267.562 183.478 267.638 183.507C267.799 183.579 267.963 183.644 268.131 183.699C268.416 183.791 268.71 183.855 269.008 183.892C269.296 183.895 269.583 183.919 269.867 183.963V183.963Z" fill="#263238"/>
<path d="M269.768 184.099C269.74 184.099 269.529 183.84 269.416 183.305C269.365 182.993 269.365 182.676 269.416 182.365C269.446 182.176 269.494 181.99 269.557 181.81C269.585 181.692 269.643 181.582 269.725 181.493C269.807 181.403 269.911 181.336 270.026 181.298C270.103 181.288 270.18 181.3 270.25 181.332C270.32 181.365 270.379 181.416 270.421 181.481C270.48 181.576 270.525 181.679 270.557 181.787C270.614 181.974 270.643 182.169 270.641 182.365C270.641 182.692 270.561 183.015 270.407 183.305C270.139 183.775 269.806 183.949 269.796 183.92C269.787 183.892 270.026 183.681 270.219 183.215C270.331 182.948 270.382 182.659 270.369 182.369C270.364 182.201 270.334 182.035 270.28 181.876C270.228 181.697 270.139 181.561 270.073 181.589C270.008 181.617 269.862 181.758 269.815 181.913C269.752 182.075 269.703 182.241 269.67 182.412C269.616 182.701 269.604 182.997 269.632 183.291C269.674 183.77 269.81 184.08 269.768 184.099Z" fill="#263238"/>
<path d="M247.742 148.111L233.066 180.136L242.758 185.965L263.052 147.429" fill="#263238"/>
<path d="M271.947 186.693L261.419 188.385L255.116 150.719L223.976 152.98C223.152 153.037 222.325 152.959 221.526 152.749C212.782 150.348 213.965 139.181 214.81 137.39L257.899 136.154C260.157 136.088 262.359 136.859 264.084 138.319C265.81 139.778 266.936 141.824 267.249 144.064L271.947 186.693Z" fill="#263238"/>
<path d="M214.373 139.157L214.528 123.234C214.528 123.234 212.477 112.894 211.867 108.809C210.928 102.492 209.633 99.4892 219.967 95.0007L222.23 94.1265L225.726 94.1735C229.894 94.4884 234.287 98.2625 234.39 100.753L238.422 136.647L214.373 139.157Z" fill="#EF8B45"/>
<path d="M215.021 98.6997C215.021 98.6997 212.101 104.988 212.674 110.718L223.548 121.17C225.984 123.887 229.035 125.043 232.935 125.278L255.435 127.741L256.059 121.847L234.667 115.775C233.813 115.615 233.386 114.727 232.733 114.153L215.021 98.6997Z" fill="#EF8B45"/>
<path d="M213.261 100.514C213.387 100.393 213.533 100.294 213.693 100.222C214.156 100.018 214.646 99.8804 215.147 99.8135C215.952 99.6813 216.774 99.6813 217.579 99.8135C217.827 99.8587 218.068 99.9411 218.292 100.058C218.521 100.202 218.742 100.359 218.954 100.528C219.386 100.866 219.822 101.256 220.268 101.679C221.169 102.521 222.023 103.588 223.023 104.669C224.023 105.75 225.116 106.911 226.308 108.128C227.5 109.345 228.782 110.619 230.152 111.935C230.842 112.593 231.56 113.26 232.306 113.914C232.686 114.224 233.062 114.59 233.423 114.933C233.764 115.286 234.194 115.54 234.667 115.667V115.667L256.102 121.73L256.2 121.758V121.861C256.158 122.28 256.106 122.726 256.059 123.182C255.895 124.747 255.731 126.298 255.59 127.755V127.877H255.468L245.931 126.815L241.425 126.322L237.112 125.884C235.704 125.729 234.348 125.57 233.029 125.377C231.741 125.218 230.473 124.924 229.246 124.498C228.116 124.067 227.046 123.49 226.064 122.782C225.125 122.12 224.243 121.429 223.431 120.747C220.216 118.003 217.856 115.544 216.218 113.871C215.406 113.03 214.781 112.367 214.364 111.916L213.894 111.399L213.739 111.216C213.739 111.216 213.8 111.267 213.913 111.38C214.026 111.493 214.19 111.667 214.382 111.883L216.26 113.81C217.917 115.46 220.296 117.899 223.516 120.62C224.328 121.293 225.196 121.979 226.139 122.632C227.115 123.325 228.175 123.891 229.293 124.315C230.511 124.731 231.77 125.017 233.048 125.17C234.367 125.358 235.728 125.518 237.126 125.668L241.44 126.091L245.945 126.585L255.473 127.623L255.336 127.732C255.491 126.275 255.656 124.724 255.806 123.154C255.857 122.684 255.904 122.251 255.947 121.833L256.036 121.965L234.634 115.878C234.112 115.748 233.637 115.473 233.264 115.084C232.884 114.722 232.541 114.384 232.151 114.059C231.396 113.401 230.687 112.729 229.997 112.071C228.627 110.75 227.35 109.467 226.163 108.245C224.975 107.023 223.886 105.858 222.877 104.763C221.868 103.668 221.042 102.605 220.151 101.764C219.74 101.357 219.308 100.972 218.855 100.613C218.651 100.441 218.434 100.283 218.208 100.143C217.995 100.027 217.765 99.9458 217.527 99.9028C216.735 99.7576 215.925 99.7449 215.129 99.8652C214.63 99.9212 214.142 100.046 213.678 100.237C213.532 100.318 213.393 100.411 213.261 100.514Z" fill="#263238"/>
<path d="M218.879 80.3133L219.967 95.8233C220.054 97.0427 220.599 98.1839 221.493 99.0169C222.386 99.8498 223.562 100.313 224.783 100.312V100.312C225.443 100.312 226.096 100.176 226.702 99.9136C227.308 99.6507 227.853 99.2662 228.304 98.7838C228.756 98.3014 229.103 97.7313 229.326 97.1089C229.548 96.4865 229.641 95.825 229.598 95.1653C229.5 93.6895 229.415 92.4816 229.415 92.4816C229.415 92.4816 233.17 91.8988 233.207 88.1435C233.235 85.9768 232.86 81.0606 232.541 77.2912C232.436 76.0599 231.872 74.9132 230.962 74.079C230.051 73.2448 228.861 72.7841 227.627 72.7886H225.36C224.437 72.8447 223.534 73.0854 222.705 73.4965C221.877 73.9075 221.138 74.4806 220.534 75.1819C219.93 75.8832 219.473 76.6986 219.188 77.5799C218.904 78.4612 218.798 79.3906 218.879 80.3133V80.3133Z" fill="#FFBE9D"/>
<path d="M229.42 92.4207C227.69 92.4533 225.99 91.9707 224.534 91.0342C224.534 91.0342 225.689 93.732 229.429 93.3842L229.42 92.4207Z" fill="#EB996E"/>
<path d="M231.701 82.1085C231.702 82.2482 231.649 82.3829 231.553 82.4839C231.456 82.5849 231.324 82.6441 231.185 82.649C231.117 82.6555 231.049 82.6483 230.985 82.6281C230.92 82.6078 230.86 82.5748 230.809 82.531C230.757 82.4872 230.715 82.4335 230.684 82.373C230.654 82.3126 230.636 82.2466 230.631 82.179C230.63 82.0388 230.683 81.9036 230.779 81.8019C230.875 81.7002 231.007 81.6399 231.147 81.6338C231.283 81.6234 231.418 81.6676 231.522 81.7566C231.626 81.8455 231.69 81.9721 231.701 82.1085V82.1085Z" fill="#263238"/>
<path d="M231.898 81.0509C231.828 81.1214 231.429 80.8206 230.847 80.8206C230.265 80.8206 229.852 81.112 229.786 81.0415C229.721 80.971 229.824 80.8817 230.012 80.7501C230.259 80.5761 230.554 80.484 230.857 80.4869C231.157 80.4862 231.45 80.5817 231.692 80.7595C231.852 80.8911 231.927 81.018 231.898 81.0509Z" fill="#263238"/>
<path d="M226.294 82.1085C226.296 82.2486 226.243 82.384 226.147 82.4852C226.05 82.5865 225.917 82.6453 225.777 82.649C225.71 82.6555 225.642 82.6483 225.578 82.6281C225.513 82.6078 225.453 82.5748 225.402 82.531C225.35 82.4872 225.308 82.4335 225.277 82.373C225.247 82.3126 225.228 82.2466 225.224 82.179C225.222 82.0388 225.275 81.9036 225.372 81.8019C225.468 81.7002 225.6 81.6399 225.74 81.6338C225.876 81.6234 226.011 81.6676 226.115 81.7566C226.219 81.8455 226.283 81.9721 226.294 82.1085V82.1085Z" fill="#263238"/>
<path d="M226.219 81.1593C226.153 81.2298 225.749 80.929 225.167 80.929C224.585 80.929 224.172 81.2204 224.111 81.1499C224.05 81.0794 224.144 80.9901 224.332 80.8585C224.579 80.6845 224.875 80.5924 225.177 80.5953C225.477 80.5932 225.769 80.6871 226.012 80.8632C226.219 80.9995 226.27 81.1264 226.219 81.1593Z" fill="#263238"/>
<path d="M228.326 85.4362C228.631 85.3409 228.946 85.2841 229.265 85.267C229.41 85.267 229.551 85.22 229.574 85.1213C229.59 84.9687 229.555 84.8153 229.476 84.6842L229.035 83.5656C228.63 82.6163 228.304 81.6354 228.059 80.6328C228.535 81.5478 228.94 82.4985 229.269 83.4763L229.682 84.6043C229.776 84.7815 229.805 84.9863 229.762 85.1824C229.741 85.2347 229.707 85.2813 229.665 85.3188C229.623 85.3562 229.573 85.3835 229.518 85.3986C229.437 85.4196 229.353 85.4306 229.269 85.4315C228.956 85.4728 228.639 85.4743 228.326 85.4362Z" fill="#263238"/>
<path d="M226.632 85.8355C226.726 85.8355 226.726 86.4559 227.261 86.8977C227.796 87.3395 228.463 87.2737 228.467 87.3677C228.472 87.4617 228.317 87.4852 228.036 87.4946C227.67 87.4988 227.314 87.374 227.031 87.1421C226.766 86.9162 226.598 86.5963 226.562 86.2491C226.52 86.0094 226.59 85.8308 226.632 85.8355Z" fill="#263238"/>
<path d="M226.384 78.8988C226.327 79.0539 225.755 78.9834 225.079 79.0633C224.403 79.1432 223.854 79.3312 223.765 79.1902C223.676 79.0492 223.821 78.974 224.042 78.8236C224.335 78.6362 224.668 78.5189 225.013 78.4806C225.359 78.4423 225.709 78.4841 226.036 78.6027C226.285 78.7014 226.412 78.8236 226.384 78.8988Z" fill="#263238"/>
<path d="M231.682 79.3825C231.584 79.5141 231.185 79.3825 230.711 79.3825C230.237 79.3825 229.828 79.4671 229.734 79.3308C229.64 79.1945 229.758 79.1334 229.936 79.0112C230.171 78.857 230.449 78.7813 230.729 78.795C231.008 78.8009 231.279 78.8928 231.504 79.0582C231.673 79.1851 231.729 79.3167 231.682 79.3825Z" fill="#263238"/>
<path d="M220.141 83.1332C220.075 83.105 217.564 82.3671 217.649 84.9333C217.733 87.4995 220.282 86.8885 220.286 86.8133C220.291 86.7381 220.141 83.1332 220.141 83.1332Z" fill="#FFBE9D"/>
<path d="M219.47 85.8684C219.47 85.8684 219.428 85.9013 219.353 85.9389C219.245 85.9797 219.127 85.9797 219.019 85.9389C218.852 85.8391 218.713 85.6964 218.618 85.5255C218.523 85.3546 218.476 85.1615 218.48 84.966C218.466 84.7464 218.501 84.5264 218.583 84.3221C218.604 84.2409 218.645 84.166 218.701 84.1038C218.758 84.0416 218.828 83.9939 218.907 83.9649C218.958 83.9504 219.013 83.9542 219.062 83.9757C219.11 83.9971 219.15 84.0348 219.174 84.0824C219.212 84.1529 219.198 84.2046 219.212 84.2093C219.226 84.214 219.264 84.1623 219.24 84.0589C219.224 83.9944 219.186 83.9377 219.132 83.8991C219.096 83.8738 219.056 83.8558 219.013 83.8461C218.971 83.8365 218.927 83.8353 218.883 83.8427C218.776 83.8638 218.675 83.9132 218.593 83.9859C218.51 84.0586 218.449 84.1519 218.414 84.2563C218.311 84.4814 218.266 84.7285 218.283 84.9754C218.276 85.2041 218.338 85.4295 218.46 85.6228C218.582 85.8162 218.759 85.9688 218.968 86.0611C219.037 86.0794 219.109 86.0817 219.179 86.0678C219.249 86.054 219.315 86.0244 219.371 85.9812C219.47 85.9295 219.479 85.8731 219.47 85.8684Z" fill="#EB996E"/>
<path d="M218.709 83.044C218.953 83.0282 219.197 83.0788 219.414 83.1905C219.631 83.3022 219.815 83.4709 219.944 83.6785C220.108 84.0451 220.146 84.4587 220.31 84.8253C220.381 85.0137 220.51 85.1743 220.679 85.2835C220.848 85.3926 221.048 85.4445 221.249 85.4316C221.382 85.3898 221.501 85.3134 221.595 85.2102C221.689 85.107 221.754 84.9806 221.784 84.8441C221.838 84.571 221.838 84.29 221.784 84.0169C221.633 82.8184 221.385 81.634 221.338 80.4261C221.237 79.2142 221.501 77.9999 222.093 76.9387C222.394 76.413 222.831 75.9785 223.358 75.6815C223.885 75.3844 224.483 75.2358 225.088 75.2514C225.886 75.3172 226.613 75.7214 227.406 75.8436C227.877 75.9053 228.356 75.8591 228.806 75.7085C229.257 75.5579 229.667 75.3067 230.006 74.9741C230.156 74.8478 230.313 74.7302 230.476 74.6216C230.466 74.3378 230.373 74.0633 230.208 73.832C228.636 72.375 225.811 71.952 223.736 72.4925C222.682 72.7525 221.698 73.239 220.851 73.9184C220.004 74.5977 219.315 75.4535 218.831 76.4264C217.94 78.3722 218.203 81.0747 218.695 83.044" fill="#263238"/>
<path d="M232.584 76.7084C232.584 76.7084 222.756 73.5406 218.504 82.057C218.175 80.9859 217.961 79.8831 217.865 78.767C217.865 78.0056 218.335 73.4607 222.99 72.0319C222.99 72.0507 230.026 69.3623 232.584 76.7084Z" fill="#EF8B45"/>
<path d="M224.135 76.9197C224.31 77.2023 224.548 77.4404 224.83 77.6152C225.112 77.79 225.431 77.8966 225.762 77.9267C226.092 77.9568 226.425 77.9095 226.734 77.7886C227.043 77.6676 227.32 77.4764 227.543 77.2299C227.64 77.4747 227.811 77.6828 228.032 77.8251C228.253 77.9674 228.514 78.0367 228.776 78.0232C229.039 78.0097 229.291 77.9141 229.496 77.7499C229.702 77.5857 229.851 77.3611 229.922 77.1077C230.185 77.4023 230.504 77.6406 230.861 77.808C231.045 77.8863 231.248 77.9062 231.444 77.8651C231.639 77.8239 231.818 77.7236 231.954 77.5777C232.066 77.4075 232.12 77.2054 232.107 77.0019C232.095 76.7985 232.016 76.6047 231.884 76.4497C231.618 76.1411 231.274 75.9091 230.889 75.7776C229.724 75.2651 228.445 75.0705 227.181 75.2136C225.911 75.3665 224.747 76.0005 223.929 76.9855" fill="#263238"/>
<g opacity="0.4">
<path opacity="0.4" d="M232.584 76.7085C231.764 75.8498 230.643 75.3442 229.458 75.2985C226.557 75.1716 221.132 76.8025 218.504 82.0665C218.175 80.9955 217.961 79.8927 217.865 78.7765C217.865 78.0151 218.335 73.4702 222.99 72.0414C222.99 72.0508 230.026 69.3624 232.584 76.7085Z" fill="black"/>
</g>
<path d="M218.911 81.0604C220.401 78.8379 222.355 76.965 224.637 75.5708C226.899 74.1608 230.635 72.7508 233.207 72.074C233.97 71.8215 234.778 71.7365 235.577 71.8249C235.975 71.8754 236.351 72.037 236.661 72.2914C236.972 72.5457 237.204 72.8825 237.332 73.2631C237.577 74.236 235.854 75.7353 235.042 76.3228C234.25 76.8534 233.429 77.3398 232.583 77.7798C232.583 77.7798 232.606 75.975 229.725 75.6037C225.806 75.1008 218.911 81.0604 218.911 81.0604Z" fill="#EF8B45"/>
<g opacity="0.3">
<path opacity="0.3" d="M215.452 113.044C216.466 115.493 217.489 118.515 218.958 120.719C220.427 122.923 222.389 124.883 224.829 125.889C227.899 127.177 231.527 127.384 234.577 126.068C234.826 125.96 235.314 125.823 235.267 125.555C235.267 125.555 234.258 125.438 233.944 125.386C227.782 124.362 227.11 123.61 224.158 121.26C222.318 119.807 218.24 115.403 215.452 113.044Z" fill="black"/>
</g>
<path d="M235.052 130.876C234.99 131.077 234.903 131.27 234.794 131.449C234.52 131.958 234.186 132.431 233.799 132.859C232.493 134.23 230.85 135.234 229.035 135.769C227.227 136.284 225.359 136.564 223.478 136.601C222.76 136.629 222.178 136.633 221.779 136.633C221.571 136.642 221.362 136.633 221.155 136.605C221.358 136.558 221.566 136.535 221.775 136.535L223.469 136.427C225.329 136.341 227.173 136.041 228.965 135.534C230.749 135.002 232.372 134.033 233.686 132.714C234.199 132.146 234.656 131.531 235.052 130.876Z" fill="#263238"/>
<path d="M261.602 189.508C261.582 189.462 261.569 189.413 261.565 189.362C261.565 189.254 261.518 189.109 261.48 188.93C261.41 188.535 261.307 187.99 261.18 187.266C260.922 185.8 260.56 183.708 260.11 181.128C259.232 175.93 258.021 168.772 256.684 160.866C256.088 157.285 255.52 153.863 254.999 150.738L255.121 150.837L241.646 151.809L237.779 152.073L236.746 152.134H236.484H236.39H236.479L236.746 152.101L237.774 152.007L241.637 151.678L255.102 150.602H255.205V150.705C255.731 153.83 256.308 157.252 256.909 160.829C258.218 168.739 259.401 175.902 260.265 181.105C260.678 183.69 261.016 185.805 261.255 187.252L261.508 188.93C261.537 189.109 261.555 189.254 261.569 189.362C261.586 189.409 261.597 189.458 261.602 189.508V189.508Z" fill="#455A64"/>
<path d="M258.274 147.363C258.317 147.42 257.495 148.125 256.566 149.074C255.637 150.023 254.942 150.855 254.886 150.808C255.751 149.427 256.908 148.251 258.274 147.363V147.363Z" fill="#455A64"/>
<path d="M229.505 95.4898C229.505 95.4898 229.533 95.5415 229.561 95.6449C229.608 95.7979 229.638 95.9555 229.65 96.1149C229.705 96.6949 229.628 97.2798 229.425 97.8257C229.122 98.6416 228.582 99.3485 227.876 99.8561C226.994 100.461 225.933 100.746 224.868 100.664C223.807 100.592 222.79 100.21 221.944 99.5647C221.262 99.0399 220.696 98.3789 220.282 97.6236C220.002 97.1206 219.787 96.5835 219.644 96.0256C219.597 95.8282 219.564 95.6731 219.55 95.5556C219.536 95.4381 219.55 95.3911 219.55 95.3911C219.768 96.1325 220.065 96.8479 220.437 97.5249C220.862 98.2415 221.421 98.8688 222.085 99.372C222.905 99.9801 223.882 100.339 224.901 100.406C225.913 100.484 226.922 100.221 227.768 99.6587C228.444 99.1804 228.968 98.5182 229.279 97.7505C229.492 97.2307 229.593 96.6717 229.575 96.1102C229.542 95.7154 229.505 95.4992 229.505 95.4898Z" fill="#263238"/>
<path d="M236.127 116.015C236.073 115.863 236.039 115.705 236.023 115.545C235.972 115.173 235.911 114.722 235.836 114.2C235.681 113.002 235.479 111.46 235.258 109.754C235.038 108.048 234.878 106.464 234.789 105.299C234.737 104.73 234.705 104.265 234.686 103.945C234.663 103.78 234.663 103.612 234.686 103.447C234.735 103.6 234.768 103.757 234.784 103.917C234.836 104.288 234.897 104.735 234.967 105.261C235.118 106.459 235.31 108.001 235.521 109.707C235.732 111.413 235.916 112.997 236.028 114.158C236.08 114.731 236.117 115.192 236.141 115.516C236.156 115.682 236.151 115.85 236.127 116.015V116.015Z" fill="#263238"/>
</svg>
