<svg width="19" height="22" viewBox="0 0 19 22" fill="none" xmlns="http://www.w3.org/2000/svg">
<path d="M4.98532 7.98289V5.98722C4.98532 4.66401 5.51101 3.39499 6.44674 2.45934C7.38247 1.52369 8.65159 0.998047 9.97491 0.998047C11.2982 0.998047 12.5674 1.52369 13.5031 2.45934C14.4388 3.39499 14.9645 4.66401 14.9645 5.98722V7.98289H17.9583C18.2229 7.98289 18.4767 8.08802 18.6639 8.27515C18.851 8.46228 18.9562 8.71608 18.9562 8.98072V20.9547C18.9562 21.2194 18.851 21.4732 18.6639 21.6603C18.4767 21.8474 18.2229 21.9526 17.9583 21.9526H1.99157C1.72691 21.9526 1.47308 21.8474 1.28594 21.6603C1.09879 21.4732 0.993652 21.2194 0.993652 20.9547V8.98072C0.993652 8.71608 1.09879 8.46228 1.28594 8.27515C1.47308 8.08802 1.72691 7.98289 1.99157 7.98289H4.98532ZM4.98532 9.97856H2.98949V19.9569H16.9603V9.97856H14.9645V11.9742H12.9687V9.97856H6.98116V11.9742H4.98532V9.97856ZM6.98116 7.98289H12.9687V5.98722C12.9687 5.19329 12.6533 4.43188 12.0918 3.87049C11.5304 3.3091 10.7689 2.99372 9.97491 2.99372C9.18092 2.99372 8.41945 3.3091 7.85801 3.87049C7.29657 4.43188 6.98116 5.19329 6.98116 5.98722V7.98289Z" fill="#27272E"/>
</svg>
