<svg width="15" height="15" viewBox="0 0 15 15" fill="none" xmlns="http://www.w3.org/2000/svg">
<path fill-rule="evenodd" clip-rule="evenodd" d="M3.9187 14.7739H0.924805V5.79297H3.9187V14.7739Z" fill="white"/>
<path fill-rule="evenodd" clip-rule="evenodd" d="M2.41285 3.79736H2.39584C1.5024 3.79736 0.924805 3.1318 0.924805 2.30002C0.924805 1.45065 1.51999 0.803711 2.43039 0.803711C3.34079 0.803711 3.90143 1.45065 3.9187 2.30002C3.9187 3.1318 3.34079 3.79736 2.41285 3.79736Z" fill="white"/>
<path fill-rule="evenodd" clip-rule="evenodd" d="M14.8956 14.7737H11.9539V10.0792C11.9539 8.90009 11.5281 8.09547 10.4632 8.09547C9.65041 8.09547 9.1663 8.6379 8.95368 9.16181C8.87589 9.34957 8.8568 9.61118 8.8568 9.87342V14.7739H5.91455C5.91455 14.7739 5.95333 6.82262 5.91455 5.99925H8.8568V7.24211C9.24726 6.64464 9.94657 5.79297 11.5085 5.79297C13.4444 5.79297 14.8958 7.04736 14.8958 9.74256L14.8956 14.7737Z" fill="white"/>
</svg>
